%TF.GenerationSoftware,KiCad,Pcbnew,7.0.9*%
%TF.CreationDate,2023-11-15T19:03:46-05:00*%
%TF.ProjectId,SB2_ACOND_CONN,5342325f-4143-44f4-9e44-5f434f4e4e2e,rev?*%
%TF.SameCoordinates,Original*%
%TF.FileFunction,Soldermask,Bot*%
%TF.FilePolarity,Negative*%
%FSLAX46Y46*%
G04 Gerber Fmt 4.6, Leading zero omitted, Abs format (unit mm)*
G04 Created by KiCad (PCBNEW 7.0.9) date 2023-11-15 19:03:46*
%MOMM*%
%LPD*%
G01*
G04 APERTURE LIST*
G04 Aperture macros list*
%AMRoundRect*
0 Rectangle with rounded corners*
0 $1 Rounding radius*
0 $2 $3 $4 $5 $6 $7 $8 $9 X,Y pos of 4 corners*
0 Add a 4 corners polygon primitive as box body*
4,1,4,$2,$3,$4,$5,$6,$7,$8,$9,$2,$3,0*
0 Add four circle primitives for the rounded corners*
1,1,$1+$1,$2,$3*
1,1,$1+$1,$4,$5*
1,1,$1+$1,$6,$7*
1,1,$1+$1,$8,$9*
0 Add four rect primitives between the rounded corners*
20,1,$1+$1,$2,$3,$4,$5,0*
20,1,$1+$1,$4,$5,$6,$7,0*
20,1,$1+$1,$6,$7,$8,$9,0*
20,1,$1+$1,$8,$9,$2,$3,0*%
G04 Aperture macros list end*
%ADD10C,2.200000*%
%ADD11RoundRect,0.250000X-0.725000X0.600000X-0.725000X-0.600000X0.725000X-0.600000X0.725000X0.600000X0*%
%ADD12O,1.950000X1.700000*%
%ADD13R,1.700000X1.700000*%
%ADD14O,1.700000X1.700000*%
%ADD15RoundRect,0.250000X0.750000X-0.600000X0.750000X0.600000X-0.750000X0.600000X-0.750000X-0.600000X0*%
%ADD16O,2.000000X1.700000*%
%ADD17RoundRect,0.250000X-0.450000X0.350000X-0.450000X-0.350000X0.450000X-0.350000X0.450000X0.350000X0*%
%ADD18R,0.900000X2.000000*%
%ADD19R,1.330000X1.330000*%
%ADD20C,2.000000*%
G04 APERTURE END LIST*
D10*
%TO.C,H2*%
X92430000Y-122440000D03*
%TD*%
D11*
%TO.C,JH1*%
X55070000Y-71340000D03*
D12*
X55070000Y-73840000D03*
X55070000Y-76340000D03*
X55070000Y-78840000D03*
X55070000Y-81340000D03*
X55070000Y-83840000D03*
X55070000Y-86340000D03*
X55070000Y-88840000D03*
%TD*%
D13*
%TO.C,J6*%
X59200000Y-121240000D03*
D14*
X61740000Y-121240000D03*
X64280000Y-121240000D03*
X66820000Y-121240000D03*
%TD*%
D13*
%TO.C,J3*%
X83850000Y-29230000D03*
D14*
X86390000Y-29230000D03*
X88930000Y-29230000D03*
X91470000Y-29230000D03*
%TD*%
D13*
%TO.C,J2*%
X53520000Y-59480000D03*
D14*
X53520000Y-56940000D03*
X56060000Y-59480000D03*
X56060000Y-56940000D03*
%TD*%
D10*
%TO.C,H1*%
X52560000Y-122430000D03*
%TD*%
D13*
%TO.C,J4*%
X86350000Y-112550000D03*
D14*
X86350000Y-110010000D03*
X86350000Y-107470000D03*
X86350000Y-104930000D03*
X86350000Y-102390000D03*
X86350000Y-99850000D03*
X86350000Y-97310000D03*
X86350000Y-94770000D03*
%TD*%
D15*
%TO.C,J1*%
X91020000Y-86960000D03*
D16*
X91020000Y-84460000D03*
%TD*%
D13*
%TO.C,J5*%
X53150000Y-27900000D03*
D14*
X53150000Y-30440000D03*
X53150000Y-32980000D03*
X53150000Y-35520000D03*
X53150000Y-38060000D03*
X53150000Y-40600000D03*
X53150000Y-43140000D03*
X53150000Y-45680000D03*
%TD*%
D17*
%TO.C,R8*%
X77986000Y-76222400D03*
X77986000Y-78222400D03*
%TD*%
%TO.C,R7*%
X81338800Y-76120800D03*
X81338800Y-78120800D03*
%TD*%
D18*
%TO.C,IC1*%
X86480000Y-65020000D03*
X85210000Y-65020000D03*
X83940000Y-65020000D03*
X82670000Y-65020000D03*
X81400000Y-65020000D03*
X80130000Y-65020000D03*
X78860000Y-65020000D03*
X77590000Y-65020000D03*
X76320000Y-65020000D03*
X75050000Y-65020000D03*
X73780000Y-65020000D03*
X72510000Y-65020000D03*
X71240000Y-65020000D03*
X69970000Y-65020000D03*
X68700000Y-65020000D03*
X67430000Y-65020000D03*
X66160000Y-65020000D03*
X64890000Y-65020000D03*
X63620000Y-65020000D03*
X63620000Y-48020000D03*
X64890000Y-48020000D03*
X66160000Y-48020000D03*
X67430000Y-48020000D03*
X68700000Y-48020000D03*
X69970000Y-48020000D03*
X71240000Y-48020000D03*
X72510000Y-48020000D03*
X73780000Y-48020000D03*
X75050000Y-48020000D03*
X76320000Y-48020000D03*
X77590000Y-48020000D03*
X78860000Y-48020000D03*
X80130000Y-48020000D03*
X81400000Y-48020000D03*
X82670000Y-48020000D03*
X83940000Y-48020000D03*
X85210000Y-48020000D03*
X86480000Y-48020000D03*
D19*
X80815000Y-59355000D03*
X78980000Y-59355000D03*
X77145000Y-59355000D03*
X77145000Y-57520000D03*
X77145000Y-55685000D03*
X78980000Y-55685000D03*
X80815000Y-55685000D03*
X80815000Y-57520000D03*
X78980000Y-57520000D03*
%TD*%
D17*
%TO.C,R9*%
X74582400Y-76273200D03*
X74582400Y-78273200D03*
%TD*%
%TO.C,R6*%
X84590000Y-76070000D03*
X84590000Y-78070000D03*
%TD*%
D20*
X70300000Y-45068900D03*
X84690000Y-53700000D03*
X58390000Y-41760000D03*
X77720000Y-103400000D03*
X78737800Y-34339700D03*
X86280000Y-68720000D03*
X73170000Y-62470000D03*
X84880500Y-58160000D03*
X63800000Y-68030000D03*
X67029800Y-45665900D03*
X70520000Y-52110000D03*
X73288100Y-89441900D03*
X86350000Y-117740000D03*
X52390000Y-63280000D03*
X59860000Y-71740000D03*
X61740000Y-97115200D03*
X64418900Y-92867100D03*
M02*
