%TF.GenerationSoftware,KiCad,Pcbnew,7.0.9*%
%TF.CreationDate,2023-11-15T19:03:46-05:00*%
%TF.ProjectId,SB2_ACOND_CONN,5342325f-4143-44f4-9e44-5f434f4e4e2e,rev?*%
%TF.SameCoordinates,Original*%
%TF.FileFunction,Legend,Top*%
%TF.FilePolarity,Positive*%
%FSLAX46Y46*%
G04 Gerber Fmt 4.6, Leading zero omitted, Abs format (unit mm)*
G04 Created by KiCad (PCBNEW 7.0.9) date 2023-11-15 19:03:46*
%MOMM*%
%LPD*%
G01*
G04 APERTURE LIST*
%ADD10C,0.150000*%
%ADD11C,0.120000*%
G04 APERTURE END LIST*
D10*
X88228095Y-122954819D02*
X88228095Y-121954819D01*
X88228095Y-122431009D02*
X88799523Y-122431009D01*
X88799523Y-122954819D02*
X88799523Y-121954819D01*
X89228095Y-122050057D02*
X89275714Y-122002438D01*
X89275714Y-122002438D02*
X89370952Y-121954819D01*
X89370952Y-121954819D02*
X89609047Y-121954819D01*
X89609047Y-121954819D02*
X89704285Y-122002438D01*
X89704285Y-122002438D02*
X89751904Y-122050057D01*
X89751904Y-122050057D02*
X89799523Y-122145295D01*
X89799523Y-122145295D02*
X89799523Y-122240533D01*
X89799523Y-122240533D02*
X89751904Y-122383390D01*
X89751904Y-122383390D02*
X89180476Y-122954819D01*
X89180476Y-122954819D02*
X89799523Y-122954819D01*
X58074819Y-80947142D02*
X58789104Y-80947142D01*
X58789104Y-80947142D02*
X58931961Y-80994761D01*
X58931961Y-80994761D02*
X59027200Y-81089999D01*
X59027200Y-81089999D02*
X59074819Y-81232856D01*
X59074819Y-81232856D02*
X59074819Y-81328094D01*
X59074819Y-80470951D02*
X58074819Y-80470951D01*
X58551009Y-80470951D02*
X58551009Y-79899523D01*
X59074819Y-79899523D02*
X58074819Y-79899523D01*
X59074819Y-78899523D02*
X59074819Y-79470951D01*
X59074819Y-79185237D02*
X58074819Y-79185237D01*
X58074819Y-79185237D02*
X58217676Y-79280475D01*
X58217676Y-79280475D02*
X58312914Y-79375713D01*
X58312914Y-79375713D02*
X58360533Y-79470951D01*
X81653333Y-36124819D02*
X81320000Y-35648628D01*
X81081905Y-36124819D02*
X81081905Y-35124819D01*
X81081905Y-35124819D02*
X81462857Y-35124819D01*
X81462857Y-35124819D02*
X81558095Y-35172438D01*
X81558095Y-35172438D02*
X81605714Y-35220057D01*
X81605714Y-35220057D02*
X81653333Y-35315295D01*
X81653333Y-35315295D02*
X81653333Y-35458152D01*
X81653333Y-35458152D02*
X81605714Y-35553390D01*
X81605714Y-35553390D02*
X81558095Y-35601009D01*
X81558095Y-35601009D02*
X81462857Y-35648628D01*
X81462857Y-35648628D02*
X81081905Y-35648628D01*
X82558095Y-35124819D02*
X82081905Y-35124819D01*
X82081905Y-35124819D02*
X82034286Y-35601009D01*
X82034286Y-35601009D02*
X82081905Y-35553390D01*
X82081905Y-35553390D02*
X82177143Y-35505771D01*
X82177143Y-35505771D02*
X82415238Y-35505771D01*
X82415238Y-35505771D02*
X82510476Y-35553390D01*
X82510476Y-35553390D02*
X82558095Y-35601009D01*
X82558095Y-35601009D02*
X82605714Y-35696247D01*
X82605714Y-35696247D02*
X82605714Y-35934342D01*
X82605714Y-35934342D02*
X82558095Y-36029580D01*
X82558095Y-36029580D02*
X82510476Y-36077200D01*
X82510476Y-36077200D02*
X82415238Y-36124819D01*
X82415238Y-36124819D02*
X82177143Y-36124819D01*
X82177143Y-36124819D02*
X82081905Y-36077200D01*
X82081905Y-36077200D02*
X82034286Y-36029580D01*
X58256666Y-118184819D02*
X58256666Y-118899104D01*
X58256666Y-118899104D02*
X58209047Y-119041961D01*
X58209047Y-119041961D02*
X58113809Y-119137200D01*
X58113809Y-119137200D02*
X57970952Y-119184819D01*
X57970952Y-119184819D02*
X57875714Y-119184819D01*
X59161428Y-118184819D02*
X58970952Y-118184819D01*
X58970952Y-118184819D02*
X58875714Y-118232438D01*
X58875714Y-118232438D02*
X58828095Y-118280057D01*
X58828095Y-118280057D02*
X58732857Y-118422914D01*
X58732857Y-118422914D02*
X58685238Y-118613390D01*
X58685238Y-118613390D02*
X58685238Y-118994342D01*
X58685238Y-118994342D02*
X58732857Y-119089580D01*
X58732857Y-119089580D02*
X58780476Y-119137200D01*
X58780476Y-119137200D02*
X58875714Y-119184819D01*
X58875714Y-119184819D02*
X59066190Y-119184819D01*
X59066190Y-119184819D02*
X59161428Y-119137200D01*
X59161428Y-119137200D02*
X59209047Y-119089580D01*
X59209047Y-119089580D02*
X59256666Y-118994342D01*
X59256666Y-118994342D02*
X59256666Y-118756247D01*
X59256666Y-118756247D02*
X59209047Y-118661009D01*
X59209047Y-118661009D02*
X59161428Y-118613390D01*
X59161428Y-118613390D02*
X59066190Y-118565771D01*
X59066190Y-118565771D02*
X58875714Y-118565771D01*
X58875714Y-118565771D02*
X58780476Y-118613390D01*
X58780476Y-118613390D02*
X58732857Y-118661009D01*
X58732857Y-118661009D02*
X58685238Y-118756247D01*
X80534819Y-29563333D02*
X81249104Y-29563333D01*
X81249104Y-29563333D02*
X81391961Y-29610952D01*
X81391961Y-29610952D02*
X81487200Y-29706190D01*
X81487200Y-29706190D02*
X81534819Y-29849047D01*
X81534819Y-29849047D02*
X81534819Y-29944285D01*
X80534819Y-29182380D02*
X80534819Y-28563333D01*
X80534819Y-28563333D02*
X80915771Y-28896666D01*
X80915771Y-28896666D02*
X80915771Y-28753809D01*
X80915771Y-28753809D02*
X80963390Y-28658571D01*
X80963390Y-28658571D02*
X81011009Y-28610952D01*
X81011009Y-28610952D02*
X81106247Y-28563333D01*
X81106247Y-28563333D02*
X81344342Y-28563333D01*
X81344342Y-28563333D02*
X81439580Y-28610952D01*
X81439580Y-28610952D02*
X81487200Y-28658571D01*
X81487200Y-28658571D02*
X81534819Y-28753809D01*
X81534819Y-28753809D02*
X81534819Y-29039523D01*
X81534819Y-29039523D02*
X81487200Y-29134761D01*
X81487200Y-29134761D02*
X81439580Y-29182380D01*
X81287142Y-39394819D02*
X80953809Y-38918628D01*
X80715714Y-39394819D02*
X80715714Y-38394819D01*
X80715714Y-38394819D02*
X81096666Y-38394819D01*
X81096666Y-38394819D02*
X81191904Y-38442438D01*
X81191904Y-38442438D02*
X81239523Y-38490057D01*
X81239523Y-38490057D02*
X81287142Y-38585295D01*
X81287142Y-38585295D02*
X81287142Y-38728152D01*
X81287142Y-38728152D02*
X81239523Y-38823390D01*
X81239523Y-38823390D02*
X81191904Y-38871009D01*
X81191904Y-38871009D02*
X81096666Y-38918628D01*
X81096666Y-38918628D02*
X80715714Y-38918628D01*
X82239523Y-39394819D02*
X81668095Y-39394819D01*
X81953809Y-39394819D02*
X81953809Y-38394819D01*
X81953809Y-38394819D02*
X81858571Y-38537676D01*
X81858571Y-38537676D02*
X81763333Y-38632914D01*
X81763333Y-38632914D02*
X81668095Y-38680533D01*
X82858571Y-38394819D02*
X82953809Y-38394819D01*
X82953809Y-38394819D02*
X83049047Y-38442438D01*
X83049047Y-38442438D02*
X83096666Y-38490057D01*
X83096666Y-38490057D02*
X83144285Y-38585295D01*
X83144285Y-38585295D02*
X83191904Y-38775771D01*
X83191904Y-38775771D02*
X83191904Y-39013866D01*
X83191904Y-39013866D02*
X83144285Y-39204342D01*
X83144285Y-39204342D02*
X83096666Y-39299580D01*
X83096666Y-39299580D02*
X83049047Y-39347200D01*
X83049047Y-39347200D02*
X82953809Y-39394819D01*
X82953809Y-39394819D02*
X82858571Y-39394819D01*
X82858571Y-39394819D02*
X82763333Y-39347200D01*
X82763333Y-39347200D02*
X82715714Y-39299580D01*
X82715714Y-39299580D02*
X82668095Y-39204342D01*
X82668095Y-39204342D02*
X82620476Y-39013866D01*
X82620476Y-39013866D02*
X82620476Y-38775771D01*
X82620476Y-38775771D02*
X82668095Y-38585295D01*
X82668095Y-38585295D02*
X82715714Y-38490057D01*
X82715714Y-38490057D02*
X82763333Y-38442438D01*
X82763333Y-38442438D02*
X82858571Y-38394819D01*
X77666667Y-58577200D02*
X77809524Y-58624819D01*
X77809524Y-58624819D02*
X78047619Y-58624819D01*
X78047619Y-58624819D02*
X78142857Y-58577200D01*
X78142857Y-58577200D02*
X78190476Y-58529580D01*
X78190476Y-58529580D02*
X78238095Y-58434342D01*
X78238095Y-58434342D02*
X78238095Y-58339104D01*
X78238095Y-58339104D02*
X78190476Y-58243866D01*
X78190476Y-58243866D02*
X78142857Y-58196247D01*
X78142857Y-58196247D02*
X78047619Y-58148628D01*
X78047619Y-58148628D02*
X77857143Y-58101009D01*
X77857143Y-58101009D02*
X77761905Y-58053390D01*
X77761905Y-58053390D02*
X77714286Y-58005771D01*
X77714286Y-58005771D02*
X77666667Y-57910533D01*
X77666667Y-57910533D02*
X77666667Y-57815295D01*
X77666667Y-57815295D02*
X77714286Y-57720057D01*
X77714286Y-57720057D02*
X77761905Y-57672438D01*
X77761905Y-57672438D02*
X77857143Y-57624819D01*
X77857143Y-57624819D02*
X78095238Y-57624819D01*
X78095238Y-57624819D02*
X78238095Y-57672438D01*
X78571429Y-57624819D02*
X78809524Y-58624819D01*
X78809524Y-58624819D02*
X79000000Y-57910533D01*
X79000000Y-57910533D02*
X79190476Y-58624819D01*
X79190476Y-58624819D02*
X79428572Y-57624819D01*
X79761905Y-57720057D02*
X79809524Y-57672438D01*
X79809524Y-57672438D02*
X79904762Y-57624819D01*
X79904762Y-57624819D02*
X80142857Y-57624819D01*
X80142857Y-57624819D02*
X80238095Y-57672438D01*
X80238095Y-57672438D02*
X80285714Y-57720057D01*
X80285714Y-57720057D02*
X80333333Y-57815295D01*
X80333333Y-57815295D02*
X80333333Y-57910533D01*
X80333333Y-57910533D02*
X80285714Y-58053390D01*
X80285714Y-58053390D02*
X79714286Y-58624819D01*
X79714286Y-58624819D02*
X80333333Y-58624819D01*
X75141580Y-51471466D02*
X75189200Y-51519085D01*
X75189200Y-51519085D02*
X75236819Y-51661942D01*
X75236819Y-51661942D02*
X75236819Y-51757180D01*
X75236819Y-51757180D02*
X75189200Y-51900037D01*
X75189200Y-51900037D02*
X75093961Y-51995275D01*
X75093961Y-51995275D02*
X74998723Y-52042894D01*
X74998723Y-52042894D02*
X74808247Y-52090513D01*
X74808247Y-52090513D02*
X74665390Y-52090513D01*
X74665390Y-52090513D02*
X74474914Y-52042894D01*
X74474914Y-52042894D02*
X74379676Y-51995275D01*
X74379676Y-51995275D02*
X74284438Y-51900037D01*
X74284438Y-51900037D02*
X74236819Y-51757180D01*
X74236819Y-51757180D02*
X74236819Y-51661942D01*
X74236819Y-51661942D02*
X74284438Y-51519085D01*
X74284438Y-51519085D02*
X74332057Y-51471466D01*
X74332057Y-51090513D02*
X74284438Y-51042894D01*
X74284438Y-51042894D02*
X74236819Y-50947656D01*
X74236819Y-50947656D02*
X74236819Y-50709561D01*
X74236819Y-50709561D02*
X74284438Y-50614323D01*
X74284438Y-50614323D02*
X74332057Y-50566704D01*
X74332057Y-50566704D02*
X74427295Y-50519085D01*
X74427295Y-50519085D02*
X74522533Y-50519085D01*
X74522533Y-50519085D02*
X74665390Y-50566704D01*
X74665390Y-50566704D02*
X75236819Y-51138132D01*
X75236819Y-51138132D02*
X75236819Y-50519085D01*
X75357333Y-58210419D02*
X75024000Y-57734228D01*
X74785905Y-58210419D02*
X74785905Y-57210419D01*
X74785905Y-57210419D02*
X75166857Y-57210419D01*
X75166857Y-57210419D02*
X75262095Y-57258038D01*
X75262095Y-57258038D02*
X75309714Y-57305657D01*
X75309714Y-57305657D02*
X75357333Y-57400895D01*
X75357333Y-57400895D02*
X75357333Y-57543752D01*
X75357333Y-57543752D02*
X75309714Y-57638990D01*
X75309714Y-57638990D02*
X75262095Y-57686609D01*
X75262095Y-57686609D02*
X75166857Y-57734228D01*
X75166857Y-57734228D02*
X74785905Y-57734228D01*
X76214476Y-57543752D02*
X76214476Y-58210419D01*
X75976381Y-57162800D02*
X75738286Y-57877085D01*
X75738286Y-57877085D02*
X76357333Y-57877085D01*
X50504819Y-57063333D02*
X51219104Y-57063333D01*
X51219104Y-57063333D02*
X51361961Y-57110952D01*
X51361961Y-57110952D02*
X51457200Y-57206190D01*
X51457200Y-57206190D02*
X51504819Y-57349047D01*
X51504819Y-57349047D02*
X51504819Y-57444285D01*
X50600057Y-56634761D02*
X50552438Y-56587142D01*
X50552438Y-56587142D02*
X50504819Y-56491904D01*
X50504819Y-56491904D02*
X50504819Y-56253809D01*
X50504819Y-56253809D02*
X50552438Y-56158571D01*
X50552438Y-56158571D02*
X50600057Y-56110952D01*
X50600057Y-56110952D02*
X50695295Y-56063333D01*
X50695295Y-56063333D02*
X50790533Y-56063333D01*
X50790533Y-56063333D02*
X50933390Y-56110952D01*
X50933390Y-56110952D02*
X51504819Y-56682380D01*
X51504819Y-56682380D02*
X51504819Y-56063333D01*
X62094233Y-77714819D02*
X61760900Y-77238628D01*
X61522805Y-77714819D02*
X61522805Y-76714819D01*
X61522805Y-76714819D02*
X61903757Y-76714819D01*
X61903757Y-76714819D02*
X61998995Y-76762438D01*
X61998995Y-76762438D02*
X62046614Y-76810057D01*
X62046614Y-76810057D02*
X62094233Y-76905295D01*
X62094233Y-76905295D02*
X62094233Y-77048152D01*
X62094233Y-77048152D02*
X62046614Y-77143390D01*
X62046614Y-77143390D02*
X61998995Y-77191009D01*
X61998995Y-77191009D02*
X61903757Y-77238628D01*
X61903757Y-77238628D02*
X61522805Y-77238628D01*
X63046614Y-77714819D02*
X62475186Y-77714819D01*
X62760900Y-77714819D02*
X62760900Y-76714819D01*
X62760900Y-76714819D02*
X62665662Y-76857676D01*
X62665662Y-76857676D02*
X62570424Y-76952914D01*
X62570424Y-76952914D02*
X62475186Y-77000533D01*
X80763333Y-55069580D02*
X80715714Y-55117200D01*
X80715714Y-55117200D02*
X80572857Y-55164819D01*
X80572857Y-55164819D02*
X80477619Y-55164819D01*
X80477619Y-55164819D02*
X80334762Y-55117200D01*
X80334762Y-55117200D02*
X80239524Y-55021961D01*
X80239524Y-55021961D02*
X80191905Y-54926723D01*
X80191905Y-54926723D02*
X80144286Y-54736247D01*
X80144286Y-54736247D02*
X80144286Y-54593390D01*
X80144286Y-54593390D02*
X80191905Y-54402914D01*
X80191905Y-54402914D02*
X80239524Y-54307676D01*
X80239524Y-54307676D02*
X80334762Y-54212438D01*
X80334762Y-54212438D02*
X80477619Y-54164819D01*
X80477619Y-54164819D02*
X80572857Y-54164819D01*
X80572857Y-54164819D02*
X80715714Y-54212438D01*
X80715714Y-54212438D02*
X80763333Y-54260057D01*
X81620476Y-54498152D02*
X81620476Y-55164819D01*
X81382381Y-54117200D02*
X81144286Y-54831485D01*
X81144286Y-54831485D02*
X81763333Y-54831485D01*
X69664819Y-72440594D02*
X68664819Y-72440594D01*
X68664819Y-72440594D02*
X68664819Y-72202499D01*
X68664819Y-72202499D02*
X68712438Y-72059642D01*
X68712438Y-72059642D02*
X68807676Y-71964404D01*
X68807676Y-71964404D02*
X68902914Y-71916785D01*
X68902914Y-71916785D02*
X69093390Y-71869166D01*
X69093390Y-71869166D02*
X69236247Y-71869166D01*
X69236247Y-71869166D02*
X69426723Y-71916785D01*
X69426723Y-71916785D02*
X69521961Y-71964404D01*
X69521961Y-71964404D02*
X69617200Y-72059642D01*
X69617200Y-72059642D02*
X69664819Y-72202499D01*
X69664819Y-72202499D02*
X69664819Y-72440594D01*
X68760057Y-71488213D02*
X68712438Y-71440594D01*
X68712438Y-71440594D02*
X68664819Y-71345356D01*
X68664819Y-71345356D02*
X68664819Y-71107261D01*
X68664819Y-71107261D02*
X68712438Y-71012023D01*
X68712438Y-71012023D02*
X68760057Y-70964404D01*
X68760057Y-70964404D02*
X68855295Y-70916785D01*
X68855295Y-70916785D02*
X68950533Y-70916785D01*
X68950533Y-70916785D02*
X69093390Y-70964404D01*
X69093390Y-70964404D02*
X69664819Y-71535832D01*
X69664819Y-71535832D02*
X69664819Y-70916785D01*
X79459580Y-51399166D02*
X79507200Y-51446785D01*
X79507200Y-51446785D02*
X79554819Y-51589642D01*
X79554819Y-51589642D02*
X79554819Y-51684880D01*
X79554819Y-51684880D02*
X79507200Y-51827737D01*
X79507200Y-51827737D02*
X79411961Y-51922975D01*
X79411961Y-51922975D02*
X79316723Y-51970594D01*
X79316723Y-51970594D02*
X79126247Y-52018213D01*
X79126247Y-52018213D02*
X78983390Y-52018213D01*
X78983390Y-52018213D02*
X78792914Y-51970594D01*
X78792914Y-51970594D02*
X78697676Y-51922975D01*
X78697676Y-51922975D02*
X78602438Y-51827737D01*
X78602438Y-51827737D02*
X78554819Y-51684880D01*
X78554819Y-51684880D02*
X78554819Y-51589642D01*
X78554819Y-51589642D02*
X78602438Y-51446785D01*
X78602438Y-51446785D02*
X78650057Y-51399166D01*
X78554819Y-51065832D02*
X78554819Y-50446785D01*
X78554819Y-50446785D02*
X78935771Y-50780118D01*
X78935771Y-50780118D02*
X78935771Y-50637261D01*
X78935771Y-50637261D02*
X78983390Y-50542023D01*
X78983390Y-50542023D02*
X79031009Y-50494404D01*
X79031009Y-50494404D02*
X79126247Y-50446785D01*
X79126247Y-50446785D02*
X79364342Y-50446785D01*
X79364342Y-50446785D02*
X79459580Y-50494404D01*
X79459580Y-50494404D02*
X79507200Y-50542023D01*
X79507200Y-50542023D02*
X79554819Y-50637261D01*
X79554819Y-50637261D02*
X79554819Y-50922975D01*
X79554819Y-50922975D02*
X79507200Y-51018213D01*
X79507200Y-51018213D02*
X79459580Y-51065832D01*
X67584819Y-36676666D02*
X67108628Y-37009999D01*
X67584819Y-37248094D02*
X66584819Y-37248094D01*
X66584819Y-37248094D02*
X66584819Y-36867142D01*
X66584819Y-36867142D02*
X66632438Y-36771904D01*
X66632438Y-36771904D02*
X66680057Y-36724285D01*
X66680057Y-36724285D02*
X66775295Y-36676666D01*
X66775295Y-36676666D02*
X66918152Y-36676666D01*
X66918152Y-36676666D02*
X67013390Y-36724285D01*
X67013390Y-36724285D02*
X67061009Y-36771904D01*
X67061009Y-36771904D02*
X67108628Y-36867142D01*
X67108628Y-36867142D02*
X67108628Y-37248094D01*
X66680057Y-36295713D02*
X66632438Y-36248094D01*
X66632438Y-36248094D02*
X66584819Y-36152856D01*
X66584819Y-36152856D02*
X66584819Y-35914761D01*
X66584819Y-35914761D02*
X66632438Y-35819523D01*
X66632438Y-35819523D02*
X66680057Y-35771904D01*
X66680057Y-35771904D02*
X66775295Y-35724285D01*
X66775295Y-35724285D02*
X66870533Y-35724285D01*
X66870533Y-35724285D02*
X67013390Y-35771904D01*
X67013390Y-35771904D02*
X67584819Y-36343332D01*
X67584819Y-36343332D02*
X67584819Y-35724285D01*
X68869580Y-36836666D02*
X68917200Y-36884285D01*
X68917200Y-36884285D02*
X68964819Y-37027142D01*
X68964819Y-37027142D02*
X68964819Y-37122380D01*
X68964819Y-37122380D02*
X68917200Y-37265237D01*
X68917200Y-37265237D02*
X68821961Y-37360475D01*
X68821961Y-37360475D02*
X68726723Y-37408094D01*
X68726723Y-37408094D02*
X68536247Y-37455713D01*
X68536247Y-37455713D02*
X68393390Y-37455713D01*
X68393390Y-37455713D02*
X68202914Y-37408094D01*
X68202914Y-37408094D02*
X68107676Y-37360475D01*
X68107676Y-37360475D02*
X68012438Y-37265237D01*
X68012438Y-37265237D02*
X67964819Y-37122380D01*
X67964819Y-37122380D02*
X67964819Y-37027142D01*
X67964819Y-37027142D02*
X68012438Y-36884285D01*
X68012438Y-36884285D02*
X68060057Y-36836666D01*
X68964819Y-35884285D02*
X68964819Y-36455713D01*
X68964819Y-36169999D02*
X67964819Y-36169999D01*
X67964819Y-36169999D02*
X68107676Y-36265237D01*
X68107676Y-36265237D02*
X68202914Y-36360475D01*
X68202914Y-36360475D02*
X68250533Y-36455713D01*
X55428095Y-122814819D02*
X55428095Y-121814819D01*
X55428095Y-122291009D02*
X55999523Y-122291009D01*
X55999523Y-122814819D02*
X55999523Y-121814819D01*
X56999523Y-122814819D02*
X56428095Y-122814819D01*
X56713809Y-122814819D02*
X56713809Y-121814819D01*
X56713809Y-121814819D02*
X56618571Y-121957676D01*
X56618571Y-121957676D02*
X56523333Y-122052914D01*
X56523333Y-122052914D02*
X56428095Y-122100533D01*
X86016666Y-114334819D02*
X86016666Y-115049104D01*
X86016666Y-115049104D02*
X85969047Y-115191961D01*
X85969047Y-115191961D02*
X85873809Y-115287200D01*
X85873809Y-115287200D02*
X85730952Y-115334819D01*
X85730952Y-115334819D02*
X85635714Y-115334819D01*
X86921428Y-114668152D02*
X86921428Y-115334819D01*
X86683333Y-114287200D02*
X86445238Y-115001485D01*
X86445238Y-115001485D02*
X87064285Y-115001485D01*
X87674819Y-86043333D02*
X88389104Y-86043333D01*
X88389104Y-86043333D02*
X88531961Y-86090952D01*
X88531961Y-86090952D02*
X88627200Y-86186190D01*
X88627200Y-86186190D02*
X88674819Y-86329047D01*
X88674819Y-86329047D02*
X88674819Y-86424285D01*
X88674819Y-85043333D02*
X88674819Y-85614761D01*
X88674819Y-85329047D02*
X87674819Y-85329047D01*
X87674819Y-85329047D02*
X87817676Y-85424285D01*
X87817676Y-85424285D02*
X87912914Y-85519523D01*
X87912914Y-85519523D02*
X87960533Y-85614761D01*
X72866667Y-44597200D02*
X73009524Y-44644819D01*
X73009524Y-44644819D02*
X73247619Y-44644819D01*
X73247619Y-44644819D02*
X73342857Y-44597200D01*
X73342857Y-44597200D02*
X73390476Y-44549580D01*
X73390476Y-44549580D02*
X73438095Y-44454342D01*
X73438095Y-44454342D02*
X73438095Y-44359104D01*
X73438095Y-44359104D02*
X73390476Y-44263866D01*
X73390476Y-44263866D02*
X73342857Y-44216247D01*
X73342857Y-44216247D02*
X73247619Y-44168628D01*
X73247619Y-44168628D02*
X73057143Y-44121009D01*
X73057143Y-44121009D02*
X72961905Y-44073390D01*
X72961905Y-44073390D02*
X72914286Y-44025771D01*
X72914286Y-44025771D02*
X72866667Y-43930533D01*
X72866667Y-43930533D02*
X72866667Y-43835295D01*
X72866667Y-43835295D02*
X72914286Y-43740057D01*
X72914286Y-43740057D02*
X72961905Y-43692438D01*
X72961905Y-43692438D02*
X73057143Y-43644819D01*
X73057143Y-43644819D02*
X73295238Y-43644819D01*
X73295238Y-43644819D02*
X73438095Y-43692438D01*
X73771429Y-43644819D02*
X74009524Y-44644819D01*
X74009524Y-44644819D02*
X74200000Y-43930533D01*
X74200000Y-43930533D02*
X74390476Y-44644819D01*
X74390476Y-44644819D02*
X74628572Y-43644819D01*
X75533333Y-44644819D02*
X74961905Y-44644819D01*
X75247619Y-44644819D02*
X75247619Y-43644819D01*
X75247619Y-43644819D02*
X75152381Y-43787676D01*
X75152381Y-43787676D02*
X75057143Y-43882914D01*
X75057143Y-43882914D02*
X74961905Y-43930533D01*
X65944819Y-71462866D02*
X65468628Y-71796199D01*
X65944819Y-72034294D02*
X64944819Y-72034294D01*
X64944819Y-72034294D02*
X64944819Y-71653342D01*
X64944819Y-71653342D02*
X64992438Y-71558104D01*
X64992438Y-71558104D02*
X65040057Y-71510485D01*
X65040057Y-71510485D02*
X65135295Y-71462866D01*
X65135295Y-71462866D02*
X65278152Y-71462866D01*
X65278152Y-71462866D02*
X65373390Y-71510485D01*
X65373390Y-71510485D02*
X65421009Y-71558104D01*
X65421009Y-71558104D02*
X65468628Y-71653342D01*
X65468628Y-71653342D02*
X65468628Y-72034294D01*
X64944819Y-71129532D02*
X64944819Y-70510485D01*
X64944819Y-70510485D02*
X65325771Y-70843818D01*
X65325771Y-70843818D02*
X65325771Y-70700961D01*
X65325771Y-70700961D02*
X65373390Y-70605723D01*
X65373390Y-70605723D02*
X65421009Y-70558104D01*
X65421009Y-70558104D02*
X65516247Y-70510485D01*
X65516247Y-70510485D02*
X65754342Y-70510485D01*
X65754342Y-70510485D02*
X65849580Y-70558104D01*
X65849580Y-70558104D02*
X65897200Y-70605723D01*
X65897200Y-70605723D02*
X65944819Y-70700961D01*
X65944819Y-70700961D02*
X65944819Y-70986675D01*
X65944819Y-70986675D02*
X65897200Y-71081913D01*
X65897200Y-71081913D02*
X65849580Y-71129532D01*
X66958405Y-81286419D02*
X66958405Y-80286419D01*
X66958405Y-80286419D02*
X67196500Y-80286419D01*
X67196500Y-80286419D02*
X67339357Y-80334038D01*
X67339357Y-80334038D02*
X67434595Y-80429276D01*
X67434595Y-80429276D02*
X67482214Y-80524514D01*
X67482214Y-80524514D02*
X67529833Y-80714990D01*
X67529833Y-80714990D02*
X67529833Y-80857847D01*
X67529833Y-80857847D02*
X67482214Y-81048323D01*
X67482214Y-81048323D02*
X67434595Y-81143561D01*
X67434595Y-81143561D02*
X67339357Y-81238800D01*
X67339357Y-81238800D02*
X67196500Y-81286419D01*
X67196500Y-81286419D02*
X66958405Y-81286419D01*
X68482214Y-81286419D02*
X67910786Y-81286419D01*
X68196500Y-81286419D02*
X68196500Y-80286419D01*
X68196500Y-80286419D02*
X68101262Y-80429276D01*
X68101262Y-80429276D02*
X68006024Y-80524514D01*
X68006024Y-80524514D02*
X67910786Y-80572133D01*
X55509066Y-29793219D02*
X55509066Y-30507504D01*
X55509066Y-30507504D02*
X55461447Y-30650361D01*
X55461447Y-30650361D02*
X55366209Y-30745600D01*
X55366209Y-30745600D02*
X55223352Y-30793219D01*
X55223352Y-30793219D02*
X55128114Y-30793219D01*
X56461447Y-29793219D02*
X55985257Y-29793219D01*
X55985257Y-29793219D02*
X55937638Y-30269409D01*
X55937638Y-30269409D02*
X55985257Y-30221790D01*
X55985257Y-30221790D02*
X56080495Y-30174171D01*
X56080495Y-30174171D02*
X56318590Y-30174171D01*
X56318590Y-30174171D02*
X56413828Y-30221790D01*
X56413828Y-30221790D02*
X56461447Y-30269409D01*
X56461447Y-30269409D02*
X56509066Y-30364647D01*
X56509066Y-30364647D02*
X56509066Y-30602742D01*
X56509066Y-30602742D02*
X56461447Y-30697980D01*
X56461447Y-30697980D02*
X56413828Y-30745600D01*
X56413828Y-30745600D02*
X56318590Y-30793219D01*
X56318590Y-30793219D02*
X56080495Y-30793219D01*
X56080495Y-30793219D02*
X55985257Y-30745600D01*
X55985257Y-30745600D02*
X55937638Y-30697980D01*
D11*
%TO.C,JH1*%
X57820000Y-68490000D02*
X56570000Y-68490000D01*
X57530000Y-68780000D02*
X51560000Y-68780000D01*
X51560000Y-68780000D02*
X51560000Y-91400000D01*
X57520000Y-68790000D02*
X56770000Y-68790000D01*
X56770000Y-68790000D02*
X56770000Y-70590000D01*
X55270000Y-68790000D02*
X55270000Y-69540000D01*
X55270000Y-69540000D02*
X52320000Y-69540000D01*
X52320000Y-69540000D02*
X52320000Y-80090000D01*
X57820000Y-69740000D02*
X57820000Y-68490000D01*
X57520000Y-70590000D02*
X57520000Y-68790000D01*
X56770000Y-70590000D02*
X57520000Y-70590000D01*
X57520000Y-72090000D02*
X56770000Y-72090000D01*
X56770000Y-72090000D02*
X56770000Y-88090000D01*
X57520000Y-88090000D02*
X57520000Y-72090000D01*
X56770000Y-88090000D02*
X57520000Y-88090000D01*
X57520000Y-89590000D02*
X56770000Y-89590000D01*
X56770000Y-89590000D02*
X56770000Y-91390000D01*
X55270000Y-90640000D02*
X52320000Y-90640000D01*
X52320000Y-90640000D02*
X52320000Y-80090000D01*
X57520000Y-91390000D02*
X57520000Y-89590000D01*
X56770000Y-91390000D02*
X57520000Y-91390000D01*
X55270000Y-91390000D02*
X55270000Y-90640000D01*
X57530000Y-91400000D02*
X57530000Y-68780000D01*
X51560000Y-91400000D02*
X57530000Y-91400000D01*
%TO.C,R5*%
X82047064Y-34755000D02*
X81592936Y-34755000D01*
X82047064Y-33285000D02*
X81592936Y-33285000D01*
%TO.C,J6*%
X60470000Y-122570000D02*
X68150000Y-122570000D01*
X60470000Y-122570000D02*
X60470000Y-119910000D01*
X68150000Y-122570000D02*
X68150000Y-119910000D01*
X57870000Y-121240000D02*
X57870000Y-119910000D01*
X57870000Y-119910000D02*
X59200000Y-119910000D01*
X60470000Y-119910000D02*
X68150000Y-119910000D01*
%TO.C,J3*%
X85120000Y-30560000D02*
X92800000Y-30560000D01*
X85120000Y-30560000D02*
X85120000Y-27900000D01*
X92800000Y-30560000D02*
X92800000Y-27900000D01*
X82520000Y-29230000D02*
X82520000Y-27900000D01*
X82520000Y-27900000D02*
X83850000Y-27900000D01*
X85120000Y-27900000D02*
X92800000Y-27900000D01*
%TO.C,R10*%
X82157064Y-38025000D02*
X81702936Y-38025000D01*
X82157064Y-36555000D02*
X81702936Y-36555000D01*
%TO.C,SW2*%
X75940000Y-58920000D02*
X82060000Y-58920000D01*
X75940000Y-62620000D02*
X75940000Y-58920000D01*
X82060000Y-58920000D02*
X82060000Y-62620000D01*
X82060000Y-62620000D02*
X75940000Y-62620000D01*
%TO.C,C2*%
X75727000Y-51566052D02*
X75727000Y-51043548D01*
X77197000Y-51566052D02*
X77197000Y-51043548D01*
%TO.C,R4*%
X75312936Y-55395000D02*
X75767064Y-55395000D01*
X75312936Y-56865000D02*
X75767064Y-56865000D01*
%TO.C,J2*%
X52190000Y-60810000D02*
X52190000Y-59480000D01*
X53520000Y-60810000D02*
X52190000Y-60810000D01*
X54790000Y-60810000D02*
X57390000Y-60810000D01*
X54790000Y-60810000D02*
X54790000Y-58210000D01*
X57390000Y-60810000D02*
X57390000Y-55610000D01*
X52190000Y-58210000D02*
X52190000Y-55610000D01*
X54790000Y-58210000D02*
X52190000Y-58210000D01*
X52190000Y-55610000D02*
X57390000Y-55610000D01*
%TO.C,R1*%
X62033836Y-78175000D02*
X62487964Y-78175000D01*
X62033836Y-79645000D02*
X62487964Y-79645000D01*
%TO.C,C4*%
X81721248Y-55635000D02*
X82243752Y-55635000D01*
X81721248Y-57105000D02*
X82243752Y-57105000D01*
%TO.C,D2*%
X68525000Y-69242500D02*
X66255000Y-69242500D01*
X66255000Y-69242500D02*
X66255000Y-73302500D01*
X68525000Y-73302500D02*
X68525000Y-69242500D01*
%TO.C,C3*%
X80045000Y-51493752D02*
X80045000Y-50971248D01*
X81515000Y-51493752D02*
X81515000Y-50971248D01*
%TO.C,R2*%
X66215000Y-36282936D02*
X66215000Y-36737064D01*
X64745000Y-36282936D02*
X64745000Y-36737064D01*
%TO.C,C1*%
X69455000Y-36931252D02*
X69455000Y-36408748D01*
X70925000Y-36931252D02*
X70925000Y-36408748D01*
%TO.C,J4*%
X87680000Y-113880000D02*
X86350000Y-113880000D01*
X87680000Y-112550000D02*
X87680000Y-113880000D01*
X87680000Y-111280000D02*
X87680000Y-93440000D01*
X87680000Y-111280000D02*
X85020000Y-111280000D01*
X87680000Y-93440000D02*
X85020000Y-93440000D01*
X85020000Y-111280000D02*
X85020000Y-93440000D01*
%TO.C,J1*%
X91130000Y-89870000D02*
X93630000Y-89870000D01*
X93630000Y-89870000D02*
X93630000Y-87370000D01*
X89310000Y-89570000D02*
X93330000Y-89570000D01*
X91020000Y-89570000D02*
X91020000Y-89070000D01*
X91830000Y-89570000D02*
X91830000Y-88570000D01*
X93330000Y-89570000D02*
X93330000Y-81850000D01*
X89810000Y-89070000D02*
X89810000Y-82350000D01*
X91020000Y-89070000D02*
X89810000Y-89070000D01*
X91830000Y-88570000D02*
X93330000Y-88570000D01*
X91830000Y-82850000D02*
X93330000Y-82850000D01*
X89810000Y-82350000D02*
X91020000Y-82350000D01*
X91020000Y-82350000D02*
X91020000Y-81850000D01*
X89310000Y-81850000D02*
X89310000Y-89570000D01*
X91830000Y-81850000D02*
X91830000Y-82850000D01*
X93330000Y-81850000D02*
X89310000Y-81850000D01*
%TO.C,SW1*%
X77260000Y-43440000D02*
X71140000Y-43440000D01*
X77260000Y-39740000D02*
X77260000Y-43440000D01*
X71140000Y-43440000D02*
X71140000Y-39740000D01*
X71140000Y-39740000D02*
X77260000Y-39740000D01*
%TO.C,R3*%
X64575000Y-71069136D02*
X64575000Y-71523264D01*
X63105000Y-71069136D02*
X63105000Y-71523264D01*
%TO.C,D1*%
X69902500Y-80045000D02*
X69902500Y-77775000D01*
X69902500Y-77775000D02*
X65842500Y-77775000D01*
X65842500Y-80045000D02*
X69902500Y-80045000D01*
%TO.C,J5*%
X51820000Y-29170000D02*
X51820000Y-47010000D01*
X51820000Y-29170000D02*
X54480000Y-29170000D01*
X51820000Y-47010000D02*
X54480000Y-47010000D01*
X53150000Y-26570000D02*
X54480000Y-26570000D01*
X54480000Y-26570000D02*
X54480000Y-27900000D01*
X54480000Y-29170000D02*
X54480000Y-47010000D01*
%TD*%
M02*
