%TF.GenerationSoftware,KiCad,Pcbnew,7.0.9*%
%TF.CreationDate,2023-11-15T19:03:46-05:00*%
%TF.ProjectId,SB2_ACOND_CONN,5342325f-4143-44f4-9e44-5f434f4e4e2e,rev?*%
%TF.SameCoordinates,Original*%
%TF.FileFunction,Legend,Bot*%
%TF.FilePolarity,Positive*%
%FSLAX46Y46*%
G04 Gerber Fmt 4.6, Leading zero omitted, Abs format (unit mm)*
G04 Created by KiCad (PCBNEW 7.0.9) date 2023-11-15 19:03:46*
%MOMM*%
%LPD*%
G01*
G04 APERTURE LIST*
%ADD10C,0.150000*%
%ADD11C,0.254000*%
%ADD12C,0.120000*%
%ADD13C,0.200000*%
%ADD14C,0.100000*%
G04 APERTURE END LIST*
D10*
X76790819Y-77055733D02*
X76314628Y-76722400D01*
X76790819Y-76484305D02*
X75790819Y-76484305D01*
X75790819Y-76484305D02*
X75790819Y-76865257D01*
X75790819Y-76865257D02*
X75838438Y-76960495D01*
X75838438Y-76960495D02*
X75886057Y-77008114D01*
X75886057Y-77008114D02*
X75981295Y-77055733D01*
X75981295Y-77055733D02*
X76124152Y-77055733D01*
X76124152Y-77055733D02*
X76219390Y-77008114D01*
X76219390Y-77008114D02*
X76267009Y-76960495D01*
X76267009Y-76960495D02*
X76314628Y-76865257D01*
X76314628Y-76865257D02*
X76314628Y-76484305D01*
X76219390Y-77627162D02*
X76171771Y-77531924D01*
X76171771Y-77531924D02*
X76124152Y-77484305D01*
X76124152Y-77484305D02*
X76028914Y-77436686D01*
X76028914Y-77436686D02*
X75981295Y-77436686D01*
X75981295Y-77436686D02*
X75886057Y-77484305D01*
X75886057Y-77484305D02*
X75838438Y-77531924D01*
X75838438Y-77531924D02*
X75790819Y-77627162D01*
X75790819Y-77627162D02*
X75790819Y-77817638D01*
X75790819Y-77817638D02*
X75838438Y-77912876D01*
X75838438Y-77912876D02*
X75886057Y-77960495D01*
X75886057Y-77960495D02*
X75981295Y-78008114D01*
X75981295Y-78008114D02*
X76028914Y-78008114D01*
X76028914Y-78008114D02*
X76124152Y-77960495D01*
X76124152Y-77960495D02*
X76171771Y-77912876D01*
X76171771Y-77912876D02*
X76219390Y-77817638D01*
X76219390Y-77817638D02*
X76219390Y-77627162D01*
X76219390Y-77627162D02*
X76267009Y-77531924D01*
X76267009Y-77531924D02*
X76314628Y-77484305D01*
X76314628Y-77484305D02*
X76409866Y-77436686D01*
X76409866Y-77436686D02*
X76600342Y-77436686D01*
X76600342Y-77436686D02*
X76695580Y-77484305D01*
X76695580Y-77484305D02*
X76743200Y-77531924D01*
X76743200Y-77531924D02*
X76790819Y-77627162D01*
X76790819Y-77627162D02*
X76790819Y-77817638D01*
X76790819Y-77817638D02*
X76743200Y-77912876D01*
X76743200Y-77912876D02*
X76695580Y-77960495D01*
X76695580Y-77960495D02*
X76600342Y-78008114D01*
X76600342Y-78008114D02*
X76409866Y-78008114D01*
X76409866Y-78008114D02*
X76314628Y-77960495D01*
X76314628Y-77960495D02*
X76267009Y-77912876D01*
X76267009Y-77912876D02*
X76219390Y-77817638D01*
X80143619Y-76954133D02*
X79667428Y-76620800D01*
X80143619Y-76382705D02*
X79143619Y-76382705D01*
X79143619Y-76382705D02*
X79143619Y-76763657D01*
X79143619Y-76763657D02*
X79191238Y-76858895D01*
X79191238Y-76858895D02*
X79238857Y-76906514D01*
X79238857Y-76906514D02*
X79334095Y-76954133D01*
X79334095Y-76954133D02*
X79476952Y-76954133D01*
X79476952Y-76954133D02*
X79572190Y-76906514D01*
X79572190Y-76906514D02*
X79619809Y-76858895D01*
X79619809Y-76858895D02*
X79667428Y-76763657D01*
X79667428Y-76763657D02*
X79667428Y-76382705D01*
X79143619Y-77287467D02*
X79143619Y-77954133D01*
X79143619Y-77954133D02*
X80143619Y-77525562D01*
D11*
X70824318Y-55050237D02*
X69554318Y-55050237D01*
X70703365Y-56380714D02*
X70763842Y-56320238D01*
X70763842Y-56320238D02*
X70824318Y-56138809D01*
X70824318Y-56138809D02*
X70824318Y-56017857D01*
X70824318Y-56017857D02*
X70763842Y-55836428D01*
X70763842Y-55836428D02*
X70642889Y-55715476D01*
X70642889Y-55715476D02*
X70521937Y-55654999D01*
X70521937Y-55654999D02*
X70280032Y-55594523D01*
X70280032Y-55594523D02*
X70098603Y-55594523D01*
X70098603Y-55594523D02*
X69856699Y-55654999D01*
X69856699Y-55654999D02*
X69735746Y-55715476D01*
X69735746Y-55715476D02*
X69614794Y-55836428D01*
X69614794Y-55836428D02*
X69554318Y-56017857D01*
X69554318Y-56017857D02*
X69554318Y-56138809D01*
X69554318Y-56138809D02*
X69614794Y-56320238D01*
X69614794Y-56320238D02*
X69675270Y-56380714D01*
X70824318Y-57590238D02*
X70824318Y-56864523D01*
X70824318Y-57227380D02*
X69554318Y-57227380D01*
X69554318Y-57227380D02*
X69735746Y-57106428D01*
X69735746Y-57106428D02*
X69856699Y-56985476D01*
X69856699Y-56985476D02*
X69917175Y-56864523D01*
D10*
X73387219Y-77106533D02*
X72911028Y-76773200D01*
X73387219Y-76535105D02*
X72387219Y-76535105D01*
X72387219Y-76535105D02*
X72387219Y-76916057D01*
X72387219Y-76916057D02*
X72434838Y-77011295D01*
X72434838Y-77011295D02*
X72482457Y-77058914D01*
X72482457Y-77058914D02*
X72577695Y-77106533D01*
X72577695Y-77106533D02*
X72720552Y-77106533D01*
X72720552Y-77106533D02*
X72815790Y-77058914D01*
X72815790Y-77058914D02*
X72863409Y-77011295D01*
X72863409Y-77011295D02*
X72911028Y-76916057D01*
X72911028Y-76916057D02*
X72911028Y-76535105D01*
X73387219Y-77582724D02*
X73387219Y-77773200D01*
X73387219Y-77773200D02*
X73339600Y-77868438D01*
X73339600Y-77868438D02*
X73291980Y-77916057D01*
X73291980Y-77916057D02*
X73149123Y-78011295D01*
X73149123Y-78011295D02*
X72958647Y-78058914D01*
X72958647Y-78058914D02*
X72577695Y-78058914D01*
X72577695Y-78058914D02*
X72482457Y-78011295D01*
X72482457Y-78011295D02*
X72434838Y-77963676D01*
X72434838Y-77963676D02*
X72387219Y-77868438D01*
X72387219Y-77868438D02*
X72387219Y-77677962D01*
X72387219Y-77677962D02*
X72434838Y-77582724D01*
X72434838Y-77582724D02*
X72482457Y-77535105D01*
X72482457Y-77535105D02*
X72577695Y-77487486D01*
X72577695Y-77487486D02*
X72815790Y-77487486D01*
X72815790Y-77487486D02*
X72911028Y-77535105D01*
X72911028Y-77535105D02*
X72958647Y-77582724D01*
X72958647Y-77582724D02*
X73006266Y-77677962D01*
X73006266Y-77677962D02*
X73006266Y-77868438D01*
X73006266Y-77868438D02*
X72958647Y-77963676D01*
X72958647Y-77963676D02*
X72911028Y-78011295D01*
X72911028Y-78011295D02*
X72815790Y-78058914D01*
X83394819Y-76903333D02*
X82918628Y-76570000D01*
X83394819Y-76331905D02*
X82394819Y-76331905D01*
X82394819Y-76331905D02*
X82394819Y-76712857D01*
X82394819Y-76712857D02*
X82442438Y-76808095D01*
X82442438Y-76808095D02*
X82490057Y-76855714D01*
X82490057Y-76855714D02*
X82585295Y-76903333D01*
X82585295Y-76903333D02*
X82728152Y-76903333D01*
X82728152Y-76903333D02*
X82823390Y-76855714D01*
X82823390Y-76855714D02*
X82871009Y-76808095D01*
X82871009Y-76808095D02*
X82918628Y-76712857D01*
X82918628Y-76712857D02*
X82918628Y-76331905D01*
X82394819Y-77760476D02*
X82394819Y-77570000D01*
X82394819Y-77570000D02*
X82442438Y-77474762D01*
X82442438Y-77474762D02*
X82490057Y-77427143D01*
X82490057Y-77427143D02*
X82632914Y-77331905D01*
X82632914Y-77331905D02*
X82823390Y-77284286D01*
X82823390Y-77284286D02*
X83204342Y-77284286D01*
X83204342Y-77284286D02*
X83299580Y-77331905D01*
X83299580Y-77331905D02*
X83347200Y-77379524D01*
X83347200Y-77379524D02*
X83394819Y-77474762D01*
X83394819Y-77474762D02*
X83394819Y-77665238D01*
X83394819Y-77665238D02*
X83347200Y-77760476D01*
X83347200Y-77760476D02*
X83299580Y-77808095D01*
X83299580Y-77808095D02*
X83204342Y-77855714D01*
X83204342Y-77855714D02*
X82966247Y-77855714D01*
X82966247Y-77855714D02*
X82871009Y-77808095D01*
X82871009Y-77808095D02*
X82823390Y-77760476D01*
X82823390Y-77760476D02*
X82775771Y-77665238D01*
X82775771Y-77665238D02*
X82775771Y-77474762D01*
X82775771Y-77474762D02*
X82823390Y-77379524D01*
X82823390Y-77379524D02*
X82871009Y-77331905D01*
X82871009Y-77331905D02*
X82966247Y-77284286D01*
D12*
%TO.C,R8*%
X78721000Y-76995336D02*
X78721000Y-77449464D01*
X77251000Y-76995336D02*
X77251000Y-77449464D01*
%TO.C,R7*%
X82073800Y-76893736D02*
X82073800Y-77347864D01*
X80603800Y-76893736D02*
X80603800Y-77347864D01*
D13*
%TO.C,IC1*%
X86470000Y-67320000D02*
X86470000Y-67320000D01*
X86470000Y-67320000D02*
X86470000Y-67320000D01*
X86470000Y-67220000D02*
X86470000Y-67220000D01*
D14*
X62520000Y-65520000D02*
X62520000Y-65520000D01*
X62520000Y-65520000D02*
X62520000Y-47520000D01*
X87480000Y-65520000D02*
X87480000Y-65520000D01*
X87480000Y-65520000D02*
X93920000Y-65520000D01*
X93920000Y-65520000D02*
X87480000Y-65520000D01*
X93920000Y-65520000D02*
X93920000Y-65520000D01*
X93920000Y-65520000D02*
X93920000Y-65520000D01*
X93920000Y-65520000D02*
X93920000Y-47520000D01*
X62520000Y-47520000D02*
X62520000Y-65520000D01*
X62520000Y-47520000D02*
X62520000Y-47520000D01*
X87480000Y-47520000D02*
X87480000Y-47520000D01*
X87480000Y-47520000D02*
X93920000Y-47520000D01*
X93920000Y-47520000D02*
X93920000Y-65520000D01*
X93920000Y-47520000D02*
X87480000Y-47520000D01*
X93920000Y-47520000D02*
X93920000Y-47520000D01*
X93920000Y-47520000D02*
X93920000Y-47520000D01*
D13*
X86470000Y-67220000D02*
G75*
G03*
X86470000Y-67320000I0J-50000D01*
G01*
X86470000Y-67220000D02*
G75*
G03*
X86470000Y-67320000I0J-50000D01*
G01*
X86470000Y-67320000D02*
G75*
G03*
X86470000Y-67220000I0J50000D01*
G01*
D12*
%TO.C,R9*%
X75317400Y-77046136D02*
X75317400Y-77500264D01*
X73847400Y-77046136D02*
X73847400Y-77500264D01*
%TO.C,R6*%
X85325000Y-76842936D02*
X85325000Y-77297064D01*
X83855000Y-76842936D02*
X83855000Y-77297064D01*
%TD*%
M02*
