%TF.GenerationSoftware,KiCad,Pcbnew,7.0.9*%
%TF.CreationDate,2023-11-15T13:05:46-05:00*%
%TF.ProjectId,SB2_ACOND_CONN,5342325f-4143-44f4-9e44-5f434f4e4e2e,rev?*%
%TF.SameCoordinates,Original*%
%TF.FileFunction,Soldermask,Top*%
%TF.FilePolarity,Negative*%
%FSLAX46Y46*%
G04 Gerber Fmt 4.6, Leading zero omitted, Abs format (unit mm)*
G04 Created by KiCad (PCBNEW 7.0.9) date 2023-11-15 13:05:46*
%MOMM*%
%LPD*%
G01*
G04 APERTURE LIST*
G04 Aperture macros list*
%AMRoundRect*
0 Rectangle with rounded corners*
0 $1 Rounding radius*
0 $2 $3 $4 $5 $6 $7 $8 $9 X,Y pos of 4 corners*
0 Add a 4 corners polygon primitive as box body*
4,1,4,$2,$3,$4,$5,$6,$7,$8,$9,$2,$3,0*
0 Add four circle primitives for the rounded corners*
1,1,$1+$1,$2,$3*
1,1,$1+$1,$4,$5*
1,1,$1+$1,$6,$7*
1,1,$1+$1,$8,$9*
0 Add four rect primitives between the rounded corners*
20,1,$1+$1,$2,$3,$4,$5,0*
20,1,$1+$1,$4,$5,$6,$7,0*
20,1,$1+$1,$6,$7,$8,$9,0*
20,1,$1+$1,$8,$9,$2,$3,0*%
G04 Aperture macros list end*
%ADD10C,2.200000*%
%ADD11R,1.700000X1.700000*%
%ADD12O,1.700000X1.700000*%
%ADD13RoundRect,0.250000X-0.350000X-0.450000X0.350000X-0.450000X0.350000X0.450000X-0.350000X0.450000X0*%
%ADD14R,1.500000X1.500000*%
%ADD15RoundRect,0.250000X0.475000X-0.337500X0.475000X0.337500X-0.475000X0.337500X-0.475000X-0.337500X0*%
%ADD16RoundRect,0.250000X0.450000X-0.350000X0.450000X0.350000X-0.450000X0.350000X-0.450000X-0.350000X0*%
%ADD17R,0.850000X0.850000*%
%ADD18RoundRect,0.250000X-0.450000X0.350000X-0.450000X-0.350000X0.450000X-0.350000X0.450000X0.350000X0*%
%ADD19RoundRect,0.250000X-0.475000X0.337500X-0.475000X-0.337500X0.475000X-0.337500X0.475000X0.337500X0*%
%ADD20RoundRect,0.250001X0.624999X-0.462499X0.624999X0.462499X-0.624999X0.462499X-0.624999X-0.462499X0*%
%ADD21RoundRect,0.250000X-0.725000X0.600000X-0.725000X-0.600000X0.725000X-0.600000X0.725000X0.600000X0*%
%ADD22O,1.950000X1.700000*%
%ADD23RoundRect,0.250000X0.750000X-0.600000X0.750000X0.600000X-0.750000X0.600000X-0.750000X-0.600000X0*%
%ADD24O,2.000000X1.700000*%
%ADD25C,0.800000*%
%ADD26C,1.100000*%
G04 APERTURE END LIST*
D10*
%TO.C,H2*%
X92430000Y-122440000D03*
%TD*%
D11*
%TO.C,J6*%
X92354400Y-75031600D03*
D12*
X92354400Y-77571600D03*
X92354400Y-80111600D03*
X92354400Y-82651600D03*
X92354400Y-85191600D03*
X92354400Y-87731600D03*
X92354400Y-90271600D03*
X92354400Y-92811600D03*
%TD*%
D13*
%TO.C,R5*%
X52543200Y-66497200D03*
X54543200Y-66497200D03*
%TD*%
D11*
%TO.C,J8*%
X54102000Y-114620000D03*
D12*
X54102000Y-112080000D03*
X54102000Y-109540000D03*
X54102000Y-107000000D03*
%TD*%
D11*
%TO.C,J4*%
X52222400Y-45008800D03*
D12*
X52222400Y-42468800D03*
X52222400Y-39928800D03*
X52222400Y-37388800D03*
%TD*%
D13*
%TO.C,R10*%
X52492400Y-70002400D03*
X54492400Y-70002400D03*
%TD*%
D14*
%TO.C,SW2*%
X86817200Y-44856400D03*
X79017200Y-44856400D03*
%TD*%
D15*
%TO.C,C2*%
X80568800Y-36619000D03*
X80568800Y-34544000D03*
%TD*%
D16*
%TO.C,R4*%
X80264000Y-40928800D03*
X80264000Y-38928800D03*
%TD*%
D17*
%TO.C,J2*%
X92303600Y-70713600D03*
%TD*%
D18*
%TO.C,R1*%
X92405200Y-34509200D03*
X92405200Y-36509200D03*
%TD*%
D19*
%TO.C,C4*%
X83515200Y-38738900D03*
X83515200Y-40813900D03*
%TD*%
D20*
%TO.C,D2*%
X76098400Y-63195200D03*
X76098400Y-60220200D03*
%TD*%
D15*
%TO.C,C3*%
X84886800Y-36546700D03*
X84886800Y-34471700D03*
%TD*%
D13*
%TO.C,R2*%
X52289200Y-51054000D03*
X54289200Y-51054000D03*
%TD*%
D21*
%TO.C,JH1*%
X53949600Y-75028400D03*
D22*
X53949600Y-77528400D03*
X53949600Y-80028400D03*
X53949600Y-82528400D03*
X53949600Y-85028400D03*
X53949600Y-87528400D03*
X53949600Y-90028400D03*
X53949600Y-92528400D03*
%TD*%
D15*
%TO.C,C1*%
X56692800Y-48840300D03*
X56692800Y-46765300D03*
%TD*%
D11*
%TO.C,J3*%
X91897200Y-65379600D03*
D12*
X89357200Y-65379600D03*
X91897200Y-62839600D03*
X89357200Y-62839600D03*
X91897200Y-60299600D03*
X89357200Y-60299600D03*
%TD*%
D10*
%TO.C,H1*%
X52560000Y-122430000D03*
%TD*%
D11*
%TO.C,J5*%
X88493600Y-74980800D03*
D12*
X88493600Y-77520800D03*
X88493600Y-80060800D03*
X88493600Y-82600800D03*
X88493600Y-85140800D03*
%TD*%
D23*
%TO.C,J1*%
X91444800Y-51796000D03*
D24*
X91444800Y-49296000D03*
%TD*%
D14*
%TO.C,SW1*%
X54965600Y-61507200D03*
X54965600Y-53707200D03*
%TD*%
D18*
%TO.C,R3*%
X76098400Y-55286400D03*
X76098400Y-57286400D03*
%TD*%
D20*
%TO.C,D1*%
X92405200Y-42178300D03*
X92405200Y-39203300D03*
%TD*%
D11*
%TO.C,J7*%
X92130000Y-117250000D03*
D12*
X92130000Y-114710000D03*
X92130000Y-112170000D03*
X92130000Y-109630000D03*
X92130000Y-107090000D03*
X92130000Y-104550000D03*
X92130000Y-102010000D03*
X92130000Y-99470000D03*
%TD*%
D25*
X56689200Y-50493000D03*
X83007200Y-63347600D03*
X88950800Y-37896800D03*
X78333600Y-43484800D03*
X83058000Y-68783200D03*
X78638400Y-55676800D03*
X64058800Y-60096400D03*
X53800000Y-102940000D03*
X55575200Y-34544000D03*
X66700400Y-91440000D03*
X59490000Y-118590000D03*
X85374604Y-56469404D03*
X89814400Y-57810400D03*
X61061600Y-64820800D03*
X61874400Y-50139600D03*
X77216000Y-102108000D03*
X59334400Y-71170800D03*
X66903600Y-102260400D03*
X63500000Y-41910000D03*
X88442800Y-69291200D03*
X80721200Y-113131600D03*
X70713600Y-51663600D03*
X78028800Y-82397600D03*
X54356000Y-59791600D03*
X68376800Y-36017200D03*
D26*
X78906500Y-35549700D03*
D25*
X78935300Y-37712200D03*
X82854800Y-59144900D03*
X85143100Y-38299000D03*
X84510200Y-42024700D03*
X74620500Y-66671700D03*
X77967500Y-42145800D03*
X69280000Y-77198000D03*
X73475200Y-43044800D03*
X65944500Y-78033500D03*
X67989700Y-49430200D03*
X67672500Y-76179600D03*
X68069800Y-50891600D03*
X86298800Y-54131700D03*
X85736600Y-62251700D03*
X77916700Y-52901000D03*
X86167000Y-65453900D03*
X52492400Y-68511100D03*
X74997700Y-73857700D03*
X52543200Y-65026300D03*
X73596900Y-49430800D03*
X72946500Y-51498300D03*
M02*
