%TF.GenerationSoftware,KiCad,Pcbnew,7.0.9*%
%TF.CreationDate,2023-11-15T13:05:46-05:00*%
%TF.ProjectId,SB2_ACOND_CONN,5342325f-4143-44f4-9e44-5f434f4e4e2e,rev?*%
%TF.SameCoordinates,Original*%
%TF.FileFunction,Copper,L1,Top*%
%TF.FilePolarity,Positive*%
%FSLAX46Y46*%
G04 Gerber Fmt 4.6, Leading zero omitted, Abs format (unit mm)*
G04 Created by KiCad (PCBNEW 7.0.9) date 2023-11-15 13:05:46*
%MOMM*%
%LPD*%
G01*
G04 APERTURE LIST*
G04 Aperture macros list*
%AMRoundRect*
0 Rectangle with rounded corners*
0 $1 Rounding radius*
0 $2 $3 $4 $5 $6 $7 $8 $9 X,Y pos of 4 corners*
0 Add a 4 corners polygon primitive as box body*
4,1,4,$2,$3,$4,$5,$6,$7,$8,$9,$2,$3,0*
0 Add four circle primitives for the rounded corners*
1,1,$1+$1,$2,$3*
1,1,$1+$1,$4,$5*
1,1,$1+$1,$6,$7*
1,1,$1+$1,$8,$9*
0 Add four rect primitives between the rounded corners*
20,1,$1+$1,$2,$3,$4,$5,0*
20,1,$1+$1,$4,$5,$6,$7,0*
20,1,$1+$1,$6,$7,$8,$9,0*
20,1,$1+$1,$8,$9,$2,$3,0*%
G04 Aperture macros list end*
%TA.AperFunction,ComponentPad*%
%ADD10R,1.700000X1.700000*%
%TD*%
%TA.AperFunction,ComponentPad*%
%ADD11O,1.700000X1.700000*%
%TD*%
%TA.AperFunction,SMDPad,CuDef*%
%ADD12RoundRect,0.250000X-0.350000X-0.450000X0.350000X-0.450000X0.350000X0.450000X-0.350000X0.450000X0*%
%TD*%
%TA.AperFunction,SMDPad,CuDef*%
%ADD13R,1.500000X1.500000*%
%TD*%
%TA.AperFunction,SMDPad,CuDef*%
%ADD14RoundRect,0.250000X0.475000X-0.337500X0.475000X0.337500X-0.475000X0.337500X-0.475000X-0.337500X0*%
%TD*%
%TA.AperFunction,SMDPad,CuDef*%
%ADD15RoundRect,0.250000X0.450000X-0.350000X0.450000X0.350000X-0.450000X0.350000X-0.450000X-0.350000X0*%
%TD*%
%TA.AperFunction,ComponentPad*%
%ADD16R,0.850000X0.850000*%
%TD*%
%TA.AperFunction,SMDPad,CuDef*%
%ADD17RoundRect,0.250000X-0.450000X0.350000X-0.450000X-0.350000X0.450000X-0.350000X0.450000X0.350000X0*%
%TD*%
%TA.AperFunction,SMDPad,CuDef*%
%ADD18RoundRect,0.250000X-0.475000X0.337500X-0.475000X-0.337500X0.475000X-0.337500X0.475000X0.337500X0*%
%TD*%
%TA.AperFunction,SMDPad,CuDef*%
%ADD19RoundRect,0.250001X0.624999X-0.462499X0.624999X0.462499X-0.624999X0.462499X-0.624999X-0.462499X0*%
%TD*%
%TA.AperFunction,ComponentPad*%
%ADD20RoundRect,0.250000X-0.725000X0.600000X-0.725000X-0.600000X0.725000X-0.600000X0.725000X0.600000X0*%
%TD*%
%TA.AperFunction,ComponentPad*%
%ADD21O,1.950000X1.700000*%
%TD*%
%TA.AperFunction,ComponentPad*%
%ADD22RoundRect,0.250000X0.750000X-0.600000X0.750000X0.600000X-0.750000X0.600000X-0.750000X-0.600000X0*%
%TD*%
%TA.AperFunction,ComponentPad*%
%ADD23O,2.000000X1.700000*%
%TD*%
%TA.AperFunction,ViaPad*%
%ADD24C,0.800000*%
%TD*%
%TA.AperFunction,ViaPad*%
%ADD25C,1.100000*%
%TD*%
%TA.AperFunction,Conductor*%
%ADD26C,0.600000*%
%TD*%
%TA.AperFunction,Conductor*%
%ADD27C,1.000000*%
%TD*%
G04 APERTURE END LIST*
D10*
%TO.P,J6,1,Pin_1*%
%TO.N,4.1V*%
X92354400Y-75031600D03*
D11*
%TO.P,J6,2,Pin_2*%
%TO.N,GND*%
X92354400Y-77571600D03*
%TO.P,J6,3,Pin_3*%
%TO.N,/Acondicionamiento/TX_SIM*%
X92354400Y-80111600D03*
%TO.P,J6,4,Pin_4*%
%TO.N,/Acondicionamiento/RX_SIM*%
X92354400Y-82651600D03*
%TO.P,J6,5,Pin_5*%
%TO.N,/Acondicionamiento/NE_SIM*%
X92354400Y-85191600D03*
%TO.P,J6,6,Pin_6*%
%TO.N,/VdoSIM*%
X92354400Y-87731600D03*
%TO.P,J6,7,Pin_7*%
%TO.N,/Acondicionamiento/RST_SIM*%
X92354400Y-90271600D03*
%TO.P,J6,8,Pin_8*%
%TO.N,GND*%
X92354400Y-92811600D03*
%TD*%
D12*
%TO.P,R5,1*%
%TO.N,/Acondicionamiento/SCL*%
X52543200Y-66497200D03*
%TO.P,R5,2*%
%TO.N,+3.3V*%
X54543200Y-66497200D03*
%TD*%
D10*
%TO.P,J8,1,Pin_1*%
%TO.N,+3.3_2*%
X54102000Y-114620000D03*
D11*
%TO.P,J8,2,Pin_2*%
%TO.N,/Acondicionamiento/TX_GPS*%
X54102000Y-112080000D03*
%TO.P,J8,3,Pin_3*%
%TO.N,/Acondicionamiento/RX_GPS*%
X54102000Y-109540000D03*
%TO.P,J8,4,Pin_4*%
%TO.N,GND*%
X54102000Y-107000000D03*
%TD*%
D10*
%TO.P,J4,1,Pin_1*%
%TO.N,+3.3V*%
X52222400Y-45008800D03*
D11*
%TO.P,J4,2,Pin_2*%
%TO.N,/Acondicionamiento/RX_BOOT*%
X52222400Y-42468800D03*
%TO.P,J4,3,Pin_3*%
%TO.N,/Acondicionamiento/TX_BOOT*%
X52222400Y-39928800D03*
%TO.P,J4,4,Pin_4*%
%TO.N,GND*%
X52222400Y-37388800D03*
%TD*%
D12*
%TO.P,R10,1*%
%TO.N,/Acondicionamiento/SDA*%
X52492400Y-70002400D03*
%TO.P,R10,2*%
%TO.N,+3.3V*%
X54492400Y-70002400D03*
%TD*%
D13*
%TO.P,SW2,1,1*%
%TO.N,/Acondicionamiento/EN*%
X86817200Y-44856400D03*
%TO.P,SW2,2,2*%
%TO.N,GND*%
X79017200Y-44856400D03*
%TD*%
D14*
%TO.P,C2,1*%
%TO.N,+3.3V*%
X80568800Y-36619000D03*
%TO.P,C2,2*%
%TO.N,GND*%
X80568800Y-34544000D03*
%TD*%
D15*
%TO.P,R4,1*%
%TO.N,+3.3V*%
X80264000Y-40928800D03*
%TO.P,R4,2*%
%TO.N,/Acondicionamiento/EN*%
X80264000Y-38928800D03*
%TD*%
D16*
%TO.P,J2,1,Pin_1*%
%TO.N,/VdoSIM*%
X92303600Y-70713600D03*
%TD*%
D17*
%TO.P,R1,1*%
%TO.N,+3.3V*%
X92405200Y-34509200D03*
%TO.P,R1,2*%
%TO.N,Net-(D1-A)*%
X92405200Y-36509200D03*
%TD*%
D18*
%TO.P,C4,1*%
%TO.N,/Acondicionamiento/EN*%
X83515200Y-38738900D03*
%TO.P,C4,2*%
%TO.N,GND*%
X83515200Y-40813900D03*
%TD*%
D19*
%TO.P,D2,1,K*%
%TO.N,GND*%
X76098400Y-63195200D03*
%TO.P,D2,2,A*%
%TO.N,Net-(D2-A)*%
X76098400Y-60220200D03*
%TD*%
D14*
%TO.P,C3,1*%
%TO.N,+3.3V*%
X84886800Y-36546700D03*
%TO.P,C3,2*%
%TO.N,GND*%
X84886800Y-34471700D03*
%TD*%
D12*
%TO.P,R2,1*%
%TO.N,+3.3V*%
X52289200Y-51054000D03*
%TO.P,R2,2*%
%TO.N,/Acondicionamiento/BOOT*%
X54289200Y-51054000D03*
%TD*%
D20*
%TO.P,JH1,1*%
%TO.N,4.1V*%
X53949600Y-75028400D03*
D21*
%TO.P,JH1,2*%
%TO.N,GND*%
X53949600Y-77528400D03*
%TO.P,JH1,3*%
%TO.N,+3.3_2*%
X53949600Y-80028400D03*
%TO.P,JH1,4*%
%TO.N,+3.3V*%
X53949600Y-82528400D03*
%TO.P,JH1,5*%
%TO.N,GND*%
X53949600Y-85028400D03*
%TO.P,JH1,6*%
%TO.N,/Acondicionamiento/CtrGPSAc*%
X53949600Y-87528400D03*
%TO.P,JH1,7*%
%TO.N,/Acondicionamiento/CtrSIM*%
X53949600Y-90028400D03*
%TO.P,JH1,8*%
%TO.N,/Acondicionamiento/CtrAl*%
X53949600Y-92528400D03*
%TD*%
D14*
%TO.P,C1,1*%
%TO.N,/Acondicionamiento/BOOT*%
X56692800Y-48840300D03*
%TO.P,C1,2*%
%TO.N,GND*%
X56692800Y-46765300D03*
%TD*%
D10*
%TO.P,J3,1,Pin_1*%
%TO.N,/Acondicionamiento/MP1*%
X91897200Y-65379600D03*
D11*
%TO.P,J3,2,Pin_2*%
%TO.N,/Acondicionamiento/MP2*%
X89357200Y-65379600D03*
%TO.P,J3,3,Pin_3*%
%TO.N,/Acondicionamiento/MP3*%
X91897200Y-62839600D03*
%TO.P,J3,4,Pin_4*%
%TO.N,/Acondicionamiento/MP4*%
X89357200Y-62839600D03*
%TO.P,J3,5,Pin_5*%
%TO.N,/Acondicionamiento/MP5*%
X91897200Y-60299600D03*
%TO.P,J3,6,Pin_6*%
%TO.N,/Acondicionamiento/MP6*%
X89357200Y-60299600D03*
%TD*%
D10*
%TO.P,J5,1,Pin_1*%
%TO.N,4.1V*%
X88493600Y-74980800D03*
D11*
%TO.P,J5,2,Pin_2*%
%TO.N,/Acondicionamiento/RST_SIM*%
X88493600Y-77520800D03*
%TO.P,J5,3,Pin_3*%
%TO.N,/Acondicionamiento/TX_SIM*%
X88493600Y-80060800D03*
%TO.P,J5,4,Pin_4*%
%TO.N,/Acondicionamiento/RX_SIM*%
X88493600Y-82600800D03*
%TO.P,J5,5,Pin_5*%
%TO.N,GND*%
X88493600Y-85140800D03*
%TD*%
D22*
%TO.P,J1,1,Pin_1*%
%TO.N,/Acondicionamiento/CtrLuces*%
X91444800Y-51796000D03*
D23*
%TO.P,J1,2,Pin_2*%
%TO.N,GND*%
X91444800Y-49296000D03*
%TD*%
D13*
%TO.P,SW1,1,1*%
%TO.N,GND*%
X54965600Y-61507200D03*
%TO.P,SW1,2,2*%
%TO.N,/Acondicionamiento/BOOT*%
X54965600Y-53707200D03*
%TD*%
D17*
%TO.P,R3,1*%
%TO.N,/Acondicionamiento/TEST_LED*%
X76098400Y-55286400D03*
%TO.P,R3,2*%
%TO.N,Net-(D2-A)*%
X76098400Y-57286400D03*
%TD*%
D19*
%TO.P,D1,1,K*%
%TO.N,GND*%
X92405200Y-42178300D03*
%TO.P,D1,2,A*%
%TO.N,Net-(D1-A)*%
X92405200Y-39203300D03*
%TD*%
D10*
%TO.P,J7,1,Pin_1*%
%TO.N,+3.3_2*%
X92130000Y-117250000D03*
D11*
%TO.P,J7,2,Pin_2*%
%TO.N,GND*%
X92130000Y-114710000D03*
%TO.P,J7,3,Pin_3*%
%TO.N,/Acondicionamiento/SCL*%
X92130000Y-112170000D03*
%TO.P,J7,4,Pin_4*%
%TO.N,/Acondicionamiento/SDA*%
X92130000Y-109630000D03*
%TO.P,J7,5,Pin_5*%
%TO.N,unconnected-(J7-Pin_5-Pad5)*%
X92130000Y-107090000D03*
%TO.P,J7,6,Pin_6*%
%TO.N,unconnected-(J7-Pin_6-Pad6)*%
X92130000Y-104550000D03*
%TO.P,J7,7,Pin_7*%
%TO.N,unconnected-(J7-Pin_7-Pad7)*%
X92130000Y-102010000D03*
%TO.P,J7,8,Pin_8*%
%TO.N,unconnected-(J7-Pin_8-Pad8)*%
X92130000Y-99470000D03*
%TD*%
D24*
%TO.N,/Acondicionamiento/BOOT*%
X56689200Y-50493000D03*
%TO.N,GND*%
X83007200Y-63347600D03*
X88950800Y-37896800D03*
X78333600Y-43484800D03*
X83058000Y-68783200D03*
X78638400Y-55676800D03*
X64058800Y-60096400D03*
X53800000Y-102940000D03*
X55575200Y-34544000D03*
X66700400Y-91440000D03*
X59490000Y-118590000D03*
X85374604Y-56469404D03*
X89814400Y-57810400D03*
X61061600Y-64820800D03*
X61874400Y-50139600D03*
X77216000Y-102108000D03*
X59334400Y-71170800D03*
X66903600Y-102260400D03*
X63500000Y-41910000D03*
X88442800Y-69291200D03*
X80721200Y-113131600D03*
X70713600Y-51663600D03*
X78028800Y-82397600D03*
X54356000Y-59791600D03*
X68376800Y-36017200D03*
D25*
%TO.N,+3.3V*%
X78906500Y-35549700D03*
D24*
%TO.N,/Acondicionamiento/EN*%
X78935300Y-37712200D03*
%TO.N,/Acondicionamiento/RST_SIM*%
X82854800Y-59144900D03*
%TO.N,/Acondicionamiento/TX_SIM*%
X85143100Y-38299000D03*
%TO.N,/Acondicionamiento/RX_SIM*%
X84510200Y-42024700D03*
%TO.N,/Acondicionamiento/NE_SIM*%
X74620500Y-66671700D03*
X77967500Y-42145800D03*
%TO.N,/Acondicionamiento/CtrAl*%
X69280000Y-77198000D03*
X73475200Y-43044800D03*
%TO.N,/Acondicionamiento/CtrSIM*%
X65944500Y-78033500D03*
X67989700Y-49430200D03*
%TO.N,/Acondicionamiento/CtrGPSAc*%
X67672500Y-76179600D03*
X68069800Y-50891600D03*
%TO.N,/Acondicionamiento/CtrLuces*%
X86298800Y-54131700D03*
%TO.N,/Acondicionamiento/MP3*%
X85736600Y-62251700D03*
%TO.N,/Acondicionamiento/TEST_LED*%
X77916700Y-52901000D03*
%TO.N,/Acondicionamiento/MP6*%
X86167000Y-65453900D03*
%TO.N,/Acondicionamiento/SDA*%
X52492400Y-68511100D03*
X74997700Y-73857700D03*
%TO.N,/Acondicionamiento/SCL*%
X52543200Y-65026300D03*
%TO.N,/Acondicionamiento/TX_GPS*%
X73596900Y-49430800D03*
%TO.N,/Acondicionamiento/RX_GPS*%
X72946500Y-51498300D03*
%TD*%
D26*
%TO.N,/Acondicionamiento/BOOT*%
X54289200Y-51054000D02*
X54965600Y-51730400D01*
X56203000Y-50493000D02*
X54965600Y-51730400D01*
X56689200Y-50493000D02*
X56689200Y-48843900D01*
X54965600Y-51730400D02*
X54965600Y-53707200D01*
X56689200Y-50493000D02*
X56203000Y-50493000D01*
X56689200Y-48843900D02*
X56692800Y-48840300D01*
%TO.N,GND*%
X79017200Y-44988400D02*
X79017200Y-44856400D01*
X80641100Y-34471700D02*
X80568800Y-34544000D01*
X83515200Y-40813900D02*
X83533200Y-40831900D01*
X80316500Y-34291700D02*
X80568800Y-34544000D01*
D27*
%TO.N,+3.3V*%
X80297700Y-36347900D02*
X78906500Y-36347900D01*
X78582900Y-36347900D02*
X77526200Y-37404600D01*
X87407200Y-34509200D02*
X85369700Y-36546700D01*
X92405200Y-34509200D02*
X87407200Y-34509200D01*
X52289200Y-46727500D02*
X52289200Y-51054000D01*
X52289200Y-62197300D02*
X54543200Y-64451300D01*
X77526200Y-38541200D02*
X60341900Y-38541200D01*
X52222400Y-45008800D02*
X53874300Y-45008800D01*
X54543200Y-69951600D02*
X54492400Y-70002400D01*
X52222400Y-46660700D02*
X52289200Y-46727500D01*
X52222400Y-45008800D02*
X52222400Y-46660700D01*
X80264000Y-40928800D02*
X79913800Y-40928800D01*
X85369700Y-36546700D02*
X84886800Y-36546700D01*
X55740500Y-71250500D02*
X55740500Y-80737500D01*
X79913800Y-40928800D02*
X77526200Y-38541200D01*
X77526200Y-37404600D02*
X77526200Y-38541200D01*
X78906500Y-36347900D02*
X78906500Y-35549700D01*
X54492400Y-70002400D02*
X55740500Y-71250500D01*
X55740500Y-80737500D02*
X53949600Y-82528400D01*
X54543200Y-66497200D02*
X54543200Y-69951600D01*
X84814500Y-36619000D02*
X80568800Y-36619000D01*
X84886800Y-36546700D02*
X84814500Y-36619000D01*
X54543200Y-64451300D02*
X54543200Y-66497200D01*
X60341900Y-38541200D02*
X53874300Y-45008800D01*
X80568800Y-36619000D02*
X80297700Y-36347900D01*
X52289200Y-51054000D02*
X52289200Y-62197300D01*
X78906500Y-36347900D02*
X78582900Y-36347900D01*
D26*
%TO.N,/Acondicionamiento/EN*%
X83515200Y-38738900D02*
X84603900Y-39827600D01*
X83325300Y-38928800D02*
X83515200Y-38738900D01*
X86817200Y-41285500D02*
X86817200Y-44856400D01*
X84603900Y-39827600D02*
X85359300Y-39827600D01*
X80264000Y-38928800D02*
X83325300Y-38928800D01*
X85359300Y-39827600D02*
X86817200Y-41285500D01*
X80151900Y-38928800D02*
X80264000Y-38928800D01*
X78935300Y-37712200D02*
X80151900Y-38928800D01*
%TO.N,Net-(D1-A)*%
X92405200Y-39203300D02*
X92405200Y-36509200D01*
%TO.N,Net-(D2-A)*%
X76098400Y-60220200D02*
X76098400Y-57286400D01*
%TO.N,/Acondicionamiento/RST_SIM*%
X82854800Y-59144900D02*
X84634300Y-60924400D01*
X84634300Y-73672700D02*
X88482400Y-77520800D01*
X88482400Y-77520800D02*
X88493600Y-77520800D01*
X84634300Y-60924400D02*
X84634300Y-73672700D01*
%TO.N,/Acondicionamiento/TX_SIM*%
X88256600Y-50047800D02*
X81534000Y-56770400D01*
X85143100Y-38299000D02*
X88256600Y-41412500D01*
X88493600Y-80060800D02*
X89945500Y-80060800D01*
X89996300Y-80111600D02*
X89945500Y-80060800D01*
X92354400Y-80111600D02*
X89996300Y-80111600D01*
X88256600Y-41412500D02*
X88256600Y-50047800D01*
X81534000Y-73101200D02*
X88493600Y-80060800D01*
X81534000Y-56770400D02*
X81534000Y-73101200D01*
%TO.N,/Acondicionamiento/RX_SIM*%
X90851700Y-82600800D02*
X90902500Y-82651600D01*
X92354400Y-82651600D02*
X90902500Y-82651600D01*
X80365600Y-46169300D02*
X80365600Y-74472800D01*
X84510200Y-42024700D02*
X80365600Y-46169300D01*
X88493600Y-82600800D02*
X90851700Y-82600800D01*
X80365600Y-74472800D02*
X88493600Y-82600800D01*
%TO.N,/Acondicionamiento/NE_SIM*%
X74620500Y-54747900D02*
X74850300Y-54518100D01*
X74850300Y-54518100D02*
X74850300Y-45263000D01*
X74620500Y-66671700D02*
X74620500Y-54747900D01*
X74850300Y-45263000D02*
X77967500Y-42145800D01*
%TO.N,/Acondicionamiento/CtrAl*%
X69280000Y-47240000D02*
X69280000Y-77198000D01*
X73475200Y-43044800D02*
X69280000Y-47240000D01*
%TO.N,/Acondicionamiento/CtrSIM*%
X65944500Y-78033500D02*
X65944500Y-51475400D01*
X65944500Y-51475400D02*
X67989700Y-49430200D01*
%TO.N,/Acondicionamiento/CtrGPSAc*%
X68069800Y-75782300D02*
X68069800Y-50891600D01*
X67672500Y-76179600D02*
X68069800Y-75782300D01*
%TO.N,/Acondicionamiento/CtrLuces*%
X88634500Y-51796000D02*
X91444800Y-51796000D01*
X86298800Y-54131700D02*
X88634500Y-51796000D01*
%TO.N,/Acondicionamiento/MP3*%
X94030800Y-59080400D02*
X94030800Y-60706000D01*
X85736600Y-58840200D02*
X88493600Y-56083200D01*
X88493600Y-56083200D02*
X91033600Y-56083200D01*
X94030800Y-60706000D02*
X91897200Y-62839600D01*
X91033600Y-56083200D02*
X94030800Y-59080400D01*
X85736600Y-62251700D02*
X85736600Y-58840200D01*
%TO.N,/Acondicionamiento/TEST_LED*%
X76098400Y-54719300D02*
X77916700Y-52901000D01*
X76098400Y-55286400D02*
X76098400Y-54719300D01*
%TO.N,/Acondicionamiento/MP6*%
X86167000Y-63489800D02*
X86167000Y-65453900D01*
X89357200Y-60299600D02*
X86167000Y-63489800D01*
%TO.N,/Acondicionamiento/SDA*%
X87210000Y-109630000D02*
X92130000Y-109630000D01*
X52492400Y-68511100D02*
X52492400Y-70002400D01*
X74997700Y-73857700D02*
X83769200Y-82629200D01*
X83769200Y-106189200D02*
X87210000Y-109630000D01*
X83769200Y-82629200D02*
X83769200Y-106189200D01*
%TO.N,/Acondicionamiento/SCL*%
X52543200Y-66497200D02*
X52543200Y-65026300D01*
D27*
%TO.N,+3.3_2*%
X51600000Y-112118000D02*
X53646783Y-114164783D01*
X51600000Y-82378000D02*
X53949600Y-80028400D01*
X51600000Y-82378000D02*
X51600000Y-112118000D01*
D26*
%TO.N,/Acondicionamiento/TX_GPS*%
X73596900Y-49430800D02*
X73948400Y-49782300D01*
X73948400Y-49782300D02*
X73948400Y-54144400D01*
X73948400Y-54144400D02*
X73545700Y-54547100D01*
X73545700Y-98454300D02*
X59920000Y-112080000D01*
X73545700Y-54547100D02*
X73545700Y-98454300D01*
X59920000Y-112080000D02*
X54102000Y-112080000D01*
%TO.N,/Acondicionamiento/RX_GPS*%
X58253600Y-108356400D02*
X57070000Y-109540000D01*
X72946500Y-51498300D02*
X72355100Y-52089700D01*
X58267600Y-108356400D02*
X58253600Y-108356400D01*
X57070000Y-109540000D02*
X54102000Y-109540000D01*
X72355100Y-94268900D02*
X58267600Y-108356400D01*
X72355100Y-52089700D02*
X72355100Y-94268900D01*
%TO.N,/VdoSIM*%
X92303600Y-70713600D02*
X92303600Y-71740500D01*
X93824900Y-86261100D02*
X93824900Y-73261800D01*
X92354400Y-87731600D02*
X93824900Y-86261100D01*
X93824900Y-73261800D02*
X92303600Y-71740500D01*
%TD*%
%TA.AperFunction,Conductor*%
%TO.N,GND*%
G36*
X94887885Y-33395478D02*
G01*
X94933819Y-33448127D01*
X94945200Y-33500021D01*
X94945200Y-124793200D01*
X94925515Y-124860239D01*
X94872711Y-124905994D01*
X94821200Y-124917200D01*
X50212800Y-124917200D01*
X50145761Y-124897515D01*
X50100006Y-124844711D01*
X50088800Y-124793200D01*
X50088800Y-122430000D01*
X51204341Y-122430000D01*
X51224936Y-122665403D01*
X51224938Y-122665413D01*
X51286094Y-122893655D01*
X51286096Y-122893659D01*
X51286097Y-122893663D01*
X51290761Y-122903664D01*
X51385964Y-123107828D01*
X51385965Y-123107830D01*
X51521505Y-123301402D01*
X51688597Y-123468494D01*
X51882169Y-123604034D01*
X51882171Y-123604035D01*
X52096337Y-123703903D01*
X52324592Y-123765063D01*
X52501034Y-123780500D01*
X52618966Y-123780500D01*
X52795408Y-123765063D01*
X53023663Y-123703903D01*
X53237829Y-123604035D01*
X53431401Y-123468495D01*
X53598495Y-123301401D01*
X53734035Y-123107830D01*
X53833903Y-122893663D01*
X53895063Y-122665408D01*
X53914784Y-122440000D01*
X91074341Y-122440000D01*
X91094936Y-122675403D01*
X91094938Y-122675413D01*
X91156094Y-122903655D01*
X91156096Y-122903659D01*
X91156097Y-122903663D01*
X91206031Y-123010746D01*
X91255964Y-123117828D01*
X91255965Y-123117830D01*
X91391505Y-123311402D01*
X91558597Y-123478494D01*
X91752169Y-123614034D01*
X91752171Y-123614035D01*
X91966337Y-123713903D01*
X92194592Y-123775063D01*
X92371034Y-123790500D01*
X92488966Y-123790500D01*
X92665408Y-123775063D01*
X92893663Y-123713903D01*
X93107829Y-123614035D01*
X93301401Y-123478495D01*
X93468495Y-123311401D01*
X93604035Y-123117830D01*
X93703903Y-122903663D01*
X93765063Y-122675408D01*
X93785659Y-122440000D01*
X93765063Y-122204592D01*
X93703903Y-121976337D01*
X93604035Y-121762171D01*
X93604034Y-121762169D01*
X93468494Y-121568597D01*
X93301402Y-121401505D01*
X93107830Y-121265965D01*
X93107828Y-121265964D01*
X93000746Y-121216031D01*
X92893663Y-121166097D01*
X92893659Y-121166096D01*
X92893655Y-121166094D01*
X92665413Y-121104938D01*
X92665403Y-121104936D01*
X92488966Y-121089500D01*
X92371034Y-121089500D01*
X92194596Y-121104936D01*
X92194586Y-121104938D01*
X91966344Y-121166094D01*
X91966335Y-121166098D01*
X91752171Y-121265964D01*
X91752169Y-121265965D01*
X91558597Y-121401505D01*
X91391506Y-121568597D01*
X91391501Y-121568604D01*
X91255967Y-121762165D01*
X91255965Y-121762169D01*
X91156098Y-121976335D01*
X91156094Y-121976344D01*
X91094938Y-122204586D01*
X91094936Y-122204596D01*
X91074341Y-122439999D01*
X91074341Y-122440000D01*
X53914784Y-122440000D01*
X53915659Y-122430000D01*
X53895063Y-122194592D01*
X53836584Y-121976344D01*
X53833905Y-121966344D01*
X53833904Y-121966343D01*
X53833903Y-121966337D01*
X53734035Y-121752171D01*
X53734034Y-121752169D01*
X53598494Y-121558597D01*
X53431402Y-121391505D01*
X53237830Y-121255965D01*
X53237828Y-121255964D01*
X53130746Y-121206031D01*
X53023663Y-121156097D01*
X53023659Y-121156096D01*
X53023655Y-121156094D01*
X52795413Y-121094938D01*
X52795403Y-121094936D01*
X52618966Y-121079500D01*
X52501034Y-121079500D01*
X52324596Y-121094936D01*
X52324586Y-121094938D01*
X52096344Y-121156094D01*
X52096335Y-121156098D01*
X51882171Y-121255964D01*
X51882169Y-121255965D01*
X51688597Y-121391505D01*
X51521506Y-121558597D01*
X51521501Y-121558604D01*
X51385967Y-121752165D01*
X51385965Y-121752169D01*
X51286098Y-121966335D01*
X51286094Y-121966344D01*
X51224938Y-122194586D01*
X51224936Y-122194596D01*
X51204341Y-122429999D01*
X51204341Y-122430000D01*
X50088800Y-122430000D01*
X50088800Y-118144856D01*
X90979500Y-118144856D01*
X90979502Y-118144882D01*
X90982413Y-118169987D01*
X90982415Y-118169991D01*
X91027793Y-118272764D01*
X91027794Y-118272765D01*
X91107235Y-118352206D01*
X91210009Y-118397585D01*
X91235135Y-118400500D01*
X93024864Y-118400499D01*
X93024879Y-118400497D01*
X93024882Y-118400497D01*
X93049987Y-118397586D01*
X93049988Y-118397585D01*
X93049991Y-118397585D01*
X93152765Y-118352206D01*
X93232206Y-118272765D01*
X93277585Y-118169991D01*
X93280500Y-118144865D01*
X93280499Y-116355136D01*
X93280497Y-116355117D01*
X93277586Y-116330012D01*
X93277585Y-116330010D01*
X93277585Y-116330009D01*
X93232206Y-116227235D01*
X93152765Y-116147794D01*
X93152763Y-116147793D01*
X93049992Y-116102415D01*
X93024865Y-116099500D01*
X91235143Y-116099500D01*
X91235117Y-116099502D01*
X91210012Y-116102413D01*
X91210008Y-116102415D01*
X91107235Y-116147793D01*
X91027794Y-116227234D01*
X90982415Y-116330006D01*
X90982415Y-116330008D01*
X90979500Y-116355131D01*
X90979500Y-118144856D01*
X50088800Y-118144856D01*
X50088800Y-33651579D01*
X50108485Y-33584540D01*
X50161289Y-33538785D01*
X50212378Y-33527580D01*
X91761375Y-33386417D01*
X91828481Y-33405873D01*
X91874415Y-33458522D01*
X91884593Y-33527646D01*
X91855784Y-33591300D01*
X91807286Y-33625770D01*
X91682860Y-33674837D01*
X91677685Y-33678761D01*
X91671433Y-33683502D01*
X91606124Y-33708327D01*
X91596507Y-33708700D01*
X87497394Y-33708700D01*
X87317006Y-33708700D01*
X87311088Y-33710050D01*
X87276289Y-33717991D01*
X87269435Y-33719155D01*
X87227944Y-33723832D01*
X87188541Y-33737619D01*
X87181859Y-33739544D01*
X87141139Y-33748839D01*
X87103520Y-33766955D01*
X87097095Y-33769616D01*
X87057683Y-33783408D01*
X87057676Y-33783412D01*
X87022320Y-33805627D01*
X87016233Y-33808991D01*
X86978610Y-33827110D01*
X86945969Y-33853141D01*
X86940296Y-33857166D01*
X86904939Y-33879383D01*
X86904935Y-33879386D01*
X85161941Y-35622381D01*
X85100618Y-35655866D01*
X85074260Y-35658700D01*
X84368698Y-35658700D01*
X84329653Y-35663388D01*
X84280238Y-35669322D01*
X84139456Y-35724839D01*
X84049173Y-35793304D01*
X83983862Y-35818127D01*
X83974248Y-35818500D01*
X81386010Y-35818500D01*
X81324087Y-35800317D01*
X81323537Y-35801297D01*
X81319288Y-35798908D01*
X81318971Y-35798815D01*
X81318347Y-35798378D01*
X81316138Y-35797137D01*
X81175365Y-35741623D01*
X81160620Y-35739852D01*
X81086902Y-35731000D01*
X81086897Y-35731000D01*
X80856242Y-35731000D01*
X80790270Y-35711994D01*
X80764604Y-35695867D01*
X80758930Y-35691840D01*
X80726289Y-35665810D01*
X80688659Y-35647687D01*
X80682572Y-35644322D01*
X80647225Y-35622112D01*
X80607814Y-35608321D01*
X80601388Y-35605659D01*
X80563761Y-35587539D01*
X80523045Y-35578245D01*
X80516362Y-35576320D01*
X80476959Y-35562532D01*
X80435463Y-35557855D01*
X80428608Y-35556691D01*
X80387900Y-35547401D01*
X80387896Y-35547400D01*
X80387894Y-35547400D01*
X80387891Y-35547400D01*
X79873093Y-35547400D01*
X79806054Y-35527715D01*
X79760299Y-35474911D01*
X79749772Y-35436365D01*
X79742997Y-35371897D01*
X79687750Y-35201865D01*
X79598359Y-35047035D01*
X79547692Y-34990764D01*
X79478735Y-34914178D01*
X79478732Y-34914176D01*
X79478731Y-34914175D01*
X79478730Y-34914174D01*
X79334093Y-34809088D01*
X79170767Y-34736371D01*
X79170765Y-34736370D01*
X79043094Y-34709233D01*
X78995891Y-34699200D01*
X78817109Y-34699200D01*
X78786454Y-34705715D01*
X78642233Y-34736370D01*
X78642228Y-34736372D01*
X78478908Y-34809087D01*
X78334268Y-34914175D01*
X78214640Y-35047036D01*
X78125250Y-35201864D01*
X78125247Y-35201870D01*
X78070004Y-35371892D01*
X78070003Y-35371894D01*
X78051315Y-35549700D01*
X78063936Y-35669783D01*
X78051366Y-35738513D01*
X78028296Y-35770425D01*
X77023938Y-36774784D01*
X76896386Y-36902335D01*
X76896383Y-36902339D01*
X76874166Y-36937696D01*
X76870141Y-36943369D01*
X76844110Y-36976010D01*
X76825991Y-37013633D01*
X76822627Y-37019720D01*
X76800412Y-37055076D01*
X76800408Y-37055083D01*
X76786616Y-37094495D01*
X76783955Y-37100920D01*
X76765839Y-37138539D01*
X76756544Y-37179259D01*
X76754619Y-37185941D01*
X76740832Y-37225344D01*
X76736155Y-37266835D01*
X76734991Y-37273689D01*
X76725700Y-37314406D01*
X76725700Y-37616700D01*
X76706015Y-37683739D01*
X76653211Y-37729494D01*
X76601700Y-37740700D01*
X60432095Y-37740700D01*
X60251706Y-37740700D01*
X60245788Y-37742050D01*
X60210989Y-37749991D01*
X60204135Y-37751155D01*
X60162643Y-37755832D01*
X60123239Y-37769619D01*
X60116558Y-37771544D01*
X60075835Y-37780841D01*
X60038208Y-37798959D01*
X60031785Y-37801620D01*
X59992381Y-37815410D01*
X59992375Y-37815412D01*
X59957022Y-37837625D01*
X59950936Y-37840989D01*
X59913317Y-37859105D01*
X59880663Y-37885145D01*
X59874990Y-37889170D01*
X59839641Y-37911381D01*
X59839639Y-37911382D01*
X59807649Y-37943373D01*
X53581669Y-44169352D01*
X53520346Y-44202837D01*
X53450654Y-44197853D01*
X53394721Y-44155981D01*
X53370813Y-44095952D01*
X53369985Y-44088809D01*
X53324606Y-43986035D01*
X53245165Y-43906594D01*
X53245163Y-43906593D01*
X53142392Y-43861215D01*
X53117268Y-43858300D01*
X52388643Y-43858300D01*
X52321604Y-43838615D01*
X52275849Y-43785811D01*
X52265905Y-43716653D01*
X52294930Y-43653097D01*
X52353708Y-43615323D01*
X52365841Y-43612414D01*
X52538598Y-43580121D01*
X52737419Y-43503098D01*
X52918702Y-43390852D01*
X53076272Y-43247207D01*
X53204766Y-43077055D01*
X53220827Y-43044800D01*
X53299803Y-42886194D01*
X53299803Y-42886193D01*
X53299805Y-42886189D01*
X53358156Y-42681110D01*
X53377829Y-42468800D01*
X53358156Y-42256490D01*
X53299805Y-42051411D01*
X53299803Y-42051406D01*
X53299803Y-42051405D01*
X53204767Y-41860546D01*
X53076272Y-41690393D01*
X53044287Y-41661235D01*
X52918702Y-41546748D01*
X52737419Y-41434502D01*
X52737417Y-41434501D01*
X52638008Y-41395990D01*
X52538598Y-41357479D01*
X52341785Y-41320688D01*
X52279506Y-41289021D01*
X52244233Y-41228708D01*
X52247167Y-41158900D01*
X52287376Y-41101760D01*
X52341784Y-41076911D01*
X52538598Y-41040121D01*
X52737419Y-40963098D01*
X52918702Y-40850852D01*
X53076272Y-40707207D01*
X53204766Y-40537055D01*
X53249490Y-40447236D01*
X53299803Y-40346194D01*
X53299803Y-40346193D01*
X53299805Y-40346189D01*
X53358156Y-40141110D01*
X53377829Y-39928800D01*
X53358156Y-39716490D01*
X53299805Y-39511411D01*
X53299803Y-39511406D01*
X53299803Y-39511405D01*
X53204767Y-39320546D01*
X53076272Y-39150393D01*
X53071916Y-39146422D01*
X52918702Y-39006748D01*
X52737419Y-38894502D01*
X52737417Y-38894501D01*
X52638008Y-38855990D01*
X52538598Y-38817479D01*
X52329010Y-38778300D01*
X52115790Y-38778300D01*
X51906202Y-38817479D01*
X51906199Y-38817479D01*
X51906199Y-38817480D01*
X51707382Y-38894501D01*
X51707380Y-38894502D01*
X51526099Y-39006747D01*
X51368527Y-39150393D01*
X51240032Y-39320546D01*
X51144996Y-39511405D01*
X51144996Y-39511407D01*
X51115158Y-39616277D01*
X51086644Y-39716490D01*
X51066971Y-39928800D01*
X51086644Y-40141110D01*
X51109518Y-40221504D01*
X51144996Y-40346192D01*
X51144996Y-40346194D01*
X51240032Y-40537053D01*
X51240034Y-40537055D01*
X51368528Y-40707207D01*
X51526098Y-40850852D01*
X51707381Y-40963098D01*
X51906202Y-41040121D01*
X52103013Y-41076911D01*
X52165293Y-41108579D01*
X52200566Y-41168892D01*
X52197632Y-41238700D01*
X52157423Y-41295840D01*
X52103013Y-41320688D01*
X51906202Y-41357479D01*
X51906199Y-41357479D01*
X51906199Y-41357480D01*
X51707382Y-41434501D01*
X51707380Y-41434502D01*
X51526099Y-41546747D01*
X51368527Y-41690393D01*
X51240032Y-41860546D01*
X51144996Y-42051405D01*
X51144996Y-42051407D01*
X51086644Y-42256489D01*
X51077736Y-42352630D01*
X51066971Y-42468800D01*
X51086644Y-42681110D01*
X51143622Y-42881365D01*
X51144996Y-42886192D01*
X51144996Y-42886194D01*
X51240032Y-43077053D01*
X51240034Y-43077055D01*
X51368528Y-43247207D01*
X51526098Y-43390852D01*
X51707381Y-43503098D01*
X51906202Y-43580121D01*
X52078944Y-43612412D01*
X52141223Y-43644079D01*
X52176496Y-43704391D01*
X52173562Y-43774200D01*
X52133353Y-43831340D01*
X52068635Y-43857671D01*
X52056157Y-43858300D01*
X51327543Y-43858300D01*
X51327517Y-43858302D01*
X51302412Y-43861213D01*
X51302408Y-43861215D01*
X51199635Y-43906593D01*
X51120194Y-43986034D01*
X51074815Y-44088806D01*
X51074815Y-44088808D01*
X51071900Y-44113931D01*
X51071900Y-45903656D01*
X51071902Y-45903682D01*
X51074813Y-45928787D01*
X51074815Y-45928791D01*
X51120193Y-46031564D01*
X51120194Y-46031565D01*
X51199635Y-46111006D01*
X51264626Y-46139702D01*
X51302406Y-46156384D01*
X51302409Y-46156385D01*
X51312186Y-46157519D01*
X51376511Y-46184796D01*
X51415878Y-46242520D01*
X51421900Y-46280693D01*
X51421900Y-46750891D01*
X51421901Y-46750900D01*
X51431191Y-46791608D01*
X51432355Y-46798463D01*
X51437032Y-46839959D01*
X51450820Y-46879362D01*
X51452745Y-46886045D01*
X51462039Y-46926761D01*
X51476421Y-46956625D01*
X51488700Y-47010425D01*
X51488700Y-50245306D01*
X51469015Y-50312345D01*
X51463504Y-50320231D01*
X51454840Y-50331655D01*
X51454837Y-50331661D01*
X51399323Y-50472434D01*
X51399323Y-50472436D01*
X51388700Y-50560898D01*
X51388700Y-51547102D01*
X51391509Y-51570492D01*
X51399322Y-51635561D01*
X51399322Y-51635563D01*
X51399323Y-51635564D01*
X51454839Y-51776342D01*
X51463502Y-51787766D01*
X51488327Y-51853076D01*
X51488700Y-51862693D01*
X51488700Y-62287491D01*
X51488701Y-62287500D01*
X51497991Y-62328208D01*
X51499155Y-62335063D01*
X51503832Y-62376559D01*
X51517620Y-62415962D01*
X51519545Y-62422645D01*
X51528839Y-62463361D01*
X51546959Y-62500988D01*
X51549621Y-62507414D01*
X51563412Y-62546825D01*
X51585622Y-62582172D01*
X51588987Y-62588259D01*
X51607110Y-62625889D01*
X51633140Y-62658529D01*
X51637166Y-62664204D01*
X51659382Y-62699559D01*
X51659384Y-62699562D01*
X53706381Y-64746559D01*
X53739866Y-64807882D01*
X53742700Y-64834240D01*
X53742700Y-65688506D01*
X53723015Y-65755545D01*
X53717504Y-65763431D01*
X53708840Y-65774855D01*
X53708837Y-65774861D01*
X53658554Y-65902370D01*
X53615648Y-65957514D01*
X53549741Y-65980707D01*
X53481756Y-65964586D01*
X53433280Y-65914269D01*
X53427848Y-65902378D01*
X53377561Y-65774858D01*
X53377560Y-65774857D01*
X53377560Y-65774856D01*
X53286122Y-65654277D01*
X53192775Y-65583490D01*
X53151251Y-65527297D01*
X53143700Y-65484686D01*
X53143700Y-65428100D01*
X53163385Y-65361061D01*
X53165629Y-65357689D01*
X53168018Y-65354230D01*
X53228340Y-65195172D01*
X53248845Y-65026300D01*
X53228340Y-64857428D01*
X53168018Y-64698370D01*
X53071383Y-64558371D01*
X52959907Y-64459612D01*
X52944049Y-64445563D01*
X52793426Y-64366510D01*
X52628256Y-64325800D01*
X52458144Y-64325800D01*
X52292973Y-64366510D01*
X52142350Y-64445563D01*
X52015016Y-64558372D01*
X51918382Y-64698368D01*
X51858060Y-64857425D01*
X51858059Y-64857430D01*
X51837555Y-65026300D01*
X51858059Y-65195169D01*
X51858060Y-65195174D01*
X51911599Y-65336345D01*
X51918382Y-65354230D01*
X51920749Y-65357660D01*
X51921709Y-65360569D01*
X51921868Y-65360872D01*
X51921817Y-65360898D01*
X51942633Y-65424013D01*
X51942700Y-65428100D01*
X51942700Y-65484686D01*
X51923015Y-65551725D01*
X51893625Y-65583490D01*
X51800277Y-65654277D01*
X51708839Y-65774856D01*
X51653322Y-65915638D01*
X51652579Y-65921829D01*
X51642700Y-66004098D01*
X51642700Y-66990302D01*
X51645509Y-67013692D01*
X51653322Y-67078761D01*
X51708839Y-67219543D01*
X51800277Y-67340122D01*
X51920856Y-67431560D01*
X51920857Y-67431560D01*
X51920858Y-67431561D01*
X52061636Y-67487077D01*
X52150098Y-67497700D01*
X52150103Y-67497700D01*
X52936297Y-67497700D01*
X52936302Y-67497700D01*
X53024764Y-67487077D01*
X53165542Y-67431561D01*
X53286122Y-67340122D01*
X53377561Y-67219542D01*
X53427846Y-67092026D01*
X53470751Y-67036885D01*
X53536659Y-67013692D01*
X53604643Y-67029812D01*
X53653120Y-67080129D01*
X53658548Y-67092014D01*
X53708839Y-67219542D01*
X53717502Y-67230966D01*
X53742327Y-67296276D01*
X53742700Y-67305893D01*
X53742700Y-69126716D01*
X53723015Y-69193755D01*
X53717504Y-69201641D01*
X53658039Y-69280056D01*
X53650393Y-69299446D01*
X53607753Y-69407571D01*
X53564849Y-69462714D01*
X53498941Y-69485907D01*
X53430956Y-69469786D01*
X53382480Y-69419470D01*
X53377048Y-69407578D01*
X53326761Y-69280058D01*
X53326760Y-69280057D01*
X53326760Y-69280056D01*
X53235322Y-69159477D01*
X53141975Y-69088690D01*
X53100451Y-69032497D01*
X53092900Y-68989886D01*
X53092900Y-68912900D01*
X53112585Y-68845861D01*
X53114829Y-68842489D01*
X53117218Y-68839030D01*
X53177540Y-68679972D01*
X53198045Y-68511100D01*
X53177540Y-68342228D01*
X53117218Y-68183170D01*
X53020583Y-68043171D01*
X52893252Y-67930366D01*
X52893249Y-67930363D01*
X52742626Y-67851310D01*
X52577456Y-67810600D01*
X52407344Y-67810600D01*
X52242173Y-67851310D01*
X52091550Y-67930363D01*
X51964216Y-68043172D01*
X51867582Y-68183168D01*
X51807260Y-68342225D01*
X51807259Y-68342230D01*
X51786755Y-68511100D01*
X51807259Y-68679969D01*
X51807260Y-68679974D01*
X51867581Y-68839028D01*
X51867582Y-68839030D01*
X51869949Y-68842460D01*
X51870909Y-68845369D01*
X51871068Y-68845672D01*
X51871017Y-68845698D01*
X51891833Y-68908813D01*
X51891900Y-68912900D01*
X51891900Y-68989886D01*
X51872215Y-69056925D01*
X51842825Y-69088690D01*
X51749477Y-69159477D01*
X51658039Y-69280056D01*
X51602522Y-69420838D01*
X51597494Y-69462714D01*
X51591900Y-69509298D01*
X51591900Y-70495502D01*
X51594709Y-70518892D01*
X51602522Y-70583961D01*
X51658039Y-70724743D01*
X51749477Y-70845322D01*
X51870056Y-70936760D01*
X51870057Y-70936760D01*
X51870058Y-70936761D01*
X52010836Y-70992277D01*
X52099298Y-71002900D01*
X52099303Y-71002900D01*
X52885497Y-71002900D01*
X52885502Y-71002900D01*
X52973964Y-70992277D01*
X53114742Y-70936761D01*
X53235322Y-70845322D01*
X53326761Y-70724742D01*
X53377046Y-70597226D01*
X53419951Y-70542085D01*
X53485859Y-70518892D01*
X53553843Y-70535012D01*
X53602320Y-70585329D01*
X53607748Y-70597214D01*
X53617004Y-70620684D01*
X53658039Y-70724743D01*
X53749477Y-70845322D01*
X53870056Y-70936760D01*
X53870057Y-70936760D01*
X53870058Y-70936761D01*
X54010836Y-70992277D01*
X54099298Y-71002900D01*
X54309460Y-71002900D01*
X54376499Y-71022585D01*
X54397141Y-71039219D01*
X54903681Y-71545759D01*
X54937166Y-71607082D01*
X54940000Y-71633440D01*
X54940000Y-73764812D01*
X54920315Y-73831851D01*
X54867511Y-73877606D01*
X54801218Y-73887928D01*
X54743788Y-73881032D01*
X54717702Y-73877900D01*
X53181498Y-73877900D01*
X53142453Y-73882588D01*
X53093038Y-73888522D01*
X52952256Y-73944039D01*
X52831677Y-74035477D01*
X52740239Y-74156056D01*
X52684722Y-74296838D01*
X52681265Y-74325629D01*
X52674100Y-74385298D01*
X52674100Y-75671502D01*
X52678924Y-75711671D01*
X52684722Y-75759961D01*
X52740239Y-75900743D01*
X52831677Y-76021322D01*
X52952256Y-76112760D01*
X52952257Y-76112760D01*
X52952258Y-76112761D01*
X53093036Y-76168277D01*
X53181498Y-76178900D01*
X53181503Y-76178900D01*
X54717696Y-76178900D01*
X54717702Y-76178900D01*
X54801216Y-76168871D01*
X54870125Y-76180423D01*
X54921849Y-76227395D01*
X54940000Y-76291987D01*
X54940000Y-78991195D01*
X54920315Y-79058234D01*
X54867511Y-79103989D01*
X54798353Y-79113933D01*
X54741273Y-79090149D01*
X54699010Y-79058234D01*
X54682855Y-79046034D01*
X54643627Y-79026501D01*
X54491993Y-78950996D01*
X54286910Y-78892644D01*
X54127794Y-78877900D01*
X53771406Y-78877900D01*
X53644113Y-78889695D01*
X53612289Y-78892644D01*
X53407207Y-78950996D01*
X53407205Y-78950996D01*
X53216346Y-79046032D01*
X53046193Y-79174527D01*
X52902547Y-79332099D01*
X52790302Y-79513380D01*
X52790301Y-79513382D01*
X52713280Y-79712199D01*
X52713279Y-79712202D01*
X52674100Y-79921790D01*
X52674100Y-79921792D01*
X52674100Y-80120459D01*
X52654415Y-80187498D01*
X52637781Y-80208140D01*
X51097738Y-81748184D01*
X50970186Y-81875735D01*
X50970183Y-81875739D01*
X50947966Y-81911096D01*
X50943941Y-81916769D01*
X50917910Y-81949410D01*
X50899791Y-81987033D01*
X50896427Y-81993120D01*
X50874212Y-82028476D01*
X50874208Y-82028483D01*
X50860416Y-82067895D01*
X50857755Y-82074320D01*
X50839639Y-82111939D01*
X50830344Y-82152659D01*
X50828419Y-82159341D01*
X50814632Y-82198744D01*
X50809955Y-82240235D01*
X50808791Y-82247089D01*
X50799500Y-82287806D01*
X50799500Y-112208191D01*
X50799501Y-112208200D01*
X50808791Y-112248908D01*
X50809955Y-112255763D01*
X50814632Y-112297259D01*
X50828420Y-112336662D01*
X50830345Y-112343345D01*
X50839639Y-112384061D01*
X50857759Y-112421688D01*
X50860421Y-112428114D01*
X50874212Y-112467525D01*
X50896422Y-112502872D01*
X50899787Y-112508959D01*
X50917910Y-112546589D01*
X50943940Y-112579229D01*
X50947966Y-112584904D01*
X50970182Y-112620259D01*
X50970184Y-112620262D01*
X52915181Y-114565259D01*
X52948666Y-114626582D01*
X52951500Y-114652940D01*
X52951500Y-115514856D01*
X52951502Y-115514882D01*
X52954413Y-115539987D01*
X52954415Y-115539991D01*
X52999793Y-115642764D01*
X52999794Y-115642765D01*
X53079235Y-115722206D01*
X53182009Y-115767585D01*
X53207135Y-115770500D01*
X54996864Y-115770499D01*
X54996879Y-115770497D01*
X54996882Y-115770497D01*
X55021987Y-115767586D01*
X55021988Y-115767585D01*
X55021991Y-115767585D01*
X55124765Y-115722206D01*
X55204206Y-115642765D01*
X55249585Y-115539991D01*
X55252500Y-115514865D01*
X55252499Y-113725136D01*
X55252497Y-113725117D01*
X55249586Y-113700012D01*
X55249585Y-113700010D01*
X55249585Y-113700009D01*
X55204206Y-113597235D01*
X55124765Y-113517794D01*
X55021992Y-113472415D01*
X54996868Y-113469500D01*
X54996865Y-113469500D01*
X54268245Y-113469500D01*
X54201206Y-113449815D01*
X54155451Y-113397011D01*
X54145507Y-113327853D01*
X54174532Y-113264297D01*
X54233310Y-113226523D01*
X54245450Y-113223613D01*
X54418198Y-113191321D01*
X54617019Y-113114298D01*
X54798302Y-113002052D01*
X54955872Y-112858407D01*
X55053013Y-112729773D01*
X55109122Y-112688137D01*
X55151967Y-112680500D01*
X59876572Y-112680500D01*
X59884670Y-112681030D01*
X59920000Y-112685682D01*
X59920001Y-112685682D01*
X59972254Y-112678802D01*
X60076762Y-112665044D01*
X60222841Y-112604536D01*
X60251869Y-112582262D01*
X60348282Y-112508282D01*
X60369983Y-112479999D01*
X60375311Y-112473922D01*
X73939622Y-98909611D01*
X73945699Y-98904283D01*
X73973982Y-98882582D01*
X74070236Y-98757141D01*
X74130744Y-98611062D01*
X74146200Y-98493661D01*
X74151382Y-98454300D01*
X74146730Y-98418969D01*
X74146200Y-98410871D01*
X74146200Y-74255154D01*
X74165885Y-74188115D01*
X74218689Y-74142360D01*
X74287847Y-74132416D01*
X74351403Y-74161441D01*
X74372250Y-74184714D01*
X74372881Y-74185629D01*
X74372882Y-74185630D01*
X74469517Y-74325629D01*
X74596848Y-74438434D01*
X74747475Y-74517490D01*
X74794571Y-74529097D01*
X74852578Y-74561813D01*
X83132381Y-82841616D01*
X83165866Y-82902939D01*
X83168700Y-82929297D01*
X83168700Y-106145771D01*
X83168169Y-106153873D01*
X83163518Y-106189199D01*
X83163518Y-106189200D01*
X83168700Y-106228560D01*
X83184155Y-106345960D01*
X83184156Y-106345962D01*
X83244664Y-106492041D01*
X83340918Y-106617482D01*
X83369195Y-106639180D01*
X83375285Y-106644520D01*
X85120265Y-108389500D01*
X86754669Y-110023904D01*
X86760020Y-110030005D01*
X86781718Y-110058282D01*
X86868724Y-110125044D01*
X86907159Y-110154536D01*
X87053238Y-110215044D01*
X87131619Y-110225363D01*
X87209999Y-110235682D01*
X87210000Y-110235682D01*
X87245329Y-110231030D01*
X87253428Y-110230500D01*
X91080033Y-110230500D01*
X91147072Y-110250185D01*
X91178987Y-110279773D01*
X91208162Y-110318407D01*
X91276128Y-110408407D01*
X91433698Y-110552052D01*
X91614981Y-110664298D01*
X91813802Y-110741321D01*
X92010613Y-110778111D01*
X92072893Y-110809779D01*
X92108166Y-110870092D01*
X92105232Y-110939900D01*
X92065023Y-110997040D01*
X92010613Y-111021888D01*
X91813802Y-111058679D01*
X91813799Y-111058679D01*
X91813799Y-111058680D01*
X91614982Y-111135701D01*
X91614980Y-111135702D01*
X91433699Y-111247947D01*
X91276127Y-111391593D01*
X91147632Y-111561746D01*
X91052596Y-111752605D01*
X91052596Y-111752607D01*
X90994244Y-111957689D01*
X90982911Y-112080000D01*
X90974571Y-112170000D01*
X90994244Y-112382310D01*
X91029388Y-112505828D01*
X91052596Y-112587392D01*
X91052596Y-112587394D01*
X91147632Y-112778253D01*
X91276127Y-112948406D01*
X91276128Y-112948407D01*
X91433698Y-113092052D01*
X91614981Y-113204298D01*
X91813802Y-113281321D01*
X92023390Y-113320500D01*
X92023392Y-113320500D01*
X92236608Y-113320500D01*
X92236610Y-113320500D01*
X92446198Y-113281321D01*
X92645019Y-113204298D01*
X92826302Y-113092052D01*
X92983872Y-112948407D01*
X93112366Y-112778255D01*
X93157239Y-112688137D01*
X93207403Y-112587394D01*
X93207403Y-112587393D01*
X93207405Y-112587389D01*
X93265756Y-112382310D01*
X93285429Y-112170000D01*
X93265756Y-111957690D01*
X93207405Y-111752611D01*
X93207403Y-111752606D01*
X93207403Y-111752605D01*
X93112367Y-111561746D01*
X92983872Y-111391593D01*
X92885147Y-111301593D01*
X92826302Y-111247948D01*
X92645019Y-111135702D01*
X92645017Y-111135701D01*
X92545608Y-111097190D01*
X92446198Y-111058679D01*
X92249385Y-111021888D01*
X92187106Y-110990221D01*
X92151833Y-110929908D01*
X92154767Y-110860100D01*
X92194976Y-110802960D01*
X92249384Y-110778111D01*
X92446198Y-110741321D01*
X92645019Y-110664298D01*
X92826302Y-110552052D01*
X92983872Y-110408407D01*
X93112366Y-110238255D01*
X93115963Y-110231031D01*
X93207403Y-110047394D01*
X93207403Y-110047393D01*
X93207405Y-110047389D01*
X93265756Y-109842310D01*
X93285429Y-109630000D01*
X93265756Y-109417690D01*
X93207405Y-109212611D01*
X93207403Y-109212606D01*
X93207403Y-109212605D01*
X93112367Y-109021746D01*
X92983872Y-108851593D01*
X92826302Y-108707948D01*
X92645019Y-108595702D01*
X92645017Y-108595701D01*
X92545608Y-108557190D01*
X92446198Y-108518679D01*
X92249385Y-108481888D01*
X92187106Y-108450221D01*
X92151833Y-108389908D01*
X92154767Y-108320100D01*
X92194976Y-108262960D01*
X92249384Y-108238111D01*
X92446198Y-108201321D01*
X92645019Y-108124298D01*
X92826302Y-108012052D01*
X92983872Y-107868407D01*
X93112366Y-107698255D01*
X93207405Y-107507389D01*
X93265756Y-107302310D01*
X93285429Y-107090000D01*
X93265756Y-106877690D01*
X93207405Y-106672611D01*
X93207403Y-106672606D01*
X93207403Y-106672605D01*
X93112367Y-106481746D01*
X92983872Y-106311593D01*
X92826302Y-106167948D01*
X92645019Y-106055702D01*
X92645017Y-106055701D01*
X92545608Y-106017190D01*
X92446198Y-105978679D01*
X92249385Y-105941888D01*
X92187106Y-105910221D01*
X92151833Y-105849908D01*
X92154767Y-105780100D01*
X92194976Y-105722960D01*
X92249384Y-105698111D01*
X92446198Y-105661321D01*
X92645019Y-105584298D01*
X92826302Y-105472052D01*
X92983872Y-105328407D01*
X93112366Y-105158255D01*
X93207405Y-104967389D01*
X93265756Y-104762310D01*
X93285429Y-104550000D01*
X93265756Y-104337690D01*
X93207405Y-104132611D01*
X93207403Y-104132606D01*
X93207403Y-104132605D01*
X93112367Y-103941746D01*
X92983872Y-103771593D01*
X92826302Y-103627948D01*
X92645019Y-103515702D01*
X92645017Y-103515701D01*
X92545608Y-103477190D01*
X92446198Y-103438679D01*
X92249385Y-103401888D01*
X92187106Y-103370221D01*
X92151833Y-103309908D01*
X92154767Y-103240100D01*
X92194976Y-103182960D01*
X92249384Y-103158111D01*
X92446198Y-103121321D01*
X92645019Y-103044298D01*
X92826302Y-102932052D01*
X92983872Y-102788407D01*
X93112366Y-102618255D01*
X93207405Y-102427389D01*
X93265756Y-102222310D01*
X93285429Y-102010000D01*
X93265756Y-101797690D01*
X93207405Y-101592611D01*
X93207403Y-101592606D01*
X93207403Y-101592605D01*
X93112367Y-101401746D01*
X92983872Y-101231593D01*
X92826302Y-101087948D01*
X92645019Y-100975702D01*
X92645017Y-100975701D01*
X92545608Y-100937190D01*
X92446198Y-100898679D01*
X92249385Y-100861888D01*
X92187106Y-100830221D01*
X92151833Y-100769908D01*
X92154767Y-100700100D01*
X92194976Y-100642960D01*
X92249384Y-100618111D01*
X92446198Y-100581321D01*
X92645019Y-100504298D01*
X92826302Y-100392052D01*
X92983872Y-100248407D01*
X93112366Y-100078255D01*
X93207405Y-99887389D01*
X93265756Y-99682310D01*
X93285429Y-99470000D01*
X93265756Y-99257690D01*
X93207405Y-99052611D01*
X93207403Y-99052606D01*
X93207403Y-99052605D01*
X93112367Y-98861746D01*
X92983872Y-98691593D01*
X92895532Y-98611060D01*
X92826302Y-98547948D01*
X92645019Y-98435702D01*
X92645017Y-98435701D01*
X92545608Y-98397190D01*
X92446198Y-98358679D01*
X92236610Y-98319500D01*
X92023390Y-98319500D01*
X91813802Y-98358679D01*
X91813799Y-98358679D01*
X91813799Y-98358680D01*
X91614982Y-98435701D01*
X91614980Y-98435702D01*
X91433699Y-98547947D01*
X91276127Y-98691593D01*
X91147632Y-98861746D01*
X91052596Y-99052605D01*
X91052596Y-99052607D01*
X90994244Y-99257689D01*
X90974571Y-99469999D01*
X90974571Y-99470000D01*
X90994244Y-99682310D01*
X91052596Y-99887392D01*
X91052596Y-99887394D01*
X91147632Y-100078253D01*
X91147634Y-100078255D01*
X91276128Y-100248407D01*
X91433698Y-100392052D01*
X91614981Y-100504298D01*
X91813802Y-100581321D01*
X92010613Y-100618111D01*
X92072893Y-100649779D01*
X92108166Y-100710092D01*
X92105232Y-100779900D01*
X92065023Y-100837040D01*
X92010613Y-100861888D01*
X91813802Y-100898679D01*
X91813799Y-100898679D01*
X91813799Y-100898680D01*
X91614982Y-100975701D01*
X91614980Y-100975702D01*
X91433699Y-101087947D01*
X91276127Y-101231593D01*
X91147632Y-101401746D01*
X91052596Y-101592605D01*
X91052596Y-101592607D01*
X90994244Y-101797689D01*
X90974571Y-102009999D01*
X90974571Y-102010000D01*
X90994244Y-102222310D01*
X91052596Y-102427392D01*
X91052596Y-102427394D01*
X91147632Y-102618253D01*
X91147634Y-102618255D01*
X91276128Y-102788407D01*
X91433698Y-102932052D01*
X91614981Y-103044298D01*
X91813802Y-103121321D01*
X92010613Y-103158111D01*
X92072893Y-103189779D01*
X92108166Y-103250092D01*
X92105232Y-103319900D01*
X92065023Y-103377040D01*
X92010613Y-103401888D01*
X91813802Y-103438679D01*
X91813799Y-103438679D01*
X91813799Y-103438680D01*
X91614982Y-103515701D01*
X91614980Y-103515702D01*
X91433699Y-103627947D01*
X91276127Y-103771593D01*
X91147632Y-103941746D01*
X91052596Y-104132605D01*
X91052596Y-104132607D01*
X90994244Y-104337689D01*
X90974571Y-104549999D01*
X90974571Y-104550000D01*
X90994244Y-104762310D01*
X91052596Y-104967392D01*
X91052596Y-104967394D01*
X91147632Y-105158253D01*
X91147634Y-105158255D01*
X91276128Y-105328407D01*
X91433698Y-105472052D01*
X91614981Y-105584298D01*
X91813802Y-105661321D01*
X92010613Y-105698111D01*
X92072893Y-105729779D01*
X92108166Y-105790092D01*
X92105232Y-105859900D01*
X92065023Y-105917040D01*
X92010613Y-105941888D01*
X91813802Y-105978679D01*
X91813799Y-105978679D01*
X91813799Y-105978680D01*
X91614982Y-106055701D01*
X91614980Y-106055702D01*
X91433699Y-106167947D01*
X91276127Y-106311593D01*
X91147632Y-106481746D01*
X91052596Y-106672605D01*
X91052596Y-106672607D01*
X90994244Y-106877689D01*
X90974571Y-107089999D01*
X90974571Y-107090000D01*
X90994244Y-107302310D01*
X91052596Y-107507392D01*
X91052596Y-107507394D01*
X91147632Y-107698253D01*
X91147634Y-107698255D01*
X91276128Y-107868407D01*
X91433698Y-108012052D01*
X91614981Y-108124298D01*
X91813802Y-108201321D01*
X92010613Y-108238111D01*
X92072893Y-108269779D01*
X92108166Y-108330092D01*
X92105232Y-108399900D01*
X92065023Y-108457040D01*
X92010613Y-108481888D01*
X91813802Y-108518679D01*
X91813799Y-108518679D01*
X91813799Y-108518680D01*
X91614982Y-108595701D01*
X91614980Y-108595702D01*
X91433699Y-108707947D01*
X91276127Y-108851593D01*
X91178987Y-108980227D01*
X91122878Y-109021863D01*
X91080033Y-109029500D01*
X87510097Y-109029500D01*
X87443058Y-109009815D01*
X87422416Y-108993181D01*
X84406019Y-105976784D01*
X84372534Y-105915461D01*
X84369700Y-105889103D01*
X84369700Y-82672628D01*
X84370231Y-82664526D01*
X84374882Y-82629199D01*
X84374882Y-82629198D01*
X84354244Y-82472439D01*
X84354244Y-82472438D01*
X84293736Y-82326359D01*
X84197482Y-82200918D01*
X84169205Y-82179220D01*
X84163104Y-82173869D01*
X75704580Y-73715345D01*
X75676319Y-73671634D01*
X75663326Y-73637373D01*
X75622518Y-73529770D01*
X75622319Y-73529482D01*
X75574528Y-73460245D01*
X75525883Y-73389771D01*
X75398552Y-73276966D01*
X75398549Y-73276963D01*
X75247926Y-73197910D01*
X75082756Y-73157200D01*
X74912644Y-73157200D01*
X74747473Y-73197910D01*
X74596850Y-73276963D01*
X74469518Y-73389770D01*
X74469517Y-73389771D01*
X74372882Y-73529770D01*
X74372250Y-73530686D01*
X74317967Y-73574676D01*
X74248518Y-73582335D01*
X74185953Y-73551231D01*
X74150136Y-73491240D01*
X74146200Y-73460245D01*
X74146200Y-67419007D01*
X74165885Y-67351968D01*
X74218689Y-67306213D01*
X74287847Y-67296269D01*
X74327825Y-67309210D01*
X74370275Y-67331490D01*
X74535444Y-67372200D01*
X74705556Y-67372200D01*
X74870725Y-67331490D01*
X74950192Y-67289781D01*
X75021349Y-67252436D01*
X75021350Y-67252434D01*
X75021352Y-67252434D01*
X75148683Y-67139629D01*
X75245318Y-66999630D01*
X75305640Y-66840572D01*
X75326145Y-66671700D01*
X75305640Y-66502828D01*
X75245318Y-66343770D01*
X75242948Y-66340337D01*
X75241989Y-66337427D01*
X75241831Y-66337126D01*
X75241881Y-66337099D01*
X75221067Y-66273983D01*
X75221000Y-66269899D01*
X75221000Y-61347846D01*
X75240685Y-61280807D01*
X75293489Y-61235052D01*
X75359783Y-61224731D01*
X75430301Y-61233200D01*
X76766498Y-61233199D01*
X76854964Y-61222576D01*
X76995742Y-61167061D01*
X77116322Y-61075622D01*
X77207761Y-60955042D01*
X77263276Y-60814264D01*
X77273900Y-60725799D01*
X77273899Y-59714602D01*
X77263276Y-59626136D01*
X77207761Y-59485358D01*
X77198261Y-59472830D01*
X77116322Y-59364777D01*
X76995744Y-59273340D01*
X76995742Y-59273339D01*
X76854964Y-59217824D01*
X76854962Y-59217823D01*
X76808113Y-59212197D01*
X76743899Y-59184659D01*
X76704768Y-59126775D01*
X76698900Y-59089082D01*
X76698900Y-58253203D01*
X76718585Y-58186164D01*
X76771389Y-58140409D01*
X76777396Y-58137854D01*
X76820742Y-58120761D01*
X76941322Y-58029322D01*
X77032761Y-57908742D01*
X77088277Y-57767964D01*
X77098900Y-57679502D01*
X77098900Y-56893298D01*
X77088277Y-56804836D01*
X77032761Y-56664058D01*
X77032760Y-56664057D01*
X77032760Y-56664056D01*
X76941322Y-56543477D01*
X76820743Y-56452039D01*
X76782739Y-56437052D01*
X76693226Y-56401753D01*
X76638085Y-56358849D01*
X76614892Y-56292941D01*
X76631012Y-56224957D01*
X76681329Y-56176480D01*
X76693214Y-56171051D01*
X76820742Y-56120761D01*
X76941322Y-56029322D01*
X77032761Y-55908742D01*
X77088277Y-55767964D01*
X77098900Y-55679502D01*
X77098900Y-54893298D01*
X77088277Y-54804836D01*
X77069689Y-54757700D01*
X77054146Y-54718285D01*
X77047864Y-54648698D01*
X77080201Y-54586762D01*
X77081765Y-54585168D01*
X78061822Y-53605111D01*
X78119824Y-53572398D01*
X78166925Y-53560790D01*
X78317552Y-53481734D01*
X78444883Y-53368929D01*
X78541518Y-53228930D01*
X78601840Y-53069872D01*
X78622345Y-52901000D01*
X78601840Y-52732128D01*
X78541518Y-52573070D01*
X78444883Y-52433071D01*
X78317552Y-52320266D01*
X78317549Y-52320263D01*
X78166926Y-52241210D01*
X78001756Y-52200500D01*
X77831644Y-52200500D01*
X77666473Y-52241210D01*
X77515850Y-52320263D01*
X77437363Y-52389797D01*
X77388802Y-52432819D01*
X77388516Y-52433072D01*
X77291882Y-52573068D01*
X77291882Y-52573069D01*
X77238080Y-52714934D01*
X77209819Y-52758644D01*
X75704496Y-54263968D01*
X75698393Y-54269320D01*
X75670117Y-54291017D01*
X75664374Y-54296762D01*
X75662467Y-54294855D01*
X75616730Y-54328242D01*
X75546983Y-54332386D01*
X75486068Y-54298164D01*
X75453325Y-54236441D01*
X75450800Y-54211546D01*
X75450800Y-45563096D01*
X75470485Y-45496057D01*
X75487114Y-45475420D01*
X78112622Y-42849911D01*
X78170624Y-42817198D01*
X78217725Y-42805590D01*
X78368352Y-42726534D01*
X78495683Y-42613729D01*
X78592318Y-42473730D01*
X78652640Y-42314672D01*
X78673145Y-42145800D01*
X78652640Y-41976928D01*
X78592318Y-41817870D01*
X78495683Y-41677871D01*
X78368352Y-41565066D01*
X78368349Y-41565063D01*
X78217726Y-41486010D01*
X78052556Y-41445300D01*
X77882444Y-41445300D01*
X77717273Y-41486010D01*
X77566650Y-41565063D01*
X77439316Y-41677872D01*
X77342682Y-41817868D01*
X77342682Y-41817869D01*
X77288880Y-41959734D01*
X77260619Y-42003444D01*
X74456396Y-44807668D01*
X74450293Y-44813020D01*
X74422019Y-44834716D01*
X74397850Y-44866215D01*
X74325761Y-44960162D01*
X74325761Y-44960163D01*
X74265257Y-45106234D01*
X74265255Y-45106239D01*
X74244618Y-45262998D01*
X74244618Y-45262999D01*
X74249269Y-45298326D01*
X74249800Y-45306428D01*
X74249800Y-48797844D01*
X74230115Y-48864883D01*
X74177311Y-48910638D01*
X74108153Y-48920582D01*
X74044597Y-48891557D01*
X74043573Y-48890660D01*
X73997752Y-48850066D01*
X73997750Y-48850065D01*
X73997749Y-48850064D01*
X73847126Y-48771010D01*
X73681956Y-48730300D01*
X73511844Y-48730300D01*
X73346673Y-48771010D01*
X73196050Y-48850063D01*
X73068716Y-48962872D01*
X72972082Y-49102868D01*
X72911760Y-49261925D01*
X72911759Y-49261930D01*
X72891255Y-49430800D01*
X72911759Y-49599669D01*
X72911760Y-49599674D01*
X72972082Y-49758731D01*
X73010744Y-49814741D01*
X73068717Y-49898729D01*
X73196048Y-50011534D01*
X73196050Y-50011535D01*
X73281526Y-50056397D01*
X73331738Y-50104981D01*
X73347900Y-50166193D01*
X73347900Y-50717496D01*
X73328215Y-50784535D01*
X73275411Y-50830290D01*
X73206253Y-50840234D01*
X73194226Y-50837893D01*
X73031557Y-50797800D01*
X73031556Y-50797800D01*
X72861444Y-50797800D01*
X72696273Y-50838510D01*
X72545650Y-50917563D01*
X72418316Y-51030372D01*
X72321682Y-51170368D01*
X72321682Y-51170369D01*
X72267880Y-51312234D01*
X72239619Y-51355944D01*
X71961196Y-51634368D01*
X71955094Y-51639719D01*
X71926816Y-51661418D01*
X71865674Y-51741102D01*
X71842217Y-51771673D01*
X71837745Y-51777500D01*
X71830562Y-51786860D01*
X71770057Y-51932934D01*
X71770055Y-51932939D01*
X71749418Y-52089698D01*
X71749418Y-52089699D01*
X71754069Y-52125026D01*
X71754600Y-52133128D01*
X71754600Y-93968802D01*
X71734915Y-94035841D01*
X71718281Y-94056483D01*
X57919863Y-107854900D01*
X57913759Y-107860253D01*
X57825317Y-107928117D01*
X57803624Y-107956390D01*
X57798271Y-107962494D01*
X56857584Y-108903181D01*
X56796261Y-108936666D01*
X56769903Y-108939500D01*
X55151967Y-108939500D01*
X55084928Y-108919815D01*
X55053013Y-108890227D01*
X54955872Y-108761593D01*
X54943491Y-108750306D01*
X54798302Y-108617948D01*
X54617019Y-108505702D01*
X54617017Y-108505701D01*
X54473805Y-108450221D01*
X54418198Y-108428679D01*
X54208610Y-108389500D01*
X53995390Y-108389500D01*
X53785802Y-108428679D01*
X53785799Y-108428679D01*
X53785799Y-108428680D01*
X53586982Y-108505701D01*
X53586980Y-108505702D01*
X53405699Y-108617947D01*
X53248127Y-108761593D01*
X53119632Y-108931746D01*
X53024596Y-109122605D01*
X53024596Y-109122607D01*
X52966244Y-109327689D01*
X52957905Y-109417689D01*
X52946571Y-109540000D01*
X52966244Y-109752310D01*
X53017913Y-109933906D01*
X53024596Y-109957392D01*
X53024596Y-109957394D01*
X53119632Y-110148253D01*
X53248127Y-110318406D01*
X53248128Y-110318407D01*
X53405698Y-110462052D01*
X53586981Y-110574298D01*
X53785802Y-110651321D01*
X53982613Y-110688111D01*
X54044893Y-110719779D01*
X54080166Y-110780092D01*
X54077232Y-110849900D01*
X54037023Y-110907040D01*
X53982613Y-110931888D01*
X53785802Y-110968679D01*
X53785799Y-110968679D01*
X53785799Y-110968680D01*
X53586982Y-111045701D01*
X53586980Y-111045702D01*
X53405699Y-111157947D01*
X53248127Y-111301593D01*
X53119632Y-111471746D01*
X53024596Y-111662605D01*
X53024596Y-111662607D01*
X52966244Y-111867689D01*
X52949530Y-112048060D01*
X52923744Y-112112998D01*
X52866943Y-112153685D01*
X52797162Y-112157205D01*
X52738378Y-112124300D01*
X52436819Y-111822741D01*
X52403334Y-111761418D01*
X52400500Y-111735060D01*
X52400500Y-92635010D01*
X52674100Y-92635010D01*
X52713279Y-92844598D01*
X52790302Y-93043419D01*
X52902548Y-93224702D01*
X53046193Y-93382272D01*
X53216346Y-93510767D01*
X53407206Y-93605803D01*
X53407208Y-93605803D01*
X53407211Y-93605805D01*
X53612290Y-93664156D01*
X53771406Y-93678900D01*
X53771410Y-93678900D01*
X54127790Y-93678900D01*
X54127794Y-93678900D01*
X54286910Y-93664156D01*
X54491989Y-93605805D01*
X54491993Y-93605803D01*
X54491994Y-93605803D01*
X54682853Y-93510767D01*
X54682853Y-93510766D01*
X54682855Y-93510766D01*
X54853007Y-93382272D01*
X54996652Y-93224702D01*
X55108898Y-93043419D01*
X55185921Y-92844598D01*
X55225100Y-92635010D01*
X55225100Y-92421790D01*
X55185921Y-92212202D01*
X55108898Y-92013381D01*
X54996652Y-91832098D01*
X54853007Y-91674528D01*
X54853006Y-91674527D01*
X54682853Y-91546032D01*
X54491993Y-91450996D01*
X54304560Y-91397666D01*
X54245467Y-91360386D01*
X54215910Y-91297077D01*
X54225272Y-91227837D01*
X54270582Y-91174651D01*
X54304560Y-91159134D01*
X54491989Y-91105805D01*
X54491993Y-91105803D01*
X54491994Y-91105803D01*
X54682853Y-91010767D01*
X54682853Y-91010766D01*
X54682855Y-91010766D01*
X54853007Y-90882272D01*
X54996652Y-90724702D01*
X55108898Y-90543419D01*
X55185921Y-90344598D01*
X55225100Y-90135010D01*
X55225100Y-89921790D01*
X55185921Y-89712202D01*
X55108898Y-89513381D01*
X54996652Y-89332098D01*
X54853007Y-89174528D01*
X54834140Y-89160280D01*
X54682853Y-89046032D01*
X54491993Y-88950996D01*
X54304560Y-88897666D01*
X54245467Y-88860386D01*
X54215910Y-88797077D01*
X54225272Y-88727837D01*
X54270582Y-88674651D01*
X54304560Y-88659134D01*
X54323827Y-88653652D01*
X54491989Y-88605805D01*
X54491993Y-88605803D01*
X54491994Y-88605803D01*
X54682853Y-88510767D01*
X54682853Y-88510766D01*
X54682855Y-88510766D01*
X54853007Y-88382272D01*
X54996652Y-88224702D01*
X55108898Y-88043419D01*
X55185921Y-87844598D01*
X55225100Y-87635010D01*
X55225100Y-87421790D01*
X55185921Y-87212202D01*
X55108898Y-87013381D01*
X54996652Y-86832098D01*
X54853007Y-86674528D01*
X54781172Y-86620280D01*
X54682853Y-86546032D01*
X54491993Y-86450996D01*
X54286910Y-86392644D01*
X54127794Y-86377900D01*
X53771406Y-86377900D01*
X53644113Y-86389695D01*
X53612289Y-86392644D01*
X53407207Y-86450996D01*
X53407205Y-86450996D01*
X53216346Y-86546032D01*
X53046193Y-86674527D01*
X52902547Y-86832099D01*
X52790302Y-87013380D01*
X52790301Y-87013382D01*
X52713280Y-87212199D01*
X52713279Y-87212202D01*
X52674100Y-87421790D01*
X52674100Y-87635010D01*
X52713279Y-87844598D01*
X52790302Y-88043419D01*
X52902548Y-88224702D01*
X53007523Y-88339853D01*
X53046193Y-88382272D01*
X53216346Y-88510767D01*
X53407206Y-88605803D01*
X53407208Y-88605803D01*
X53407211Y-88605805D01*
X53541571Y-88644034D01*
X53594639Y-88659134D01*
X53653732Y-88696414D01*
X53683289Y-88759724D01*
X53673927Y-88828963D01*
X53628617Y-88882149D01*
X53594639Y-88897666D01*
X53407207Y-88950996D01*
X53407205Y-88950996D01*
X53216346Y-89046032D01*
X53046193Y-89174527D01*
X52902547Y-89332099D01*
X52790302Y-89513380D01*
X52790301Y-89513382D01*
X52713280Y-89712199D01*
X52713279Y-89712202D01*
X52674100Y-89921790D01*
X52674100Y-90135010D01*
X52713279Y-90344598D01*
X52790302Y-90543419D01*
X52902548Y-90724702D01*
X53043988Y-90879853D01*
X53046193Y-90882272D01*
X53216346Y-91010767D01*
X53407206Y-91105803D01*
X53407208Y-91105803D01*
X53407211Y-91105805D01*
X53541571Y-91144034D01*
X53594639Y-91159134D01*
X53653732Y-91196414D01*
X53683289Y-91259724D01*
X53673927Y-91328963D01*
X53628617Y-91382149D01*
X53594639Y-91397666D01*
X53407207Y-91450996D01*
X53407205Y-91450996D01*
X53216346Y-91546032D01*
X53046193Y-91674527D01*
X52902547Y-91832099D01*
X52790302Y-92013380D01*
X52790301Y-92013382D01*
X52713280Y-92212199D01*
X52713279Y-92212202D01*
X52674100Y-92421790D01*
X52674100Y-92635010D01*
X52400500Y-92635010D01*
X52400500Y-82760940D01*
X52420185Y-82693901D01*
X52436818Y-82673260D01*
X52445552Y-82664526D01*
X52476411Y-82633666D01*
X52537731Y-82600182D01*
X52607423Y-82605166D01*
X52663357Y-82647036D01*
X52685979Y-82698561D01*
X52713279Y-82844598D01*
X52790302Y-83043419D01*
X52902548Y-83224702D01*
X53043398Y-83379206D01*
X53046193Y-83382272D01*
X53216346Y-83510767D01*
X53407206Y-83605803D01*
X53407208Y-83605803D01*
X53407211Y-83605805D01*
X53612290Y-83664156D01*
X53771406Y-83678900D01*
X53771410Y-83678900D01*
X54127790Y-83678900D01*
X54127794Y-83678900D01*
X54286910Y-83664156D01*
X54491989Y-83605805D01*
X54491993Y-83605803D01*
X54491994Y-83605803D01*
X54682853Y-83510767D01*
X54682853Y-83510766D01*
X54682855Y-83510766D01*
X54853007Y-83382272D01*
X54996652Y-83224702D01*
X55108898Y-83043419D01*
X55185921Y-82844598D01*
X55225100Y-82635010D01*
X55225100Y-82436339D01*
X55244785Y-82369300D01*
X55261419Y-82348658D01*
X55736884Y-81873193D01*
X56338326Y-81271752D01*
X56370316Y-81239762D01*
X56392537Y-81204395D01*
X56396552Y-81198736D01*
X56422591Y-81166087D01*
X56440709Y-81128461D01*
X56444065Y-81122389D01*
X56466289Y-81087022D01*
X56480080Y-81047605D01*
X56482736Y-81041193D01*
X56500860Y-81003561D01*
X56510158Y-80962821D01*
X56512071Y-80956180D01*
X56525868Y-80916755D01*
X56530543Y-80875260D01*
X56531708Y-80868405D01*
X56538372Y-80839206D01*
X56541000Y-80827694D01*
X56541000Y-80647306D01*
X56541000Y-78033500D01*
X65238855Y-78033500D01*
X65259359Y-78202369D01*
X65259360Y-78202374D01*
X65319682Y-78361431D01*
X65375884Y-78442852D01*
X65416317Y-78501429D01*
X65522005Y-78595060D01*
X65543650Y-78614236D01*
X65694273Y-78693289D01*
X65694275Y-78693290D01*
X65859444Y-78734000D01*
X66029556Y-78734000D01*
X66194725Y-78693290D01*
X66311272Y-78632121D01*
X66345349Y-78614236D01*
X66345350Y-78614234D01*
X66345352Y-78614234D01*
X66472683Y-78501429D01*
X66569318Y-78361430D01*
X66629640Y-78202372D01*
X66650145Y-78033500D01*
X66629640Y-77864628D01*
X66569318Y-77705570D01*
X66566948Y-77702137D01*
X66565989Y-77699227D01*
X66565831Y-77698926D01*
X66565881Y-77698899D01*
X66545067Y-77635783D01*
X66545000Y-77631699D01*
X66545000Y-51775496D01*
X66564685Y-51708457D01*
X66581315Y-51687819D01*
X67200653Y-51068480D01*
X67261974Y-51034997D01*
X67331665Y-51039981D01*
X67387599Y-51081852D01*
X67404274Y-51112192D01*
X67441730Y-51210955D01*
X67444982Y-51219530D01*
X67447349Y-51222960D01*
X67448309Y-51225869D01*
X67448468Y-51226172D01*
X67448417Y-51226198D01*
X67469233Y-51289313D01*
X67469300Y-51293400D01*
X67469300Y-75420168D01*
X67449615Y-75487207D01*
X67402927Y-75529964D01*
X67271649Y-75598865D01*
X67144316Y-75711672D01*
X67047682Y-75851668D01*
X66987360Y-76010725D01*
X66987359Y-76010730D01*
X66966855Y-76179600D01*
X66987359Y-76348469D01*
X66987360Y-76348474D01*
X67047682Y-76507531D01*
X67109975Y-76597777D01*
X67144317Y-76647529D01*
X67250005Y-76741160D01*
X67271650Y-76760336D01*
X67413604Y-76834839D01*
X67422275Y-76839390D01*
X67587444Y-76880100D01*
X67757556Y-76880100D01*
X67922725Y-76839390D01*
X68005018Y-76796199D01*
X68073349Y-76760336D01*
X68073350Y-76760334D01*
X68073352Y-76760334D01*
X68200683Y-76647529D01*
X68297318Y-76507530D01*
X68351121Y-76365660D01*
X68379378Y-76321955D01*
X68463723Y-76237610D01*
X68469803Y-76232279D01*
X68480024Y-76224437D01*
X68545194Y-76199250D01*
X68613638Y-76213295D01*
X68663623Y-76262113D01*
X68679500Y-76322821D01*
X68679500Y-76796199D01*
X68659815Y-76863238D01*
X68657551Y-76866638D01*
X68655182Y-76870069D01*
X68594860Y-77029125D01*
X68594859Y-77029130D01*
X68574355Y-77198000D01*
X68594859Y-77366869D01*
X68594860Y-77366874D01*
X68655182Y-77525931D01*
X68717475Y-77616177D01*
X68751817Y-77665929D01*
X68796563Y-77705570D01*
X68879150Y-77778736D01*
X69029773Y-77857789D01*
X69029775Y-77857790D01*
X69194944Y-77898500D01*
X69365056Y-77898500D01*
X69530225Y-77857790D01*
X69609692Y-77816081D01*
X69680849Y-77778736D01*
X69680850Y-77778734D01*
X69680852Y-77778734D01*
X69808183Y-77665929D01*
X69904818Y-77525930D01*
X69965140Y-77366872D01*
X69985645Y-77198000D01*
X69965140Y-77029128D01*
X69904818Y-76870070D01*
X69902448Y-76866637D01*
X69901489Y-76863727D01*
X69901331Y-76863426D01*
X69901381Y-76863399D01*
X69880567Y-76800283D01*
X69880500Y-76796199D01*
X69880500Y-47540096D01*
X69900185Y-47473057D01*
X69916814Y-47452420D01*
X73620322Y-43748911D01*
X73678324Y-43716198D01*
X73725425Y-43704590D01*
X73876052Y-43625534D01*
X74003383Y-43512729D01*
X74100018Y-43372730D01*
X74160340Y-43213672D01*
X74180845Y-43044800D01*
X74160340Y-42875928D01*
X74100018Y-42716870D01*
X74075334Y-42681110D01*
X74023099Y-42605435D01*
X74003383Y-42576871D01*
X73886962Y-42473731D01*
X73876049Y-42464063D01*
X73725426Y-42385010D01*
X73560256Y-42344300D01*
X73390144Y-42344300D01*
X73224973Y-42385010D01*
X73074350Y-42464063D01*
X72947016Y-42576872D01*
X72850382Y-42716868D01*
X72850382Y-42716869D01*
X72796580Y-42858734D01*
X72768319Y-42902444D01*
X68886096Y-46784668D01*
X68879993Y-46790020D01*
X68851719Y-46811716D01*
X68827550Y-46843215D01*
X68755461Y-46937162D01*
X68755461Y-46937163D01*
X68694957Y-47083234D01*
X68694955Y-47083239D01*
X68674318Y-47239998D01*
X68674318Y-47239999D01*
X68678969Y-47275326D01*
X68679500Y-47283428D01*
X68679500Y-48829934D01*
X68659815Y-48896973D01*
X68607011Y-48942728D01*
X68537853Y-48952672D01*
X68474297Y-48923647D01*
X68473273Y-48922750D01*
X68459042Y-48910142D01*
X68390552Y-48849466D01*
X68390550Y-48849465D01*
X68390549Y-48849464D01*
X68239926Y-48770410D01*
X68074756Y-48729700D01*
X67904644Y-48729700D01*
X67739473Y-48770410D01*
X67588850Y-48849463D01*
X67461516Y-48962272D01*
X67364882Y-49102268D01*
X67364882Y-49102269D01*
X67311080Y-49244134D01*
X67282819Y-49287844D01*
X65550596Y-51020068D01*
X65544493Y-51025420D01*
X65516219Y-51047116D01*
X65492050Y-51078615D01*
X65419961Y-51172562D01*
X65419961Y-51172563D01*
X65359457Y-51318634D01*
X65359455Y-51318639D01*
X65338818Y-51475398D01*
X65338818Y-51475399D01*
X65343469Y-51510726D01*
X65344000Y-51518828D01*
X65344000Y-77631699D01*
X65324315Y-77698738D01*
X65322051Y-77702138D01*
X65319682Y-77705569D01*
X65259360Y-77864625D01*
X65259359Y-77864630D01*
X65238855Y-78033500D01*
X56541000Y-78033500D01*
X56541000Y-71205546D01*
X56541000Y-71160306D01*
X56531707Y-71119593D01*
X56530542Y-71112733D01*
X56525868Y-71071245D01*
X56514662Y-71039219D01*
X56512076Y-71031828D01*
X56510153Y-71025155D01*
X56500860Y-70984439D01*
X56490372Y-70962661D01*
X56482739Y-70946810D01*
X56480076Y-70940381D01*
X56478809Y-70936760D01*
X56466289Y-70900978D01*
X56466287Y-70900975D01*
X56466287Y-70900974D01*
X56460733Y-70892137D01*
X56444069Y-70865616D01*
X56440718Y-70859554D01*
X56422592Y-70821913D01*
X56396548Y-70789255D01*
X56392532Y-70783595D01*
X56370316Y-70748238D01*
X56242762Y-70620684D01*
X55429219Y-69807141D01*
X55395734Y-69745818D01*
X55392900Y-69719460D01*
X55392900Y-69509303D01*
X55392900Y-69509298D01*
X55382277Y-69420836D01*
X55352346Y-69344936D01*
X55343700Y-69299446D01*
X55343700Y-67305893D01*
X55363385Y-67238854D01*
X55368891Y-67230974D01*
X55377561Y-67219542D01*
X55433077Y-67078764D01*
X55443700Y-66990302D01*
X55443700Y-66004098D01*
X55433077Y-65915636D01*
X55377561Y-65774858D01*
X55377559Y-65774856D01*
X55377559Y-65774855D01*
X55368896Y-65763431D01*
X55344073Y-65698119D01*
X55343700Y-65688506D01*
X55343700Y-64361105D01*
X55343699Y-64361102D01*
X55342725Y-64356834D01*
X55334403Y-64320376D01*
X55333244Y-64313551D01*
X55328568Y-64272045D01*
X55314774Y-64232624D01*
X55312852Y-64225955D01*
X55303559Y-64185239D01*
X55285445Y-64147626D01*
X55282783Y-64141198D01*
X55268989Y-64101778D01*
X55259988Y-64087453D01*
X55246763Y-64066406D01*
X55243413Y-64060344D01*
X55225291Y-64022713D01*
X55199249Y-63990057D01*
X55195238Y-63984404D01*
X55181217Y-63962090D01*
X55173018Y-63949040D01*
X53126019Y-61902041D01*
X53092534Y-61840718D01*
X53089700Y-61814360D01*
X53089700Y-51862693D01*
X53109385Y-51795654D01*
X53114891Y-51787774D01*
X53123561Y-51776342D01*
X53173846Y-51648826D01*
X53216751Y-51593685D01*
X53282659Y-51570492D01*
X53350643Y-51586612D01*
X53399120Y-51636929D01*
X53404548Y-51648814D01*
X53434251Y-51724135D01*
X53454839Y-51776343D01*
X53546277Y-51896922D01*
X53666856Y-51988360D01*
X53666857Y-51988360D01*
X53666858Y-51988361D01*
X53807636Y-52043877D01*
X53896098Y-52054500D01*
X54241100Y-52054500D01*
X54308139Y-52074185D01*
X54353894Y-52126989D01*
X54365100Y-52178500D01*
X54365100Y-52532700D01*
X54345415Y-52599739D01*
X54292611Y-52645494D01*
X54241102Y-52656700D01*
X54170743Y-52656700D01*
X54170718Y-52656702D01*
X54145611Y-52659614D01*
X54145608Y-52659615D01*
X54042835Y-52704993D01*
X53963394Y-52784434D01*
X53918015Y-52887206D01*
X53918015Y-52887208D01*
X53915100Y-52912331D01*
X53915100Y-54502056D01*
X53915102Y-54502082D01*
X53918013Y-54527187D01*
X53918015Y-54527191D01*
X53963393Y-54629964D01*
X53963394Y-54629965D01*
X54042835Y-54709406D01*
X54145609Y-54754785D01*
X54170735Y-54757700D01*
X55760464Y-54757699D01*
X55760479Y-54757697D01*
X55760482Y-54757697D01*
X55785587Y-54754786D01*
X55785588Y-54754785D01*
X55785591Y-54754785D01*
X55888365Y-54709406D01*
X55967806Y-54629965D01*
X56013185Y-54527191D01*
X56016100Y-54502065D01*
X56016099Y-52912336D01*
X56016097Y-52912317D01*
X56013186Y-52887212D01*
X56013185Y-52887210D01*
X56013185Y-52887209D01*
X55967806Y-52784435D01*
X55888365Y-52704994D01*
X55888363Y-52704993D01*
X55785592Y-52659615D01*
X55760468Y-52656700D01*
X55760465Y-52656700D01*
X55690100Y-52656700D01*
X55623061Y-52637015D01*
X55577306Y-52584211D01*
X55566100Y-52532700D01*
X55566100Y-52030496D01*
X55585785Y-51963457D01*
X55602415Y-51942819D01*
X56352194Y-51193039D01*
X56413515Y-51159556D01*
X56469545Y-51160324D01*
X56604144Y-51193500D01*
X56774256Y-51193500D01*
X56939425Y-51152790D01*
X57018892Y-51111081D01*
X57090049Y-51073736D01*
X57090050Y-51073734D01*
X57090052Y-51073734D01*
X57217383Y-50960929D01*
X57314018Y-50820930D01*
X57374340Y-50661872D01*
X57394845Y-50493000D01*
X57374340Y-50324128D01*
X57369310Y-50310866D01*
X57327678Y-50201090D01*
X57314018Y-50165070D01*
X57311648Y-50161637D01*
X57310689Y-50158727D01*
X57310531Y-50158426D01*
X57310581Y-50158399D01*
X57289767Y-50095283D01*
X57289700Y-50091199D01*
X57289700Y-49805882D01*
X57309385Y-49738843D01*
X57362189Y-49693088D01*
X57368194Y-49690533D01*
X57440142Y-49662161D01*
X57560722Y-49570722D01*
X57652161Y-49450142D01*
X57707677Y-49309364D01*
X57718300Y-49220902D01*
X57718300Y-48459698D01*
X57707677Y-48371236D01*
X57652161Y-48230458D01*
X57652160Y-48230457D01*
X57652160Y-48230456D01*
X57560722Y-48109877D01*
X57440143Y-48018439D01*
X57299361Y-47962922D01*
X57253726Y-47957442D01*
X57210902Y-47952300D01*
X56174698Y-47952300D01*
X56135653Y-47956988D01*
X56086238Y-47962922D01*
X55945456Y-48018439D01*
X55824877Y-48109877D01*
X55733439Y-48230456D01*
X55677922Y-48371238D01*
X55671988Y-48420653D01*
X55667300Y-48459698D01*
X55667300Y-49220902D01*
X55670090Y-49244134D01*
X55677922Y-49309361D01*
X55733439Y-49450143D01*
X55824877Y-49570722D01*
X55916316Y-49640061D01*
X55945458Y-49662161D01*
X56010190Y-49687688D01*
X56065333Y-49730592D01*
X56088527Y-49796500D01*
X56088700Y-49803042D01*
X56088700Y-49807513D01*
X56069015Y-49874552D01*
X56016211Y-49920307D01*
X56012153Y-49922074D01*
X55900158Y-49968464D01*
X55774719Y-50064716D01*
X55753019Y-50092994D01*
X55747668Y-50099096D01*
X55367978Y-50478786D01*
X55306655Y-50512271D01*
X55236964Y-50507287D01*
X55181030Y-50465416D01*
X55164944Y-50436598D01*
X55139075Y-50371000D01*
X55123561Y-50331657D01*
X55032122Y-50211077D01*
X54911543Y-50119639D01*
X54815392Y-50081722D01*
X54770764Y-50064123D01*
X54770763Y-50064122D01*
X54770761Y-50064122D01*
X54725126Y-50058642D01*
X54682302Y-50053500D01*
X53896098Y-50053500D01*
X53857053Y-50058188D01*
X53807638Y-50064122D01*
X53666856Y-50119639D01*
X53546277Y-50211077D01*
X53454838Y-50331658D01*
X53404553Y-50459171D01*
X53361647Y-50514314D01*
X53295739Y-50537507D01*
X53227755Y-50521386D01*
X53179278Y-50471069D01*
X53173852Y-50459187D01*
X53123561Y-50331658D01*
X53117852Y-50324130D01*
X53114896Y-50320231D01*
X53090073Y-50254919D01*
X53089700Y-50245306D01*
X53089700Y-46637305D01*
X53089699Y-46637302D01*
X53080403Y-46596576D01*
X53079244Y-46589751D01*
X53074568Y-46548245D01*
X53060774Y-46508824D01*
X53058852Y-46502155D01*
X53049559Y-46461439D01*
X53049557Y-46461434D01*
X53049557Y-46461433D01*
X53035181Y-46431582D01*
X53022900Y-46377779D01*
X53022900Y-46280693D01*
X53042585Y-46213654D01*
X53095389Y-46167899D01*
X53132613Y-46157518D01*
X53142391Y-46156385D01*
X53245165Y-46111006D01*
X53324606Y-46031565D01*
X53369985Y-45928791D01*
X53371120Y-45919008D01*
X53398401Y-45854684D01*
X53456127Y-45815320D01*
X53494294Y-45809300D01*
X53964494Y-45809300D01*
X54005205Y-45800008D01*
X54012060Y-45798843D01*
X54053555Y-45794168D01*
X54092980Y-45780371D01*
X54099621Y-45778458D01*
X54140361Y-45769160D01*
X54177993Y-45751036D01*
X54184405Y-45748380D01*
X54223822Y-45734589D01*
X54259189Y-45712365D01*
X54265261Y-45709009D01*
X54302887Y-45690891D01*
X54335536Y-45664852D01*
X54341195Y-45660837D01*
X54376562Y-45638616D01*
X54504116Y-45511062D01*
X60637159Y-39378019D01*
X60698482Y-39344534D01*
X60724840Y-39341700D01*
X77143260Y-39341700D01*
X77210299Y-39361385D01*
X77230941Y-39378019D01*
X79262958Y-41410036D01*
X79290631Y-41452227D01*
X79329637Y-41551139D01*
X79329638Y-41551141D01*
X79421077Y-41671722D01*
X79541656Y-41763160D01*
X79541657Y-41763160D01*
X79541658Y-41763161D01*
X79682436Y-41818677D01*
X79770898Y-41829300D01*
X79770903Y-41829300D01*
X80757097Y-41829300D01*
X80757102Y-41829300D01*
X80845564Y-41818677D01*
X80986342Y-41763161D01*
X81106922Y-41671722D01*
X81198361Y-41551142D01*
X81253877Y-41410364D01*
X81264500Y-41321902D01*
X81264500Y-40535698D01*
X81253877Y-40447236D01*
X81198361Y-40306458D01*
X81198360Y-40306457D01*
X81198360Y-40306456D01*
X81106922Y-40185877D01*
X80986343Y-40094439D01*
X80948339Y-40079452D01*
X80858826Y-40044153D01*
X80803685Y-40001249D01*
X80780492Y-39935341D01*
X80796612Y-39867357D01*
X80846929Y-39818880D01*
X80858814Y-39813451D01*
X80986342Y-39763161D01*
X81106922Y-39671722D01*
X81140912Y-39626900D01*
X81177710Y-39578375D01*
X81233903Y-39536851D01*
X81276514Y-39529300D01*
X82684671Y-39529300D01*
X82751710Y-39548985D01*
X82759599Y-39554498D01*
X82767856Y-39560760D01*
X82767857Y-39560760D01*
X82767858Y-39560761D01*
X82908636Y-39616277D01*
X82997098Y-39626900D01*
X83502603Y-39626900D01*
X83569642Y-39646585D01*
X83590284Y-39663219D01*
X84148569Y-40221504D01*
X84153920Y-40227605D01*
X84175618Y-40255882D01*
X84231790Y-40298984D01*
X84301059Y-40352136D01*
X84301061Y-40352136D01*
X84301063Y-40352138D01*
X84374098Y-40382390D01*
X84447138Y-40412644D01*
X84525519Y-40422963D01*
X84603899Y-40433282D01*
X84603900Y-40433282D01*
X84639229Y-40428630D01*
X84647328Y-40428100D01*
X85059203Y-40428100D01*
X85126242Y-40447785D01*
X85146884Y-40464419D01*
X86180381Y-41497916D01*
X86213866Y-41559239D01*
X86216700Y-41585597D01*
X86216700Y-43681900D01*
X86197015Y-43748939D01*
X86144211Y-43794694D01*
X86092702Y-43805900D01*
X86022343Y-43805900D01*
X86022318Y-43805902D01*
X85997211Y-43808814D01*
X85997208Y-43808815D01*
X85894435Y-43854193D01*
X85814994Y-43933634D01*
X85769615Y-44036406D01*
X85769615Y-44036408D01*
X85766700Y-44061531D01*
X85766700Y-45651256D01*
X85766702Y-45651282D01*
X85769613Y-45676387D01*
X85769615Y-45676391D01*
X85814993Y-45779164D01*
X85814994Y-45779165D01*
X85894435Y-45858606D01*
X85997209Y-45903985D01*
X86022335Y-45906900D01*
X87532100Y-45906899D01*
X87599139Y-45926584D01*
X87644894Y-45979387D01*
X87656100Y-46030899D01*
X87656100Y-49747702D01*
X87636415Y-49814741D01*
X87619781Y-49835383D01*
X81177781Y-56277383D01*
X81116458Y-56310868D01*
X81046766Y-56305884D01*
X80990833Y-56264012D01*
X80966416Y-56198548D01*
X80966100Y-56189702D01*
X80966100Y-46469396D01*
X80985785Y-46402357D01*
X81002414Y-46381720D01*
X84655322Y-42728811D01*
X84713324Y-42696098D01*
X84760425Y-42684490D01*
X84911052Y-42605434D01*
X85038383Y-42492629D01*
X85135018Y-42352630D01*
X85195340Y-42193572D01*
X85215845Y-42024700D01*
X85195340Y-41855828D01*
X85135018Y-41696770D01*
X85130616Y-41690393D01*
X85058280Y-41585597D01*
X85038383Y-41556771D01*
X84943516Y-41472726D01*
X84911049Y-41443963D01*
X84760426Y-41364910D01*
X84595256Y-41324200D01*
X84425144Y-41324200D01*
X84259973Y-41364910D01*
X84109350Y-41443963D01*
X83982016Y-41556772D01*
X83885382Y-41696768D01*
X83885382Y-41696769D01*
X83831580Y-41838634D01*
X83803319Y-41882344D01*
X79971696Y-45713968D01*
X79965593Y-45719320D01*
X79937319Y-45741016D01*
X79913150Y-45772515D01*
X79841061Y-45866462D01*
X79841061Y-45866463D01*
X79780557Y-46012534D01*
X79780555Y-46012539D01*
X79759918Y-46169298D01*
X79759918Y-46169299D01*
X79764569Y-46204626D01*
X79765100Y-46212728D01*
X79765100Y-74429371D01*
X79764569Y-74437473D01*
X79759918Y-74472799D01*
X79759918Y-74472800D01*
X79765100Y-74512160D01*
X79780555Y-74629560D01*
X79780556Y-74629562D01*
X79841064Y-74775641D01*
X79937318Y-74901082D01*
X79965595Y-74922780D01*
X79971685Y-74928120D01*
X83657799Y-78614234D01*
X87323314Y-82279749D01*
X87356799Y-82341072D01*
X87357410Y-82382691D01*
X87358373Y-82382781D01*
X87338171Y-82600799D01*
X87338171Y-82600800D01*
X87357844Y-82813110D01*
X87416196Y-83018192D01*
X87416196Y-83018194D01*
X87511232Y-83209053D01*
X87558606Y-83271785D01*
X87639728Y-83379207D01*
X87797298Y-83522852D01*
X87978581Y-83635098D01*
X88177402Y-83712121D01*
X88386990Y-83751300D01*
X88386992Y-83751300D01*
X88600208Y-83751300D01*
X88600210Y-83751300D01*
X88809798Y-83712121D01*
X89008619Y-83635098D01*
X89189902Y-83522852D01*
X89347472Y-83379207D01*
X89437603Y-83259855D01*
X89444613Y-83250573D01*
X89500722Y-83208937D01*
X89543567Y-83201300D01*
X90635745Y-83201300D01*
X90683197Y-83210739D01*
X90713350Y-83223228D01*
X90745738Y-83236644D01*
X90824119Y-83246963D01*
X90902499Y-83257282D01*
X90902500Y-83257282D01*
X90937829Y-83252630D01*
X90945928Y-83252100D01*
X91304433Y-83252100D01*
X91371472Y-83271785D01*
X91403387Y-83301373D01*
X91462164Y-83379206D01*
X91500528Y-83430007D01*
X91658098Y-83573652D01*
X91839381Y-83685898D01*
X92038202Y-83762921D01*
X92235013Y-83799711D01*
X92297293Y-83831379D01*
X92332566Y-83891692D01*
X92329632Y-83961500D01*
X92289423Y-84018640D01*
X92235013Y-84043488D01*
X92038202Y-84080279D01*
X92038199Y-84080279D01*
X92038199Y-84080280D01*
X91839382Y-84157301D01*
X91839380Y-84157302D01*
X91658099Y-84269547D01*
X91500527Y-84413193D01*
X91372032Y-84583346D01*
X91276996Y-84774205D01*
X91276996Y-84774207D01*
X91218644Y-84979289D01*
X91198971Y-85191599D01*
X91198971Y-85191600D01*
X91218644Y-85403910D01*
X91276996Y-85608992D01*
X91276996Y-85608994D01*
X91372032Y-85799853D01*
X91372034Y-85799855D01*
X91500528Y-85970007D01*
X91658098Y-86113652D01*
X91839381Y-86225898D01*
X92038202Y-86302921D01*
X92235013Y-86339711D01*
X92297293Y-86371379D01*
X92332566Y-86431692D01*
X92329632Y-86501500D01*
X92289423Y-86558640D01*
X92235013Y-86583488D01*
X92038202Y-86620279D01*
X92038199Y-86620279D01*
X92038199Y-86620280D01*
X91839382Y-86697301D01*
X91839380Y-86697302D01*
X91658099Y-86809547D01*
X91500527Y-86953193D01*
X91372032Y-87123346D01*
X91276996Y-87314205D01*
X91276996Y-87314207D01*
X91218644Y-87519289D01*
X91198971Y-87731599D01*
X91198971Y-87731600D01*
X91218644Y-87943910D01*
X91276996Y-88148992D01*
X91276996Y-88148994D01*
X91372032Y-88339853D01*
X91372034Y-88339855D01*
X91500528Y-88510007D01*
X91658098Y-88653652D01*
X91839381Y-88765898D01*
X92038202Y-88842921D01*
X92235013Y-88879711D01*
X92297293Y-88911379D01*
X92332566Y-88971692D01*
X92329632Y-89041500D01*
X92289423Y-89098640D01*
X92235013Y-89123488D01*
X92038202Y-89160279D01*
X92038199Y-89160279D01*
X92038199Y-89160280D01*
X91839382Y-89237301D01*
X91839380Y-89237302D01*
X91658099Y-89349547D01*
X91500527Y-89493193D01*
X91372032Y-89663346D01*
X91276996Y-89854205D01*
X91276996Y-89854207D01*
X91276995Y-89854211D01*
X91218644Y-90059290D01*
X91198971Y-90271600D01*
X91218644Y-90483910D01*
X91235575Y-90543417D01*
X91276996Y-90688992D01*
X91276996Y-90688994D01*
X91372032Y-90879853D01*
X91372034Y-90879855D01*
X91500528Y-91050007D01*
X91658098Y-91193652D01*
X91839381Y-91305898D01*
X92038202Y-91382921D01*
X92247790Y-91422100D01*
X92247792Y-91422100D01*
X92461008Y-91422100D01*
X92461010Y-91422100D01*
X92670598Y-91382921D01*
X92869419Y-91305898D01*
X93050702Y-91193652D01*
X93208272Y-91050007D01*
X93336766Y-90879855D01*
X93336767Y-90879853D01*
X93431803Y-90688994D01*
X93431803Y-90688993D01*
X93431805Y-90688989D01*
X93490156Y-90483910D01*
X93509829Y-90271600D01*
X93490156Y-90059290D01*
X93431805Y-89854211D01*
X93431803Y-89854206D01*
X93431803Y-89854205D01*
X93336767Y-89663346D01*
X93208272Y-89493193D01*
X93050702Y-89349548D01*
X92869419Y-89237302D01*
X92869417Y-89237301D01*
X92707379Y-89174528D01*
X92670598Y-89160279D01*
X92473785Y-89123488D01*
X92411506Y-89091821D01*
X92376233Y-89031508D01*
X92379167Y-88961700D01*
X92419376Y-88904560D01*
X92473784Y-88879711D01*
X92670598Y-88842921D01*
X92869419Y-88765898D01*
X93050702Y-88653652D01*
X93208272Y-88510007D01*
X93336766Y-88339855D01*
X93431805Y-88148989D01*
X93490156Y-87943910D01*
X93509829Y-87731600D01*
X93490156Y-87519290D01*
X93490156Y-87519289D01*
X93489627Y-87513581D01*
X93491250Y-87513430D01*
X93497498Y-87451525D01*
X93524683Y-87410550D01*
X94218822Y-86716411D01*
X94224899Y-86711083D01*
X94253182Y-86689382D01*
X94349436Y-86563941D01*
X94409944Y-86417862D01*
X94425400Y-86300461D01*
X94430582Y-86261100D01*
X94425930Y-86225769D01*
X94425400Y-86217671D01*
X94425400Y-73305228D01*
X94425931Y-73297126D01*
X94430582Y-73261799D01*
X94430582Y-73261798D01*
X94409944Y-73105039D01*
X94409942Y-73105034D01*
X94349438Y-72958963D01*
X94349438Y-72958962D01*
X94349436Y-72958959D01*
X94277350Y-72865015D01*
X94265266Y-72849266D01*
X94253183Y-72833518D01*
X94224909Y-72811823D01*
X94218812Y-72806477D01*
X92940419Y-71528084D01*
X92906934Y-71466761D01*
X92904100Y-71440403D01*
X92904100Y-71439433D01*
X92923785Y-71372394D01*
X92940419Y-71351752D01*
X92980806Y-71311365D01*
X93026185Y-71208591D01*
X93029100Y-71183465D01*
X93029099Y-70243736D01*
X93029097Y-70243717D01*
X93026186Y-70218612D01*
X93026185Y-70218610D01*
X93026185Y-70218609D01*
X92980806Y-70115835D01*
X92901365Y-70036394D01*
X92901363Y-70036393D01*
X92798592Y-69991015D01*
X92773465Y-69988100D01*
X91833743Y-69988100D01*
X91833717Y-69988102D01*
X91808612Y-69991013D01*
X91808608Y-69991015D01*
X91705835Y-70036393D01*
X91626394Y-70115834D01*
X91581015Y-70218606D01*
X91581015Y-70218608D01*
X91578100Y-70243731D01*
X91578100Y-71183456D01*
X91578102Y-71183482D01*
X91581013Y-71208587D01*
X91581015Y-71208591D01*
X91626393Y-71311364D01*
X91666781Y-71351752D01*
X91700266Y-71413075D01*
X91703100Y-71439433D01*
X91703100Y-71697071D01*
X91702569Y-71705173D01*
X91697918Y-71740499D01*
X91697918Y-71740501D01*
X91718555Y-71897260D01*
X91718556Y-71897262D01*
X91779064Y-72043341D01*
X91875318Y-72168782D01*
X91903595Y-72190480D01*
X91909685Y-72195820D01*
X92566330Y-72852465D01*
X93188081Y-73474216D01*
X93221566Y-73535539D01*
X93224400Y-73561897D01*
X93224400Y-73757100D01*
X93204715Y-73824139D01*
X93151911Y-73869894D01*
X93100400Y-73881100D01*
X91459543Y-73881100D01*
X91459517Y-73881102D01*
X91434412Y-73884013D01*
X91434408Y-73884015D01*
X91331635Y-73929393D01*
X91252194Y-74008834D01*
X91206815Y-74111606D01*
X91206815Y-74111608D01*
X91203900Y-74136731D01*
X91203900Y-75926456D01*
X91203902Y-75926482D01*
X91206813Y-75951587D01*
X91206815Y-75951591D01*
X91252193Y-76054364D01*
X91252194Y-76054365D01*
X91331635Y-76133806D01*
X91434409Y-76179185D01*
X91459535Y-76182100D01*
X93100400Y-76182099D01*
X93167439Y-76201784D01*
X93213194Y-76254587D01*
X93224400Y-76306099D01*
X93224400Y-79074474D01*
X93204715Y-79141513D01*
X93151911Y-79187268D01*
X93082753Y-79197212D01*
X93035123Y-79179901D01*
X92869424Y-79077305D01*
X92869417Y-79077301D01*
X92738285Y-79026501D01*
X92670598Y-79000279D01*
X92461010Y-78961100D01*
X92247790Y-78961100D01*
X92038202Y-79000279D01*
X92038199Y-79000279D01*
X92038199Y-79000280D01*
X91839382Y-79077301D01*
X91839380Y-79077302D01*
X91658099Y-79189547D01*
X91500527Y-79333193D01*
X91403387Y-79461827D01*
X91347278Y-79503463D01*
X91304433Y-79511100D01*
X90212255Y-79511100D01*
X90164803Y-79501661D01*
X90102265Y-79475757D01*
X90102260Y-79475755D01*
X89984861Y-79460300D01*
X89945500Y-79455118D01*
X89910170Y-79459769D01*
X89902072Y-79460300D01*
X89543567Y-79460300D01*
X89476528Y-79440615D01*
X89444613Y-79411027D01*
X89347472Y-79282393D01*
X89333827Y-79269954D01*
X89189902Y-79138748D01*
X89008619Y-79026502D01*
X89008617Y-79026501D01*
X88909208Y-78987990D01*
X88809798Y-78949479D01*
X88612985Y-78912688D01*
X88550706Y-78881021D01*
X88515433Y-78820708D01*
X88518367Y-78750900D01*
X88558576Y-78693760D01*
X88612984Y-78668911D01*
X88809798Y-78632121D01*
X89008619Y-78555098D01*
X89189902Y-78442852D01*
X89347472Y-78299207D01*
X89475966Y-78129055D01*
X89571005Y-77938189D01*
X89629356Y-77733110D01*
X89649029Y-77520800D01*
X89629356Y-77308490D01*
X89571005Y-77103411D01*
X89571003Y-77103406D01*
X89571003Y-77103405D01*
X89475967Y-76912546D01*
X89347472Y-76742393D01*
X89189902Y-76598748D01*
X89008619Y-76486502D01*
X89008617Y-76486501D01*
X88909208Y-76447990D01*
X88809798Y-76409479D01*
X88637053Y-76377187D01*
X88574774Y-76345520D01*
X88539501Y-76285207D01*
X88542435Y-76215399D01*
X88582644Y-76158259D01*
X88647362Y-76131928D01*
X88659840Y-76131299D01*
X89388456Y-76131299D01*
X89388464Y-76131299D01*
X89388479Y-76131297D01*
X89388482Y-76131297D01*
X89413587Y-76128386D01*
X89413588Y-76128385D01*
X89413591Y-76128385D01*
X89516365Y-76083006D01*
X89595806Y-76003565D01*
X89641185Y-75900791D01*
X89644100Y-75875665D01*
X89644099Y-74085936D01*
X89644097Y-74085917D01*
X89641186Y-74060812D01*
X89641185Y-74060810D01*
X89641185Y-74060809D01*
X89595806Y-73958035D01*
X89516365Y-73878594D01*
X89514127Y-73877606D01*
X89413592Y-73833215D01*
X89388465Y-73830300D01*
X87598743Y-73830300D01*
X87598717Y-73830302D01*
X87573612Y-73833213D01*
X87573608Y-73833215D01*
X87470835Y-73878593D01*
X87391394Y-73958034D01*
X87346015Y-74060806D01*
X87346015Y-74060808D01*
X87343100Y-74085931D01*
X87343100Y-75232903D01*
X87323415Y-75299942D01*
X87270611Y-75345697D01*
X87201453Y-75355641D01*
X87137897Y-75326616D01*
X87131419Y-75320584D01*
X85271119Y-73460284D01*
X85237634Y-73398961D01*
X85234800Y-73372603D01*
X85234800Y-65638015D01*
X85254485Y-65570976D01*
X85307289Y-65525221D01*
X85376447Y-65515277D01*
X85440003Y-65544302D01*
X85477777Y-65603080D01*
X85481704Y-65622139D01*
X85481860Y-65622774D01*
X85542182Y-65781831D01*
X85604475Y-65872077D01*
X85638817Y-65921829D01*
X85744505Y-66015460D01*
X85766150Y-66034636D01*
X85916773Y-66113689D01*
X85916775Y-66113690D01*
X86081944Y-66154400D01*
X86252056Y-66154400D01*
X86417225Y-66113690D01*
X86496692Y-66071981D01*
X86567849Y-66034636D01*
X86567850Y-66034634D01*
X86567852Y-66034634D01*
X86695183Y-65921829D01*
X86791818Y-65781830D01*
X86852140Y-65622772D01*
X86872645Y-65453900D01*
X86852140Y-65285028D01*
X86791818Y-65125970D01*
X86789448Y-65122537D01*
X86788489Y-65119627D01*
X86788331Y-65119326D01*
X86788381Y-65119299D01*
X86767567Y-65056183D01*
X86767500Y-65052099D01*
X86767500Y-63789896D01*
X86787185Y-63722857D01*
X86803814Y-63702220D01*
X88020121Y-62485913D01*
X88081441Y-62452430D01*
X88151133Y-62457414D01*
X88207066Y-62499286D01*
X88231483Y-62564750D01*
X88227066Y-62607527D01*
X88221444Y-62627287D01*
X88218023Y-62664204D01*
X88201771Y-62839600D01*
X88221444Y-63051910D01*
X88259869Y-63186959D01*
X88279796Y-63256992D01*
X88279796Y-63256994D01*
X88374832Y-63447853D01*
X88433187Y-63525126D01*
X88503328Y-63618007D01*
X88660898Y-63761652D01*
X88842181Y-63873898D01*
X89041002Y-63950921D01*
X89237813Y-63987711D01*
X89300093Y-64019379D01*
X89335366Y-64079692D01*
X89332432Y-64149500D01*
X89292223Y-64206640D01*
X89237813Y-64231488D01*
X89041002Y-64268279D01*
X89040999Y-64268279D01*
X89040999Y-64268280D01*
X88842182Y-64345301D01*
X88842180Y-64345302D01*
X88660899Y-64457547D01*
X88503327Y-64601193D01*
X88374832Y-64771346D01*
X88279796Y-64962205D01*
X88279796Y-64962207D01*
X88221444Y-65167289D01*
X88201771Y-65379599D01*
X88201771Y-65379600D01*
X88221444Y-65591910D01*
X88279796Y-65796992D01*
X88279796Y-65796994D01*
X88374832Y-65987853D01*
X88469860Y-66113689D01*
X88503328Y-66158007D01*
X88660898Y-66301652D01*
X88842181Y-66413898D01*
X89041002Y-66490921D01*
X89250590Y-66530100D01*
X89250592Y-66530100D01*
X89463808Y-66530100D01*
X89463810Y-66530100D01*
X89673398Y-66490921D01*
X89872219Y-66413898D01*
X90053502Y-66301652D01*
X90211072Y-66158007D01*
X90339566Y-65987855D01*
X90343125Y-65980707D01*
X90434603Y-65796994D01*
X90434603Y-65796993D01*
X90434605Y-65796989D01*
X90492956Y-65591910D01*
X90499229Y-65524205D01*
X90525014Y-65459269D01*
X90581814Y-65418581D01*
X90651595Y-65415061D01*
X90712202Y-65449825D01*
X90744393Y-65511838D01*
X90746700Y-65535647D01*
X90746700Y-66274456D01*
X90746702Y-66274482D01*
X90749613Y-66299587D01*
X90749615Y-66299591D01*
X90794993Y-66402364D01*
X90794994Y-66402365D01*
X90874435Y-66481806D01*
X90977209Y-66527185D01*
X91002335Y-66530100D01*
X92792064Y-66530099D01*
X92792079Y-66530097D01*
X92792082Y-66530097D01*
X92817187Y-66527186D01*
X92817188Y-66527185D01*
X92817191Y-66527185D01*
X92919965Y-66481806D01*
X92999406Y-66402365D01*
X93044785Y-66299591D01*
X93047700Y-66274465D01*
X93047699Y-64484736D01*
X93047697Y-64484717D01*
X93044786Y-64459612D01*
X93044785Y-64459610D01*
X93044785Y-64459609D01*
X92999406Y-64356835D01*
X92919965Y-64277394D01*
X92899324Y-64268280D01*
X92817192Y-64232015D01*
X92792068Y-64229100D01*
X92063443Y-64229100D01*
X91996404Y-64209415D01*
X91950649Y-64156611D01*
X91940705Y-64087453D01*
X91969730Y-64023897D01*
X92028508Y-63986123D01*
X92040641Y-63983214D01*
X92213398Y-63950921D01*
X92412219Y-63873898D01*
X92593502Y-63761652D01*
X92751072Y-63618007D01*
X92879566Y-63447855D01*
X92936737Y-63333039D01*
X92974603Y-63256994D01*
X92974603Y-63256993D01*
X92974605Y-63256989D01*
X93032956Y-63051910D01*
X93052629Y-62839600D01*
X93032956Y-62627290D01*
X93032956Y-62627289D01*
X93032427Y-62621581D01*
X93034050Y-62621430D01*
X93040298Y-62559525D01*
X93067483Y-62518550D01*
X94424722Y-61161311D01*
X94430799Y-61155983D01*
X94459082Y-61134282D01*
X94555336Y-61008841D01*
X94615844Y-60862762D01*
X94631300Y-60745361D01*
X94636482Y-60706000D01*
X94631830Y-60670669D01*
X94631300Y-60662571D01*
X94631300Y-59123828D01*
X94631831Y-59115726D01*
X94636482Y-59080399D01*
X94636482Y-59080398D01*
X94615844Y-58923639D01*
X94615842Y-58923634D01*
X94555338Y-58777563D01*
X94555338Y-58777562D01*
X94508574Y-58716618D01*
X94459083Y-58652118D01*
X94430807Y-58630422D01*
X94424704Y-58625069D01*
X93479131Y-57679496D01*
X91488920Y-55689285D01*
X91483579Y-55683194D01*
X91461882Y-55654918D01*
X91336441Y-55558664D01*
X91190362Y-55498156D01*
X91190360Y-55498155D01*
X91072961Y-55482700D01*
X91033600Y-55477518D01*
X90998270Y-55482169D01*
X90990172Y-55482700D01*
X88537028Y-55482700D01*
X88528929Y-55482169D01*
X88493600Y-55477518D01*
X88454239Y-55482700D01*
X88336839Y-55498155D01*
X88336837Y-55498156D01*
X88190757Y-55558664D01*
X88065319Y-55654916D01*
X88043619Y-55683194D01*
X88038268Y-55689296D01*
X85342696Y-58384868D01*
X85336593Y-58390220D01*
X85308319Y-58411916D01*
X85284150Y-58443415D01*
X85212061Y-58537362D01*
X85212061Y-58537363D01*
X85151557Y-58683434D01*
X85151555Y-58683439D01*
X85130918Y-58840198D01*
X85130918Y-58840199D01*
X85135569Y-58875526D01*
X85136100Y-58883628D01*
X85136100Y-60277603D01*
X85116415Y-60344642D01*
X85063611Y-60390397D01*
X84994453Y-60400341D01*
X84930897Y-60371316D01*
X84924419Y-60365284D01*
X83561680Y-59002545D01*
X83533419Y-58958834D01*
X83479618Y-58816970D01*
X83452416Y-58777562D01*
X83445276Y-58767218D01*
X83382983Y-58676971D01*
X83265643Y-58573017D01*
X83255649Y-58564163D01*
X83105026Y-58485110D01*
X82939856Y-58444400D01*
X82769744Y-58444400D01*
X82604573Y-58485110D01*
X82453950Y-58564163D01*
X82340727Y-58664471D01*
X82277494Y-58694192D01*
X82208230Y-58685008D01*
X82154927Y-58639836D01*
X82134507Y-58573017D01*
X82134500Y-58571655D01*
X82134500Y-57070496D01*
X82154185Y-57003457D01*
X82170814Y-56982820D01*
X85463545Y-53690089D01*
X85524865Y-53656606D01*
X85594557Y-53661590D01*
X85650490Y-53703462D01*
X85674907Y-53768926D01*
X85667165Y-53821742D01*
X85613661Y-53962822D01*
X85613659Y-53962830D01*
X85593155Y-54131700D01*
X85613659Y-54300569D01*
X85613660Y-54300574D01*
X85673982Y-54459631D01*
X85720616Y-54527191D01*
X85770617Y-54599629D01*
X85826005Y-54648698D01*
X85897950Y-54712436D01*
X86048573Y-54791489D01*
X86048575Y-54791490D01*
X86213744Y-54832200D01*
X86383856Y-54832200D01*
X86549025Y-54791490D01*
X86628492Y-54749781D01*
X86699649Y-54712436D01*
X86699650Y-54712434D01*
X86699652Y-54712434D01*
X86826983Y-54599629D01*
X86923618Y-54459630D01*
X86977421Y-54317760D01*
X87005678Y-54274055D01*
X88846916Y-52432819D01*
X88908239Y-52399334D01*
X88934597Y-52396500D01*
X90029184Y-52396500D01*
X90096223Y-52416185D01*
X90141978Y-52468989D01*
X90152300Y-52505718D01*
X90154922Y-52527561D01*
X90154922Y-52527563D01*
X90154923Y-52527564D01*
X90172522Y-52572192D01*
X90210439Y-52668343D01*
X90301877Y-52788922D01*
X90422456Y-52880360D01*
X90422457Y-52880360D01*
X90422458Y-52880361D01*
X90563236Y-52935877D01*
X90651698Y-52946500D01*
X90651703Y-52946500D01*
X92237897Y-52946500D01*
X92237902Y-52946500D01*
X92326364Y-52935877D01*
X92467142Y-52880361D01*
X92587722Y-52788922D01*
X92679161Y-52668342D01*
X92734677Y-52527564D01*
X92745300Y-52439102D01*
X92745300Y-51152898D01*
X92734677Y-51064436D01*
X92679161Y-50923658D01*
X92679160Y-50923657D01*
X92679160Y-50923656D01*
X92587722Y-50803077D01*
X92467143Y-50711639D01*
X92340942Y-50661872D01*
X92326364Y-50656123D01*
X92326363Y-50656122D01*
X92326361Y-50656122D01*
X92280726Y-50650642D01*
X92237902Y-50645500D01*
X90651698Y-50645500D01*
X90612653Y-50650188D01*
X90563238Y-50656122D01*
X90422456Y-50711639D01*
X90301877Y-50803077D01*
X90210439Y-50923656D01*
X90154922Y-51064438D01*
X90152300Y-51086282D01*
X90124764Y-51150497D01*
X90066882Y-51189631D01*
X90029184Y-51195500D01*
X88677928Y-51195500D01*
X88669829Y-51194969D01*
X88634500Y-51190318D01*
X88595139Y-51195500D01*
X88477739Y-51210955D01*
X88477737Y-51210956D01*
X88331657Y-51271464D01*
X88206219Y-51367716D01*
X88184519Y-51395994D01*
X88179168Y-51402096D01*
X86153678Y-53427585D01*
X86095673Y-53460301D01*
X86048574Y-53471910D01*
X85997924Y-53498493D01*
X85929415Y-53512217D01*
X85864362Y-53486725D01*
X85823419Y-53430108D01*
X85819584Y-53360344D01*
X85852616Y-53301018D01*
X88650523Y-50503110D01*
X88656598Y-50497784D01*
X88684882Y-50476082D01*
X88781136Y-50350641D01*
X88841644Y-50204562D01*
X88857100Y-50087161D01*
X88862282Y-50047800D01*
X88857630Y-50012469D01*
X88857100Y-50004371D01*
X88857100Y-41455928D01*
X88857631Y-41447826D01*
X88860208Y-41428257D01*
X88862282Y-41412500D01*
X88862000Y-41410361D01*
X88848523Y-41307992D01*
X88841644Y-41255738D01*
X88781136Y-41109659D01*
X88757841Y-41079300D01*
X88684882Y-40984218D01*
X88656605Y-40962520D01*
X88650504Y-40957169D01*
X85849980Y-38156645D01*
X85821719Y-38112934D01*
X85814705Y-38094439D01*
X85767918Y-37971070D01*
X85757648Y-37956192D01*
X85711386Y-37889170D01*
X85671283Y-37831071D01*
X85543952Y-37718266D01*
X85534148Y-37713120D01*
X85431541Y-37659267D01*
X85381329Y-37610682D01*
X85365355Y-37542663D01*
X85388691Y-37476805D01*
X85443927Y-37434019D01*
X85474384Y-37426356D01*
X85493364Y-37424077D01*
X85634142Y-37368561D01*
X85754722Y-37277122D01*
X85771425Y-37255094D01*
X85792912Y-37233076D01*
X85798282Y-37228793D01*
X85798287Y-37228791D01*
X85830940Y-37202750D01*
X85836595Y-37198737D01*
X85871962Y-37176516D01*
X85999516Y-37048962D01*
X87702459Y-35346019D01*
X87763782Y-35312534D01*
X87790140Y-35309700D01*
X91596507Y-35309700D01*
X91663546Y-35329385D01*
X91671425Y-35334891D01*
X91682858Y-35343561D01*
X91810371Y-35393846D01*
X91865514Y-35436751D01*
X91888707Y-35502659D01*
X91872586Y-35570644D01*
X91822270Y-35619120D01*
X91810378Y-35624551D01*
X91760243Y-35644322D01*
X91682856Y-35674839D01*
X91562277Y-35766277D01*
X91470839Y-35886856D01*
X91415322Y-36027638D01*
X91409388Y-36077053D01*
X91404700Y-36116098D01*
X91404700Y-36902302D01*
X91408950Y-36937696D01*
X91415322Y-36990761D01*
X91415322Y-36990763D01*
X91415323Y-36990764D01*
X91425579Y-37016771D01*
X91470839Y-37131543D01*
X91562277Y-37252122D01*
X91595245Y-37277122D01*
X91682858Y-37343561D01*
X91726190Y-37360648D01*
X91781334Y-37403554D01*
X91804527Y-37469461D01*
X91804700Y-37476003D01*
X91804700Y-38072183D01*
X91785015Y-38139222D01*
X91732211Y-38184977D01*
X91695485Y-38195298D01*
X91681116Y-38197023D01*
X91648637Y-38200923D01*
X91507857Y-38256439D01*
X91507855Y-38256440D01*
X91387277Y-38347877D01*
X91295840Y-38468455D01*
X91240324Y-38609237D01*
X91240323Y-38609238D01*
X91229700Y-38697700D01*
X91229700Y-39708891D01*
X91240323Y-39797362D01*
X91295839Y-39938142D01*
X91295840Y-39938144D01*
X91387277Y-40058722D01*
X91507855Y-40150159D01*
X91507858Y-40150161D01*
X91648636Y-40205676D01*
X91737101Y-40216300D01*
X93073298Y-40216299D01*
X93161764Y-40205676D01*
X93302542Y-40150161D01*
X93423122Y-40058722D01*
X93514561Y-39938142D01*
X93570076Y-39797364D01*
X93580700Y-39708899D01*
X93580699Y-38697702D01*
X93570076Y-38609236D01*
X93514561Y-38468458D01*
X93514559Y-38468455D01*
X93423122Y-38347877D01*
X93302544Y-38256440D01*
X93302542Y-38256439D01*
X93161764Y-38200924D01*
X93161762Y-38200923D01*
X93114913Y-38195297D01*
X93050699Y-38167759D01*
X93011568Y-38109875D01*
X93005700Y-38072182D01*
X93005700Y-37476003D01*
X93025385Y-37408964D01*
X93078189Y-37363209D01*
X93084196Y-37360654D01*
X93127542Y-37343561D01*
X93248122Y-37252122D01*
X93339561Y-37131542D01*
X93395077Y-36990764D01*
X93405700Y-36902302D01*
X93405700Y-36116098D01*
X93395077Y-36027636D01*
X93339561Y-35886858D01*
X93339560Y-35886857D01*
X93339560Y-35886856D01*
X93248122Y-35766277D01*
X93127543Y-35674839D01*
X93089539Y-35659852D01*
X93000026Y-35624553D01*
X92944885Y-35581649D01*
X92921692Y-35515741D01*
X92937812Y-35447757D01*
X92988129Y-35399280D01*
X93000014Y-35393851D01*
X93127542Y-35343561D01*
X93248122Y-35252122D01*
X93339561Y-35131542D01*
X93395077Y-34990764D01*
X93405700Y-34902302D01*
X93405700Y-34116098D01*
X93395077Y-34027636D01*
X93339561Y-33886858D01*
X93339560Y-33886857D01*
X93339560Y-33886856D01*
X93248122Y-33766277D01*
X93127543Y-33674839D01*
X93065005Y-33650177D01*
X92992119Y-33621435D01*
X92936977Y-33578530D01*
X92913784Y-33512622D01*
X92929905Y-33444637D01*
X92980221Y-33396161D01*
X93037188Y-33382082D01*
X94820781Y-33376022D01*
X94887885Y-33395478D01*
G37*
%TD.AperFunction*%
%TA.AperFunction,Conductor*%
G36*
X72864534Y-94711214D02*
G01*
X72920467Y-94753086D01*
X72944884Y-94818550D01*
X72945200Y-94827396D01*
X72945200Y-98154203D01*
X72925515Y-98221242D01*
X72908881Y-98241884D01*
X59707584Y-111443181D01*
X59646261Y-111476666D01*
X59619903Y-111479500D01*
X55151967Y-111479500D01*
X55084928Y-111459815D01*
X55053013Y-111430227D01*
X54955872Y-111301593D01*
X54798302Y-111157948D01*
X54617019Y-111045702D01*
X54617017Y-111045701D01*
X54473805Y-110990221D01*
X54418198Y-110968679D01*
X54221385Y-110931888D01*
X54159106Y-110900221D01*
X54123833Y-110839908D01*
X54126767Y-110770100D01*
X54166976Y-110712960D01*
X54221384Y-110688111D01*
X54418198Y-110651321D01*
X54617019Y-110574298D01*
X54798302Y-110462052D01*
X54955872Y-110318407D01*
X55053013Y-110189773D01*
X55109122Y-110148137D01*
X55151967Y-110140500D01*
X57026572Y-110140500D01*
X57034670Y-110141030D01*
X57070000Y-110145682D01*
X57070001Y-110145682D01*
X57122254Y-110138802D01*
X57226762Y-110125044D01*
X57372841Y-110064536D01*
X57401869Y-110042262D01*
X57498282Y-109968282D01*
X57519983Y-109939999D01*
X57525311Y-109933922D01*
X58601350Y-108857883D01*
X58607433Y-108852550D01*
X58695882Y-108784682D01*
X58717583Y-108756399D01*
X58722911Y-108750322D01*
X72733519Y-94739715D01*
X72794842Y-94706230D01*
X72864534Y-94711214D01*
G37*
%TD.AperFunction*%
%TA.AperFunction,Conductor*%
G36*
X82339703Y-59624431D02*
G01*
X82340691Y-59625297D01*
X82441502Y-59714608D01*
X82453947Y-59725633D01*
X82453949Y-59725635D01*
X82604575Y-59804690D01*
X82651671Y-59816297D01*
X82709678Y-59849013D01*
X83997481Y-61136816D01*
X84030966Y-61198139D01*
X84033800Y-61224497D01*
X84033800Y-73629271D01*
X84033269Y-73637373D01*
X84028618Y-73672699D01*
X84028618Y-73672700D01*
X84033800Y-73712060D01*
X84049255Y-73829460D01*
X84049256Y-73829462D01*
X84066003Y-73869894D01*
X84109764Y-73975541D01*
X84206018Y-74100982D01*
X84234295Y-74122680D01*
X84240385Y-74128020D01*
X85783861Y-75671496D01*
X87322026Y-77209661D01*
X87355511Y-77270984D01*
X87357816Y-77308783D01*
X87338171Y-77520798D01*
X87338171Y-77520800D01*
X87357843Y-77733108D01*
X87363466Y-77752869D01*
X87362878Y-77822736D01*
X87324611Y-77881194D01*
X87260813Y-77909684D01*
X87191741Y-77899159D01*
X87156518Y-77874483D01*
X82170819Y-72888784D01*
X82137334Y-72827461D01*
X82134500Y-72801103D01*
X82134500Y-59718144D01*
X82154185Y-59651105D01*
X82206989Y-59605350D01*
X82276147Y-59595406D01*
X82339703Y-59624431D01*
G37*
%TD.AperFunction*%
%TA.AperFunction,Conductor*%
G36*
X90800542Y-56703385D02*
G01*
X90821184Y-56720019D01*
X93393981Y-59292816D01*
X93427466Y-59354139D01*
X93430300Y-59380497D01*
X93430300Y-60405902D01*
X93410615Y-60472941D01*
X93393981Y-60493583D01*
X93234281Y-60653283D01*
X93172958Y-60686768D01*
X93103266Y-60681784D01*
X93047333Y-60639912D01*
X93022916Y-60574448D01*
X93027335Y-60531664D01*
X93028487Y-60527615D01*
X93032956Y-60511910D01*
X93052629Y-60299600D01*
X93032956Y-60087290D01*
X92974605Y-59882211D01*
X92974603Y-59882206D01*
X92974603Y-59882205D01*
X92879567Y-59691346D01*
X92751072Y-59521193D01*
X92711760Y-59485355D01*
X92593502Y-59377548D01*
X92412219Y-59265302D01*
X92412217Y-59265301D01*
X92289663Y-59217824D01*
X92213398Y-59188279D01*
X92003810Y-59149100D01*
X91790590Y-59149100D01*
X91581002Y-59188279D01*
X91580999Y-59188279D01*
X91580999Y-59188280D01*
X91382182Y-59265301D01*
X91382180Y-59265302D01*
X91200899Y-59377547D01*
X91043327Y-59521193D01*
X90914832Y-59691346D01*
X90819796Y-59882205D01*
X90819796Y-59882207D01*
X90761444Y-60087289D01*
X90750671Y-60203551D01*
X90724885Y-60268488D01*
X90680330Y-60300404D01*
X90716703Y-60321268D01*
X90748893Y-60383281D01*
X90750670Y-60395647D01*
X90761444Y-60511910D01*
X90804311Y-60662571D01*
X90819796Y-60716992D01*
X90819796Y-60716994D01*
X90914832Y-60907853D01*
X91041527Y-61075622D01*
X91043328Y-61078007D01*
X91200898Y-61221652D01*
X91382181Y-61333898D01*
X91581002Y-61410921D01*
X91777813Y-61447711D01*
X91840093Y-61479379D01*
X91875366Y-61539692D01*
X91872432Y-61609500D01*
X91832223Y-61666640D01*
X91777813Y-61691488D01*
X91581002Y-61728279D01*
X91580999Y-61728279D01*
X91580999Y-61728280D01*
X91382182Y-61805301D01*
X91382180Y-61805302D01*
X91200899Y-61917547D01*
X91043327Y-62061193D01*
X90914832Y-62231346D01*
X90819796Y-62422205D01*
X90819796Y-62422207D01*
X90761444Y-62627289D01*
X90750671Y-62743551D01*
X90724885Y-62808488D01*
X90680330Y-62840404D01*
X90716703Y-62861268D01*
X90748893Y-62923281D01*
X90750670Y-62935647D01*
X90761444Y-63051910D01*
X90799869Y-63186959D01*
X90819796Y-63256992D01*
X90819796Y-63256994D01*
X90914832Y-63447853D01*
X90973187Y-63525126D01*
X91043328Y-63618007D01*
X91200898Y-63761652D01*
X91382181Y-63873898D01*
X91581002Y-63950921D01*
X91753744Y-63983212D01*
X91816023Y-64014879D01*
X91851296Y-64075191D01*
X91848362Y-64145000D01*
X91808153Y-64202140D01*
X91743435Y-64228471D01*
X91730957Y-64229100D01*
X91002343Y-64229100D01*
X91002317Y-64229102D01*
X90977212Y-64232013D01*
X90977208Y-64232015D01*
X90874435Y-64277393D01*
X90794994Y-64356834D01*
X90749615Y-64459606D01*
X90749615Y-64459608D01*
X90746700Y-64484731D01*
X90746700Y-65223551D01*
X90727015Y-65290590D01*
X90674211Y-65336345D01*
X90605053Y-65346289D01*
X90541497Y-65317264D01*
X90503723Y-65258486D01*
X90499229Y-65234991D01*
X90492956Y-65167289D01*
X90471175Y-65090739D01*
X90434605Y-64962211D01*
X90434603Y-64962206D01*
X90434603Y-64962205D01*
X90339567Y-64771346D01*
X90211072Y-64601193D01*
X90083333Y-64484743D01*
X90053502Y-64457548D01*
X89872219Y-64345302D01*
X89872217Y-64345301D01*
X89772808Y-64306790D01*
X89673398Y-64268279D01*
X89476585Y-64231488D01*
X89414306Y-64199821D01*
X89379033Y-64139508D01*
X89381967Y-64069700D01*
X89422176Y-64012560D01*
X89476584Y-63987711D01*
X89673398Y-63950921D01*
X89872219Y-63873898D01*
X90053502Y-63761652D01*
X90211072Y-63618007D01*
X90339566Y-63447855D01*
X90396737Y-63333039D01*
X90434603Y-63256994D01*
X90434603Y-63256993D01*
X90434605Y-63256989D01*
X90492956Y-63051910D01*
X90503729Y-62935647D01*
X90529515Y-62870711D01*
X90574069Y-62838794D01*
X90537697Y-62817931D01*
X90505507Y-62755918D01*
X90503729Y-62743551D01*
X90499653Y-62699562D01*
X90492956Y-62627290D01*
X90434605Y-62422211D01*
X90434603Y-62422206D01*
X90434603Y-62422205D01*
X90339567Y-62231346D01*
X90211072Y-62061193D01*
X90053502Y-61917548D01*
X89872219Y-61805302D01*
X89872217Y-61805301D01*
X89772808Y-61766790D01*
X89673398Y-61728279D01*
X89476585Y-61691488D01*
X89414306Y-61659821D01*
X89379033Y-61599508D01*
X89381967Y-61529700D01*
X89422176Y-61472560D01*
X89476584Y-61447711D01*
X89673398Y-61410921D01*
X89872219Y-61333898D01*
X90053502Y-61221652D01*
X90211072Y-61078007D01*
X90339566Y-60907855D01*
X90339567Y-60907853D01*
X90434603Y-60716994D01*
X90434603Y-60716993D01*
X90434605Y-60716989D01*
X90492956Y-60511910D01*
X90503729Y-60395647D01*
X90529515Y-60330711D01*
X90574069Y-60298794D01*
X90537697Y-60277931D01*
X90505507Y-60215918D01*
X90503729Y-60203551D01*
X90503049Y-60196213D01*
X90492956Y-60087290D01*
X90434605Y-59882211D01*
X90434603Y-59882206D01*
X90434603Y-59882205D01*
X90339567Y-59691346D01*
X90211072Y-59521193D01*
X90171760Y-59485355D01*
X90053502Y-59377548D01*
X89872219Y-59265302D01*
X89872217Y-59265301D01*
X89749663Y-59217824D01*
X89673398Y-59188279D01*
X89463810Y-59149100D01*
X89250590Y-59149100D01*
X89041002Y-59188279D01*
X89040999Y-59188279D01*
X89040999Y-59188280D01*
X88842182Y-59265301D01*
X88842180Y-59265302D01*
X88660899Y-59377547D01*
X88503327Y-59521193D01*
X88374832Y-59691346D01*
X88279796Y-59882205D01*
X88279796Y-59882207D01*
X88221444Y-60087289D01*
X88201771Y-60299599D01*
X88201771Y-60299600D01*
X88221973Y-60517619D01*
X88220358Y-60517768D01*
X88214081Y-60579719D01*
X88186913Y-60620650D01*
X86634626Y-62172937D01*
X86573303Y-62206422D01*
X86503611Y-62201438D01*
X86447678Y-62159566D01*
X86423849Y-62100199D01*
X86421740Y-62082828D01*
X86361418Y-61923770D01*
X86359048Y-61920337D01*
X86358089Y-61917427D01*
X86357931Y-61917126D01*
X86357981Y-61917099D01*
X86337167Y-61853983D01*
X86337100Y-61849899D01*
X86337100Y-59140297D01*
X86356785Y-59073258D01*
X86373419Y-59052616D01*
X88706016Y-56720019D01*
X88767339Y-56686534D01*
X88793697Y-56683700D01*
X90733503Y-56683700D01*
X90800542Y-56703385D01*
G37*
%TD.AperFunction*%
%TD*%
M02*
