%TF.GenerationSoftware,KiCad,Pcbnew,7.0.9*%
%TF.CreationDate,2023-11-16T02:53:52-05:00*%
%TF.ProjectId,SmartbikeALL,536d6172-7462-4696-9b65-414c4c2e6b69,rev?*%
%TF.SameCoordinates,Original*%
%TF.FileFunction,Soldermask,Bot*%
%TF.FilePolarity,Negative*%
%FSLAX46Y46*%
G04 Gerber Fmt 4.6, Leading zero omitted, Abs format (unit mm)*
G04 Created by KiCad (PCBNEW 7.0.9) date 2023-11-16 02:53:52*
%MOMM*%
%LPD*%
G01*
G04 APERTURE LIST*
G04 Aperture macros list*
%AMRoundRect*
0 Rectangle with rounded corners*
0 $1 Rounding radius*
0 $2 $3 $4 $5 $6 $7 $8 $9 X,Y pos of 4 corners*
0 Add a 4 corners polygon primitive as box body*
4,1,4,$2,$3,$4,$5,$6,$7,$8,$9,$2,$3,0*
0 Add four circle primitives for the rounded corners*
1,1,$1+$1,$2,$3*
1,1,$1+$1,$4,$5*
1,1,$1+$1,$6,$7*
1,1,$1+$1,$8,$9*
0 Add four rect primitives between the rounded corners*
20,1,$1+$1,$2,$3,$4,$5,0*
20,1,$1+$1,$4,$5,$6,$7,0*
20,1,$1+$1,$6,$7,$8,$9,0*
20,1,$1+$1,$8,$9,$2,$3,0*%
G04 Aperture macros list end*
%ADD10C,2.200000*%
%ADD11C,3.250000*%
%ADD12R,1.500000X1.500000*%
%ADD13C,1.500000*%
%ADD14C,2.300000*%
%ADD15R,1.700000X1.700000*%
%ADD16O,1.700000X1.700000*%
%ADD17C,1.440000*%
%ADD18RoundRect,0.250000X-0.750000X0.600000X-0.750000X-0.600000X0.750000X-0.600000X0.750000X0.600000X0*%
%ADD19O,2.000000X1.700000*%
%ADD20RoundRect,0.250000X0.750000X-0.600000X0.750000X0.600000X-0.750000X0.600000X-0.750000X-0.600000X0*%
%ADD21RoundRect,0.250000X-0.725000X0.600000X-0.725000X-0.600000X0.725000X-0.600000X0.725000X0.600000X0*%
%ADD22O,1.950000X1.700000*%
%ADD23RoundRect,0.250000X-0.600000X-0.750000X0.600000X-0.750000X0.600000X0.750000X-0.600000X0.750000X0*%
%ADD24O,1.700000X2.000000*%
%ADD25RoundRect,0.250000X-0.600000X-0.725000X0.600000X-0.725000X0.600000X0.725000X-0.600000X0.725000X0*%
%ADD26O,1.700000X1.950000*%
%ADD27RoundRect,0.150000X0.587500X0.150000X-0.587500X0.150000X-0.587500X-0.150000X0.587500X-0.150000X0*%
%ADD28RoundRect,0.250000X-0.425000X0.537500X-0.425000X-0.537500X0.425000X-0.537500X0.425000X0.537500X0*%
%ADD29RoundRect,0.150000X0.512500X0.150000X-0.512500X0.150000X-0.512500X-0.150000X0.512500X-0.150000X0*%
%ADD30RoundRect,0.150000X-0.150000X0.725000X-0.150000X-0.725000X0.150000X-0.725000X0.150000X0.725000X0*%
%ADD31RoundRect,0.250000X-0.350000X-0.450000X0.350000X-0.450000X0.350000X0.450000X-0.350000X0.450000X0*%
%ADD32RoundRect,0.250000X0.350000X0.450000X-0.350000X0.450000X-0.350000X-0.450000X0.350000X-0.450000X0*%
%ADD33RoundRect,0.250000X0.450000X-0.350000X0.450000X0.350000X-0.450000X0.350000X-0.450000X-0.350000X0*%
%ADD34RoundRect,0.250000X-0.450000X0.350000X-0.450000X-0.350000X0.450000X-0.350000X0.450000X0.350000X0*%
%ADD35RoundRect,0.250000X-0.537500X-0.425000X0.537500X-0.425000X0.537500X0.425000X-0.537500X0.425000X0*%
%ADD36RoundRect,0.250000X-0.475000X0.337500X-0.475000X-0.337500X0.475000X-0.337500X0.475000X0.337500X0*%
%ADD37R,1.400000X1.000000*%
%ADD38RoundRect,0.150000X-0.825000X-0.150000X0.825000X-0.150000X0.825000X0.150000X-0.825000X0.150000X0*%
%ADD39RoundRect,0.250000X-0.337500X-0.475000X0.337500X-0.475000X0.337500X0.475000X-0.337500X0.475000X0*%
%ADD40RoundRect,0.250000X0.412500X0.650000X-0.412500X0.650000X-0.412500X-0.650000X0.412500X-0.650000X0*%
%ADD41R,0.900000X2.000000*%
%ADD42R,1.330000X1.330000*%
%ADD43RoundRect,0.250000X0.337500X0.475000X-0.337500X0.475000X-0.337500X-0.475000X0.337500X-0.475000X0*%
%ADD44RoundRect,0.250001X-0.624999X0.462499X-0.624999X-0.462499X0.624999X-0.462499X0.624999X0.462499X0*%
%ADD45RoundRect,0.150000X0.825000X0.150000X-0.825000X0.150000X-0.825000X-0.150000X0.825000X-0.150000X0*%
%ADD46RoundRect,0.250000X0.650000X-0.412500X0.650000X0.412500X-0.650000X0.412500X-0.650000X-0.412500X0*%
%ADD47C,2.000000*%
G04 APERTURE END LIST*
D10*
%TO.C,H1*%
X117698000Y-121890000D03*
%TD*%
D11*
%TO.C,J2*%
X187330000Y-85420000D03*
X200030000Y-85420000D03*
D12*
X190120000Y-87960000D03*
D13*
X191136000Y-89740000D03*
X192152000Y-87960000D03*
X193168000Y-89740000D03*
X194184000Y-87960000D03*
X195200000Y-89740000D03*
X196216000Y-87960000D03*
X197232000Y-89740000D03*
X186820000Y-94560000D03*
X189110000Y-94560000D03*
X198250000Y-94560000D03*
X200540000Y-94560000D03*
D14*
X185550000Y-88850000D03*
X201810000Y-88850000D03*
%TD*%
D10*
%TO.C,H3*%
X172698000Y-121890000D03*
%TD*%
D13*
%TO.C,R12*%
X183888000Y-102640000D03*
X180488000Y-102640000D03*
%TD*%
D15*
%TO.C,J3*%
X148988000Y-28690000D03*
D16*
X151528000Y-28690000D03*
X154068000Y-28690000D03*
X156608000Y-28690000D03*
%TD*%
D17*
%TO.C,RV1*%
X190778000Y-105600000D03*
X193318000Y-103060000D03*
X190778000Y-100520000D03*
%TD*%
D10*
%TO.C,H2*%
X157568000Y-121900000D03*
%TD*%
D18*
%TO.C,JP1*%
X174223000Y-55716600D03*
D19*
X174223000Y-58216600D03*
%TD*%
D15*
%TO.C,J6*%
X124338000Y-120700000D03*
D16*
X126878000Y-120700000D03*
X129418000Y-120700000D03*
X131958000Y-120700000D03*
%TD*%
D18*
%TO.C,J1*%
X210838000Y-96600000D03*
D19*
X210838000Y-99100000D03*
%TD*%
D20*
%TO.C,J1*%
X156158000Y-86420000D03*
D19*
X156158000Y-83920000D03*
%TD*%
D15*
%TO.C,J5*%
X118288000Y-27360000D03*
D16*
X118288000Y-29900000D03*
X118288000Y-32440000D03*
X118288000Y-34980000D03*
X118288000Y-37520000D03*
X118288000Y-40060000D03*
X118288000Y-42600000D03*
X118288000Y-45140000D03*
%TD*%
D21*
%TO.C,JH1*%
X120208000Y-70800000D03*
D22*
X120208000Y-73300000D03*
X120208000Y-75800000D03*
X120208000Y-78300000D03*
X120208000Y-80800000D03*
X120208000Y-83300000D03*
X120208000Y-85800000D03*
X120208000Y-88300000D03*
%TD*%
D20*
%TO.C,JP1*%
X209848000Y-90470000D03*
D19*
X209848000Y-87970000D03*
%TD*%
D10*
%TO.C,H2*%
X212568000Y-82020000D03*
%TD*%
%TO.C,H2*%
X212577000Y-27025400D03*
%TD*%
D23*
%TO.C,J2*%
X178987400Y-66497000D03*
D24*
X181487400Y-66497000D03*
%TD*%
D10*
%TO.C,H1*%
X172699000Y-27025400D03*
%TD*%
%TO.C,H3*%
X172706000Y-66894000D03*
%TD*%
D15*
%TO.C,J4*%
X151488000Y-112010000D03*
D16*
X151488000Y-109470000D03*
X151488000Y-106930000D03*
X151488000Y-104390000D03*
X151488000Y-101850000D03*
X151488000Y-99310000D03*
X151488000Y-96770000D03*
X151488000Y-94230000D03*
%TD*%
D10*
%TO.C,H4*%
X212578000Y-121890000D03*
%TD*%
%TO.C,H4*%
X212576000Y-66894000D03*
%TD*%
D25*
%TO.C,J1*%
X188356800Y-65354000D03*
D26*
X190856800Y-65354000D03*
X193356800Y-65354000D03*
X195856800Y-65354000D03*
X198356800Y-65354000D03*
X200856800Y-65354000D03*
X203356800Y-65354000D03*
X205856800Y-65354000D03*
%TD*%
D15*
%TO.C,J2*%
X118658000Y-58940000D03*
D16*
X118658000Y-56400000D03*
X121198000Y-58940000D03*
X121198000Y-56400000D03*
%TD*%
D10*
%TO.C,H1*%
X172698000Y-82030000D03*
%TD*%
D27*
%TO.C,Q4*%
X199873000Y-104430000D03*
X199873000Y-106330000D03*
X197998000Y-105380000D03*
%TD*%
D28*
%TO.C,C5*%
X197997400Y-26883300D03*
X197997400Y-29758300D03*
%TD*%
D29*
%TO.C,U1*%
X206323100Y-28031200D03*
X206323100Y-28981200D03*
X206323100Y-29931200D03*
X204048100Y-29931200D03*
X204048100Y-28031200D03*
%TD*%
D30*
%TO.C,U2*%
X177638000Y-106460000D03*
X178908000Y-106460000D03*
X180178000Y-106460000D03*
X181448000Y-106460000D03*
X181448000Y-111610000D03*
X180178000Y-111610000D03*
X178908000Y-111610000D03*
X177638000Y-111610000D03*
%TD*%
D31*
%TO.C,R6*%
X189388000Y-110770000D03*
X191388000Y-110770000D03*
%TD*%
D32*
%TO.C,R7*%
X190301200Y-47066000D03*
X188301200Y-47066000D03*
%TD*%
D33*
%TO.C,R4*%
X204908000Y-106070000D03*
X204908000Y-104070000D03*
%TD*%
%TO.C,R10*%
X197057600Y-38795000D03*
X197057600Y-36795000D03*
%TD*%
D34*
%TO.C,R7*%
X194588000Y-113270000D03*
X194588000Y-115270000D03*
%TD*%
D35*
%TO.C,C10*%
X206135700Y-49758400D03*
X209010700Y-49758400D03*
%TD*%
D33*
%TO.C,R9*%
X197210000Y-42986000D03*
X197210000Y-40986000D03*
%TD*%
D34*
%TO.C,R7*%
X146476800Y-75580800D03*
X146476800Y-77580800D03*
%TD*%
%TO.C,R8*%
X143124000Y-75682400D03*
X143124000Y-77682400D03*
%TD*%
D31*
%TO.C,R6*%
X189123400Y-61086800D03*
X191123400Y-61086800D03*
%TD*%
D36*
%TO.C,C1*%
X199758000Y-117542500D03*
X199758000Y-119617500D03*
%TD*%
D32*
%TO.C,R5*%
X210718000Y-104070000D03*
X208718000Y-104070000D03*
%TD*%
D37*
%TO.C,Q2*%
X188437200Y-55818800D03*
X188437200Y-57718800D03*
X186237200Y-56768800D03*
%TD*%
D27*
%TO.C,Q3*%
X199828000Y-98040000D03*
X199828000Y-99940000D03*
X197953000Y-98990000D03*
%TD*%
D34*
%TO.C,R9*%
X139720400Y-75733200D03*
X139720400Y-77733200D03*
%TD*%
%TO.C,R5*%
X197438600Y-55768800D03*
X197438600Y-57768800D03*
%TD*%
D38*
%TO.C,U4*%
X195663600Y-53670000D03*
X195663600Y-52400000D03*
X195663600Y-51130000D03*
X195663600Y-49860000D03*
X200613600Y-49860000D03*
X200613600Y-51130000D03*
X200613600Y-52400000D03*
X200613600Y-53670000D03*
%TD*%
D32*
%TO.C,R11*%
X187478000Y-107180000D03*
X185478000Y-107180000D03*
%TD*%
D27*
%TO.C,Q3*%
X193755600Y-39349400D03*
X193755600Y-41249400D03*
X191880600Y-40299400D03*
%TD*%
D39*
%TO.C,C4*%
X185460500Y-99390000D03*
X187535500Y-99390000D03*
%TD*%
D27*
%TO.C,Q1*%
X194058100Y-55742600D03*
X194058100Y-57642600D03*
X192183100Y-56692600D03*
%TD*%
D29*
%TO.C,U3*%
X208964700Y-52720000D03*
X208964700Y-53670000D03*
X208964700Y-54620000D03*
X206689700Y-54620000D03*
X206689700Y-52720000D03*
%TD*%
D34*
%TO.C,R6*%
X149728000Y-75530000D03*
X149728000Y-77530000D03*
%TD*%
D40*
%TO.C,C1*%
X201007700Y-33400800D03*
X197882700Y-33400800D03*
%TD*%
D41*
%TO.C,IC1*%
X151618000Y-64480000D03*
X150348000Y-64480000D03*
X149078000Y-64480000D03*
X147808000Y-64480000D03*
X146538000Y-64480000D03*
X145268000Y-64480000D03*
X143998000Y-64480000D03*
X142728000Y-64480000D03*
X141458000Y-64480000D03*
X140188000Y-64480000D03*
X138918000Y-64480000D03*
X137648000Y-64480000D03*
X136378000Y-64480000D03*
X135108000Y-64480000D03*
X133838000Y-64480000D03*
X132568000Y-64480000D03*
X131298000Y-64480000D03*
X130028000Y-64480000D03*
X128758000Y-64480000D03*
X128758000Y-47480000D03*
X130028000Y-47480000D03*
X131298000Y-47480000D03*
X132568000Y-47480000D03*
X133838000Y-47480000D03*
X135108000Y-47480000D03*
X136378000Y-47480000D03*
X137648000Y-47480000D03*
X138918000Y-47480000D03*
X140188000Y-47480000D03*
X141458000Y-47480000D03*
X142728000Y-47480000D03*
X143998000Y-47480000D03*
X145268000Y-47480000D03*
X146538000Y-47480000D03*
X147808000Y-47480000D03*
X149078000Y-47480000D03*
X150348000Y-47480000D03*
X151618000Y-47480000D03*
D42*
X145953000Y-58815000D03*
X144118000Y-58815000D03*
X142283000Y-58815000D03*
X142283000Y-56980000D03*
X142283000Y-55145000D03*
X144118000Y-55145000D03*
X145953000Y-55145000D03*
X145953000Y-56980000D03*
X144118000Y-56980000D03*
%TD*%
D32*
%TO.C,R4*%
X202578800Y-56413200D03*
X200578800Y-56413200D03*
%TD*%
D31*
%TO.C,R13*%
X189438000Y-117920000D03*
X191438000Y-117920000D03*
%TD*%
D43*
%TO.C,C3*%
X176638000Y-115650000D03*
X174563000Y-115650000D03*
%TD*%
D44*
%TO.C,D2*%
X173168000Y-105692500D03*
X173168000Y-108667500D03*
%TD*%
D45*
%TO.C,U1*%
X204968000Y-110710000D03*
X204968000Y-111980000D03*
X204968000Y-113250000D03*
X204968000Y-114520000D03*
X200018000Y-114520000D03*
X200018000Y-113250000D03*
X200018000Y-111980000D03*
X200018000Y-110710000D03*
%TD*%
D15*
%TO.C,BZ1*%
X190956600Y-27660400D03*
D16*
X193496600Y-27660400D03*
%TD*%
D46*
%TO.C,C6*%
X211789600Y-52768700D03*
X211789600Y-49643700D03*
%TD*%
D34*
%TO.C,R8*%
X188726400Y-50384000D03*
X188726400Y-52384000D03*
%TD*%
D36*
%TO.C,C11*%
X200867600Y-44656900D03*
X200867600Y-46731900D03*
%TD*%
D47*
X135438000Y-44528900D03*
X189976000Y-41734000D03*
X207378300Y-38001700D03*
X149828000Y-53160000D03*
X123528000Y-41220000D03*
X142858000Y-102860000D03*
X191246000Y-53704000D03*
X194512500Y-37077300D03*
X151418000Y-68180000D03*
X195860000Y-60090000D03*
X143875800Y-33799700D03*
X138308000Y-61930000D03*
X150018500Y-57620000D03*
X128938000Y-67490000D03*
X132167800Y-45125900D03*
X135658000Y-51570000D03*
X151488000Y-117200000D03*
X124998000Y-71200000D03*
X206326898Y-46616938D03*
X117528000Y-62740000D03*
X126878000Y-96575200D03*
X129556900Y-92327100D03*
X213299900Y-55718600D03*
X208786000Y-26594000D03*
X201654900Y-30714633D03*
X200346000Y-28824000D03*
X205676000Y-59034000D03*
X202845500Y-59787582D03*
X175660000Y-41351800D03*
X171786000Y-46824000D03*
X189886000Y-31044000D03*
X201971345Y-39453709D03*
X188215100Y-33776500D03*
X200445500Y-41604000D03*
X204110491Y-117252491D03*
X175690700Y-104333200D03*
X197948800Y-102624000D03*
X138426100Y-88901900D03*
M02*
