%TF.GenerationSoftware,KiCad,Pcbnew,7.0.9*%
%TF.CreationDate,2023-11-16T02:53:52-05:00*%
%TF.ProjectId,SmartbikeALL,536d6172-7462-4696-9b65-414c4c2e6b69,rev?*%
%TF.SameCoordinates,Original*%
%TF.FileFunction,Soldermask,Top*%
%TF.FilePolarity,Negative*%
%FSLAX46Y46*%
G04 Gerber Fmt 4.6, Leading zero omitted, Abs format (unit mm)*
G04 Created by KiCad (PCBNEW 7.0.9) date 2023-11-16 02:53:52*
%MOMM*%
%LPD*%
G01*
G04 APERTURE LIST*
G04 Aperture macros list*
%AMRoundRect*
0 Rectangle with rounded corners*
0 $1 Rounding radius*
0 $2 $3 $4 $5 $6 $7 $8 $9 X,Y pos of 4 corners*
0 Add a 4 corners polygon primitive as box body*
4,1,4,$2,$3,$4,$5,$6,$7,$8,$9,$2,$3,0*
0 Add four circle primitives for the rounded corners*
1,1,$1+$1,$2,$3*
1,1,$1+$1,$4,$5*
1,1,$1+$1,$6,$7*
1,1,$1+$1,$8,$9*
0 Add four rect primitives between the rounded corners*
20,1,$1+$1,$2,$3,$4,$5,0*
20,1,$1+$1,$4,$5,$6,$7,0*
20,1,$1+$1,$6,$7,$8,$9,0*
20,1,$1+$1,$8,$9,$2,$3,0*%
G04 Aperture macros list end*
%ADD10C,2.200000*%
%ADD11RoundRect,0.250000X-1.000000X1.500000X-1.000000X-1.500000X1.000000X-1.500000X1.000000X1.500000X0*%
%ADD12RoundRect,0.150000X-0.587500X-0.150000X0.587500X-0.150000X0.587500X0.150000X-0.587500X0.150000X0*%
%ADD13C,3.250000*%
%ADD14R,1.500000X1.500000*%
%ADD15C,1.500000*%
%ADD16C,2.300000*%
%ADD17R,1.700000X1.700000*%
%ADD18O,1.700000X1.700000*%
%ADD19R,1.400000X1.000000*%
%ADD20C,1.440000*%
%ADD21RoundRect,0.250000X-0.450000X0.350000X-0.450000X-0.350000X0.450000X-0.350000X0.450000X0.350000X0*%
%ADD22RoundRect,0.250001X-1.999999X-0.799999X1.999999X-0.799999X1.999999X0.799999X-1.999999X0.799999X0*%
%ADD23RoundRect,0.250000X0.475000X-0.337500X0.475000X0.337500X-0.475000X0.337500X-0.475000X-0.337500X0*%
%ADD24RoundRect,0.250000X-0.750000X0.600000X-0.750000X-0.600000X0.750000X-0.600000X0.750000X0.600000X0*%
%ADD25O,2.000000X1.700000*%
%ADD26RoundRect,0.250000X0.300000X-2.050000X0.300000X2.050000X-0.300000X2.050000X-0.300000X-2.050000X0*%
%ADD27RoundRect,0.250002X5.149998X-4.449998X5.149998X4.449998X-5.149998X4.449998X-5.149998X-4.449998X0*%
%ADD28RoundRect,0.250000X-1.500000X-0.550000X1.500000X-0.550000X1.500000X0.550000X-1.500000X0.550000X0*%
%ADD29RoundRect,0.250000X0.750000X-0.600000X0.750000X0.600000X-0.750000X0.600000X-0.750000X-0.600000X0*%
%ADD30RoundRect,0.250000X-0.725000X0.600000X-0.725000X-0.600000X0.725000X-0.600000X0.725000X0.600000X0*%
%ADD31O,1.950000X1.700000*%
%ADD32RoundRect,0.250000X-0.350000X-0.450000X0.350000X-0.450000X0.350000X0.450000X-0.350000X0.450000X0*%
%ADD33RoundRect,0.250000X0.350000X0.450000X-0.350000X0.450000X-0.350000X-0.450000X0.350000X-0.450000X0*%
%ADD34RoundRect,0.150000X0.150000X-0.587500X0.150000X0.587500X-0.150000X0.587500X-0.150000X-0.587500X0*%
%ADD35RoundRect,0.250001X-0.624999X0.462499X-0.624999X-0.462499X0.624999X-0.462499X0.624999X0.462499X0*%
%ADD36RoundRect,0.250001X0.462499X0.624999X-0.462499X0.624999X-0.462499X-0.624999X0.462499X-0.624999X0*%
%ADD37RoundRect,0.250000X-0.600000X-0.750000X0.600000X-0.750000X0.600000X0.750000X-0.600000X0.750000X0*%
%ADD38O,1.700000X2.000000*%
%ADD39RoundRect,0.250000X0.337500X0.475000X-0.337500X0.475000X-0.337500X-0.475000X0.337500X-0.475000X0*%
%ADD40RoundRect,0.250001X-0.462499X-0.624999X0.462499X-0.624999X0.462499X0.624999X-0.462499X0.624999X0*%
%ADD41RoundRect,0.250000X-0.600000X-0.725000X0.600000X-0.725000X0.600000X0.725000X-0.600000X0.725000X0*%
%ADD42O,1.700000X1.950000*%
%ADD43RoundRect,0.250000X0.550000X-1.500000X0.550000X1.500000X-0.550000X1.500000X-0.550000X-1.500000X0*%
%ADD44RoundRect,0.250000X-0.337500X-0.475000X0.337500X-0.475000X0.337500X0.475000X-0.337500X0.475000X0*%
%ADD45C,2.000000*%
G04 APERTURE END LIST*
D10*
%TO.C,H1*%
X117698000Y-121890000D03*
%TD*%
D11*
%TO.C,C7*%
X192714200Y-43933100D03*
X192714200Y-50433100D03*
%TD*%
D12*
%TO.C,Q1*%
X181038000Y-114560000D03*
X181038000Y-116460000D03*
X182913000Y-115510000D03*
%TD*%
D13*
%TO.C,J2*%
X187330000Y-85420000D03*
X200030000Y-85420000D03*
D14*
X190120000Y-87960000D03*
D15*
X191136000Y-89740000D03*
X192152000Y-87960000D03*
X193168000Y-89740000D03*
X194184000Y-87960000D03*
X195200000Y-89740000D03*
X196216000Y-87960000D03*
X197232000Y-89740000D03*
X186820000Y-94560000D03*
X189110000Y-94560000D03*
X198250000Y-94560000D03*
X200540000Y-94560000D03*
D16*
X185550000Y-88850000D03*
X201810000Y-88850000D03*
%TD*%
D10*
%TO.C,H3*%
X172698000Y-121890000D03*
%TD*%
D15*
%TO.C,R12*%
X183888000Y-102640000D03*
X180488000Y-102640000D03*
%TD*%
D17*
%TO.C,J3*%
X148988000Y-28690000D03*
D18*
X151528000Y-28690000D03*
X154068000Y-28690000D03*
X156608000Y-28690000D03*
%TD*%
D19*
%TO.C,Q2*%
X188058000Y-115790000D03*
X188058000Y-117690000D03*
X190258000Y-116740000D03*
%TD*%
D20*
%TO.C,RV1*%
X190778000Y-105600000D03*
X193318000Y-103060000D03*
X190778000Y-100520000D03*
%TD*%
D21*
%TO.C,R1*%
X184992600Y-44262600D03*
X184992600Y-46262600D03*
%TD*%
D22*
%TO.C,C9*%
X203820800Y-44297400D03*
X211020800Y-44297400D03*
%TD*%
D10*
%TO.C,H2*%
X157568000Y-121900000D03*
%TD*%
D23*
%TO.C,C1*%
X135328000Y-37167500D03*
X135328000Y-35092500D03*
%TD*%
D24*
%TO.C,JP1*%
X174223000Y-55716600D03*
D25*
X174223000Y-58216600D03*
%TD*%
D26*
%TO.C,U2*%
X177982200Y-39801600D03*
X179682200Y-39801600D03*
X181382200Y-39801600D03*
D27*
X181382200Y-30651600D03*
D26*
X183082200Y-39801600D03*
X184782200Y-39801600D03*
%TD*%
D28*
%TO.C,C12*%
X204722400Y-53924000D03*
X210322400Y-53924000D03*
%TD*%
D17*
%TO.C,J6*%
X124338000Y-120700000D03*
D18*
X126878000Y-120700000D03*
X129418000Y-120700000D03*
X131958000Y-120700000D03*
%TD*%
D24*
%TO.C,J1*%
X210838000Y-96600000D03*
D25*
X210838000Y-99100000D03*
%TD*%
D29*
%TO.C,J1*%
X156158000Y-86420000D03*
D25*
X156158000Y-83920000D03*
%TD*%
D17*
%TO.C,J5*%
X118288000Y-27360000D03*
D18*
X118288000Y-29900000D03*
X118288000Y-32440000D03*
X118288000Y-34980000D03*
X118288000Y-37520000D03*
X118288000Y-40060000D03*
X118288000Y-42600000D03*
X118288000Y-45140000D03*
%TD*%
D30*
%TO.C,JH1*%
X120208000Y-70800000D03*
D31*
X120208000Y-73300000D03*
X120208000Y-75800000D03*
X120208000Y-78300000D03*
X120208000Y-80800000D03*
X120208000Y-83300000D03*
X120208000Y-85800000D03*
X120208000Y-88300000D03*
%TD*%
D29*
%TO.C,JP1*%
X209848000Y-90470000D03*
D25*
X209848000Y-87970000D03*
%TD*%
D10*
%TO.C,H2*%
X212568000Y-82020000D03*
%TD*%
D32*
%TO.C,R2*%
X174768000Y-115690000D03*
X176768000Y-115690000D03*
%TD*%
D14*
%TO.C,SW2*%
X140238000Y-60230000D03*
X148038000Y-60230000D03*
%TD*%
D32*
%TO.C,R1*%
X126398900Y-78370000D03*
X128398900Y-78370000D03*
%TD*%
D21*
%TO.C,R2*%
X185018000Y-48825200D03*
X185018000Y-50825200D03*
%TD*%
D33*
%TO.C,R5*%
X147958000Y-33480000D03*
X145958000Y-33480000D03*
%TD*%
D34*
%TO.C,Q5*%
X179918000Y-93657500D03*
X181818000Y-93657500D03*
X180868000Y-91782500D03*
%TD*%
D23*
%TO.C,C2*%
X141600000Y-51802300D03*
X141600000Y-49727300D03*
%TD*%
D32*
%TO.C,R4*%
X139678000Y-55590000D03*
X141678000Y-55590000D03*
%TD*%
%TO.C,R10*%
X179868000Y-97270000D03*
X181868000Y-97270000D03*
%TD*%
D14*
%TO.C,SW1*%
X143238000Y-41050000D03*
X135438000Y-41050000D03*
%TD*%
D33*
%TO.C,R8*%
X207318000Y-121220000D03*
X205318000Y-121220000D03*
%TD*%
D23*
%TO.C,C3*%
X172902200Y-43861700D03*
X172902200Y-41786700D03*
%TD*%
D22*
%TO.C,C4*%
X203795400Y-35331200D03*
X210995400Y-35331200D03*
%TD*%
D35*
%TO.C,D2*%
X132528000Y-69675000D03*
X132528000Y-72650000D03*
%TD*%
D36*
%TO.C,D1*%
X134068000Y-78370000D03*
X131093000Y-78370000D03*
%TD*%
D10*
%TO.C,H2*%
X212577000Y-27025400D03*
%TD*%
D37*
%TO.C,J2*%
X178987400Y-66497000D03*
D38*
X181487400Y-66497000D03*
%TD*%
D10*
%TO.C,H1*%
X172699000Y-27025400D03*
%TD*%
%TO.C,H3*%
X172706000Y-66894000D03*
%TD*%
D17*
%TO.C,J4*%
X151488000Y-112010000D03*
D18*
X151488000Y-109470000D03*
X151488000Y-106930000D03*
X151488000Y-104390000D03*
X151488000Y-101850000D03*
X151488000Y-99310000D03*
X151488000Y-96770000D03*
X151488000Y-94230000D03*
%TD*%
D39*
%TO.C,C8*%
X191668900Y-39395200D03*
X189593900Y-39395200D03*
%TD*%
D10*
%TO.C,H4*%
X212578000Y-121890000D03*
%TD*%
D33*
%TO.C,R10*%
X148068000Y-36750000D03*
X146068000Y-36750000D03*
%TD*%
D40*
%TO.C,D1*%
X197783000Y-121170000D03*
X200758000Y-121170000D03*
%TD*%
D21*
%TO.C,R3*%
X128978000Y-69756200D03*
X128978000Y-71756200D03*
%TD*%
D10*
%TO.C,H4*%
X212576000Y-66894000D03*
%TD*%
D41*
%TO.C,J1*%
X188356800Y-65354000D03*
D42*
X190856800Y-65354000D03*
X193356800Y-65354000D03*
X195856800Y-65354000D03*
X198356800Y-65354000D03*
X200856800Y-65354000D03*
X203356800Y-65354000D03*
X205856800Y-65354000D03*
%TD*%
D23*
%TO.C,C3*%
X145918000Y-51730000D03*
X145918000Y-49655000D03*
%TD*%
D17*
%TO.C,J2*%
X118658000Y-58940000D03*
D18*
X118658000Y-56400000D03*
X121198000Y-58940000D03*
X121198000Y-56400000D03*
%TD*%
D32*
%TO.C,R9*%
X174318000Y-97270000D03*
X176318000Y-97270000D03*
%TD*%
D33*
%TO.C,R3*%
X191707600Y-35763000D03*
X189707600Y-35763000D03*
%TD*%
D43*
%TO.C,C2*%
X210268000Y-115420000D03*
X210268000Y-109820000D03*
%TD*%
D10*
%TO.C,H1*%
X172698000Y-82030000D03*
%TD*%
D28*
%TO.C,C2*%
X174979000Y-47777200D03*
X180579000Y-47777200D03*
%TD*%
D21*
%TO.C,R2*%
X130618000Y-34970000D03*
X130618000Y-36970000D03*
%TD*%
D44*
%TO.C,C4*%
X146083000Y-55830000D03*
X148158000Y-55830000D03*
%TD*%
D33*
%TO.C,R3*%
X185588000Y-120580000D03*
X183588000Y-120580000D03*
%TD*%
D21*
%TO.C,R1*%
X174708000Y-110000000D03*
X174708000Y-112000000D03*
%TD*%
D17*
%TO.C,BZ1*%
X190956600Y-27660400D03*
D18*
X193496600Y-27660400D03*
%TD*%
D45*
X135438000Y-44528900D03*
X189976000Y-41734000D03*
X207378300Y-38001700D03*
X149828000Y-53160000D03*
X123528000Y-41220000D03*
X142858000Y-102860000D03*
X191246000Y-53704000D03*
X194512500Y-37077300D03*
X151418000Y-68180000D03*
X195860000Y-60090000D03*
X143875800Y-33799700D03*
X138308000Y-61930000D03*
X150018500Y-57620000D03*
X128938000Y-67490000D03*
X132167800Y-45125900D03*
X135658000Y-51570000D03*
X151488000Y-117200000D03*
X124998000Y-71200000D03*
X206326898Y-46616938D03*
X117528000Y-62740000D03*
X126878000Y-96575200D03*
X129556900Y-92327100D03*
X213299900Y-55718600D03*
X208786000Y-26594000D03*
X201654900Y-30714633D03*
X200346000Y-28824000D03*
X205676000Y-59034000D03*
X202845500Y-59787582D03*
X175660000Y-41351800D03*
X171786000Y-46824000D03*
X189886000Y-31044000D03*
X201971345Y-39453709D03*
X188215100Y-33776500D03*
X200445500Y-41604000D03*
X204110491Y-117252491D03*
X175690700Y-104333200D03*
X197948800Y-102624000D03*
X138426100Y-88901900D03*
M02*
