%TF.GenerationSoftware,KiCad,Pcbnew,7.0.9*%
%TF.CreationDate,2023-11-13T19:29:17-05:00*%
%TF.ProjectId,SmartbikeALL,536d6172-7462-4696-9b65-414c4c2e6b69,rev?*%
%TF.SameCoordinates,Original*%
%TF.FileFunction,Soldermask,Top*%
%TF.FilePolarity,Negative*%
%FSLAX46Y46*%
G04 Gerber Fmt 4.6, Leading zero omitted, Abs format (unit mm)*
G04 Created by KiCad (PCBNEW 7.0.9) date 2023-11-13 19:29:17*
%MOMM*%
%LPD*%
G01*
G04 APERTURE LIST*
G04 Aperture macros list*
%AMRoundRect*
0 Rectangle with rounded corners*
0 $1 Rounding radius*
0 $2 $3 $4 $5 $6 $7 $8 $9 X,Y pos of 4 corners*
0 Add a 4 corners polygon primitive as box body*
4,1,4,$2,$3,$4,$5,$6,$7,$8,$9,$2,$3,0*
0 Add four circle primitives for the rounded corners*
1,1,$1+$1,$2,$3*
1,1,$1+$1,$4,$5*
1,1,$1+$1,$6,$7*
1,1,$1+$1,$8,$9*
0 Add four rect primitives between the rounded corners*
20,1,$1+$1,$2,$3,$4,$5,0*
20,1,$1+$1,$4,$5,$6,$7,0*
20,1,$1+$1,$6,$7,$8,$9,0*
20,1,$1+$1,$8,$9,$2,$3,0*%
G04 Aperture macros list end*
%ADD10RoundRect,0.250000X-0.750000X0.600000X-0.750000X-0.600000X0.750000X-0.600000X0.750000X0.600000X0*%
%ADD11O,2.000000X1.700000*%
%ADD12C,1.440000*%
%ADD13C,2.200000*%
%ADD14R,1.400000X1.000000*%
%ADD15C,1.500000*%
%ADD16RoundRect,0.250000X-0.350000X-0.450000X0.350000X-0.450000X0.350000X0.450000X-0.350000X0.450000X0*%
%ADD17RoundRect,0.250000X0.350000X0.450000X-0.350000X0.450000X-0.350000X-0.450000X0.350000X-0.450000X0*%
%ADD18RoundRect,0.150000X0.150000X-0.587500X0.150000X0.587500X-0.150000X0.587500X-0.150000X-0.587500X0*%
%ADD19C,3.250000*%
%ADD20R,1.500000X1.500000*%
%ADD21C,2.300000*%
%ADD22RoundRect,0.150000X-0.587500X-0.150000X0.587500X-0.150000X0.587500X0.150000X-0.587500X0.150000X0*%
%ADD23RoundRect,0.250001X-0.462499X-0.624999X0.462499X-0.624999X0.462499X0.624999X-0.462499X0.624999X0*%
%ADD24RoundRect,0.250000X-0.450000X0.350000X-0.450000X-0.350000X0.450000X-0.350000X0.450000X0.350000X0*%
%ADD25RoundRect,0.250000X0.550000X-1.500000X0.550000X1.500000X-0.550000X1.500000X-0.550000X-1.500000X0*%
%ADD26RoundRect,0.250000X0.750000X-0.600000X0.750000X0.600000X-0.750000X0.600000X-0.750000X-0.600000X0*%
%ADD27RoundRect,0.250000X-1.500000X-0.550000X1.500000X-0.550000X1.500000X0.550000X-1.500000X0.550000X0*%
%ADD28RoundRect,0.250000X-0.600000X-0.725000X0.600000X-0.725000X0.600000X0.725000X-0.600000X0.725000X0*%
%ADD29O,1.700000X1.950000*%
%ADD30RoundRect,0.250001X-1.999999X-0.799999X1.999999X-0.799999X1.999999X0.799999X-1.999999X0.799999X0*%
%ADD31RoundRect,0.250000X-0.600000X-0.750000X0.600000X-0.750000X0.600000X0.750000X-0.600000X0.750000X0*%
%ADD32O,1.700000X2.000000*%
%ADD33RoundRect,0.250000X-1.000000X1.500000X-1.000000X-1.500000X1.000000X-1.500000X1.000000X1.500000X0*%
%ADD34RoundRect,0.250000X0.475000X-0.337500X0.475000X0.337500X-0.475000X0.337500X-0.475000X-0.337500X0*%
%ADD35RoundRect,0.250000X0.337500X0.475000X-0.337500X0.475000X-0.337500X-0.475000X0.337500X-0.475000X0*%
%ADD36RoundRect,0.250000X0.300000X-2.050000X0.300000X2.050000X-0.300000X2.050000X-0.300000X-2.050000X0*%
%ADD37RoundRect,0.250002X5.149998X-4.449998X5.149998X4.449998X-5.149998X4.449998X-5.149998X-4.449998X0*%
%ADD38R,1.700000X1.700000*%
%ADD39O,1.700000X1.700000*%
%ADD40RoundRect,0.250000X0.450000X-0.350000X0.450000X0.350000X-0.450000X0.350000X-0.450000X-0.350000X0*%
%ADD41RoundRect,0.250000X-0.725000X0.600000X-0.725000X-0.600000X0.725000X-0.600000X0.725000X0.600000X0*%
%ADD42O,1.950000X1.700000*%
%ADD43RoundRect,0.250001X0.624999X-0.462499X0.624999X0.462499X-0.624999X0.462499X-0.624999X-0.462499X0*%
%ADD44R,0.850000X0.850000*%
%ADD45RoundRect,0.250000X-0.475000X0.337500X-0.475000X-0.337500X0.475000X-0.337500X0.475000X0.337500X0*%
G04 APERTURE END LIST*
D10*
%TO.C,J1*%
X204670000Y-35090000D03*
D11*
X204670000Y-37590000D03*
%TD*%
D12*
%TO.C,RV1*%
X184610000Y-44090000D03*
X187150000Y-41550000D03*
X184610000Y-39010000D03*
%TD*%
D13*
%TO.C,H4*%
X206410000Y-60380000D03*
%TD*%
D14*
%TO.C,Q2*%
X181890000Y-54280000D03*
X181890000Y-56180000D03*
X184090000Y-55230000D03*
%TD*%
D15*
%TO.C,R12*%
X177720000Y-41130000D03*
X174320000Y-41130000D03*
%TD*%
D16*
%TO.C,R9*%
X168150000Y-35760000D03*
X170150000Y-35760000D03*
%TD*%
D17*
%TO.C,R3*%
X179420000Y-59070000D03*
X177420000Y-59070000D03*
%TD*%
D18*
%TO.C,Q5*%
X173750000Y-32147500D03*
X175650000Y-32147500D03*
X174700000Y-30272500D03*
%TD*%
D16*
%TO.C,R10*%
X173700000Y-35760000D03*
X175700000Y-35760000D03*
%TD*%
%TO.C,R2*%
X168600000Y-54180000D03*
X170600000Y-54180000D03*
%TD*%
D19*
%TO.C,J2*%
X181162000Y-23910000D03*
X193862000Y-23910000D03*
D20*
X183952000Y-26450000D03*
D15*
X184968000Y-28230000D03*
X185984000Y-26450000D03*
X187000000Y-28230000D03*
X188016000Y-26450000D03*
X189032000Y-28230000D03*
X190048000Y-26450000D03*
X191064000Y-28230000D03*
X180652000Y-33050000D03*
X182942000Y-33050000D03*
X192082000Y-33050000D03*
X194372000Y-33050000D03*
D21*
X179382000Y-27340000D03*
X195642000Y-27340000D03*
%TD*%
D13*
%TO.C,H2*%
X206400000Y-20510000D03*
%TD*%
D22*
%TO.C,Q1*%
X174870000Y-53050000D03*
X174870000Y-54950000D03*
X176745000Y-54000000D03*
%TD*%
D23*
%TO.C,D1*%
X191615000Y-59660000D03*
X194590000Y-59660000D03*
%TD*%
D17*
%TO.C,R8*%
X201150000Y-59710000D03*
X199150000Y-59710000D03*
%TD*%
D24*
%TO.C,R1*%
X168540000Y-48490000D03*
X168540000Y-50490000D03*
%TD*%
D13*
%TO.C,H1*%
X166530000Y-20520000D03*
%TD*%
D25*
%TO.C,C2*%
X204100000Y-53910000D03*
X204100000Y-48310000D03*
%TD*%
D26*
%TO.C,JP1*%
X203680000Y-28960000D03*
D11*
X203680000Y-26460000D03*
%TD*%
D13*
%TO.C,H3*%
X166530000Y-60380000D03*
%TD*%
D27*
%TO.C,C12*%
X198554400Y-102414000D03*
X204154400Y-102414000D03*
%TD*%
D28*
%TO.C,J1*%
X182188800Y-113844000D03*
D29*
X184688800Y-113844000D03*
X187188800Y-113844000D03*
X189688800Y-113844000D03*
X192188800Y-113844000D03*
X194688800Y-113844000D03*
X197188800Y-113844000D03*
X199688800Y-113844000D03*
%TD*%
D13*
%TO.C,H3*%
X166538000Y-115384000D03*
%TD*%
D27*
%TO.C,C2*%
X168811000Y-96267200D03*
X174411000Y-96267200D03*
%TD*%
D30*
%TO.C,C4*%
X197627400Y-83821200D03*
X204827400Y-83821200D03*
%TD*%
D10*
%TO.C,JP1*%
X168055000Y-104206600D03*
D11*
X168055000Y-106706600D03*
%TD*%
D13*
%TO.C,H2*%
X206409000Y-75515400D03*
%TD*%
D31*
%TO.C,J2*%
X172819400Y-114987000D03*
D32*
X175319400Y-114987000D03*
%TD*%
D33*
%TO.C,C7*%
X186546200Y-92423100D03*
X186546200Y-98923100D03*
%TD*%
D34*
%TO.C,C3*%
X166734200Y-92351700D03*
X166734200Y-90276700D03*
%TD*%
D35*
%TO.C,C8*%
X185500900Y-87885200D03*
X183425900Y-87885200D03*
%TD*%
D17*
%TO.C,R3*%
X185539600Y-84253000D03*
X183539600Y-84253000D03*
%TD*%
D36*
%TO.C,U2*%
X171814200Y-88291600D03*
X173514200Y-88291600D03*
X175214200Y-88291600D03*
D37*
X175214200Y-79141600D03*
D36*
X176914200Y-88291600D03*
X178614200Y-88291600D03*
%TD*%
D24*
%TO.C,R1*%
X178824600Y-92752600D03*
X178824600Y-94752600D03*
%TD*%
D13*
%TO.C,H1*%
X166531000Y-75515400D03*
%TD*%
D30*
%TO.C,C9*%
X197652800Y-92787400D03*
X204852800Y-92787400D03*
%TD*%
D24*
%TO.C,R2*%
X178850000Y-97315200D03*
X178850000Y-99315200D03*
%TD*%
D38*
%TO.C,BZ1*%
X184788600Y-76150400D03*
D39*
X187328600Y-76150400D03*
%TD*%
D13*
%TO.C,H4*%
X206408000Y-115384000D03*
%TD*%
D24*
%TO.C,R1*%
X151375200Y-27459200D03*
X151375200Y-29459200D03*
%TD*%
D13*
%TO.C,H2*%
X151400000Y-115390000D03*
%TD*%
D34*
%TO.C,C2*%
X139538800Y-29569000D03*
X139538800Y-27494000D03*
%TD*%
D40*
%TO.C,R4*%
X139234000Y-33878800D03*
X139234000Y-31878800D03*
%TD*%
D38*
%TO.C,J5*%
X147463600Y-67930800D03*
D39*
X147463600Y-70470800D03*
X147463600Y-73010800D03*
X147463600Y-75550800D03*
X147463600Y-78090800D03*
%TD*%
D26*
%TO.C,J1*%
X150414800Y-44746000D03*
D11*
X150414800Y-42246000D03*
%TD*%
D20*
%TO.C,SW1*%
X113935600Y-54457200D03*
X113935600Y-46657200D03*
%TD*%
D38*
%TO.C,J3*%
X150867200Y-58329600D03*
D39*
X148327200Y-58329600D03*
X150867200Y-55789600D03*
X148327200Y-55789600D03*
X150867200Y-53249600D03*
X148327200Y-53249600D03*
%TD*%
D41*
%TO.C,JH1*%
X112919600Y-67978400D03*
D42*
X112919600Y-70478400D03*
X112919600Y-72978400D03*
X112919600Y-75478400D03*
X112919600Y-77978400D03*
X112919600Y-80478400D03*
X112919600Y-82978400D03*
X112919600Y-85478400D03*
%TD*%
D20*
%TO.C,SW2*%
X145787200Y-37806400D03*
X137987200Y-37806400D03*
%TD*%
D43*
%TO.C,D1*%
X151375200Y-35128300D03*
X151375200Y-32153300D03*
%TD*%
D16*
%TO.C,R2*%
X111259200Y-44004000D03*
X113259200Y-44004000D03*
%TD*%
D38*
%TO.C,J8*%
X113072000Y-107570000D03*
D39*
X113072000Y-105030000D03*
X113072000Y-102490000D03*
X113072000Y-99950000D03*
%TD*%
D13*
%TO.C,H1*%
X111530000Y-115380000D03*
%TD*%
D34*
%TO.C,C1*%
X115662800Y-41790300D03*
X115662800Y-39715300D03*
%TD*%
D24*
%TO.C,R3*%
X135068400Y-48236400D03*
X135068400Y-50236400D03*
%TD*%
D38*
%TO.C,J7*%
X151100000Y-110200000D03*
D39*
X151100000Y-107660000D03*
X151100000Y-105120000D03*
X151100000Y-102580000D03*
X151100000Y-100040000D03*
X151100000Y-97500000D03*
X151100000Y-94960000D03*
X151100000Y-92420000D03*
%TD*%
D16*
%TO.C,R10*%
X111462400Y-62952400D03*
X113462400Y-62952400D03*
%TD*%
D38*
%TO.C,J4*%
X111192400Y-37958800D03*
D39*
X111192400Y-35418800D03*
X111192400Y-32878800D03*
X111192400Y-30338800D03*
%TD*%
D44*
%TO.C,J2*%
X151273600Y-63663600D03*
%TD*%
D43*
%TO.C,D2*%
X135068400Y-56145200D03*
X135068400Y-53170200D03*
%TD*%
D34*
%TO.C,C3*%
X143856800Y-29496700D03*
X143856800Y-27421700D03*
%TD*%
D45*
%TO.C,C4*%
X142485200Y-31688900D03*
X142485200Y-33763900D03*
%TD*%
D38*
%TO.C,J6*%
X151324400Y-67981600D03*
D39*
X151324400Y-70521600D03*
X151324400Y-73061600D03*
X151324400Y-75601600D03*
X151324400Y-78141600D03*
X151324400Y-80681600D03*
X151324400Y-83221600D03*
X151324400Y-85761600D03*
%TD*%
D16*
%TO.C,R5*%
X111513200Y-59447200D03*
X113513200Y-59447200D03*
%TD*%
M02*
