%TF.GenerationSoftware,KiCad,Pcbnew,7.0.9*%
%TF.CreationDate,2023-11-16T02:53:52-05:00*%
%TF.ProjectId,SmartbikeALL,536d6172-7462-4696-9b65-414c4c2e6b69,rev?*%
%TF.SameCoordinates,Original*%
%TF.FileFunction,Legend,Top*%
%TF.FilePolarity,Positive*%
%FSLAX46Y46*%
G04 Gerber Fmt 4.6, Leading zero omitted, Abs format (unit mm)*
G04 Created by KiCad (PCBNEW 7.0.9) date 2023-11-16 02:53:52*
%MOMM*%
%LPD*%
G01*
G04 APERTURE LIST*
%ADD10C,0.150000*%
%ADD11C,0.120000*%
G04 APERTURE END LIST*
D10*
X120566095Y-122274819D02*
X120566095Y-121274819D01*
X120566095Y-121751009D02*
X121137523Y-121751009D01*
X121137523Y-122274819D02*
X121137523Y-121274819D01*
X122137523Y-122274819D02*
X121566095Y-122274819D01*
X121851809Y-122274819D02*
X121851809Y-121274819D01*
X121851809Y-121274819D02*
X121756571Y-121417676D01*
X121756571Y-121417676D02*
X121661333Y-121512914D01*
X121661333Y-121512914D02*
X121566095Y-121560533D01*
X198273780Y-47349766D02*
X198321400Y-47397385D01*
X198321400Y-47397385D02*
X198369019Y-47540242D01*
X198369019Y-47540242D02*
X198369019Y-47635480D01*
X198369019Y-47635480D02*
X198321400Y-47778337D01*
X198321400Y-47778337D02*
X198226161Y-47873575D01*
X198226161Y-47873575D02*
X198130923Y-47921194D01*
X198130923Y-47921194D02*
X197940447Y-47968813D01*
X197940447Y-47968813D02*
X197797590Y-47968813D01*
X197797590Y-47968813D02*
X197607114Y-47921194D01*
X197607114Y-47921194D02*
X197511876Y-47873575D01*
X197511876Y-47873575D02*
X197416638Y-47778337D01*
X197416638Y-47778337D02*
X197369019Y-47635480D01*
X197369019Y-47635480D02*
X197369019Y-47540242D01*
X197369019Y-47540242D02*
X197416638Y-47397385D01*
X197416638Y-47397385D02*
X197464257Y-47349766D01*
X197369019Y-47016432D02*
X197369019Y-46349766D01*
X197369019Y-46349766D02*
X198369019Y-46778337D01*
X181880261Y-113660057D02*
X181785023Y-113612438D01*
X181785023Y-113612438D02*
X181689785Y-113517200D01*
X181689785Y-113517200D02*
X181546928Y-113374342D01*
X181546928Y-113374342D02*
X181451690Y-113326723D01*
X181451690Y-113326723D02*
X181356452Y-113326723D01*
X181404071Y-113564819D02*
X181308833Y-113517200D01*
X181308833Y-113517200D02*
X181213595Y-113421961D01*
X181213595Y-113421961D02*
X181165976Y-113231485D01*
X181165976Y-113231485D02*
X181165976Y-112898152D01*
X181165976Y-112898152D02*
X181213595Y-112707676D01*
X181213595Y-112707676D02*
X181308833Y-112612438D01*
X181308833Y-112612438D02*
X181404071Y-112564819D01*
X181404071Y-112564819D02*
X181594547Y-112564819D01*
X181594547Y-112564819D02*
X181689785Y-112612438D01*
X181689785Y-112612438D02*
X181785023Y-112707676D01*
X181785023Y-112707676D02*
X181832642Y-112898152D01*
X181832642Y-112898152D02*
X181832642Y-113231485D01*
X181832642Y-113231485D02*
X181785023Y-113421961D01*
X181785023Y-113421961D02*
X181689785Y-113517200D01*
X181689785Y-113517200D02*
X181594547Y-113564819D01*
X181594547Y-113564819D02*
X181404071Y-113564819D01*
X182785023Y-113564819D02*
X182213595Y-113564819D01*
X182499309Y-113564819D02*
X182499309Y-112564819D01*
X182499309Y-112564819D02*
X182404071Y-112707676D01*
X182404071Y-112707676D02*
X182308833Y-112802914D01*
X182308833Y-112802914D02*
X182213595Y-112850533D01*
X193296666Y-83694819D02*
X193296666Y-84409104D01*
X193296666Y-84409104D02*
X193249047Y-84551961D01*
X193249047Y-84551961D02*
X193153809Y-84647200D01*
X193153809Y-84647200D02*
X193010952Y-84694819D01*
X193010952Y-84694819D02*
X192915714Y-84694819D01*
X193725238Y-83790057D02*
X193772857Y-83742438D01*
X193772857Y-83742438D02*
X193868095Y-83694819D01*
X193868095Y-83694819D02*
X194106190Y-83694819D01*
X194106190Y-83694819D02*
X194201428Y-83742438D01*
X194201428Y-83742438D02*
X194249047Y-83790057D01*
X194249047Y-83790057D02*
X194296666Y-83885295D01*
X194296666Y-83885295D02*
X194296666Y-83980533D01*
X194296666Y-83980533D02*
X194249047Y-84123390D01*
X194249047Y-84123390D02*
X193677619Y-84694819D01*
X193677619Y-84694819D02*
X194296666Y-84694819D01*
X175566095Y-122284819D02*
X175566095Y-121284819D01*
X175566095Y-121761009D02*
X176137523Y-121761009D01*
X176137523Y-122284819D02*
X176137523Y-121284819D01*
X176518476Y-121284819D02*
X177137523Y-121284819D01*
X177137523Y-121284819D02*
X176804190Y-121665771D01*
X176804190Y-121665771D02*
X176947047Y-121665771D01*
X176947047Y-121665771D02*
X177042285Y-121713390D01*
X177042285Y-121713390D02*
X177089904Y-121761009D01*
X177089904Y-121761009D02*
X177137523Y-121856247D01*
X177137523Y-121856247D02*
X177137523Y-122094342D01*
X177137523Y-122094342D02*
X177089904Y-122189580D01*
X177089904Y-122189580D02*
X177042285Y-122237200D01*
X177042285Y-122237200D02*
X176947047Y-122284819D01*
X176947047Y-122284819D02*
X176661333Y-122284819D01*
X176661333Y-122284819D02*
X176566095Y-122237200D01*
X176566095Y-122237200D02*
X176518476Y-122189580D01*
X181545142Y-105994819D02*
X181211809Y-105518628D01*
X180973714Y-105994819D02*
X180973714Y-104994819D01*
X180973714Y-104994819D02*
X181354666Y-104994819D01*
X181354666Y-104994819D02*
X181449904Y-105042438D01*
X181449904Y-105042438D02*
X181497523Y-105090057D01*
X181497523Y-105090057D02*
X181545142Y-105185295D01*
X181545142Y-105185295D02*
X181545142Y-105328152D01*
X181545142Y-105328152D02*
X181497523Y-105423390D01*
X181497523Y-105423390D02*
X181449904Y-105471009D01*
X181449904Y-105471009D02*
X181354666Y-105518628D01*
X181354666Y-105518628D02*
X180973714Y-105518628D01*
X182497523Y-105994819D02*
X181926095Y-105994819D01*
X182211809Y-105994819D02*
X182211809Y-104994819D01*
X182211809Y-104994819D02*
X182116571Y-105137676D01*
X182116571Y-105137676D02*
X182021333Y-105232914D01*
X182021333Y-105232914D02*
X181926095Y-105280533D01*
X182878476Y-105090057D02*
X182926095Y-105042438D01*
X182926095Y-105042438D02*
X183021333Y-104994819D01*
X183021333Y-104994819D02*
X183259428Y-104994819D01*
X183259428Y-104994819D02*
X183354666Y-105042438D01*
X183354666Y-105042438D02*
X183402285Y-105090057D01*
X183402285Y-105090057D02*
X183449904Y-105185295D01*
X183449904Y-105185295D02*
X183449904Y-105280533D01*
X183449904Y-105280533D02*
X183402285Y-105423390D01*
X183402285Y-105423390D02*
X182830857Y-105994819D01*
X182830857Y-105994819D02*
X183449904Y-105994819D01*
X145672819Y-29023333D02*
X146387104Y-29023333D01*
X146387104Y-29023333D02*
X146529961Y-29070952D01*
X146529961Y-29070952D02*
X146625200Y-29166190D01*
X146625200Y-29166190D02*
X146672819Y-29309047D01*
X146672819Y-29309047D02*
X146672819Y-29404285D01*
X145672819Y-28642380D02*
X145672819Y-28023333D01*
X145672819Y-28023333D02*
X146053771Y-28356666D01*
X146053771Y-28356666D02*
X146053771Y-28213809D01*
X146053771Y-28213809D02*
X146101390Y-28118571D01*
X146101390Y-28118571D02*
X146149009Y-28070952D01*
X146149009Y-28070952D02*
X146244247Y-28023333D01*
X146244247Y-28023333D02*
X146482342Y-28023333D01*
X146482342Y-28023333D02*
X146577580Y-28070952D01*
X146577580Y-28070952D02*
X146625200Y-28118571D01*
X146625200Y-28118571D02*
X146672819Y-28213809D01*
X146672819Y-28213809D02*
X146672819Y-28499523D01*
X146672819Y-28499523D02*
X146625200Y-28594761D01*
X146625200Y-28594761D02*
X146577580Y-28642380D01*
X189062761Y-114940057D02*
X188967523Y-114892438D01*
X188967523Y-114892438D02*
X188872285Y-114797200D01*
X188872285Y-114797200D02*
X188729428Y-114654342D01*
X188729428Y-114654342D02*
X188634190Y-114606723D01*
X188634190Y-114606723D02*
X188538952Y-114606723D01*
X188586571Y-114844819D02*
X188491333Y-114797200D01*
X188491333Y-114797200D02*
X188396095Y-114701961D01*
X188396095Y-114701961D02*
X188348476Y-114511485D01*
X188348476Y-114511485D02*
X188348476Y-114178152D01*
X188348476Y-114178152D02*
X188396095Y-113987676D01*
X188396095Y-113987676D02*
X188491333Y-113892438D01*
X188491333Y-113892438D02*
X188586571Y-113844819D01*
X188586571Y-113844819D02*
X188777047Y-113844819D01*
X188777047Y-113844819D02*
X188872285Y-113892438D01*
X188872285Y-113892438D02*
X188967523Y-113987676D01*
X188967523Y-113987676D02*
X189015142Y-114178152D01*
X189015142Y-114178152D02*
X189015142Y-114511485D01*
X189015142Y-114511485D02*
X188967523Y-114701961D01*
X188967523Y-114701961D02*
X188872285Y-114797200D01*
X188872285Y-114797200D02*
X188777047Y-114844819D01*
X188777047Y-114844819D02*
X188586571Y-114844819D01*
X189396095Y-113940057D02*
X189443714Y-113892438D01*
X189443714Y-113892438D02*
X189538952Y-113844819D01*
X189538952Y-113844819D02*
X189777047Y-113844819D01*
X189777047Y-113844819D02*
X189872285Y-113892438D01*
X189872285Y-113892438D02*
X189919904Y-113940057D01*
X189919904Y-113940057D02*
X189967523Y-114035295D01*
X189967523Y-114035295D02*
X189967523Y-114130533D01*
X189967523Y-114130533D02*
X189919904Y-114273390D01*
X189919904Y-114273390D02*
X189348476Y-114844819D01*
X189348476Y-114844819D02*
X189967523Y-114844819D01*
X190167761Y-97499819D02*
X189834428Y-97023628D01*
X189596333Y-97499819D02*
X189596333Y-96499819D01*
X189596333Y-96499819D02*
X189977285Y-96499819D01*
X189977285Y-96499819D02*
X190072523Y-96547438D01*
X190072523Y-96547438D02*
X190120142Y-96595057D01*
X190120142Y-96595057D02*
X190167761Y-96690295D01*
X190167761Y-96690295D02*
X190167761Y-96833152D01*
X190167761Y-96833152D02*
X190120142Y-96928390D01*
X190120142Y-96928390D02*
X190072523Y-96976009D01*
X190072523Y-96976009D02*
X189977285Y-97023628D01*
X189977285Y-97023628D02*
X189596333Y-97023628D01*
X190453476Y-96499819D02*
X190786809Y-97499819D01*
X190786809Y-97499819D02*
X191120142Y-96499819D01*
X191977285Y-97499819D02*
X191405857Y-97499819D01*
X191691571Y-97499819D02*
X191691571Y-96499819D01*
X191691571Y-96499819D02*
X191596333Y-96642676D01*
X191596333Y-96642676D02*
X191501095Y-96737914D01*
X191501095Y-96737914D02*
X191405857Y-96785533D01*
X187200019Y-45403866D02*
X186723828Y-45737199D01*
X187200019Y-45975294D02*
X186200019Y-45975294D01*
X186200019Y-45975294D02*
X186200019Y-45594342D01*
X186200019Y-45594342D02*
X186247638Y-45499104D01*
X186247638Y-45499104D02*
X186295257Y-45451485D01*
X186295257Y-45451485D02*
X186390495Y-45403866D01*
X186390495Y-45403866D02*
X186533352Y-45403866D01*
X186533352Y-45403866D02*
X186628590Y-45451485D01*
X186628590Y-45451485D02*
X186676209Y-45499104D01*
X186676209Y-45499104D02*
X186723828Y-45594342D01*
X186723828Y-45594342D02*
X186723828Y-45975294D01*
X187200019Y-44451485D02*
X187200019Y-45022913D01*
X187200019Y-44737199D02*
X186200019Y-44737199D01*
X186200019Y-44737199D02*
X186342876Y-44832437D01*
X186342876Y-44832437D02*
X186438114Y-44927675D01*
X186438114Y-44927675D02*
X186485733Y-45022913D01*
X212987380Y-41543066D02*
X213035000Y-41590685D01*
X213035000Y-41590685D02*
X213082619Y-41733542D01*
X213082619Y-41733542D02*
X213082619Y-41828780D01*
X213082619Y-41828780D02*
X213035000Y-41971637D01*
X213035000Y-41971637D02*
X212939761Y-42066875D01*
X212939761Y-42066875D02*
X212844523Y-42114494D01*
X212844523Y-42114494D02*
X212654047Y-42162113D01*
X212654047Y-42162113D02*
X212511190Y-42162113D01*
X212511190Y-42162113D02*
X212320714Y-42114494D01*
X212320714Y-42114494D02*
X212225476Y-42066875D01*
X212225476Y-42066875D02*
X212130238Y-41971637D01*
X212130238Y-41971637D02*
X212082619Y-41828780D01*
X212082619Y-41828780D02*
X212082619Y-41733542D01*
X212082619Y-41733542D02*
X212130238Y-41590685D01*
X212130238Y-41590685D02*
X212177857Y-41543066D01*
X213082619Y-41066875D02*
X213082619Y-40876399D01*
X213082619Y-40876399D02*
X213035000Y-40781161D01*
X213035000Y-40781161D02*
X212987380Y-40733542D01*
X212987380Y-40733542D02*
X212844523Y-40638304D01*
X212844523Y-40638304D02*
X212654047Y-40590685D01*
X212654047Y-40590685D02*
X212273095Y-40590685D01*
X212273095Y-40590685D02*
X212177857Y-40638304D01*
X212177857Y-40638304D02*
X212130238Y-40685923D01*
X212130238Y-40685923D02*
X212082619Y-40781161D01*
X212082619Y-40781161D02*
X212082619Y-40971637D01*
X212082619Y-40971637D02*
X212130238Y-41066875D01*
X212130238Y-41066875D02*
X212177857Y-41114494D01*
X212177857Y-41114494D02*
X212273095Y-41162113D01*
X212273095Y-41162113D02*
X212511190Y-41162113D01*
X212511190Y-41162113D02*
X212606428Y-41114494D01*
X212606428Y-41114494D02*
X212654047Y-41066875D01*
X212654047Y-41066875D02*
X212701666Y-40971637D01*
X212701666Y-40971637D02*
X212701666Y-40781161D01*
X212701666Y-40781161D02*
X212654047Y-40685923D01*
X212654047Y-40685923D02*
X212606428Y-40638304D01*
X212606428Y-40638304D02*
X212511190Y-40590685D01*
X153366095Y-122414819D02*
X153366095Y-121414819D01*
X153366095Y-121891009D02*
X153937523Y-121891009D01*
X153937523Y-122414819D02*
X153937523Y-121414819D01*
X154366095Y-121510057D02*
X154413714Y-121462438D01*
X154413714Y-121462438D02*
X154508952Y-121414819D01*
X154508952Y-121414819D02*
X154747047Y-121414819D01*
X154747047Y-121414819D02*
X154842285Y-121462438D01*
X154842285Y-121462438D02*
X154889904Y-121510057D01*
X154889904Y-121510057D02*
X154937523Y-121605295D01*
X154937523Y-121605295D02*
X154937523Y-121700533D01*
X154937523Y-121700533D02*
X154889904Y-121843390D01*
X154889904Y-121843390D02*
X154318476Y-122414819D01*
X154318476Y-122414819D02*
X154937523Y-122414819D01*
X134007580Y-36296666D02*
X134055200Y-36344285D01*
X134055200Y-36344285D02*
X134102819Y-36487142D01*
X134102819Y-36487142D02*
X134102819Y-36582380D01*
X134102819Y-36582380D02*
X134055200Y-36725237D01*
X134055200Y-36725237D02*
X133959961Y-36820475D01*
X133959961Y-36820475D02*
X133864723Y-36868094D01*
X133864723Y-36868094D02*
X133674247Y-36915713D01*
X133674247Y-36915713D02*
X133531390Y-36915713D01*
X133531390Y-36915713D02*
X133340914Y-36868094D01*
X133340914Y-36868094D02*
X133245676Y-36820475D01*
X133245676Y-36820475D02*
X133150438Y-36725237D01*
X133150438Y-36725237D02*
X133102819Y-36582380D01*
X133102819Y-36582380D02*
X133102819Y-36487142D01*
X133102819Y-36487142D02*
X133150438Y-36344285D01*
X133150438Y-36344285D02*
X133198057Y-36296666D01*
X134102819Y-35344285D02*
X134102819Y-35915713D01*
X134102819Y-35629999D02*
X133102819Y-35629999D01*
X133102819Y-35629999D02*
X133245676Y-35725237D01*
X133245676Y-35725237D02*
X133340914Y-35820475D01*
X133340914Y-35820475D02*
X133388533Y-35915713D01*
X176477819Y-57799933D02*
X177192104Y-57799933D01*
X177192104Y-57799933D02*
X177334961Y-57847552D01*
X177334961Y-57847552D02*
X177430200Y-57942790D01*
X177430200Y-57942790D02*
X177477819Y-58085647D01*
X177477819Y-58085647D02*
X177477819Y-58180885D01*
X177477819Y-57323742D02*
X176477819Y-57323742D01*
X176477819Y-57323742D02*
X176477819Y-56942790D01*
X176477819Y-56942790D02*
X176525438Y-56847552D01*
X176525438Y-56847552D02*
X176573057Y-56799933D01*
X176573057Y-56799933D02*
X176668295Y-56752314D01*
X176668295Y-56752314D02*
X176811152Y-56752314D01*
X176811152Y-56752314D02*
X176906390Y-56799933D01*
X176906390Y-56799933D02*
X176954009Y-56847552D01*
X176954009Y-56847552D02*
X177001628Y-56942790D01*
X177001628Y-56942790D02*
X177001628Y-57323742D01*
X177477819Y-55799933D02*
X177477819Y-56371361D01*
X177477819Y-56085647D02*
X176477819Y-56085647D01*
X176477819Y-56085647D02*
X176620676Y-56180885D01*
X176620676Y-56180885D02*
X176715914Y-56276123D01*
X176715914Y-56276123D02*
X176763533Y-56371361D01*
X174516019Y-32791104D02*
X175325542Y-32791104D01*
X175325542Y-32791104D02*
X175420780Y-32743485D01*
X175420780Y-32743485D02*
X175468400Y-32695866D01*
X175468400Y-32695866D02*
X175516019Y-32600628D01*
X175516019Y-32600628D02*
X175516019Y-32410152D01*
X175516019Y-32410152D02*
X175468400Y-32314914D01*
X175468400Y-32314914D02*
X175420780Y-32267295D01*
X175420780Y-32267295D02*
X175325542Y-32219676D01*
X175325542Y-32219676D02*
X174516019Y-32219676D01*
X174611257Y-31791104D02*
X174563638Y-31743485D01*
X174563638Y-31743485D02*
X174516019Y-31648247D01*
X174516019Y-31648247D02*
X174516019Y-31410152D01*
X174516019Y-31410152D02*
X174563638Y-31314914D01*
X174563638Y-31314914D02*
X174611257Y-31267295D01*
X174611257Y-31267295D02*
X174706495Y-31219676D01*
X174706495Y-31219676D02*
X174801733Y-31219676D01*
X174801733Y-31219676D02*
X174944590Y-31267295D01*
X174944590Y-31267295D02*
X175516019Y-31838723D01*
X175516019Y-31838723D02*
X175516019Y-31219676D01*
X211943142Y-57843580D02*
X211895523Y-57891200D01*
X211895523Y-57891200D02*
X211752666Y-57938819D01*
X211752666Y-57938819D02*
X211657428Y-57938819D01*
X211657428Y-57938819D02*
X211514571Y-57891200D01*
X211514571Y-57891200D02*
X211419333Y-57795961D01*
X211419333Y-57795961D02*
X211371714Y-57700723D01*
X211371714Y-57700723D02*
X211324095Y-57510247D01*
X211324095Y-57510247D02*
X211324095Y-57367390D01*
X211324095Y-57367390D02*
X211371714Y-57176914D01*
X211371714Y-57176914D02*
X211419333Y-57081676D01*
X211419333Y-57081676D02*
X211514571Y-56986438D01*
X211514571Y-56986438D02*
X211657428Y-56938819D01*
X211657428Y-56938819D02*
X211752666Y-56938819D01*
X211752666Y-56938819D02*
X211895523Y-56986438D01*
X211895523Y-56986438D02*
X211943142Y-57034057D01*
X212895523Y-57938819D02*
X212324095Y-57938819D01*
X212609809Y-57938819D02*
X212609809Y-56938819D01*
X212609809Y-56938819D02*
X212514571Y-57081676D01*
X212514571Y-57081676D02*
X212419333Y-57176914D01*
X212419333Y-57176914D02*
X212324095Y-57224533D01*
X213276476Y-57034057D02*
X213324095Y-56986438D01*
X213324095Y-56986438D02*
X213419333Y-56938819D01*
X213419333Y-56938819D02*
X213657428Y-56938819D01*
X213657428Y-56938819D02*
X213752666Y-56986438D01*
X213752666Y-56986438D02*
X213800285Y-57034057D01*
X213800285Y-57034057D02*
X213847904Y-57129295D01*
X213847904Y-57129295D02*
X213847904Y-57224533D01*
X213847904Y-57224533D02*
X213800285Y-57367390D01*
X213800285Y-57367390D02*
X213228857Y-57938819D01*
X213228857Y-57938819D02*
X213847904Y-57938819D01*
X123394666Y-117644819D02*
X123394666Y-118359104D01*
X123394666Y-118359104D02*
X123347047Y-118501961D01*
X123347047Y-118501961D02*
X123251809Y-118597200D01*
X123251809Y-118597200D02*
X123108952Y-118644819D01*
X123108952Y-118644819D02*
X123013714Y-118644819D01*
X124299428Y-117644819D02*
X124108952Y-117644819D01*
X124108952Y-117644819D02*
X124013714Y-117692438D01*
X124013714Y-117692438D02*
X123966095Y-117740057D01*
X123966095Y-117740057D02*
X123870857Y-117882914D01*
X123870857Y-117882914D02*
X123823238Y-118073390D01*
X123823238Y-118073390D02*
X123823238Y-118454342D01*
X123823238Y-118454342D02*
X123870857Y-118549580D01*
X123870857Y-118549580D02*
X123918476Y-118597200D01*
X123918476Y-118597200D02*
X124013714Y-118644819D01*
X124013714Y-118644819D02*
X124204190Y-118644819D01*
X124204190Y-118644819D02*
X124299428Y-118597200D01*
X124299428Y-118597200D02*
X124347047Y-118549580D01*
X124347047Y-118549580D02*
X124394666Y-118454342D01*
X124394666Y-118454342D02*
X124394666Y-118216247D01*
X124394666Y-118216247D02*
X124347047Y-118121009D01*
X124347047Y-118121009D02*
X124299428Y-118073390D01*
X124299428Y-118073390D02*
X124204190Y-118025771D01*
X124204190Y-118025771D02*
X124013714Y-118025771D01*
X124013714Y-118025771D02*
X123918476Y-118073390D01*
X123918476Y-118073390D02*
X123870857Y-118121009D01*
X123870857Y-118121009D02*
X123823238Y-118216247D01*
X213842819Y-98183333D02*
X214557104Y-98183333D01*
X214557104Y-98183333D02*
X214699961Y-98230952D01*
X214699961Y-98230952D02*
X214795200Y-98326190D01*
X214795200Y-98326190D02*
X214842819Y-98469047D01*
X214842819Y-98469047D02*
X214842819Y-98564285D01*
X214842819Y-97183333D02*
X214842819Y-97754761D01*
X214842819Y-97469047D02*
X213842819Y-97469047D01*
X213842819Y-97469047D02*
X213985676Y-97564285D01*
X213985676Y-97564285D02*
X214080914Y-97659523D01*
X214080914Y-97659523D02*
X214128533Y-97754761D01*
X152812819Y-85503333D02*
X153527104Y-85503333D01*
X153527104Y-85503333D02*
X153669961Y-85550952D01*
X153669961Y-85550952D02*
X153765200Y-85646190D01*
X153765200Y-85646190D02*
X153812819Y-85789047D01*
X153812819Y-85789047D02*
X153812819Y-85884285D01*
X153812819Y-84503333D02*
X153812819Y-85074761D01*
X153812819Y-84789047D02*
X152812819Y-84789047D01*
X152812819Y-84789047D02*
X152955676Y-84884285D01*
X152955676Y-84884285D02*
X153050914Y-84979523D01*
X153050914Y-84979523D02*
X153098533Y-85074761D01*
X120647066Y-29253219D02*
X120647066Y-29967504D01*
X120647066Y-29967504D02*
X120599447Y-30110361D01*
X120599447Y-30110361D02*
X120504209Y-30205600D01*
X120504209Y-30205600D02*
X120361352Y-30253219D01*
X120361352Y-30253219D02*
X120266114Y-30253219D01*
X121599447Y-29253219D02*
X121123257Y-29253219D01*
X121123257Y-29253219D02*
X121075638Y-29729409D01*
X121075638Y-29729409D02*
X121123257Y-29681790D01*
X121123257Y-29681790D02*
X121218495Y-29634171D01*
X121218495Y-29634171D02*
X121456590Y-29634171D01*
X121456590Y-29634171D02*
X121551828Y-29681790D01*
X121551828Y-29681790D02*
X121599447Y-29729409D01*
X121599447Y-29729409D02*
X121647066Y-29824647D01*
X121647066Y-29824647D02*
X121647066Y-30062742D01*
X121647066Y-30062742D02*
X121599447Y-30157980D01*
X121599447Y-30157980D02*
X121551828Y-30205600D01*
X121551828Y-30205600D02*
X121456590Y-30253219D01*
X121456590Y-30253219D02*
X121218495Y-30253219D01*
X121218495Y-30253219D02*
X121123257Y-30205600D01*
X121123257Y-30205600D02*
X121075638Y-30157980D01*
X123212819Y-80407142D02*
X123927104Y-80407142D01*
X123927104Y-80407142D02*
X124069961Y-80454761D01*
X124069961Y-80454761D02*
X124165200Y-80549999D01*
X124165200Y-80549999D02*
X124212819Y-80692856D01*
X124212819Y-80692856D02*
X124212819Y-80788094D01*
X124212819Y-79930951D02*
X123212819Y-79930951D01*
X123689009Y-79930951D02*
X123689009Y-79359523D01*
X124212819Y-79359523D02*
X123212819Y-79359523D01*
X124212819Y-78359523D02*
X124212819Y-78930951D01*
X124212819Y-78645237D02*
X123212819Y-78645237D01*
X123212819Y-78645237D02*
X123355676Y-78740475D01*
X123355676Y-78740475D02*
X123450914Y-78835713D01*
X123450914Y-78835713D02*
X123498533Y-78930951D01*
X205752819Y-90053333D02*
X206467104Y-90053333D01*
X206467104Y-90053333D02*
X206609961Y-90100952D01*
X206609961Y-90100952D02*
X206705200Y-90196190D01*
X206705200Y-90196190D02*
X206752819Y-90339047D01*
X206752819Y-90339047D02*
X206752819Y-90434285D01*
X206752819Y-89577142D02*
X205752819Y-89577142D01*
X205752819Y-89577142D02*
X205752819Y-89196190D01*
X205752819Y-89196190D02*
X205800438Y-89100952D01*
X205800438Y-89100952D02*
X205848057Y-89053333D01*
X205848057Y-89053333D02*
X205943295Y-89005714D01*
X205943295Y-89005714D02*
X206086152Y-89005714D01*
X206086152Y-89005714D02*
X206181390Y-89053333D01*
X206181390Y-89053333D02*
X206229009Y-89100952D01*
X206229009Y-89100952D02*
X206276628Y-89196190D01*
X206276628Y-89196190D02*
X206276628Y-89577142D01*
X206752819Y-88053333D02*
X206752819Y-88624761D01*
X206752819Y-88339047D02*
X205752819Y-88339047D01*
X205752819Y-88339047D02*
X205895676Y-88434285D01*
X205895676Y-88434285D02*
X205990914Y-88529523D01*
X205990914Y-88529523D02*
X206038533Y-88624761D01*
X208056095Y-82274819D02*
X208056095Y-81274819D01*
X208056095Y-81751009D02*
X208627523Y-81751009D01*
X208627523Y-82274819D02*
X208627523Y-81274819D01*
X209056095Y-81370057D02*
X209103714Y-81322438D01*
X209103714Y-81322438D02*
X209198952Y-81274819D01*
X209198952Y-81274819D02*
X209437047Y-81274819D01*
X209437047Y-81274819D02*
X209532285Y-81322438D01*
X209532285Y-81322438D02*
X209579904Y-81370057D01*
X209579904Y-81370057D02*
X209627523Y-81465295D01*
X209627523Y-81465295D02*
X209627523Y-81560533D01*
X209627523Y-81560533D02*
X209579904Y-81703390D01*
X209579904Y-81703390D02*
X209008476Y-82274819D01*
X209008476Y-82274819D02*
X209627523Y-82274819D01*
X175601333Y-114494819D02*
X175268000Y-114018628D01*
X175029905Y-114494819D02*
X175029905Y-113494819D01*
X175029905Y-113494819D02*
X175410857Y-113494819D01*
X175410857Y-113494819D02*
X175506095Y-113542438D01*
X175506095Y-113542438D02*
X175553714Y-113590057D01*
X175553714Y-113590057D02*
X175601333Y-113685295D01*
X175601333Y-113685295D02*
X175601333Y-113828152D01*
X175601333Y-113828152D02*
X175553714Y-113923390D01*
X175553714Y-113923390D02*
X175506095Y-113971009D01*
X175506095Y-113971009D02*
X175410857Y-114018628D01*
X175410857Y-114018628D02*
X175029905Y-114018628D01*
X175982286Y-113590057D02*
X176029905Y-113542438D01*
X176029905Y-113542438D02*
X176125143Y-113494819D01*
X176125143Y-113494819D02*
X176363238Y-113494819D01*
X176363238Y-113494819D02*
X176458476Y-113542438D01*
X176458476Y-113542438D02*
X176506095Y-113590057D01*
X176506095Y-113590057D02*
X176553714Y-113685295D01*
X176553714Y-113685295D02*
X176553714Y-113780533D01*
X176553714Y-113780533D02*
X176506095Y-113923390D01*
X176506095Y-113923390D02*
X175934667Y-114494819D01*
X175934667Y-114494819D02*
X176553714Y-114494819D01*
X142804667Y-58037200D02*
X142947524Y-58084819D01*
X142947524Y-58084819D02*
X143185619Y-58084819D01*
X143185619Y-58084819D02*
X143280857Y-58037200D01*
X143280857Y-58037200D02*
X143328476Y-57989580D01*
X143328476Y-57989580D02*
X143376095Y-57894342D01*
X143376095Y-57894342D02*
X143376095Y-57799104D01*
X143376095Y-57799104D02*
X143328476Y-57703866D01*
X143328476Y-57703866D02*
X143280857Y-57656247D01*
X143280857Y-57656247D02*
X143185619Y-57608628D01*
X143185619Y-57608628D02*
X142995143Y-57561009D01*
X142995143Y-57561009D02*
X142899905Y-57513390D01*
X142899905Y-57513390D02*
X142852286Y-57465771D01*
X142852286Y-57465771D02*
X142804667Y-57370533D01*
X142804667Y-57370533D02*
X142804667Y-57275295D01*
X142804667Y-57275295D02*
X142852286Y-57180057D01*
X142852286Y-57180057D02*
X142899905Y-57132438D01*
X142899905Y-57132438D02*
X142995143Y-57084819D01*
X142995143Y-57084819D02*
X143233238Y-57084819D01*
X143233238Y-57084819D02*
X143376095Y-57132438D01*
X143709429Y-57084819D02*
X143947524Y-58084819D01*
X143947524Y-58084819D02*
X144138000Y-57370533D01*
X144138000Y-57370533D02*
X144328476Y-58084819D01*
X144328476Y-58084819D02*
X144566572Y-57084819D01*
X144899905Y-57180057D02*
X144947524Y-57132438D01*
X144947524Y-57132438D02*
X145042762Y-57084819D01*
X145042762Y-57084819D02*
X145280857Y-57084819D01*
X145280857Y-57084819D02*
X145376095Y-57132438D01*
X145376095Y-57132438D02*
X145423714Y-57180057D01*
X145423714Y-57180057D02*
X145471333Y-57275295D01*
X145471333Y-57275295D02*
X145471333Y-57370533D01*
X145471333Y-57370533D02*
X145423714Y-57513390D01*
X145423714Y-57513390D02*
X144852286Y-58084819D01*
X144852286Y-58084819D02*
X145471333Y-58084819D01*
X127232233Y-77174819D02*
X126898900Y-76698628D01*
X126660805Y-77174819D02*
X126660805Y-76174819D01*
X126660805Y-76174819D02*
X127041757Y-76174819D01*
X127041757Y-76174819D02*
X127136995Y-76222438D01*
X127136995Y-76222438D02*
X127184614Y-76270057D01*
X127184614Y-76270057D02*
X127232233Y-76365295D01*
X127232233Y-76365295D02*
X127232233Y-76508152D01*
X127232233Y-76508152D02*
X127184614Y-76603390D01*
X127184614Y-76603390D02*
X127136995Y-76651009D01*
X127136995Y-76651009D02*
X127041757Y-76698628D01*
X127041757Y-76698628D02*
X126660805Y-76698628D01*
X128184614Y-77174819D02*
X127613186Y-77174819D01*
X127898900Y-77174819D02*
X127898900Y-76174819D01*
X127898900Y-76174819D02*
X127803662Y-76317676D01*
X127803662Y-76317676D02*
X127708424Y-76412914D01*
X127708424Y-76412914D02*
X127613186Y-76460533D01*
X187122819Y-49991866D02*
X186646628Y-50325199D01*
X187122819Y-50563294D02*
X186122819Y-50563294D01*
X186122819Y-50563294D02*
X186122819Y-50182342D01*
X186122819Y-50182342D02*
X186170438Y-50087104D01*
X186170438Y-50087104D02*
X186218057Y-50039485D01*
X186218057Y-50039485D02*
X186313295Y-49991866D01*
X186313295Y-49991866D02*
X186456152Y-49991866D01*
X186456152Y-49991866D02*
X186551390Y-50039485D01*
X186551390Y-50039485D02*
X186599009Y-50087104D01*
X186599009Y-50087104D02*
X186646628Y-50182342D01*
X186646628Y-50182342D02*
X186646628Y-50563294D01*
X186218057Y-49610913D02*
X186170438Y-49563294D01*
X186170438Y-49563294D02*
X186122819Y-49468056D01*
X186122819Y-49468056D02*
X186122819Y-49229961D01*
X186122819Y-49229961D02*
X186170438Y-49134723D01*
X186170438Y-49134723D02*
X186218057Y-49087104D01*
X186218057Y-49087104D02*
X186313295Y-49039485D01*
X186313295Y-49039485D02*
X186408533Y-49039485D01*
X186408533Y-49039485D02*
X186551390Y-49087104D01*
X186551390Y-49087104D02*
X187122819Y-49658532D01*
X187122819Y-49658532D02*
X187122819Y-49039485D01*
X146791333Y-35584819D02*
X146458000Y-35108628D01*
X146219905Y-35584819D02*
X146219905Y-34584819D01*
X146219905Y-34584819D02*
X146600857Y-34584819D01*
X146600857Y-34584819D02*
X146696095Y-34632438D01*
X146696095Y-34632438D02*
X146743714Y-34680057D01*
X146743714Y-34680057D02*
X146791333Y-34775295D01*
X146791333Y-34775295D02*
X146791333Y-34918152D01*
X146791333Y-34918152D02*
X146743714Y-35013390D01*
X146743714Y-35013390D02*
X146696095Y-35061009D01*
X146696095Y-35061009D02*
X146600857Y-35108628D01*
X146600857Y-35108628D02*
X146219905Y-35108628D01*
X147696095Y-34584819D02*
X147219905Y-34584819D01*
X147219905Y-34584819D02*
X147172286Y-35061009D01*
X147172286Y-35061009D02*
X147219905Y-35013390D01*
X147219905Y-35013390D02*
X147315143Y-34965771D01*
X147315143Y-34965771D02*
X147553238Y-34965771D01*
X147553238Y-34965771D02*
X147648476Y-35013390D01*
X147648476Y-35013390D02*
X147696095Y-35061009D01*
X147696095Y-35061009D02*
X147743714Y-35156247D01*
X147743714Y-35156247D02*
X147743714Y-35394342D01*
X147743714Y-35394342D02*
X147696095Y-35489580D01*
X147696095Y-35489580D02*
X147648476Y-35537200D01*
X147648476Y-35537200D02*
X147553238Y-35584819D01*
X147553238Y-35584819D02*
X147315143Y-35584819D01*
X147315143Y-35584819D02*
X147219905Y-35537200D01*
X147219905Y-35537200D02*
X147172286Y-35489580D01*
X179018057Y-92815238D02*
X178970438Y-92910476D01*
X178970438Y-92910476D02*
X178875200Y-93005714D01*
X178875200Y-93005714D02*
X178732342Y-93148571D01*
X178732342Y-93148571D02*
X178684723Y-93243809D01*
X178684723Y-93243809D02*
X178684723Y-93339047D01*
X178922819Y-93291428D02*
X178875200Y-93386666D01*
X178875200Y-93386666D02*
X178779961Y-93481904D01*
X178779961Y-93481904D02*
X178589485Y-93529523D01*
X178589485Y-93529523D02*
X178256152Y-93529523D01*
X178256152Y-93529523D02*
X178065676Y-93481904D01*
X178065676Y-93481904D02*
X177970438Y-93386666D01*
X177970438Y-93386666D02*
X177922819Y-93291428D01*
X177922819Y-93291428D02*
X177922819Y-93100952D01*
X177922819Y-93100952D02*
X177970438Y-93005714D01*
X177970438Y-93005714D02*
X178065676Y-92910476D01*
X178065676Y-92910476D02*
X178256152Y-92862857D01*
X178256152Y-92862857D02*
X178589485Y-92862857D01*
X178589485Y-92862857D02*
X178779961Y-92910476D01*
X178779961Y-92910476D02*
X178875200Y-93005714D01*
X178875200Y-93005714D02*
X178922819Y-93100952D01*
X178922819Y-93100952D02*
X178922819Y-93291428D01*
X177922819Y-91958095D02*
X177922819Y-92434285D01*
X177922819Y-92434285D02*
X178399009Y-92481904D01*
X178399009Y-92481904D02*
X178351390Y-92434285D01*
X178351390Y-92434285D02*
X178303771Y-92339047D01*
X178303771Y-92339047D02*
X178303771Y-92100952D01*
X178303771Y-92100952D02*
X178351390Y-92005714D01*
X178351390Y-92005714D02*
X178399009Y-91958095D01*
X178399009Y-91958095D02*
X178494247Y-91910476D01*
X178494247Y-91910476D02*
X178732342Y-91910476D01*
X178732342Y-91910476D02*
X178827580Y-91958095D01*
X178827580Y-91958095D02*
X178875200Y-92005714D01*
X178875200Y-92005714D02*
X178922819Y-92100952D01*
X178922819Y-92100952D02*
X178922819Y-92339047D01*
X178922819Y-92339047D02*
X178875200Y-92434285D01*
X178875200Y-92434285D02*
X178827580Y-92481904D01*
X140279580Y-50931466D02*
X140327200Y-50979085D01*
X140327200Y-50979085D02*
X140374819Y-51121942D01*
X140374819Y-51121942D02*
X140374819Y-51217180D01*
X140374819Y-51217180D02*
X140327200Y-51360037D01*
X140327200Y-51360037D02*
X140231961Y-51455275D01*
X140231961Y-51455275D02*
X140136723Y-51502894D01*
X140136723Y-51502894D02*
X139946247Y-51550513D01*
X139946247Y-51550513D02*
X139803390Y-51550513D01*
X139803390Y-51550513D02*
X139612914Y-51502894D01*
X139612914Y-51502894D02*
X139517676Y-51455275D01*
X139517676Y-51455275D02*
X139422438Y-51360037D01*
X139422438Y-51360037D02*
X139374819Y-51217180D01*
X139374819Y-51217180D02*
X139374819Y-51121942D01*
X139374819Y-51121942D02*
X139422438Y-50979085D01*
X139422438Y-50979085D02*
X139470057Y-50931466D01*
X139470057Y-50550513D02*
X139422438Y-50502894D01*
X139422438Y-50502894D02*
X139374819Y-50407656D01*
X139374819Y-50407656D02*
X139374819Y-50169561D01*
X139374819Y-50169561D02*
X139422438Y-50074323D01*
X139422438Y-50074323D02*
X139470057Y-50026704D01*
X139470057Y-50026704D02*
X139565295Y-49979085D01*
X139565295Y-49979085D02*
X139660533Y-49979085D01*
X139660533Y-49979085D02*
X139803390Y-50026704D01*
X139803390Y-50026704D02*
X140374819Y-50598132D01*
X140374819Y-50598132D02*
X140374819Y-49979085D01*
X140495333Y-57670419D02*
X140162000Y-57194228D01*
X139923905Y-57670419D02*
X139923905Y-56670419D01*
X139923905Y-56670419D02*
X140304857Y-56670419D01*
X140304857Y-56670419D02*
X140400095Y-56718038D01*
X140400095Y-56718038D02*
X140447714Y-56765657D01*
X140447714Y-56765657D02*
X140495333Y-56860895D01*
X140495333Y-56860895D02*
X140495333Y-57003752D01*
X140495333Y-57003752D02*
X140447714Y-57098990D01*
X140447714Y-57098990D02*
X140400095Y-57146609D01*
X140400095Y-57146609D02*
X140304857Y-57194228D01*
X140304857Y-57194228D02*
X139923905Y-57194228D01*
X141352476Y-57003752D02*
X141352476Y-57670419D01*
X141114381Y-56622800D02*
X140876286Y-57337085D01*
X140876286Y-57337085D02*
X141495333Y-57337085D01*
X180225142Y-96074819D02*
X179891809Y-95598628D01*
X179653714Y-96074819D02*
X179653714Y-95074819D01*
X179653714Y-95074819D02*
X180034666Y-95074819D01*
X180034666Y-95074819D02*
X180129904Y-95122438D01*
X180129904Y-95122438D02*
X180177523Y-95170057D01*
X180177523Y-95170057D02*
X180225142Y-95265295D01*
X180225142Y-95265295D02*
X180225142Y-95408152D01*
X180225142Y-95408152D02*
X180177523Y-95503390D01*
X180177523Y-95503390D02*
X180129904Y-95551009D01*
X180129904Y-95551009D02*
X180034666Y-95598628D01*
X180034666Y-95598628D02*
X179653714Y-95598628D01*
X181177523Y-96074819D02*
X180606095Y-96074819D01*
X180891809Y-96074819D02*
X180891809Y-95074819D01*
X180891809Y-95074819D02*
X180796571Y-95217676D01*
X180796571Y-95217676D02*
X180701333Y-95312914D01*
X180701333Y-95312914D02*
X180606095Y-95360533D01*
X181796571Y-95074819D02*
X181891809Y-95074819D01*
X181891809Y-95074819D02*
X181987047Y-95122438D01*
X181987047Y-95122438D02*
X182034666Y-95170057D01*
X182034666Y-95170057D02*
X182082285Y-95265295D01*
X182082285Y-95265295D02*
X182129904Y-95455771D01*
X182129904Y-95455771D02*
X182129904Y-95693866D01*
X182129904Y-95693866D02*
X182082285Y-95884342D01*
X182082285Y-95884342D02*
X182034666Y-95979580D01*
X182034666Y-95979580D02*
X181987047Y-96027200D01*
X181987047Y-96027200D02*
X181891809Y-96074819D01*
X181891809Y-96074819D02*
X181796571Y-96074819D01*
X181796571Y-96074819D02*
X181701333Y-96027200D01*
X181701333Y-96027200D02*
X181653714Y-95979580D01*
X181653714Y-95979580D02*
X181606095Y-95884342D01*
X181606095Y-95884342D02*
X181558476Y-95693866D01*
X181558476Y-95693866D02*
X181558476Y-95455771D01*
X181558476Y-95455771D02*
X181606095Y-95265295D01*
X181606095Y-95265295D02*
X181653714Y-95170057D01*
X181653714Y-95170057D02*
X181701333Y-95122438D01*
X181701333Y-95122438D02*
X181796571Y-95074819D01*
X138004667Y-44057200D02*
X138147524Y-44104819D01*
X138147524Y-44104819D02*
X138385619Y-44104819D01*
X138385619Y-44104819D02*
X138480857Y-44057200D01*
X138480857Y-44057200D02*
X138528476Y-44009580D01*
X138528476Y-44009580D02*
X138576095Y-43914342D01*
X138576095Y-43914342D02*
X138576095Y-43819104D01*
X138576095Y-43819104D02*
X138528476Y-43723866D01*
X138528476Y-43723866D02*
X138480857Y-43676247D01*
X138480857Y-43676247D02*
X138385619Y-43628628D01*
X138385619Y-43628628D02*
X138195143Y-43581009D01*
X138195143Y-43581009D02*
X138099905Y-43533390D01*
X138099905Y-43533390D02*
X138052286Y-43485771D01*
X138052286Y-43485771D02*
X138004667Y-43390533D01*
X138004667Y-43390533D02*
X138004667Y-43295295D01*
X138004667Y-43295295D02*
X138052286Y-43200057D01*
X138052286Y-43200057D02*
X138099905Y-43152438D01*
X138099905Y-43152438D02*
X138195143Y-43104819D01*
X138195143Y-43104819D02*
X138433238Y-43104819D01*
X138433238Y-43104819D02*
X138576095Y-43152438D01*
X138909429Y-43104819D02*
X139147524Y-44104819D01*
X139147524Y-44104819D02*
X139338000Y-43390533D01*
X139338000Y-43390533D02*
X139528476Y-44104819D01*
X139528476Y-44104819D02*
X139766572Y-43104819D01*
X140671333Y-44104819D02*
X140099905Y-44104819D01*
X140385619Y-44104819D02*
X140385619Y-43104819D01*
X140385619Y-43104819D02*
X140290381Y-43247676D01*
X140290381Y-43247676D02*
X140195143Y-43342914D01*
X140195143Y-43342914D02*
X140099905Y-43390533D01*
X206151333Y-123324819D02*
X205818000Y-122848628D01*
X205579905Y-123324819D02*
X205579905Y-122324819D01*
X205579905Y-122324819D02*
X205960857Y-122324819D01*
X205960857Y-122324819D02*
X206056095Y-122372438D01*
X206056095Y-122372438D02*
X206103714Y-122420057D01*
X206103714Y-122420057D02*
X206151333Y-122515295D01*
X206151333Y-122515295D02*
X206151333Y-122658152D01*
X206151333Y-122658152D02*
X206103714Y-122753390D01*
X206103714Y-122753390D02*
X206056095Y-122801009D01*
X206056095Y-122801009D02*
X205960857Y-122848628D01*
X205960857Y-122848628D02*
X205579905Y-122848628D01*
X206722762Y-122753390D02*
X206627524Y-122705771D01*
X206627524Y-122705771D02*
X206579905Y-122658152D01*
X206579905Y-122658152D02*
X206532286Y-122562914D01*
X206532286Y-122562914D02*
X206532286Y-122515295D01*
X206532286Y-122515295D02*
X206579905Y-122420057D01*
X206579905Y-122420057D02*
X206627524Y-122372438D01*
X206627524Y-122372438D02*
X206722762Y-122324819D01*
X206722762Y-122324819D02*
X206913238Y-122324819D01*
X206913238Y-122324819D02*
X207008476Y-122372438D01*
X207008476Y-122372438D02*
X207056095Y-122420057D01*
X207056095Y-122420057D02*
X207103714Y-122515295D01*
X207103714Y-122515295D02*
X207103714Y-122562914D01*
X207103714Y-122562914D02*
X207056095Y-122658152D01*
X207056095Y-122658152D02*
X207008476Y-122705771D01*
X207008476Y-122705771D02*
X206913238Y-122753390D01*
X206913238Y-122753390D02*
X206722762Y-122753390D01*
X206722762Y-122753390D02*
X206627524Y-122801009D01*
X206627524Y-122801009D02*
X206579905Y-122848628D01*
X206579905Y-122848628D02*
X206532286Y-122943866D01*
X206532286Y-122943866D02*
X206532286Y-123134342D01*
X206532286Y-123134342D02*
X206579905Y-123229580D01*
X206579905Y-123229580D02*
X206627524Y-123277200D01*
X206627524Y-123277200D02*
X206722762Y-123324819D01*
X206722762Y-123324819D02*
X206913238Y-123324819D01*
X206913238Y-123324819D02*
X207008476Y-123277200D01*
X207008476Y-123277200D02*
X207056095Y-123229580D01*
X207056095Y-123229580D02*
X207103714Y-123134342D01*
X207103714Y-123134342D02*
X207103714Y-122943866D01*
X207103714Y-122943866D02*
X207056095Y-122848628D01*
X207056095Y-122848628D02*
X207008476Y-122801009D01*
X207008476Y-122801009D02*
X206913238Y-122753390D01*
X171581780Y-42990866D02*
X171629400Y-43038485D01*
X171629400Y-43038485D02*
X171677019Y-43181342D01*
X171677019Y-43181342D02*
X171677019Y-43276580D01*
X171677019Y-43276580D02*
X171629400Y-43419437D01*
X171629400Y-43419437D02*
X171534161Y-43514675D01*
X171534161Y-43514675D02*
X171438923Y-43562294D01*
X171438923Y-43562294D02*
X171248447Y-43609913D01*
X171248447Y-43609913D02*
X171105590Y-43609913D01*
X171105590Y-43609913D02*
X170915114Y-43562294D01*
X170915114Y-43562294D02*
X170819876Y-43514675D01*
X170819876Y-43514675D02*
X170724638Y-43419437D01*
X170724638Y-43419437D02*
X170677019Y-43276580D01*
X170677019Y-43276580D02*
X170677019Y-43181342D01*
X170677019Y-43181342D02*
X170724638Y-43038485D01*
X170724638Y-43038485D02*
X170772257Y-42990866D01*
X170677019Y-42657532D02*
X170677019Y-42038485D01*
X170677019Y-42038485D02*
X171057971Y-42371818D01*
X171057971Y-42371818D02*
X171057971Y-42228961D01*
X171057971Y-42228961D02*
X171105590Y-42133723D01*
X171105590Y-42133723D02*
X171153209Y-42086104D01*
X171153209Y-42086104D02*
X171248447Y-42038485D01*
X171248447Y-42038485D02*
X171486542Y-42038485D01*
X171486542Y-42038485D02*
X171581780Y-42086104D01*
X171581780Y-42086104D02*
X171629400Y-42133723D01*
X171629400Y-42133723D02*
X171677019Y-42228961D01*
X171677019Y-42228961D02*
X171677019Y-42514675D01*
X171677019Y-42514675D02*
X171629400Y-42609913D01*
X171629400Y-42609913D02*
X171581780Y-42657532D01*
X207228733Y-30490780D02*
X207181114Y-30538400D01*
X207181114Y-30538400D02*
X207038257Y-30586019D01*
X207038257Y-30586019D02*
X206943019Y-30586019D01*
X206943019Y-30586019D02*
X206800162Y-30538400D01*
X206800162Y-30538400D02*
X206704924Y-30443161D01*
X206704924Y-30443161D02*
X206657305Y-30347923D01*
X206657305Y-30347923D02*
X206609686Y-30157447D01*
X206609686Y-30157447D02*
X206609686Y-30014590D01*
X206609686Y-30014590D02*
X206657305Y-29824114D01*
X206657305Y-29824114D02*
X206704924Y-29728876D01*
X206704924Y-29728876D02*
X206800162Y-29633638D01*
X206800162Y-29633638D02*
X206943019Y-29586019D01*
X206943019Y-29586019D02*
X207038257Y-29586019D01*
X207038257Y-29586019D02*
X207181114Y-29633638D01*
X207181114Y-29633638D02*
X207228733Y-29681257D01*
X208085876Y-29919352D02*
X208085876Y-30586019D01*
X207847781Y-29538400D02*
X207609686Y-30252685D01*
X207609686Y-30252685D02*
X208228733Y-30252685D01*
X134802819Y-71900594D02*
X133802819Y-71900594D01*
X133802819Y-71900594D02*
X133802819Y-71662499D01*
X133802819Y-71662499D02*
X133850438Y-71519642D01*
X133850438Y-71519642D02*
X133945676Y-71424404D01*
X133945676Y-71424404D02*
X134040914Y-71376785D01*
X134040914Y-71376785D02*
X134231390Y-71329166D01*
X134231390Y-71329166D02*
X134374247Y-71329166D01*
X134374247Y-71329166D02*
X134564723Y-71376785D01*
X134564723Y-71376785D02*
X134659961Y-71424404D01*
X134659961Y-71424404D02*
X134755200Y-71519642D01*
X134755200Y-71519642D02*
X134802819Y-71662499D01*
X134802819Y-71662499D02*
X134802819Y-71900594D01*
X133898057Y-70948213D02*
X133850438Y-70900594D01*
X133850438Y-70900594D02*
X133802819Y-70805356D01*
X133802819Y-70805356D02*
X133802819Y-70567261D01*
X133802819Y-70567261D02*
X133850438Y-70472023D01*
X133850438Y-70472023D02*
X133898057Y-70424404D01*
X133898057Y-70424404D02*
X133993295Y-70376785D01*
X133993295Y-70376785D02*
X134088533Y-70376785D01*
X134088533Y-70376785D02*
X134231390Y-70424404D01*
X134231390Y-70424404D02*
X134802819Y-70995832D01*
X134802819Y-70995832D02*
X134802819Y-70376785D01*
X132096405Y-80746419D02*
X132096405Y-79746419D01*
X132096405Y-79746419D02*
X132334500Y-79746419D01*
X132334500Y-79746419D02*
X132477357Y-79794038D01*
X132477357Y-79794038D02*
X132572595Y-79889276D01*
X132572595Y-79889276D02*
X132620214Y-79984514D01*
X132620214Y-79984514D02*
X132667833Y-80174990D01*
X132667833Y-80174990D02*
X132667833Y-80317847D01*
X132667833Y-80317847D02*
X132620214Y-80508323D01*
X132620214Y-80508323D02*
X132572595Y-80603561D01*
X132572595Y-80603561D02*
X132477357Y-80698800D01*
X132477357Y-80698800D02*
X132334500Y-80746419D01*
X132334500Y-80746419D02*
X132096405Y-80746419D01*
X133620214Y-80746419D02*
X133048786Y-80746419D01*
X133334500Y-80746419D02*
X133334500Y-79746419D01*
X133334500Y-79746419D02*
X133239262Y-79889276D01*
X133239262Y-79889276D02*
X133144024Y-79984514D01*
X133144024Y-79984514D02*
X133048786Y-80032133D01*
X211789695Y-30706019D02*
X211789695Y-29706019D01*
X211789695Y-30182209D02*
X212361123Y-30182209D01*
X212361123Y-30706019D02*
X212361123Y-29706019D01*
X212789695Y-29801257D02*
X212837314Y-29753638D01*
X212837314Y-29753638D02*
X212932552Y-29706019D01*
X212932552Y-29706019D02*
X213170647Y-29706019D01*
X213170647Y-29706019D02*
X213265885Y-29753638D01*
X213265885Y-29753638D02*
X213313504Y-29801257D01*
X213313504Y-29801257D02*
X213361123Y-29896495D01*
X213361123Y-29896495D02*
X213361123Y-29991733D01*
X213361123Y-29991733D02*
X213313504Y-30134590D01*
X213313504Y-30134590D02*
X212742076Y-30706019D01*
X212742076Y-30706019D02*
X213361123Y-30706019D01*
X179904066Y-63151819D02*
X179904066Y-63866104D01*
X179904066Y-63866104D02*
X179856447Y-64008961D01*
X179856447Y-64008961D02*
X179761209Y-64104200D01*
X179761209Y-64104200D02*
X179618352Y-64151819D01*
X179618352Y-64151819D02*
X179523114Y-64151819D01*
X180332638Y-63247057D02*
X180380257Y-63199438D01*
X180380257Y-63199438D02*
X180475495Y-63151819D01*
X180475495Y-63151819D02*
X180713590Y-63151819D01*
X180713590Y-63151819D02*
X180808828Y-63199438D01*
X180808828Y-63199438D02*
X180856447Y-63247057D01*
X180856447Y-63247057D02*
X180904066Y-63342295D01*
X180904066Y-63342295D02*
X180904066Y-63437533D01*
X180904066Y-63437533D02*
X180856447Y-63580390D01*
X180856447Y-63580390D02*
X180285019Y-64151819D01*
X180285019Y-64151819D02*
X180904066Y-64151819D01*
X171937095Y-30706019D02*
X171937095Y-29706019D01*
X171937095Y-30182209D02*
X172508523Y-30182209D01*
X172508523Y-30706019D02*
X172508523Y-29706019D01*
X173508523Y-30706019D02*
X172937095Y-30706019D01*
X173222809Y-30706019D02*
X173222809Y-29706019D01*
X173222809Y-29706019D02*
X173127571Y-29848876D01*
X173127571Y-29848876D02*
X173032333Y-29944114D01*
X173032333Y-29944114D02*
X172937095Y-29991733D01*
X171944095Y-64148819D02*
X171944095Y-63148819D01*
X171944095Y-63625009D02*
X172515523Y-63625009D01*
X172515523Y-64148819D02*
X172515523Y-63148819D01*
X172896476Y-63148819D02*
X173515523Y-63148819D01*
X173515523Y-63148819D02*
X173182190Y-63529771D01*
X173182190Y-63529771D02*
X173325047Y-63529771D01*
X173325047Y-63529771D02*
X173420285Y-63577390D01*
X173420285Y-63577390D02*
X173467904Y-63625009D01*
X173467904Y-63625009D02*
X173515523Y-63720247D01*
X173515523Y-63720247D02*
X173515523Y-63958342D01*
X173515523Y-63958342D02*
X173467904Y-64053580D01*
X173467904Y-64053580D02*
X173420285Y-64101200D01*
X173420285Y-64101200D02*
X173325047Y-64148819D01*
X173325047Y-64148819D02*
X173039333Y-64148819D01*
X173039333Y-64148819D02*
X172944095Y-64101200D01*
X172944095Y-64101200D02*
X172896476Y-64053580D01*
X151154666Y-113794819D02*
X151154666Y-114509104D01*
X151154666Y-114509104D02*
X151107047Y-114651961D01*
X151107047Y-114651961D02*
X151011809Y-114747200D01*
X151011809Y-114747200D02*
X150868952Y-114794819D01*
X150868952Y-114794819D02*
X150773714Y-114794819D01*
X152059428Y-114128152D02*
X152059428Y-114794819D01*
X151821333Y-113747200D02*
X151583238Y-114461485D01*
X151583238Y-114461485D02*
X152202285Y-114461485D01*
X190529333Y-37937580D02*
X190481714Y-37985200D01*
X190481714Y-37985200D02*
X190338857Y-38032819D01*
X190338857Y-38032819D02*
X190243619Y-38032819D01*
X190243619Y-38032819D02*
X190100762Y-37985200D01*
X190100762Y-37985200D02*
X190005524Y-37889961D01*
X190005524Y-37889961D02*
X189957905Y-37794723D01*
X189957905Y-37794723D02*
X189910286Y-37604247D01*
X189910286Y-37604247D02*
X189910286Y-37461390D01*
X189910286Y-37461390D02*
X189957905Y-37270914D01*
X189957905Y-37270914D02*
X190005524Y-37175676D01*
X190005524Y-37175676D02*
X190100762Y-37080438D01*
X190100762Y-37080438D02*
X190243619Y-37032819D01*
X190243619Y-37032819D02*
X190338857Y-37032819D01*
X190338857Y-37032819D02*
X190481714Y-37080438D01*
X190481714Y-37080438D02*
X190529333Y-37128057D01*
X191100762Y-37461390D02*
X191005524Y-37413771D01*
X191005524Y-37413771D02*
X190957905Y-37366152D01*
X190957905Y-37366152D02*
X190910286Y-37270914D01*
X190910286Y-37270914D02*
X190910286Y-37223295D01*
X190910286Y-37223295D02*
X190957905Y-37128057D01*
X190957905Y-37128057D02*
X191005524Y-37080438D01*
X191005524Y-37080438D02*
X191100762Y-37032819D01*
X191100762Y-37032819D02*
X191291238Y-37032819D01*
X191291238Y-37032819D02*
X191386476Y-37080438D01*
X191386476Y-37080438D02*
X191434095Y-37128057D01*
X191434095Y-37128057D02*
X191481714Y-37223295D01*
X191481714Y-37223295D02*
X191481714Y-37270914D01*
X191481714Y-37270914D02*
X191434095Y-37366152D01*
X191434095Y-37366152D02*
X191386476Y-37413771D01*
X191386476Y-37413771D02*
X191291238Y-37461390D01*
X191291238Y-37461390D02*
X191100762Y-37461390D01*
X191100762Y-37461390D02*
X191005524Y-37509009D01*
X191005524Y-37509009D02*
X190957905Y-37556628D01*
X190957905Y-37556628D02*
X190910286Y-37651866D01*
X190910286Y-37651866D02*
X190910286Y-37842342D01*
X190910286Y-37842342D02*
X190957905Y-37937580D01*
X190957905Y-37937580D02*
X191005524Y-37985200D01*
X191005524Y-37985200D02*
X191100762Y-38032819D01*
X191100762Y-38032819D02*
X191291238Y-38032819D01*
X191291238Y-38032819D02*
X191386476Y-37985200D01*
X191386476Y-37985200D02*
X191434095Y-37937580D01*
X191434095Y-37937580D02*
X191481714Y-37842342D01*
X191481714Y-37842342D02*
X191481714Y-37651866D01*
X191481714Y-37651866D02*
X191434095Y-37556628D01*
X191434095Y-37556628D02*
X191386476Y-37509009D01*
X191386476Y-37509009D02*
X191291238Y-37461390D01*
X211966095Y-119094819D02*
X211966095Y-118094819D01*
X211966095Y-118571009D02*
X212537523Y-118571009D01*
X212537523Y-119094819D02*
X212537523Y-118094819D01*
X213442285Y-118428152D02*
X213442285Y-119094819D01*
X213204190Y-118047200D02*
X212966095Y-118761485D01*
X212966095Y-118761485D02*
X213585142Y-118761485D01*
X146425142Y-38854819D02*
X146091809Y-38378628D01*
X145853714Y-38854819D02*
X145853714Y-37854819D01*
X145853714Y-37854819D02*
X146234666Y-37854819D01*
X146234666Y-37854819D02*
X146329904Y-37902438D01*
X146329904Y-37902438D02*
X146377523Y-37950057D01*
X146377523Y-37950057D02*
X146425142Y-38045295D01*
X146425142Y-38045295D02*
X146425142Y-38188152D01*
X146425142Y-38188152D02*
X146377523Y-38283390D01*
X146377523Y-38283390D02*
X146329904Y-38331009D01*
X146329904Y-38331009D02*
X146234666Y-38378628D01*
X146234666Y-38378628D02*
X145853714Y-38378628D01*
X147377523Y-38854819D02*
X146806095Y-38854819D01*
X147091809Y-38854819D02*
X147091809Y-37854819D01*
X147091809Y-37854819D02*
X146996571Y-37997676D01*
X146996571Y-37997676D02*
X146901333Y-38092914D01*
X146901333Y-38092914D02*
X146806095Y-38140533D01*
X147996571Y-37854819D02*
X148091809Y-37854819D01*
X148091809Y-37854819D02*
X148187047Y-37902438D01*
X148187047Y-37902438D02*
X148234666Y-37950057D01*
X148234666Y-37950057D02*
X148282285Y-38045295D01*
X148282285Y-38045295D02*
X148329904Y-38235771D01*
X148329904Y-38235771D02*
X148329904Y-38473866D01*
X148329904Y-38473866D02*
X148282285Y-38664342D01*
X148282285Y-38664342D02*
X148234666Y-38759580D01*
X148234666Y-38759580D02*
X148187047Y-38807200D01*
X148187047Y-38807200D02*
X148091809Y-38854819D01*
X148091809Y-38854819D02*
X147996571Y-38854819D01*
X147996571Y-38854819D02*
X147901333Y-38807200D01*
X147901333Y-38807200D02*
X147853714Y-38759580D01*
X147853714Y-38759580D02*
X147806095Y-38664342D01*
X147806095Y-38664342D02*
X147758476Y-38473866D01*
X147758476Y-38473866D02*
X147758476Y-38235771D01*
X147758476Y-38235771D02*
X147806095Y-38045295D01*
X147806095Y-38045295D02*
X147853714Y-37950057D01*
X147853714Y-37950057D02*
X147901333Y-37902438D01*
X147901333Y-37902438D02*
X147996571Y-37854819D01*
X198532405Y-119804819D02*
X198532405Y-118804819D01*
X198532405Y-118804819D02*
X198770500Y-118804819D01*
X198770500Y-118804819D02*
X198913357Y-118852438D01*
X198913357Y-118852438D02*
X199008595Y-118947676D01*
X199008595Y-118947676D02*
X199056214Y-119042914D01*
X199056214Y-119042914D02*
X199103833Y-119233390D01*
X199103833Y-119233390D02*
X199103833Y-119376247D01*
X199103833Y-119376247D02*
X199056214Y-119566723D01*
X199056214Y-119566723D02*
X199008595Y-119661961D01*
X199008595Y-119661961D02*
X198913357Y-119757200D01*
X198913357Y-119757200D02*
X198770500Y-119804819D01*
X198770500Y-119804819D02*
X198532405Y-119804819D01*
X200056214Y-119804819D02*
X199484786Y-119804819D01*
X199770500Y-119804819D02*
X199770500Y-118804819D01*
X199770500Y-118804819D02*
X199675262Y-118947676D01*
X199675262Y-118947676D02*
X199580024Y-119042914D01*
X199580024Y-119042914D02*
X199484786Y-119090533D01*
X131082819Y-70922866D02*
X130606628Y-71256199D01*
X131082819Y-71494294D02*
X130082819Y-71494294D01*
X130082819Y-71494294D02*
X130082819Y-71113342D01*
X130082819Y-71113342D02*
X130130438Y-71018104D01*
X130130438Y-71018104D02*
X130178057Y-70970485D01*
X130178057Y-70970485D02*
X130273295Y-70922866D01*
X130273295Y-70922866D02*
X130416152Y-70922866D01*
X130416152Y-70922866D02*
X130511390Y-70970485D01*
X130511390Y-70970485D02*
X130559009Y-71018104D01*
X130559009Y-71018104D02*
X130606628Y-71113342D01*
X130606628Y-71113342D02*
X130606628Y-71494294D01*
X130082819Y-70589532D02*
X130082819Y-69970485D01*
X130082819Y-69970485D02*
X130463771Y-70303818D01*
X130463771Y-70303818D02*
X130463771Y-70160961D01*
X130463771Y-70160961D02*
X130511390Y-70065723D01*
X130511390Y-70065723D02*
X130559009Y-70018104D01*
X130559009Y-70018104D02*
X130654247Y-69970485D01*
X130654247Y-69970485D02*
X130892342Y-69970485D01*
X130892342Y-69970485D02*
X130987580Y-70018104D01*
X130987580Y-70018104D02*
X131035200Y-70065723D01*
X131035200Y-70065723D02*
X131082819Y-70160961D01*
X131082819Y-70160961D02*
X131082819Y-70446675D01*
X131082819Y-70446675D02*
X131035200Y-70541913D01*
X131035200Y-70541913D02*
X130987580Y-70589532D01*
X211814095Y-64148819D02*
X211814095Y-63148819D01*
X211814095Y-63625009D02*
X212385523Y-63625009D01*
X212385523Y-64148819D02*
X212385523Y-63148819D01*
X213290285Y-63482152D02*
X213290285Y-64148819D01*
X213052190Y-63101200D02*
X212814095Y-63815485D01*
X212814095Y-63815485D02*
X213433142Y-63815485D01*
X196773466Y-61258819D02*
X196773466Y-61973104D01*
X196773466Y-61973104D02*
X196725847Y-62115961D01*
X196725847Y-62115961D02*
X196630609Y-62211200D01*
X196630609Y-62211200D02*
X196487752Y-62258819D01*
X196487752Y-62258819D02*
X196392514Y-62258819D01*
X197773466Y-62258819D02*
X197202038Y-62258819D01*
X197487752Y-62258819D02*
X197487752Y-61258819D01*
X197487752Y-61258819D02*
X197392514Y-61401676D01*
X197392514Y-61401676D02*
X197297276Y-61496914D01*
X197297276Y-61496914D02*
X197202038Y-61544533D01*
X144597580Y-50859166D02*
X144645200Y-50906785D01*
X144645200Y-50906785D02*
X144692819Y-51049642D01*
X144692819Y-51049642D02*
X144692819Y-51144880D01*
X144692819Y-51144880D02*
X144645200Y-51287737D01*
X144645200Y-51287737D02*
X144549961Y-51382975D01*
X144549961Y-51382975D02*
X144454723Y-51430594D01*
X144454723Y-51430594D02*
X144264247Y-51478213D01*
X144264247Y-51478213D02*
X144121390Y-51478213D01*
X144121390Y-51478213D02*
X143930914Y-51430594D01*
X143930914Y-51430594D02*
X143835676Y-51382975D01*
X143835676Y-51382975D02*
X143740438Y-51287737D01*
X143740438Y-51287737D02*
X143692819Y-51144880D01*
X143692819Y-51144880D02*
X143692819Y-51049642D01*
X143692819Y-51049642D02*
X143740438Y-50906785D01*
X143740438Y-50906785D02*
X143788057Y-50859166D01*
X143692819Y-50525832D02*
X143692819Y-49906785D01*
X143692819Y-49906785D02*
X144073771Y-50240118D01*
X144073771Y-50240118D02*
X144073771Y-50097261D01*
X144073771Y-50097261D02*
X144121390Y-50002023D01*
X144121390Y-50002023D02*
X144169009Y-49954404D01*
X144169009Y-49954404D02*
X144264247Y-49906785D01*
X144264247Y-49906785D02*
X144502342Y-49906785D01*
X144502342Y-49906785D02*
X144597580Y-49954404D01*
X144597580Y-49954404D02*
X144645200Y-50002023D01*
X144645200Y-50002023D02*
X144692819Y-50097261D01*
X144692819Y-50097261D02*
X144692819Y-50382975D01*
X144692819Y-50382975D02*
X144645200Y-50478213D01*
X144645200Y-50478213D02*
X144597580Y-50525832D01*
X115642819Y-56523333D02*
X116357104Y-56523333D01*
X116357104Y-56523333D02*
X116499961Y-56570952D01*
X116499961Y-56570952D02*
X116595200Y-56666190D01*
X116595200Y-56666190D02*
X116642819Y-56809047D01*
X116642819Y-56809047D02*
X116642819Y-56904285D01*
X115738057Y-56094761D02*
X115690438Y-56047142D01*
X115690438Y-56047142D02*
X115642819Y-55951904D01*
X115642819Y-55951904D02*
X115642819Y-55713809D01*
X115642819Y-55713809D02*
X115690438Y-55618571D01*
X115690438Y-55618571D02*
X115738057Y-55570952D01*
X115738057Y-55570952D02*
X115833295Y-55523333D01*
X115833295Y-55523333D02*
X115928533Y-55523333D01*
X115928533Y-55523333D02*
X116071390Y-55570952D01*
X116071390Y-55570952D02*
X116642819Y-56142380D01*
X116642819Y-56142380D02*
X116642819Y-55523333D01*
X175151333Y-96074819D02*
X174818000Y-95598628D01*
X174579905Y-96074819D02*
X174579905Y-95074819D01*
X174579905Y-95074819D02*
X174960857Y-95074819D01*
X174960857Y-95074819D02*
X175056095Y-95122438D01*
X175056095Y-95122438D02*
X175103714Y-95170057D01*
X175103714Y-95170057D02*
X175151333Y-95265295D01*
X175151333Y-95265295D02*
X175151333Y-95408152D01*
X175151333Y-95408152D02*
X175103714Y-95503390D01*
X175103714Y-95503390D02*
X175056095Y-95551009D01*
X175056095Y-95551009D02*
X174960857Y-95598628D01*
X174960857Y-95598628D02*
X174579905Y-95598628D01*
X175627524Y-96074819D02*
X175818000Y-96074819D01*
X175818000Y-96074819D02*
X175913238Y-96027200D01*
X175913238Y-96027200D02*
X175960857Y-95979580D01*
X175960857Y-95979580D02*
X176056095Y-95836723D01*
X176056095Y-95836723D02*
X176103714Y-95646247D01*
X176103714Y-95646247D02*
X176103714Y-95265295D01*
X176103714Y-95265295D02*
X176056095Y-95170057D01*
X176056095Y-95170057D02*
X176008476Y-95122438D01*
X176008476Y-95122438D02*
X175913238Y-95074819D01*
X175913238Y-95074819D02*
X175722762Y-95074819D01*
X175722762Y-95074819D02*
X175627524Y-95122438D01*
X175627524Y-95122438D02*
X175579905Y-95170057D01*
X175579905Y-95170057D02*
X175532286Y-95265295D01*
X175532286Y-95265295D02*
X175532286Y-95503390D01*
X175532286Y-95503390D02*
X175579905Y-95598628D01*
X175579905Y-95598628D02*
X175627524Y-95646247D01*
X175627524Y-95646247D02*
X175722762Y-95693866D01*
X175722762Y-95693866D02*
X175913238Y-95693866D01*
X175913238Y-95693866D02*
X176008476Y-95646247D01*
X176008476Y-95646247D02*
X176056095Y-95598628D01*
X176056095Y-95598628D02*
X176103714Y-95503390D01*
X190529333Y-34476819D02*
X190196000Y-34000628D01*
X189957905Y-34476819D02*
X189957905Y-33476819D01*
X189957905Y-33476819D02*
X190338857Y-33476819D01*
X190338857Y-33476819D02*
X190434095Y-33524438D01*
X190434095Y-33524438D02*
X190481714Y-33572057D01*
X190481714Y-33572057D02*
X190529333Y-33667295D01*
X190529333Y-33667295D02*
X190529333Y-33810152D01*
X190529333Y-33810152D02*
X190481714Y-33905390D01*
X190481714Y-33905390D02*
X190434095Y-33953009D01*
X190434095Y-33953009D02*
X190338857Y-34000628D01*
X190338857Y-34000628D02*
X189957905Y-34000628D01*
X190862667Y-33476819D02*
X191481714Y-33476819D01*
X191481714Y-33476819D02*
X191148381Y-33857771D01*
X191148381Y-33857771D02*
X191291238Y-33857771D01*
X191291238Y-33857771D02*
X191386476Y-33905390D01*
X191386476Y-33905390D02*
X191434095Y-33953009D01*
X191434095Y-33953009D02*
X191481714Y-34048247D01*
X191481714Y-34048247D02*
X191481714Y-34286342D01*
X191481714Y-34286342D02*
X191434095Y-34381580D01*
X191434095Y-34381580D02*
X191386476Y-34429200D01*
X191386476Y-34429200D02*
X191291238Y-34476819D01*
X191291238Y-34476819D02*
X191005524Y-34476819D01*
X191005524Y-34476819D02*
X190910286Y-34429200D01*
X190910286Y-34429200D02*
X190862667Y-34381580D01*
X206277580Y-112786666D02*
X206325200Y-112834285D01*
X206325200Y-112834285D02*
X206372819Y-112977142D01*
X206372819Y-112977142D02*
X206372819Y-113072380D01*
X206372819Y-113072380D02*
X206325200Y-113215237D01*
X206325200Y-113215237D02*
X206229961Y-113310475D01*
X206229961Y-113310475D02*
X206134723Y-113358094D01*
X206134723Y-113358094D02*
X205944247Y-113405713D01*
X205944247Y-113405713D02*
X205801390Y-113405713D01*
X205801390Y-113405713D02*
X205610914Y-113358094D01*
X205610914Y-113358094D02*
X205515676Y-113310475D01*
X205515676Y-113310475D02*
X205420438Y-113215237D01*
X205420438Y-113215237D02*
X205372819Y-113072380D01*
X205372819Y-113072380D02*
X205372819Y-112977142D01*
X205372819Y-112977142D02*
X205420438Y-112834285D01*
X205420438Y-112834285D02*
X205468057Y-112786666D01*
X205468057Y-112405713D02*
X205420438Y-112358094D01*
X205420438Y-112358094D02*
X205372819Y-112262856D01*
X205372819Y-112262856D02*
X205372819Y-112024761D01*
X205372819Y-112024761D02*
X205420438Y-111929523D01*
X205420438Y-111929523D02*
X205468057Y-111881904D01*
X205468057Y-111881904D02*
X205563295Y-111834285D01*
X205563295Y-111834285D02*
X205658533Y-111834285D01*
X205658533Y-111834285D02*
X205801390Y-111881904D01*
X205801390Y-111881904D02*
X206372819Y-112453332D01*
X206372819Y-112453332D02*
X206372819Y-111834285D01*
X175916095Y-82464819D02*
X175916095Y-81464819D01*
X175916095Y-81941009D02*
X176487523Y-81941009D01*
X176487523Y-82464819D02*
X176487523Y-81464819D01*
X177487523Y-82464819D02*
X176916095Y-82464819D01*
X177201809Y-82464819D02*
X177201809Y-81464819D01*
X177201809Y-81464819D02*
X177106571Y-81607676D01*
X177106571Y-81607676D02*
X177011333Y-81702914D01*
X177011333Y-81702914D02*
X176916095Y-81750533D01*
X173922180Y-50610866D02*
X173969800Y-50658485D01*
X173969800Y-50658485D02*
X174017419Y-50801342D01*
X174017419Y-50801342D02*
X174017419Y-50896580D01*
X174017419Y-50896580D02*
X173969800Y-51039437D01*
X173969800Y-51039437D02*
X173874561Y-51134675D01*
X173874561Y-51134675D02*
X173779323Y-51182294D01*
X173779323Y-51182294D02*
X173588847Y-51229913D01*
X173588847Y-51229913D02*
X173445990Y-51229913D01*
X173445990Y-51229913D02*
X173255514Y-51182294D01*
X173255514Y-51182294D02*
X173160276Y-51134675D01*
X173160276Y-51134675D02*
X173065038Y-51039437D01*
X173065038Y-51039437D02*
X173017419Y-50896580D01*
X173017419Y-50896580D02*
X173017419Y-50801342D01*
X173017419Y-50801342D02*
X173065038Y-50658485D01*
X173065038Y-50658485D02*
X173112657Y-50610866D01*
X173112657Y-50229913D02*
X173065038Y-50182294D01*
X173065038Y-50182294D02*
X173017419Y-50087056D01*
X173017419Y-50087056D02*
X173017419Y-49848961D01*
X173017419Y-49848961D02*
X173065038Y-49753723D01*
X173065038Y-49753723D02*
X173112657Y-49706104D01*
X173112657Y-49706104D02*
X173207895Y-49658485D01*
X173207895Y-49658485D02*
X173303133Y-49658485D01*
X173303133Y-49658485D02*
X173445990Y-49706104D01*
X173445990Y-49706104D02*
X174017419Y-50277532D01*
X174017419Y-50277532D02*
X174017419Y-49658485D01*
X132722819Y-36136666D02*
X132246628Y-36469999D01*
X132722819Y-36708094D02*
X131722819Y-36708094D01*
X131722819Y-36708094D02*
X131722819Y-36327142D01*
X131722819Y-36327142D02*
X131770438Y-36231904D01*
X131770438Y-36231904D02*
X131818057Y-36184285D01*
X131818057Y-36184285D02*
X131913295Y-36136666D01*
X131913295Y-36136666D02*
X132056152Y-36136666D01*
X132056152Y-36136666D02*
X132151390Y-36184285D01*
X132151390Y-36184285D02*
X132199009Y-36231904D01*
X132199009Y-36231904D02*
X132246628Y-36327142D01*
X132246628Y-36327142D02*
X132246628Y-36708094D01*
X131818057Y-35755713D02*
X131770438Y-35708094D01*
X131770438Y-35708094D02*
X131722819Y-35612856D01*
X131722819Y-35612856D02*
X131722819Y-35374761D01*
X131722819Y-35374761D02*
X131770438Y-35279523D01*
X131770438Y-35279523D02*
X131818057Y-35231904D01*
X131818057Y-35231904D02*
X131913295Y-35184285D01*
X131913295Y-35184285D02*
X132008533Y-35184285D01*
X132008533Y-35184285D02*
X132151390Y-35231904D01*
X132151390Y-35231904D02*
X132722819Y-35803332D01*
X132722819Y-35803332D02*
X132722819Y-35184285D01*
X145901333Y-54529580D02*
X145853714Y-54577200D01*
X145853714Y-54577200D02*
X145710857Y-54624819D01*
X145710857Y-54624819D02*
X145615619Y-54624819D01*
X145615619Y-54624819D02*
X145472762Y-54577200D01*
X145472762Y-54577200D02*
X145377524Y-54481961D01*
X145377524Y-54481961D02*
X145329905Y-54386723D01*
X145329905Y-54386723D02*
X145282286Y-54196247D01*
X145282286Y-54196247D02*
X145282286Y-54053390D01*
X145282286Y-54053390D02*
X145329905Y-53862914D01*
X145329905Y-53862914D02*
X145377524Y-53767676D01*
X145377524Y-53767676D02*
X145472762Y-53672438D01*
X145472762Y-53672438D02*
X145615619Y-53624819D01*
X145615619Y-53624819D02*
X145710857Y-53624819D01*
X145710857Y-53624819D02*
X145853714Y-53672438D01*
X145853714Y-53672438D02*
X145901333Y-53720057D01*
X146758476Y-53958152D02*
X146758476Y-54624819D01*
X146520381Y-53577200D02*
X146282286Y-54291485D01*
X146282286Y-54291485D02*
X146901333Y-54291485D01*
X184421333Y-122684819D02*
X184088000Y-122208628D01*
X183849905Y-122684819D02*
X183849905Y-121684819D01*
X183849905Y-121684819D02*
X184230857Y-121684819D01*
X184230857Y-121684819D02*
X184326095Y-121732438D01*
X184326095Y-121732438D02*
X184373714Y-121780057D01*
X184373714Y-121780057D02*
X184421333Y-121875295D01*
X184421333Y-121875295D02*
X184421333Y-122018152D01*
X184421333Y-122018152D02*
X184373714Y-122113390D01*
X184373714Y-122113390D02*
X184326095Y-122161009D01*
X184326095Y-122161009D02*
X184230857Y-122208628D01*
X184230857Y-122208628D02*
X183849905Y-122208628D01*
X184754667Y-121684819D02*
X185373714Y-121684819D01*
X185373714Y-121684819D02*
X185040381Y-122065771D01*
X185040381Y-122065771D02*
X185183238Y-122065771D01*
X185183238Y-122065771D02*
X185278476Y-122113390D01*
X185278476Y-122113390D02*
X185326095Y-122161009D01*
X185326095Y-122161009D02*
X185373714Y-122256247D01*
X185373714Y-122256247D02*
X185373714Y-122494342D01*
X185373714Y-122494342D02*
X185326095Y-122589580D01*
X185326095Y-122589580D02*
X185278476Y-122637200D01*
X185278476Y-122637200D02*
X185183238Y-122684819D01*
X185183238Y-122684819D02*
X184897524Y-122684819D01*
X184897524Y-122684819D02*
X184802286Y-122637200D01*
X184802286Y-122637200D02*
X184754667Y-122589580D01*
X176812819Y-111166666D02*
X176336628Y-111499999D01*
X176812819Y-111738094D02*
X175812819Y-111738094D01*
X175812819Y-111738094D02*
X175812819Y-111357142D01*
X175812819Y-111357142D02*
X175860438Y-111261904D01*
X175860438Y-111261904D02*
X175908057Y-111214285D01*
X175908057Y-111214285D02*
X176003295Y-111166666D01*
X176003295Y-111166666D02*
X176146152Y-111166666D01*
X176146152Y-111166666D02*
X176241390Y-111214285D01*
X176241390Y-111214285D02*
X176289009Y-111261904D01*
X176289009Y-111261904D02*
X176336628Y-111357142D01*
X176336628Y-111357142D02*
X176336628Y-111738094D01*
X176812819Y-110214285D02*
X176812819Y-110785713D01*
X176812819Y-110499999D02*
X175812819Y-110499999D01*
X175812819Y-110499999D02*
X175955676Y-110595237D01*
X175955676Y-110595237D02*
X176050914Y-110690475D01*
X176050914Y-110690475D02*
X176098533Y-110785713D01*
D11*
%TO.C,C7*%
X195224200Y-41683100D02*
X195224200Y-42683100D01*
X195724200Y-42183100D02*
X194724200Y-42183100D01*
X195909763Y-42923100D02*
X194224200Y-42923100D01*
X195909763Y-42923100D02*
X196974200Y-43987537D01*
X189518637Y-42923100D02*
X191204200Y-42923100D01*
X189518637Y-42923100D02*
X188454200Y-43987537D01*
X196974200Y-43987537D02*
X196974200Y-51443100D01*
X188454200Y-43987537D02*
X188454200Y-51443100D01*
X196974200Y-51443100D02*
X194224200Y-51443100D01*
X188454200Y-51443100D02*
X191204200Y-51443100D01*
%TO.C,Q1*%
X181975500Y-113950000D02*
X180300500Y-113950000D01*
X181975500Y-113950000D02*
X182625500Y-113950000D01*
X181975500Y-117070000D02*
X181325500Y-117070000D01*
X181975500Y-117070000D02*
X182625500Y-117070000D01*
%TO.C,J2*%
X184620000Y-86760000D02*
X185120000Y-87260000D01*
X184620000Y-87760000D02*
X184620000Y-86760000D01*
X185120000Y-87260000D02*
X184620000Y-87760000D01*
X185315000Y-79850000D02*
X185315000Y-87460000D01*
X185315000Y-79850000D02*
X202045000Y-79850000D01*
X185315000Y-95820000D02*
X185315000Y-90260000D01*
X185315000Y-95820000D02*
X202045000Y-95820000D01*
X202045000Y-79850000D02*
X202045000Y-87460000D01*
X202045000Y-95820000D02*
X202045000Y-90260000D01*
%TO.C,R12*%
X183738000Y-104790000D02*
X180688000Y-104790000D01*
X183738000Y-100490000D02*
X180688000Y-100490000D01*
X183716234Y-104805525D02*
G75*
G03*
X183738000Y-100490001I-1528234J2165525D01*
G01*
X180643487Y-100521751D02*
G75*
G03*
X180688000Y-104790000I1544513J-2118249D01*
G01*
%TO.C,J3*%
X150258000Y-30020000D02*
X157938000Y-30020000D01*
X150258000Y-30020000D02*
X150258000Y-27360000D01*
X157938000Y-30020000D02*
X157938000Y-27360000D01*
X147658000Y-28690000D02*
X147658000Y-27360000D01*
X147658000Y-27360000D02*
X148988000Y-27360000D01*
X150258000Y-27360000D02*
X157938000Y-27360000D01*
%TO.C,Q2*%
X187408000Y-115140000D02*
X190008000Y-115140000D01*
X190008000Y-115140000D02*
X190008000Y-116090000D01*
X190008000Y-117390000D02*
X190008000Y-118190000D01*
%TO.C,RV1*%
X185878000Y-98175000D02*
X185878000Y-107945000D01*
X185878000Y-98175000D02*
X195648000Y-98175000D01*
X185878000Y-107945000D02*
X195648000Y-107945000D01*
X195648000Y-98175000D02*
X195648000Y-107945000D01*
%TO.C,R1*%
X185727600Y-45035536D02*
X185727600Y-45489664D01*
X184257600Y-45035536D02*
X184257600Y-45489664D01*
%TO.C,C9*%
X203160800Y-41101837D02*
X203160800Y-42987400D01*
X203160800Y-41101837D02*
X204225237Y-40037400D01*
X203160800Y-47492963D02*
X203160800Y-45607400D01*
X203160800Y-47492963D02*
X204225237Y-48557400D01*
X204225237Y-40037400D02*
X211680800Y-40037400D01*
X204225237Y-48557400D02*
X211680800Y-48557400D01*
X211680800Y-40037400D02*
X211680800Y-42987400D01*
X211680800Y-48557400D02*
X211680800Y-45607400D01*
%TO.C,C1*%
X134593000Y-36391252D02*
X134593000Y-35868748D01*
X136063000Y-36391252D02*
X136063000Y-35868748D01*
%TO.C,JP1*%
X174113000Y-52806600D02*
X171613000Y-52806600D01*
X171613000Y-52806600D02*
X171613000Y-55306600D01*
X175933000Y-53106600D02*
X171913000Y-53106600D01*
X174223000Y-53106600D02*
X174223000Y-53606600D01*
X173413000Y-53106600D02*
X173413000Y-54106600D01*
X171913000Y-53106600D02*
X171913000Y-60826600D01*
X175433000Y-53606600D02*
X175433000Y-60326600D01*
X174223000Y-53606600D02*
X175433000Y-53606600D01*
X173413000Y-54106600D02*
X171913000Y-54106600D01*
X173413000Y-59826600D02*
X171913000Y-59826600D01*
X175433000Y-60326600D02*
X174223000Y-60326600D01*
X174223000Y-60326600D02*
X174223000Y-60826600D01*
X175933000Y-60826600D02*
X175933000Y-53106600D01*
X173413000Y-60826600D02*
X173413000Y-59826600D01*
X171913000Y-60826600D02*
X175933000Y-60826600D01*
%TO.C,U2*%
X176182200Y-36976600D02*
X177132200Y-36976600D01*
X177132200Y-36976600D02*
X177132200Y-42101600D01*
X185632200Y-36976600D02*
X185632200Y-38076600D01*
X186582200Y-36976600D02*
X185632200Y-36976600D01*
X176182200Y-35476600D02*
X176182200Y-36976600D01*
X186582200Y-35476600D02*
X186582200Y-36976600D01*
%TO.C,C12*%
X203084900Y-52076500D02*
X203872400Y-52076500D01*
X203478650Y-51682750D02*
X203478650Y-52470250D01*
X204112400Y-51578437D02*
X204112400Y-52864000D01*
X204112400Y-51578437D02*
X205176837Y-50514000D01*
X204112400Y-56269563D02*
X204112400Y-54984000D01*
X204112400Y-56269563D02*
X205176837Y-57334000D01*
X205176837Y-50514000D02*
X210932400Y-50514000D01*
X205176837Y-57334000D02*
X210932400Y-57334000D01*
X210932400Y-50514000D02*
X210932400Y-52864000D01*
X210932400Y-57334000D02*
X210932400Y-54984000D01*
%TO.C,J6*%
X125608000Y-122030000D02*
X133288000Y-122030000D01*
X125608000Y-122030000D02*
X125608000Y-119370000D01*
X133288000Y-122030000D02*
X133288000Y-119370000D01*
X123008000Y-120700000D02*
X123008000Y-119370000D01*
X123008000Y-119370000D02*
X124338000Y-119370000D01*
X125608000Y-119370000D02*
X133288000Y-119370000D01*
%TO.C,J1*%
X213588000Y-93750000D02*
X212338000Y-93750000D01*
X213298000Y-94040000D02*
X207328000Y-94040000D01*
X207328000Y-94040000D02*
X207328000Y-101660000D01*
X213288000Y-94050000D02*
X212538000Y-94050000D01*
X212538000Y-94050000D02*
X212538000Y-95850000D01*
X211038000Y-94050000D02*
X211038000Y-94800000D01*
X211038000Y-94800000D02*
X208088000Y-94800000D01*
X208088000Y-94800000D02*
X208088000Y-97850000D01*
X213588000Y-95000000D02*
X213588000Y-93750000D01*
X213288000Y-95850000D02*
X213288000Y-94050000D01*
X212538000Y-95850000D02*
X213288000Y-95850000D01*
X213288000Y-97350000D02*
X212538000Y-97350000D01*
X212538000Y-97350000D02*
X212538000Y-98350000D01*
X213288000Y-98350000D02*
X213288000Y-97350000D01*
X212538000Y-98350000D02*
X213288000Y-98350000D01*
X213288000Y-99850000D02*
X212538000Y-99850000D01*
X212538000Y-99850000D02*
X212538000Y-101650000D01*
X211038000Y-100900000D02*
X208088000Y-100900000D01*
X208088000Y-100900000D02*
X208088000Y-97850000D01*
X213288000Y-101650000D02*
X213288000Y-99850000D01*
X212538000Y-101650000D02*
X213288000Y-101650000D01*
X211038000Y-101650000D02*
X211038000Y-100900000D01*
X213298000Y-101660000D02*
X213298000Y-94040000D01*
X207328000Y-101660000D02*
X213298000Y-101660000D01*
X156268000Y-89330000D02*
X158768000Y-89330000D01*
X158768000Y-89330000D02*
X158768000Y-86830000D01*
X154448000Y-89030000D02*
X158468000Y-89030000D01*
X156158000Y-89030000D02*
X156158000Y-88530000D01*
X156968000Y-89030000D02*
X156968000Y-88030000D01*
X158468000Y-89030000D02*
X158468000Y-81310000D01*
X154948000Y-88530000D02*
X154948000Y-81810000D01*
X156158000Y-88530000D02*
X154948000Y-88530000D01*
X156968000Y-88030000D02*
X158468000Y-88030000D01*
X156968000Y-82310000D02*
X158468000Y-82310000D01*
X154948000Y-81810000D02*
X156158000Y-81810000D01*
X156158000Y-81810000D02*
X156158000Y-81310000D01*
X154448000Y-81310000D02*
X154448000Y-89030000D01*
X156968000Y-81310000D02*
X156968000Y-82310000D01*
X158468000Y-81310000D02*
X154448000Y-81310000D01*
%TO.C,J5*%
X116958000Y-28630000D02*
X116958000Y-46470000D01*
X116958000Y-28630000D02*
X119618000Y-28630000D01*
X116958000Y-46470000D02*
X119618000Y-46470000D01*
X118288000Y-26030000D02*
X119618000Y-26030000D01*
X119618000Y-26030000D02*
X119618000Y-27360000D01*
X119618000Y-28630000D02*
X119618000Y-46470000D01*
%TO.C,JH1*%
X122958000Y-67950000D02*
X121708000Y-67950000D01*
X122668000Y-68240000D02*
X116698000Y-68240000D01*
X116698000Y-68240000D02*
X116698000Y-90860000D01*
X122658000Y-68250000D02*
X121908000Y-68250000D01*
X121908000Y-68250000D02*
X121908000Y-70050000D01*
X120408000Y-68250000D02*
X120408000Y-69000000D01*
X120408000Y-69000000D02*
X117458000Y-69000000D01*
X117458000Y-69000000D02*
X117458000Y-79550000D01*
X122958000Y-69200000D02*
X122958000Y-67950000D01*
X122658000Y-70050000D02*
X122658000Y-68250000D01*
X121908000Y-70050000D02*
X122658000Y-70050000D01*
X122658000Y-71550000D02*
X121908000Y-71550000D01*
X121908000Y-71550000D02*
X121908000Y-87550000D01*
X122658000Y-87550000D02*
X122658000Y-71550000D01*
X121908000Y-87550000D02*
X122658000Y-87550000D01*
X122658000Y-89050000D02*
X121908000Y-89050000D01*
X121908000Y-89050000D02*
X121908000Y-90850000D01*
X120408000Y-90100000D02*
X117458000Y-90100000D01*
X117458000Y-90100000D02*
X117458000Y-79550000D01*
X122658000Y-90850000D02*
X122658000Y-89050000D01*
X121908000Y-90850000D02*
X122658000Y-90850000D01*
X120408000Y-90850000D02*
X120408000Y-90100000D01*
X122668000Y-90860000D02*
X122668000Y-68240000D01*
X116698000Y-90860000D02*
X122668000Y-90860000D01*
%TO.C,JP1*%
X207098000Y-93320000D02*
X208348000Y-93320000D01*
X207388000Y-93030000D02*
X213358000Y-93030000D01*
X213358000Y-93030000D02*
X213358000Y-85410000D01*
X207398000Y-93020000D02*
X208148000Y-93020000D01*
X208148000Y-93020000D02*
X208148000Y-91220000D01*
X209648000Y-93020000D02*
X209648000Y-92270000D01*
X209648000Y-92270000D02*
X212598000Y-92270000D01*
X212598000Y-92270000D02*
X212598000Y-89220000D01*
X207098000Y-92070000D02*
X207098000Y-93320000D01*
X207398000Y-91220000D02*
X207398000Y-93020000D01*
X208148000Y-91220000D02*
X207398000Y-91220000D01*
X207398000Y-89720000D02*
X208148000Y-89720000D01*
X208148000Y-89720000D02*
X208148000Y-88720000D01*
X207398000Y-88720000D02*
X207398000Y-89720000D01*
X208148000Y-88720000D02*
X207398000Y-88720000D01*
X207398000Y-87220000D02*
X208148000Y-87220000D01*
X208148000Y-87220000D02*
X208148000Y-85420000D01*
X209648000Y-86170000D02*
X212598000Y-86170000D01*
X212598000Y-86170000D02*
X212598000Y-89220000D01*
X207398000Y-85420000D02*
X207398000Y-87220000D01*
X208148000Y-85420000D02*
X207398000Y-85420000D01*
X209648000Y-85420000D02*
X209648000Y-86170000D01*
X207388000Y-85410000D02*
X207388000Y-93030000D01*
X213358000Y-85410000D02*
X207388000Y-85410000D01*
%TO.C,R2*%
X175540936Y-114955000D02*
X175995064Y-114955000D01*
X175540936Y-116425000D02*
X175995064Y-116425000D01*
%TO.C,SW2*%
X141078000Y-58380000D02*
X147198000Y-58380000D01*
X141078000Y-62080000D02*
X141078000Y-58380000D01*
X147198000Y-58380000D02*
X147198000Y-62080000D01*
X147198000Y-62080000D02*
X141078000Y-62080000D01*
%TO.C,R1*%
X127171836Y-77635000D02*
X127625964Y-77635000D01*
X127171836Y-79105000D02*
X127625964Y-79105000D01*
%TO.C,R2*%
X185753000Y-49598136D02*
X185753000Y-50052264D01*
X184283000Y-49598136D02*
X184283000Y-50052264D01*
%TO.C,R5*%
X147185064Y-34215000D02*
X146730936Y-34215000D01*
X147185064Y-32745000D02*
X146730936Y-32745000D01*
%TO.C,Q5*%
X179308000Y-92720000D02*
X179308000Y-94395000D01*
X179308000Y-92720000D02*
X179308000Y-92070000D01*
X182428000Y-92720000D02*
X182428000Y-93370000D01*
X182428000Y-92720000D02*
X182428000Y-92070000D01*
%TO.C,C2*%
X140865000Y-51026052D02*
X140865000Y-50503548D01*
X142335000Y-51026052D02*
X142335000Y-50503548D01*
%TO.C,R4*%
X140450936Y-54855000D02*
X140905064Y-54855000D01*
X140450936Y-56325000D02*
X140905064Y-56325000D01*
%TO.C,R10*%
X180640936Y-96535000D02*
X181095064Y-96535000D01*
X180640936Y-98005000D02*
X181095064Y-98005000D01*
%TO.C,SW1*%
X142398000Y-42900000D02*
X136278000Y-42900000D01*
X142398000Y-39200000D02*
X142398000Y-42900000D01*
X136278000Y-42900000D02*
X136278000Y-39200000D01*
X136278000Y-39200000D02*
X142398000Y-39200000D01*
%TO.C,R8*%
X206545064Y-121955000D02*
X206090936Y-121955000D01*
X206545064Y-120485000D02*
X206090936Y-120485000D01*
%TO.C,C3*%
X172167200Y-43085452D02*
X172167200Y-42562948D01*
X173637200Y-43085452D02*
X173637200Y-42562948D01*
%TO.C,C4*%
X203135400Y-32135637D02*
X203135400Y-34021200D01*
X203135400Y-32135637D02*
X204199837Y-31071200D01*
X203135400Y-38526763D02*
X203135400Y-36641200D01*
X203135400Y-38526763D02*
X204199837Y-39591200D01*
X204199837Y-31071200D02*
X211655400Y-31071200D01*
X204199837Y-39591200D02*
X211655400Y-39591200D01*
X211655400Y-31071200D02*
X211655400Y-34021200D01*
X211655400Y-39591200D02*
X211655400Y-36641200D01*
%TO.C,D2*%
X133663000Y-68702500D02*
X131393000Y-68702500D01*
X131393000Y-68702500D02*
X131393000Y-72762500D01*
X133663000Y-72762500D02*
X133663000Y-68702500D01*
%TO.C,D1*%
X135040500Y-79505000D02*
X135040500Y-77235000D01*
X135040500Y-77235000D02*
X130980500Y-77235000D01*
X130980500Y-79505000D02*
X135040500Y-79505000D01*
%TO.C,J2*%
X176077400Y-66607000D02*
X176077400Y-69107000D01*
X176077400Y-69107000D02*
X178577400Y-69107000D01*
X176377400Y-64787000D02*
X176377400Y-68807000D01*
X176377400Y-66497000D02*
X176877400Y-66497000D01*
X176377400Y-67307000D02*
X177377400Y-67307000D01*
X176377400Y-68807000D02*
X184097400Y-68807000D01*
X176877400Y-65287000D02*
X183597400Y-65287000D01*
X176877400Y-66497000D02*
X176877400Y-65287000D01*
X177377400Y-67307000D02*
X177377400Y-68807000D01*
X183097400Y-67307000D02*
X183097400Y-68807000D01*
X183597400Y-65287000D02*
X183597400Y-66497000D01*
X183597400Y-66497000D02*
X184097400Y-66497000D01*
X184097400Y-64787000D02*
X176377400Y-64787000D01*
X184097400Y-67307000D02*
X183097400Y-67307000D01*
X184097400Y-68807000D02*
X184097400Y-64787000D01*
%TO.C,J4*%
X152818000Y-113340000D02*
X151488000Y-113340000D01*
X152818000Y-112010000D02*
X152818000Y-113340000D01*
X152818000Y-110740000D02*
X152818000Y-92900000D01*
X152818000Y-110740000D02*
X150158000Y-110740000D01*
X152818000Y-92900000D02*
X150158000Y-92900000D01*
X150158000Y-110740000D02*
X150158000Y-92900000D01*
%TO.C,C8*%
X190892652Y-40130200D02*
X190370148Y-40130200D01*
X190892652Y-38660200D02*
X190370148Y-38660200D01*
%TO.C,R10*%
X147295064Y-37485000D02*
X146840936Y-37485000D01*
X147295064Y-36015000D02*
X146840936Y-36015000D01*
%TO.C,D1*%
X196810500Y-120035000D02*
X196810500Y-122305000D01*
X196810500Y-122305000D02*
X200870500Y-122305000D01*
X200870500Y-120035000D02*
X196810500Y-120035000D01*
%TO.C,R3*%
X129713000Y-70529136D02*
X129713000Y-70983264D01*
X128243000Y-70529136D02*
X128243000Y-70983264D01*
%TO.C,J1*%
X185506800Y-62604000D02*
X185506800Y-63854000D01*
X185796800Y-62894000D02*
X185796800Y-68864000D01*
X185796800Y-68864000D02*
X208416800Y-68864000D01*
X185806800Y-62904000D02*
X185806800Y-63654000D01*
X185806800Y-63654000D02*
X187606800Y-63654000D01*
X185806800Y-65154000D02*
X186556800Y-65154000D01*
X186556800Y-65154000D02*
X186556800Y-68104000D01*
X186556800Y-68104000D02*
X197106800Y-68104000D01*
X186756800Y-62604000D02*
X185506800Y-62604000D01*
X187606800Y-62904000D02*
X185806800Y-62904000D01*
X187606800Y-63654000D02*
X187606800Y-62904000D01*
X189106800Y-62904000D02*
X189106800Y-63654000D01*
X189106800Y-63654000D02*
X205106800Y-63654000D01*
X205106800Y-62904000D02*
X189106800Y-62904000D01*
X205106800Y-63654000D02*
X205106800Y-62904000D01*
X206606800Y-62904000D02*
X206606800Y-63654000D01*
X206606800Y-63654000D02*
X208406800Y-63654000D01*
X207656800Y-65154000D02*
X207656800Y-68104000D01*
X207656800Y-68104000D02*
X197106800Y-68104000D01*
X208406800Y-62904000D02*
X206606800Y-62904000D01*
X208406800Y-63654000D02*
X208406800Y-62904000D01*
X208406800Y-65154000D02*
X207656800Y-65154000D01*
X208416800Y-62894000D02*
X185796800Y-62894000D01*
X208416800Y-68864000D02*
X208416800Y-62894000D01*
%TO.C,C3*%
X145183000Y-50953752D02*
X145183000Y-50431248D01*
X146653000Y-50953752D02*
X146653000Y-50431248D01*
%TO.C,J2*%
X117328000Y-60270000D02*
X117328000Y-58940000D01*
X118658000Y-60270000D02*
X117328000Y-60270000D01*
X119928000Y-60270000D02*
X122528000Y-60270000D01*
X119928000Y-60270000D02*
X119928000Y-57670000D01*
X122528000Y-60270000D02*
X122528000Y-55070000D01*
X117328000Y-57670000D02*
X117328000Y-55070000D01*
X119928000Y-57670000D02*
X117328000Y-57670000D01*
X117328000Y-55070000D02*
X122528000Y-55070000D01*
%TO.C,R9*%
X175090936Y-96535000D02*
X175545064Y-96535000D01*
X175090936Y-98005000D02*
X175545064Y-98005000D01*
%TO.C,R3*%
X190934664Y-36498000D02*
X190480536Y-36498000D01*
X190934664Y-35028000D02*
X190480536Y-35028000D01*
%TO.C,C2*%
X208420500Y-117057500D02*
X208420500Y-116270000D01*
X208026750Y-116663750D02*
X208814250Y-116663750D01*
X207922437Y-116030000D02*
X209208000Y-116030000D01*
X207922437Y-116030000D02*
X206858000Y-114965563D01*
X212613563Y-116030000D02*
X211328000Y-116030000D01*
X212613563Y-116030000D02*
X213678000Y-114965563D01*
X206858000Y-114965563D02*
X206858000Y-109210000D01*
X213678000Y-114965563D02*
X213678000Y-109210000D01*
X206858000Y-109210000D02*
X209208000Y-109210000D01*
X213678000Y-109210000D02*
X211328000Y-109210000D01*
X173341500Y-45929700D02*
X174129000Y-45929700D01*
X173735250Y-45535950D02*
X173735250Y-46323450D01*
X174369000Y-45431637D02*
X174369000Y-46717200D01*
X174369000Y-45431637D02*
X175433437Y-44367200D01*
X174369000Y-50122763D02*
X174369000Y-48837200D01*
X174369000Y-50122763D02*
X175433437Y-51187200D01*
X175433437Y-44367200D02*
X181189000Y-44367200D01*
X175433437Y-51187200D02*
X181189000Y-51187200D01*
X181189000Y-44367200D02*
X181189000Y-46717200D01*
X181189000Y-51187200D02*
X181189000Y-48837200D01*
%TO.C,R2*%
X131353000Y-35742936D02*
X131353000Y-36197064D01*
X129883000Y-35742936D02*
X129883000Y-36197064D01*
%TO.C,C4*%
X146859248Y-55095000D02*
X147381752Y-55095000D01*
X146859248Y-56565000D02*
X147381752Y-56565000D01*
%TO.C,R3*%
X184815064Y-121315000D02*
X184360936Y-121315000D01*
X184815064Y-119845000D02*
X184360936Y-119845000D01*
%TO.C,R1*%
X175443000Y-110772936D02*
X175443000Y-111227064D01*
X173973000Y-110772936D02*
X173973000Y-111227064D01*
%TD*%
M02*
