%TF.GenerationSoftware,KiCad,Pcbnew,7.0.9*%
%TF.CreationDate,2023-11-16T02:53:57-05:00*%
%TF.ProjectId,SmartbikeALL,536d6172-7462-4696-9b65-414c4c2e6b69,rev?*%
%TF.SameCoordinates,Original*%
%TF.FileFunction,Plated,1,2,PTH,Drill*%
%TF.FilePolarity,Positive*%
%FSLAX46Y46*%
G04 Gerber Fmt 4.6, Leading zero omitted, Abs format (unit mm)*
G04 Created by KiCad (PCBNEW 7.0.9) date 2023-11-16 02:53:57*
%MOMM*%
%LPD*%
G01*
G04 APERTURE LIST*
%TA.AperFunction,ComponentDrill*%
%ADD10C,0.800000*%
%TD*%
%TA.AperFunction,ComponentDrill*%
%ADD11C,0.890000*%
%TD*%
%TA.AperFunction,ComponentDrill*%
%ADD12C,0.950000*%
%TD*%
%TA.AperFunction,ViaDrill*%
%ADD13C,1.000000*%
%TD*%
%TA.AperFunction,ComponentDrill*%
%ADD14C,1.000000*%
%TD*%
%TA.AperFunction,ComponentDrill*%
%ADD15C,1.570000*%
%TD*%
G04 APERTURE END LIST*
D10*
%TO.C,R12*%
X180488000Y-102640000D03*
X183888000Y-102640000D03*
%TO.C,RV1*%
X190778000Y-100520000D03*
X190778000Y-105600000D03*
X193318000Y-103060000D03*
D11*
%TO.C,J2*%
X186820000Y-94560000D03*
X189110000Y-94560000D03*
X190120000Y-87960000D03*
X191136000Y-89740000D03*
X192152000Y-87960000D03*
X193168000Y-89740000D03*
X194184000Y-87960000D03*
X195200000Y-89740000D03*
X196216000Y-87960000D03*
X197232000Y-89740000D03*
X198250000Y-94560000D03*
X200540000Y-94560000D03*
D12*
%TO.C,JH1*%
X120208000Y-70800000D03*
X120208000Y-73300000D03*
X120208000Y-75800000D03*
X120208000Y-78300000D03*
X120208000Y-80800000D03*
X120208000Y-83300000D03*
X120208000Y-85800000D03*
X120208000Y-88300000D03*
%TO.C,J1*%
X188356800Y-65354000D03*
X190856800Y-65354000D03*
X193356800Y-65354000D03*
X195856800Y-65354000D03*
X198356800Y-65354000D03*
X200856800Y-65354000D03*
X203356800Y-65354000D03*
X205856800Y-65354000D03*
%TD*%
D13*
X117528000Y-62740000D03*
X123528000Y-41220000D03*
X124998000Y-71200000D03*
X126878000Y-96575200D03*
X128938000Y-67490000D03*
X129556900Y-92327100D03*
X132167800Y-45125900D03*
X135438000Y-44528900D03*
X135658000Y-51570000D03*
X138308000Y-61930000D03*
X138426100Y-88901900D03*
X142858000Y-102860000D03*
X143875800Y-33799700D03*
X149828000Y-53160000D03*
X150018500Y-57620000D03*
X151418000Y-68180000D03*
X151488000Y-117200000D03*
X171786000Y-46824000D03*
X175660000Y-41351800D03*
X175690700Y-104333200D03*
X188215100Y-33776500D03*
X189886000Y-31044000D03*
X189976000Y-41734000D03*
X191246000Y-53704000D03*
X194512500Y-37077300D03*
X195860000Y-60090000D03*
X197948800Y-102624000D03*
X200346000Y-28824000D03*
X200445500Y-41604000D03*
X201654900Y-30714633D03*
X201971345Y-39453709D03*
X202845500Y-59787582D03*
X204110491Y-117252491D03*
X205676000Y-59034000D03*
X206326898Y-46616938D03*
X207378300Y-38001700D03*
X208786000Y-26594000D03*
X213299900Y-55718600D03*
D14*
%TO.C,J5*%
X118288000Y-27360000D03*
X118288000Y-29900000D03*
X118288000Y-32440000D03*
X118288000Y-34980000D03*
X118288000Y-37520000D03*
X118288000Y-40060000D03*
X118288000Y-42600000D03*
X118288000Y-45140000D03*
%TO.C,J2*%
X118658000Y-56400000D03*
X118658000Y-58940000D03*
X121198000Y-56400000D03*
X121198000Y-58940000D03*
%TO.C,J6*%
X124338000Y-120700000D03*
X126878000Y-120700000D03*
X129418000Y-120700000D03*
X131958000Y-120700000D03*
%TO.C,J3*%
X148988000Y-28690000D03*
%TO.C,J4*%
X151488000Y-94230000D03*
X151488000Y-96770000D03*
X151488000Y-99310000D03*
X151488000Y-101850000D03*
X151488000Y-104390000D03*
X151488000Y-106930000D03*
X151488000Y-109470000D03*
X151488000Y-112010000D03*
%TO.C,J3*%
X151528000Y-28690000D03*
X154068000Y-28690000D03*
%TO.C,J1*%
X156158000Y-83920000D03*
X156158000Y-86420000D03*
%TO.C,J3*%
X156608000Y-28690000D03*
%TO.C,JP1*%
X174223000Y-55716600D03*
X174223000Y-58216600D03*
%TO.C,J2*%
X178987400Y-66497000D03*
X181487400Y-66497000D03*
%TO.C,BZ1*%
X190956600Y-27660400D03*
X193496600Y-27660400D03*
%TO.C,JP1*%
X209848000Y-87970000D03*
X209848000Y-90470000D03*
%TO.C,J1*%
X210838000Y-96600000D03*
X210838000Y-99100000D03*
D15*
%TO.C,J2*%
X185550000Y-88850000D03*
X201810000Y-88850000D03*
M02*
