%TF.GenerationSoftware,KiCad,Pcbnew,7.0.9*%
%TF.CreationDate,2023-11-16T02:53:52-05:00*%
%TF.ProjectId,SmartbikeALL,536d6172-7462-4696-9b65-414c4c2e6b69,rev?*%
%TF.SameCoordinates,Original*%
%TF.FileFunction,Paste,Top*%
%TF.FilePolarity,Positive*%
%FSLAX46Y46*%
G04 Gerber Fmt 4.6, Leading zero omitted, Abs format (unit mm)*
G04 Created by KiCad (PCBNEW 7.0.9) date 2023-11-16 02:53:52*
%MOMM*%
%LPD*%
G01*
G04 APERTURE LIST*
G04 Aperture macros list*
%AMRoundRect*
0 Rectangle with rounded corners*
0 $1 Rounding radius*
0 $2 $3 $4 $5 $6 $7 $8 $9 X,Y pos of 4 corners*
0 Add a 4 corners polygon primitive as box body*
4,1,4,$2,$3,$4,$5,$6,$7,$8,$9,$2,$3,0*
0 Add four circle primitives for the rounded corners*
1,1,$1+$1,$2,$3*
1,1,$1+$1,$4,$5*
1,1,$1+$1,$6,$7*
1,1,$1+$1,$8,$9*
0 Add four rect primitives between the rounded corners*
20,1,$1+$1,$2,$3,$4,$5,0*
20,1,$1+$1,$4,$5,$6,$7,0*
20,1,$1+$1,$6,$7,$8,$9,0*
20,1,$1+$1,$8,$9,$2,$3,0*%
G04 Aperture macros list end*
%ADD10RoundRect,0.250000X-1.000000X1.500000X-1.000000X-1.500000X1.000000X-1.500000X1.000000X1.500000X0*%
%ADD11RoundRect,0.150000X-0.587500X-0.150000X0.587500X-0.150000X0.587500X0.150000X-0.587500X0.150000X0*%
%ADD12R,1.400000X1.000000*%
%ADD13RoundRect,0.250000X-0.450000X0.350000X-0.450000X-0.350000X0.450000X-0.350000X0.450000X0.350000X0*%
%ADD14RoundRect,0.250001X-1.999999X-0.799999X1.999999X-0.799999X1.999999X0.799999X-1.999999X0.799999X0*%
%ADD15RoundRect,0.250000X0.475000X-0.337500X0.475000X0.337500X-0.475000X0.337500X-0.475000X-0.337500X0*%
%ADD16RoundRect,0.250000X0.300000X-2.050000X0.300000X2.050000X-0.300000X2.050000X-0.300000X-2.050000X0*%
%ADD17RoundRect,0.250000X2.375000X-2.025000X2.375000X2.025000X-2.375000X2.025000X-2.375000X-2.025000X0*%
%ADD18RoundRect,0.250000X-1.500000X-0.550000X1.500000X-0.550000X1.500000X0.550000X-1.500000X0.550000X0*%
%ADD19RoundRect,0.250000X-0.350000X-0.450000X0.350000X-0.450000X0.350000X0.450000X-0.350000X0.450000X0*%
%ADD20R,1.500000X1.500000*%
%ADD21RoundRect,0.250000X0.350000X0.450000X-0.350000X0.450000X-0.350000X-0.450000X0.350000X-0.450000X0*%
%ADD22RoundRect,0.150000X0.150000X-0.587500X0.150000X0.587500X-0.150000X0.587500X-0.150000X-0.587500X0*%
%ADD23RoundRect,0.250001X-0.624999X0.462499X-0.624999X-0.462499X0.624999X-0.462499X0.624999X0.462499X0*%
%ADD24RoundRect,0.250001X0.462499X0.624999X-0.462499X0.624999X-0.462499X-0.624999X0.462499X-0.624999X0*%
%ADD25RoundRect,0.250000X0.337500X0.475000X-0.337500X0.475000X-0.337500X-0.475000X0.337500X-0.475000X0*%
%ADD26RoundRect,0.250001X-0.462499X-0.624999X0.462499X-0.624999X0.462499X0.624999X-0.462499X0.624999X0*%
%ADD27RoundRect,0.250000X0.550000X-1.500000X0.550000X1.500000X-0.550000X1.500000X-0.550000X-1.500000X0*%
%ADD28RoundRect,0.250000X-0.337500X-0.475000X0.337500X-0.475000X0.337500X0.475000X-0.337500X0.475000X0*%
G04 APERTURE END LIST*
D10*
%TO.C,C7*%
X192714200Y-43933100D03*
X192714200Y-50433100D03*
%TD*%
D11*
%TO.C,Q1*%
X181038000Y-114560000D03*
X181038000Y-116460000D03*
X182913000Y-115510000D03*
%TD*%
D12*
%TO.C,Q2*%
X188058000Y-115790000D03*
X188058000Y-117690000D03*
X190258000Y-116740000D03*
%TD*%
D13*
%TO.C,R1*%
X184992600Y-44262600D03*
X184992600Y-46262600D03*
%TD*%
D14*
%TO.C,C9*%
X203820800Y-44297400D03*
X211020800Y-44297400D03*
%TD*%
D15*
%TO.C,C1*%
X135328000Y-37167500D03*
X135328000Y-35092500D03*
%TD*%
D16*
%TO.C,U2*%
X177982200Y-39801600D03*
X179682200Y-39801600D03*
X181382200Y-39801600D03*
D17*
X178607200Y-33076600D03*
X184157200Y-33076600D03*
X178607200Y-28226600D03*
X184157200Y-28226600D03*
D16*
X183082200Y-39801600D03*
X184782200Y-39801600D03*
%TD*%
D18*
%TO.C,C12*%
X204722400Y-53924000D03*
X210322400Y-53924000D03*
%TD*%
D19*
%TO.C,R2*%
X174768000Y-115690000D03*
X176768000Y-115690000D03*
%TD*%
D20*
%TO.C,SW2*%
X140238000Y-60230000D03*
X148038000Y-60230000D03*
%TD*%
D19*
%TO.C,R1*%
X126398900Y-78370000D03*
X128398900Y-78370000D03*
%TD*%
D13*
%TO.C,R2*%
X185018000Y-48825200D03*
X185018000Y-50825200D03*
%TD*%
D21*
%TO.C,R5*%
X147958000Y-33480000D03*
X145958000Y-33480000D03*
%TD*%
D22*
%TO.C,Q5*%
X179918000Y-93657500D03*
X181818000Y-93657500D03*
X180868000Y-91782500D03*
%TD*%
D15*
%TO.C,C2*%
X141600000Y-51802300D03*
X141600000Y-49727300D03*
%TD*%
D19*
%TO.C,R4*%
X139678000Y-55590000D03*
X141678000Y-55590000D03*
%TD*%
%TO.C,R10*%
X179868000Y-97270000D03*
X181868000Y-97270000D03*
%TD*%
D20*
%TO.C,SW1*%
X143238000Y-41050000D03*
X135438000Y-41050000D03*
%TD*%
D21*
%TO.C,R8*%
X207318000Y-121220000D03*
X205318000Y-121220000D03*
%TD*%
D15*
%TO.C,C3*%
X172902200Y-43861700D03*
X172902200Y-41786700D03*
%TD*%
D14*
%TO.C,C4*%
X203795400Y-35331200D03*
X210995400Y-35331200D03*
%TD*%
D23*
%TO.C,D2*%
X132528000Y-69675000D03*
X132528000Y-72650000D03*
%TD*%
D24*
%TO.C,D1*%
X134068000Y-78370000D03*
X131093000Y-78370000D03*
%TD*%
D25*
%TO.C,C8*%
X191668900Y-39395200D03*
X189593900Y-39395200D03*
%TD*%
D21*
%TO.C,R10*%
X148068000Y-36750000D03*
X146068000Y-36750000D03*
%TD*%
D26*
%TO.C,D1*%
X197783000Y-121170000D03*
X200758000Y-121170000D03*
%TD*%
D13*
%TO.C,R3*%
X128978000Y-69756200D03*
X128978000Y-71756200D03*
%TD*%
D15*
%TO.C,C3*%
X145918000Y-51730000D03*
X145918000Y-49655000D03*
%TD*%
D19*
%TO.C,R9*%
X174318000Y-97270000D03*
X176318000Y-97270000D03*
%TD*%
D21*
%TO.C,R3*%
X191707600Y-35763000D03*
X189707600Y-35763000D03*
%TD*%
D27*
%TO.C,C2*%
X210268000Y-115420000D03*
X210268000Y-109820000D03*
%TD*%
D18*
%TO.C,C2*%
X174979000Y-47777200D03*
X180579000Y-47777200D03*
%TD*%
D13*
%TO.C,R2*%
X130618000Y-34970000D03*
X130618000Y-36970000D03*
%TD*%
D28*
%TO.C,C4*%
X146083000Y-55830000D03*
X148158000Y-55830000D03*
%TD*%
D21*
%TO.C,R3*%
X185588000Y-120580000D03*
X183588000Y-120580000D03*
%TD*%
D13*
%TO.C,R1*%
X174708000Y-110000000D03*
X174708000Y-112000000D03*
%TD*%
M02*
