%TF.GenerationSoftware,KiCad,Pcbnew,7.0.9*%
%TF.CreationDate,2023-11-13T19:29:17-05:00*%
%TF.ProjectId,SmartbikeALL,536d6172-7462-4696-9b65-414c4c2e6b69,rev?*%
%TF.SameCoordinates,Original*%
%TF.FileFunction,Paste,Top*%
%TF.FilePolarity,Positive*%
%FSLAX46Y46*%
G04 Gerber Fmt 4.6, Leading zero omitted, Abs format (unit mm)*
G04 Created by KiCad (PCBNEW 7.0.9) date 2023-11-13 19:29:17*
%MOMM*%
%LPD*%
G01*
G04 APERTURE LIST*
G04 Aperture macros list*
%AMRoundRect*
0 Rectangle with rounded corners*
0 $1 Rounding radius*
0 $2 $3 $4 $5 $6 $7 $8 $9 X,Y pos of 4 corners*
0 Add a 4 corners polygon primitive as box body*
4,1,4,$2,$3,$4,$5,$6,$7,$8,$9,$2,$3,0*
0 Add four circle primitives for the rounded corners*
1,1,$1+$1,$2,$3*
1,1,$1+$1,$4,$5*
1,1,$1+$1,$6,$7*
1,1,$1+$1,$8,$9*
0 Add four rect primitives between the rounded corners*
20,1,$1+$1,$2,$3,$4,$5,0*
20,1,$1+$1,$4,$5,$6,$7,0*
20,1,$1+$1,$6,$7,$8,$9,0*
20,1,$1+$1,$8,$9,$2,$3,0*%
G04 Aperture macros list end*
%ADD10R,1.400000X1.000000*%
%ADD11RoundRect,0.250000X-0.350000X-0.450000X0.350000X-0.450000X0.350000X0.450000X-0.350000X0.450000X0*%
%ADD12RoundRect,0.250000X0.350000X0.450000X-0.350000X0.450000X-0.350000X-0.450000X0.350000X-0.450000X0*%
%ADD13RoundRect,0.150000X0.150000X-0.587500X0.150000X0.587500X-0.150000X0.587500X-0.150000X-0.587500X0*%
%ADD14RoundRect,0.150000X-0.587500X-0.150000X0.587500X-0.150000X0.587500X0.150000X-0.587500X0.150000X0*%
%ADD15RoundRect,0.250001X-0.462499X-0.624999X0.462499X-0.624999X0.462499X0.624999X-0.462499X0.624999X0*%
%ADD16RoundRect,0.250000X-0.450000X0.350000X-0.450000X-0.350000X0.450000X-0.350000X0.450000X0.350000X0*%
%ADD17RoundRect,0.250000X0.550000X-1.500000X0.550000X1.500000X-0.550000X1.500000X-0.550000X-1.500000X0*%
%ADD18RoundRect,0.250000X-1.500000X-0.550000X1.500000X-0.550000X1.500000X0.550000X-1.500000X0.550000X0*%
%ADD19RoundRect,0.250001X-1.999999X-0.799999X1.999999X-0.799999X1.999999X0.799999X-1.999999X0.799999X0*%
%ADD20RoundRect,0.250000X-1.000000X1.500000X-1.000000X-1.500000X1.000000X-1.500000X1.000000X1.500000X0*%
%ADD21RoundRect,0.250000X0.475000X-0.337500X0.475000X0.337500X-0.475000X0.337500X-0.475000X-0.337500X0*%
%ADD22RoundRect,0.250000X0.337500X0.475000X-0.337500X0.475000X-0.337500X-0.475000X0.337500X-0.475000X0*%
%ADD23RoundRect,0.250000X0.300000X-2.050000X0.300000X2.050000X-0.300000X2.050000X-0.300000X-2.050000X0*%
%ADD24RoundRect,0.250000X2.375000X-2.025000X2.375000X2.025000X-2.375000X2.025000X-2.375000X-2.025000X0*%
%ADD25RoundRect,0.250000X0.450000X-0.350000X0.450000X0.350000X-0.450000X0.350000X-0.450000X-0.350000X0*%
%ADD26R,1.500000X1.500000*%
%ADD27RoundRect,0.250001X0.624999X-0.462499X0.624999X0.462499X-0.624999X0.462499X-0.624999X-0.462499X0*%
%ADD28RoundRect,0.250000X-0.475000X0.337500X-0.475000X-0.337500X0.475000X-0.337500X0.475000X0.337500X0*%
G04 APERTURE END LIST*
D10*
%TO.C,Q2*%
X181890000Y-54280000D03*
X181890000Y-56180000D03*
X184090000Y-55230000D03*
%TD*%
D11*
%TO.C,R9*%
X168150000Y-35760000D03*
X170150000Y-35760000D03*
%TD*%
D12*
%TO.C,R3*%
X179420000Y-59070000D03*
X177420000Y-59070000D03*
%TD*%
D13*
%TO.C,Q5*%
X173750000Y-32147500D03*
X175650000Y-32147500D03*
X174700000Y-30272500D03*
%TD*%
D11*
%TO.C,R10*%
X173700000Y-35760000D03*
X175700000Y-35760000D03*
%TD*%
%TO.C,R2*%
X168600000Y-54180000D03*
X170600000Y-54180000D03*
%TD*%
D14*
%TO.C,Q1*%
X174870000Y-53050000D03*
X174870000Y-54950000D03*
X176745000Y-54000000D03*
%TD*%
D15*
%TO.C,D1*%
X191615000Y-59660000D03*
X194590000Y-59660000D03*
%TD*%
D12*
%TO.C,R8*%
X201150000Y-59710000D03*
X199150000Y-59710000D03*
%TD*%
D16*
%TO.C,R1*%
X168540000Y-48490000D03*
X168540000Y-50490000D03*
%TD*%
D17*
%TO.C,C2*%
X204100000Y-53910000D03*
X204100000Y-48310000D03*
%TD*%
D18*
%TO.C,C12*%
X198554400Y-102414000D03*
X204154400Y-102414000D03*
%TD*%
%TO.C,C2*%
X168811000Y-96267200D03*
X174411000Y-96267200D03*
%TD*%
D19*
%TO.C,C4*%
X197627400Y-83821200D03*
X204827400Y-83821200D03*
%TD*%
D20*
%TO.C,C7*%
X186546200Y-92423100D03*
X186546200Y-98923100D03*
%TD*%
D21*
%TO.C,C3*%
X166734200Y-92351700D03*
X166734200Y-90276700D03*
%TD*%
D22*
%TO.C,C8*%
X185500900Y-87885200D03*
X183425900Y-87885200D03*
%TD*%
D12*
%TO.C,R3*%
X185539600Y-84253000D03*
X183539600Y-84253000D03*
%TD*%
D23*
%TO.C,U2*%
X171814200Y-88291600D03*
X173514200Y-88291600D03*
X175214200Y-88291600D03*
D24*
X172439200Y-81566600D03*
X177989200Y-81566600D03*
X172439200Y-76716600D03*
X177989200Y-76716600D03*
D23*
X176914200Y-88291600D03*
X178614200Y-88291600D03*
%TD*%
D16*
%TO.C,R1*%
X178824600Y-92752600D03*
X178824600Y-94752600D03*
%TD*%
D19*
%TO.C,C9*%
X197652800Y-92787400D03*
X204852800Y-92787400D03*
%TD*%
D16*
%TO.C,R2*%
X178850000Y-97315200D03*
X178850000Y-99315200D03*
%TD*%
%TO.C,R1*%
X151375200Y-27459200D03*
X151375200Y-29459200D03*
%TD*%
D21*
%TO.C,C2*%
X139538800Y-29569000D03*
X139538800Y-27494000D03*
%TD*%
D25*
%TO.C,R4*%
X139234000Y-33878800D03*
X139234000Y-31878800D03*
%TD*%
D26*
%TO.C,SW1*%
X113935600Y-54457200D03*
X113935600Y-46657200D03*
%TD*%
%TO.C,SW2*%
X145787200Y-37806400D03*
X137987200Y-37806400D03*
%TD*%
D27*
%TO.C,D1*%
X151375200Y-35128300D03*
X151375200Y-32153300D03*
%TD*%
D11*
%TO.C,R2*%
X111259200Y-44004000D03*
X113259200Y-44004000D03*
%TD*%
D21*
%TO.C,C1*%
X115662800Y-41790300D03*
X115662800Y-39715300D03*
%TD*%
D16*
%TO.C,R3*%
X135068400Y-48236400D03*
X135068400Y-50236400D03*
%TD*%
D11*
%TO.C,R10*%
X111462400Y-62952400D03*
X113462400Y-62952400D03*
%TD*%
D27*
%TO.C,D2*%
X135068400Y-56145200D03*
X135068400Y-53170200D03*
%TD*%
D21*
%TO.C,C3*%
X143856800Y-29496700D03*
X143856800Y-27421700D03*
%TD*%
D28*
%TO.C,C4*%
X142485200Y-31688900D03*
X142485200Y-33763900D03*
%TD*%
D11*
%TO.C,R5*%
X111513200Y-59447200D03*
X113513200Y-59447200D03*
%TD*%
M02*
