%TF.GenerationSoftware,KiCad,Pcbnew,7.0.9*%
%TF.CreationDate,2023-11-16T02:53:52-05:00*%
%TF.ProjectId,SmartbikeALL,536d6172-7462-4696-9b65-414c4c2e6b69,rev?*%
%TF.SameCoordinates,Original*%
%TF.FileFunction,Paste,Bot*%
%TF.FilePolarity,Positive*%
%FSLAX46Y46*%
G04 Gerber Fmt 4.6, Leading zero omitted, Abs format (unit mm)*
G04 Created by KiCad (PCBNEW 7.0.9) date 2023-11-16 02:53:52*
%MOMM*%
%LPD*%
G01*
G04 APERTURE LIST*
G04 Aperture macros list*
%AMRoundRect*
0 Rectangle with rounded corners*
0 $1 Rounding radius*
0 $2 $3 $4 $5 $6 $7 $8 $9 X,Y pos of 4 corners*
0 Add a 4 corners polygon primitive as box body*
4,1,4,$2,$3,$4,$5,$6,$7,$8,$9,$2,$3,0*
0 Add four circle primitives for the rounded corners*
1,1,$1+$1,$2,$3*
1,1,$1+$1,$4,$5*
1,1,$1+$1,$6,$7*
1,1,$1+$1,$8,$9*
0 Add four rect primitives between the rounded corners*
20,1,$1+$1,$2,$3,$4,$5,0*
20,1,$1+$1,$4,$5,$6,$7,0*
20,1,$1+$1,$6,$7,$8,$9,0*
20,1,$1+$1,$8,$9,$2,$3,0*%
G04 Aperture macros list end*
%ADD10RoundRect,0.150000X0.587500X0.150000X-0.587500X0.150000X-0.587500X-0.150000X0.587500X-0.150000X0*%
%ADD11RoundRect,0.250000X-0.425000X0.537500X-0.425000X-0.537500X0.425000X-0.537500X0.425000X0.537500X0*%
%ADD12RoundRect,0.150000X0.512500X0.150000X-0.512500X0.150000X-0.512500X-0.150000X0.512500X-0.150000X0*%
%ADD13RoundRect,0.150000X-0.150000X0.725000X-0.150000X-0.725000X0.150000X-0.725000X0.150000X0.725000X0*%
%ADD14RoundRect,0.250000X-0.350000X-0.450000X0.350000X-0.450000X0.350000X0.450000X-0.350000X0.450000X0*%
%ADD15RoundRect,0.250000X0.350000X0.450000X-0.350000X0.450000X-0.350000X-0.450000X0.350000X-0.450000X0*%
%ADD16RoundRect,0.250000X0.450000X-0.350000X0.450000X0.350000X-0.450000X0.350000X-0.450000X-0.350000X0*%
%ADD17RoundRect,0.250000X-0.450000X0.350000X-0.450000X-0.350000X0.450000X-0.350000X0.450000X0.350000X0*%
%ADD18RoundRect,0.250000X-0.537500X-0.425000X0.537500X-0.425000X0.537500X0.425000X-0.537500X0.425000X0*%
%ADD19RoundRect,0.250000X-0.475000X0.337500X-0.475000X-0.337500X0.475000X-0.337500X0.475000X0.337500X0*%
%ADD20R,1.400000X1.000000*%
%ADD21RoundRect,0.150000X-0.825000X-0.150000X0.825000X-0.150000X0.825000X0.150000X-0.825000X0.150000X0*%
%ADD22RoundRect,0.250000X-0.337500X-0.475000X0.337500X-0.475000X0.337500X0.475000X-0.337500X0.475000X0*%
%ADD23RoundRect,0.250000X0.412500X0.650000X-0.412500X0.650000X-0.412500X-0.650000X0.412500X-0.650000X0*%
%ADD24R,0.900000X2.000000*%
%ADD25R,1.330000X1.330000*%
%ADD26RoundRect,0.250000X0.337500X0.475000X-0.337500X0.475000X-0.337500X-0.475000X0.337500X-0.475000X0*%
%ADD27RoundRect,0.250001X-0.624999X0.462499X-0.624999X-0.462499X0.624999X-0.462499X0.624999X0.462499X0*%
%ADD28RoundRect,0.150000X0.825000X0.150000X-0.825000X0.150000X-0.825000X-0.150000X0.825000X-0.150000X0*%
%ADD29RoundRect,0.250000X0.650000X-0.412500X0.650000X0.412500X-0.650000X0.412500X-0.650000X-0.412500X0*%
G04 APERTURE END LIST*
D10*
%TO.C,Q4*%
X199873000Y-104430000D03*
X199873000Y-106330000D03*
X197998000Y-105380000D03*
%TD*%
D11*
%TO.C,C5*%
X197997400Y-26883300D03*
X197997400Y-29758300D03*
%TD*%
D12*
%TO.C,U1*%
X206323100Y-28031200D03*
X206323100Y-28981200D03*
X206323100Y-29931200D03*
X204048100Y-29931200D03*
X204048100Y-28031200D03*
%TD*%
D13*
%TO.C,U2*%
X177638000Y-106460000D03*
X178908000Y-106460000D03*
X180178000Y-106460000D03*
X181448000Y-106460000D03*
X181448000Y-111610000D03*
X180178000Y-111610000D03*
X178908000Y-111610000D03*
X177638000Y-111610000D03*
%TD*%
D14*
%TO.C,R6*%
X189388000Y-110770000D03*
X191388000Y-110770000D03*
%TD*%
D15*
%TO.C,R7*%
X190301200Y-47066000D03*
X188301200Y-47066000D03*
%TD*%
D16*
%TO.C,R4*%
X204908000Y-106070000D03*
X204908000Y-104070000D03*
%TD*%
%TO.C,R10*%
X197057600Y-38795000D03*
X197057600Y-36795000D03*
%TD*%
D17*
%TO.C,R7*%
X194588000Y-113270000D03*
X194588000Y-115270000D03*
%TD*%
D18*
%TO.C,C10*%
X206135700Y-49758400D03*
X209010700Y-49758400D03*
%TD*%
D16*
%TO.C,R9*%
X197210000Y-42986000D03*
X197210000Y-40986000D03*
%TD*%
D17*
%TO.C,R7*%
X146476800Y-75580800D03*
X146476800Y-77580800D03*
%TD*%
%TO.C,R8*%
X143124000Y-75682400D03*
X143124000Y-77682400D03*
%TD*%
D14*
%TO.C,R6*%
X189123400Y-61086800D03*
X191123400Y-61086800D03*
%TD*%
D19*
%TO.C,C1*%
X199758000Y-117542500D03*
X199758000Y-119617500D03*
%TD*%
D15*
%TO.C,R5*%
X210718000Y-104070000D03*
X208718000Y-104070000D03*
%TD*%
D20*
%TO.C,Q2*%
X188437200Y-55818800D03*
X188437200Y-57718800D03*
X186237200Y-56768800D03*
%TD*%
D10*
%TO.C,Q3*%
X199828000Y-98040000D03*
X199828000Y-99940000D03*
X197953000Y-98990000D03*
%TD*%
D17*
%TO.C,R9*%
X139720400Y-75733200D03*
X139720400Y-77733200D03*
%TD*%
%TO.C,R5*%
X197438600Y-55768800D03*
X197438600Y-57768800D03*
%TD*%
D21*
%TO.C,U4*%
X195663600Y-53670000D03*
X195663600Y-52400000D03*
X195663600Y-51130000D03*
X195663600Y-49860000D03*
X200613600Y-49860000D03*
X200613600Y-51130000D03*
X200613600Y-52400000D03*
X200613600Y-53670000D03*
%TD*%
D15*
%TO.C,R11*%
X187478000Y-107180000D03*
X185478000Y-107180000D03*
%TD*%
D10*
%TO.C,Q3*%
X193755600Y-39349400D03*
X193755600Y-41249400D03*
X191880600Y-40299400D03*
%TD*%
D22*
%TO.C,C4*%
X185460500Y-99390000D03*
X187535500Y-99390000D03*
%TD*%
D10*
%TO.C,Q1*%
X194058100Y-55742600D03*
X194058100Y-57642600D03*
X192183100Y-56692600D03*
%TD*%
D12*
%TO.C,U3*%
X208964700Y-52720000D03*
X208964700Y-53670000D03*
X208964700Y-54620000D03*
X206689700Y-54620000D03*
X206689700Y-52720000D03*
%TD*%
D17*
%TO.C,R6*%
X149728000Y-75530000D03*
X149728000Y-77530000D03*
%TD*%
D23*
%TO.C,C1*%
X201007700Y-33400800D03*
X197882700Y-33400800D03*
%TD*%
D24*
%TO.C,IC1*%
X151618000Y-64480000D03*
X150348000Y-64480000D03*
X149078000Y-64480000D03*
X147808000Y-64480000D03*
X146538000Y-64480000D03*
X145268000Y-64480000D03*
X143998000Y-64480000D03*
X142728000Y-64480000D03*
X141458000Y-64480000D03*
X140188000Y-64480000D03*
X138918000Y-64480000D03*
X137648000Y-64480000D03*
X136378000Y-64480000D03*
X135108000Y-64480000D03*
X133838000Y-64480000D03*
X132568000Y-64480000D03*
X131298000Y-64480000D03*
X130028000Y-64480000D03*
X128758000Y-64480000D03*
X128758000Y-47480000D03*
X130028000Y-47480000D03*
X131298000Y-47480000D03*
X132568000Y-47480000D03*
X133838000Y-47480000D03*
X135108000Y-47480000D03*
X136378000Y-47480000D03*
X137648000Y-47480000D03*
X138918000Y-47480000D03*
X140188000Y-47480000D03*
X141458000Y-47480000D03*
X142728000Y-47480000D03*
X143998000Y-47480000D03*
X145268000Y-47480000D03*
X146538000Y-47480000D03*
X147808000Y-47480000D03*
X149078000Y-47480000D03*
X150348000Y-47480000D03*
X151618000Y-47480000D03*
D25*
X145953000Y-58815000D03*
X144118000Y-58815000D03*
X142283000Y-58815000D03*
X142283000Y-56980000D03*
X142283000Y-55145000D03*
X144118000Y-55145000D03*
X145953000Y-55145000D03*
X145953000Y-56980000D03*
X144118000Y-56980000D03*
%TD*%
D15*
%TO.C,R4*%
X202578800Y-56413200D03*
X200578800Y-56413200D03*
%TD*%
D14*
%TO.C,R13*%
X189438000Y-117920000D03*
X191438000Y-117920000D03*
%TD*%
D26*
%TO.C,C3*%
X176638000Y-115650000D03*
X174563000Y-115650000D03*
%TD*%
D27*
%TO.C,D2*%
X173168000Y-105692500D03*
X173168000Y-108667500D03*
%TD*%
D28*
%TO.C,U1*%
X204968000Y-110710000D03*
X204968000Y-111980000D03*
X204968000Y-113250000D03*
X204968000Y-114520000D03*
X200018000Y-114520000D03*
X200018000Y-113250000D03*
X200018000Y-111980000D03*
X200018000Y-110710000D03*
%TD*%
D29*
%TO.C,C6*%
X211789600Y-52768700D03*
X211789600Y-49643700D03*
%TD*%
D17*
%TO.C,R8*%
X188726400Y-50384000D03*
X188726400Y-52384000D03*
%TD*%
D19*
%TO.C,C11*%
X200867600Y-44656900D03*
X200867600Y-46731900D03*
%TD*%
M02*
