%TF.GenerationSoftware,KiCad,Pcbnew,7.0.9*%
%TF.CreationDate,2023-11-13T19:29:17-05:00*%
%TF.ProjectId,SmartbikeALL,536d6172-7462-4696-9b65-414c4c2e6b69,rev?*%
%TF.SameCoordinates,Original*%
%TF.FileFunction,Paste,Bot*%
%TF.FilePolarity,Positive*%
%FSLAX46Y46*%
G04 Gerber Fmt 4.6, Leading zero omitted, Abs format (unit mm)*
G04 Created by KiCad (PCBNEW 7.0.9) date 2023-11-13 19:29:17*
%MOMM*%
%LPD*%
G01*
G04 APERTURE LIST*
G04 Aperture macros list*
%AMRoundRect*
0 Rectangle with rounded corners*
0 $1 Rounding radius*
0 $2 $3 $4 $5 $6 $7 $8 $9 X,Y pos of 4 corners*
0 Add a 4 corners polygon primitive as box body*
4,1,4,$2,$3,$4,$5,$6,$7,$8,$9,$2,$3,0*
0 Add four circle primitives for the rounded corners*
1,1,$1+$1,$2,$3*
1,1,$1+$1,$4,$5*
1,1,$1+$1,$6,$7*
1,1,$1+$1,$8,$9*
0 Add four rect primitives between the rounded corners*
20,1,$1+$1,$2,$3,$4,$5,0*
20,1,$1+$1,$4,$5,$6,$7,0*
20,1,$1+$1,$6,$7,$8,$9,0*
20,1,$1+$1,$8,$9,$2,$3,0*%
G04 Aperture macros list end*
%ADD10RoundRect,0.150000X0.587500X0.150000X-0.587500X0.150000X-0.587500X-0.150000X0.587500X-0.150000X0*%
%ADD11RoundRect,0.250000X-0.450000X0.350000X-0.450000X-0.350000X0.450000X-0.350000X0.450000X0.350000X0*%
%ADD12RoundRect,0.250000X0.350000X0.450000X-0.350000X0.450000X-0.350000X-0.450000X0.350000X-0.450000X0*%
%ADD13RoundRect,0.250001X-0.624999X0.462499X-0.624999X-0.462499X0.624999X-0.462499X0.624999X0.462499X0*%
%ADD14RoundRect,0.250000X0.337500X0.475000X-0.337500X0.475000X-0.337500X-0.475000X0.337500X-0.475000X0*%
%ADD15RoundRect,0.250000X0.450000X-0.350000X0.450000X0.350000X-0.450000X0.350000X-0.450000X-0.350000X0*%
%ADD16RoundRect,0.250000X-0.350000X-0.450000X0.350000X-0.450000X0.350000X0.450000X-0.350000X0.450000X0*%
%ADD17RoundRect,0.250000X-0.337500X-0.475000X0.337500X-0.475000X0.337500X0.475000X-0.337500X0.475000X0*%
%ADD18RoundRect,0.150000X0.825000X0.150000X-0.825000X0.150000X-0.825000X-0.150000X0.825000X-0.150000X0*%
%ADD19RoundRect,0.250000X-0.475000X0.337500X-0.475000X-0.337500X0.475000X-0.337500X0.475000X0.337500X0*%
%ADD20RoundRect,0.150000X-0.150000X0.725000X-0.150000X-0.725000X0.150000X-0.725000X0.150000X0.725000X0*%
%ADD21RoundRect,0.150000X0.512500X0.150000X-0.512500X0.150000X-0.512500X-0.150000X0.512500X-0.150000X0*%
%ADD22RoundRect,0.250000X-0.537500X-0.425000X0.537500X-0.425000X0.537500X0.425000X-0.537500X0.425000X0*%
%ADD23RoundRect,0.250000X0.412500X0.650000X-0.412500X0.650000X-0.412500X-0.650000X0.412500X-0.650000X0*%
%ADD24RoundRect,0.150000X-0.825000X-0.150000X0.825000X-0.150000X0.825000X0.150000X-0.825000X0.150000X0*%
%ADD25RoundRect,0.250000X-0.425000X0.537500X-0.425000X-0.537500X0.425000X-0.537500X0.425000X0.537500X0*%
%ADD26RoundRect,0.250000X0.650000X-0.412500X0.650000X0.412500X-0.650000X0.412500X-0.650000X-0.412500X0*%
%ADD27R,1.400000X1.000000*%
%ADD28R,2.000000X0.900000*%
%ADD29R,1.330000X1.330000*%
G04 APERTURE END LIST*
D10*
%TO.C,Q3*%
X193660000Y-36530000D03*
X193660000Y-38430000D03*
X191785000Y-37480000D03*
%TD*%
D11*
%TO.C,R7*%
X188420000Y-51760000D03*
X188420000Y-53760000D03*
%TD*%
D12*
%TO.C,R5*%
X204550000Y-42560000D03*
X202550000Y-42560000D03*
%TD*%
D13*
%TO.C,D2*%
X167000000Y-44182500D03*
X167000000Y-47157500D03*
%TD*%
D14*
%TO.C,C3*%
X170470000Y-54140000D03*
X168395000Y-54140000D03*
%TD*%
D15*
%TO.C,R4*%
X198740000Y-44560000D03*
X198740000Y-42560000D03*
%TD*%
D12*
%TO.C,R11*%
X181310000Y-45670000D03*
X179310000Y-45670000D03*
%TD*%
D16*
%TO.C,R13*%
X183270000Y-56410000D03*
X185270000Y-56410000D03*
%TD*%
D17*
%TO.C,C4*%
X179292500Y-37880000D03*
X181367500Y-37880000D03*
%TD*%
D16*
%TO.C,R6*%
X183220000Y-49260000D03*
X185220000Y-49260000D03*
%TD*%
D18*
%TO.C,U1*%
X198800000Y-49200000D03*
X198800000Y-50470000D03*
X198800000Y-51740000D03*
X198800000Y-53010000D03*
X193850000Y-53010000D03*
X193850000Y-51740000D03*
X193850000Y-50470000D03*
X193850000Y-49200000D03*
%TD*%
D10*
%TO.C,Q4*%
X193705000Y-42920000D03*
X193705000Y-44820000D03*
X191830000Y-43870000D03*
%TD*%
D19*
%TO.C,C1*%
X193590000Y-56032500D03*
X193590000Y-58107500D03*
%TD*%
D20*
%TO.C,U2*%
X171470000Y-44950000D03*
X172740000Y-44950000D03*
X174010000Y-44950000D03*
X175280000Y-44950000D03*
X175280000Y-50100000D03*
X174010000Y-50100000D03*
X172740000Y-50100000D03*
X171470000Y-50100000D03*
%TD*%
D11*
%TO.C,R8*%
X182558400Y-98874000D03*
X182558400Y-100874000D03*
%TD*%
D10*
%TO.C,Q3*%
X187587600Y-87839400D03*
X187587600Y-89739400D03*
X185712600Y-88789400D03*
%TD*%
D21*
%TO.C,U1*%
X200155100Y-76521200D03*
X200155100Y-77471200D03*
X200155100Y-78421200D03*
X197880100Y-78421200D03*
X197880100Y-76521200D03*
%TD*%
D22*
%TO.C,C10*%
X199967700Y-98248400D03*
X202842700Y-98248400D03*
%TD*%
D16*
%TO.C,R6*%
X182955400Y-109576800D03*
X184955400Y-109576800D03*
%TD*%
D10*
%TO.C,Q1*%
X187890100Y-104232600D03*
X187890100Y-106132600D03*
X186015100Y-105182600D03*
%TD*%
D23*
%TO.C,C1*%
X194839700Y-81890800D03*
X191714700Y-81890800D03*
%TD*%
D12*
%TO.C,R7*%
X184133200Y-95556000D03*
X182133200Y-95556000D03*
%TD*%
D24*
%TO.C,U4*%
X189495600Y-102160000D03*
X189495600Y-100890000D03*
X189495600Y-99620000D03*
X189495600Y-98350000D03*
X194445600Y-98350000D03*
X194445600Y-99620000D03*
X194445600Y-100890000D03*
X194445600Y-102160000D03*
%TD*%
D25*
%TO.C,C5*%
X191829400Y-75373300D03*
X191829400Y-78248300D03*
%TD*%
D19*
%TO.C,C11*%
X194699600Y-93146900D03*
X194699600Y-95221900D03*
%TD*%
D12*
%TO.C,R4*%
X196410800Y-104903200D03*
X194410800Y-104903200D03*
%TD*%
D15*
%TO.C,R10*%
X190889600Y-87285000D03*
X190889600Y-85285000D03*
%TD*%
D21*
%TO.C,U3*%
X202796700Y-101210000D03*
X202796700Y-102160000D03*
X202796700Y-103110000D03*
X200521700Y-103110000D03*
X200521700Y-101210000D03*
%TD*%
D26*
%TO.C,C6*%
X205621600Y-101258700D03*
X205621600Y-98133700D03*
%TD*%
D11*
%TO.C,R5*%
X191270600Y-104258800D03*
X191270600Y-106258800D03*
%TD*%
D15*
%TO.C,R9*%
X191042000Y-91476000D03*
X191042000Y-89476000D03*
%TD*%
D27*
%TO.C,Q2*%
X182269200Y-104308800D03*
X182269200Y-106208800D03*
X180069200Y-105258800D03*
%TD*%
D12*
%TO.C,R8*%
X142028000Y-35469600D03*
X140028000Y-35469600D03*
%TD*%
%TO.C,R9*%
X142078800Y-38873200D03*
X140078800Y-38873200D03*
%TD*%
D28*
%TO.C,IC1*%
X135170000Y-26986000D03*
X135170000Y-28256000D03*
X135170000Y-29526000D03*
X135170000Y-30796000D03*
X135170000Y-32066000D03*
X135170000Y-33336000D03*
X135170000Y-34606000D03*
X135170000Y-35876000D03*
X135170000Y-37146000D03*
X135170000Y-38416000D03*
X135170000Y-39686000D03*
X135170000Y-40956000D03*
X135170000Y-42226000D03*
X135170000Y-43496000D03*
X135170000Y-44766000D03*
X135170000Y-46036000D03*
X135170000Y-47306000D03*
X135170000Y-48576000D03*
X135170000Y-49846000D03*
X118170000Y-49846000D03*
X118170000Y-48576000D03*
X118170000Y-47306000D03*
X118170000Y-46036000D03*
X118170000Y-44766000D03*
X118170000Y-43496000D03*
X118170000Y-42226000D03*
X118170000Y-40956000D03*
X118170000Y-39686000D03*
X118170000Y-38416000D03*
X118170000Y-37146000D03*
X118170000Y-35876000D03*
X118170000Y-34606000D03*
X118170000Y-33336000D03*
X118170000Y-32066000D03*
X118170000Y-30796000D03*
X118170000Y-29526000D03*
X118170000Y-28256000D03*
X118170000Y-26986000D03*
D29*
X129505000Y-32651000D03*
X129505000Y-34486000D03*
X129505000Y-36321000D03*
X127670000Y-36321000D03*
X125835000Y-36321000D03*
X125835000Y-34486000D03*
X125835000Y-32651000D03*
X127670000Y-32651000D03*
X127670000Y-34486000D03*
%TD*%
D12*
%TO.C,R6*%
X141875600Y-28865600D03*
X139875600Y-28865600D03*
%TD*%
%TO.C,R7*%
X141926400Y-32116800D03*
X139926400Y-32116800D03*
%TD*%
M02*
